<svg width="101" height="40" viewBox="0 0 101 40" fill="none" xmlns="http://www.w3.org/2000/svg">
<path fill-rule="evenodd" clip-rule="evenodd" d="M65.5401 6H73.8451C73.5064 6.28911 73.2306 6.65493 73.0758 7.17416C71.9325 7.22726 70.784 7.39246 69.6411 7.68158C68.3599 8.00609 67.2457 8.79083 67.2457 10.142C67.2457 10.5786 67.3608 10.9916 67.556 11.3515L67.5446 11.0684L67.7168 10.9798C67.8719 10.8972 68.0385 10.8264 68.1992 10.7556C68.6129 10.5786 69.0436 10.4311 69.4742 10.3072C72.0016 9.57556 75.7235 9.57556 78.2506 10.3072C78.6812 10.4311 79.1122 10.5845 79.5255 10.7556C79.6866 10.8205 79.8532 10.8972 80.008 10.9798L80.1804 11.0684L80.169 11.3515C80.3643 10.9916 80.479 10.5786 80.479 10.142C80.479 8.79083 79.3648 7.99429 78.084 7.68158C76.8664 7.38657 75.6488 7.20955 74.4309 7.16825C74.6839 6.83784 75.0744 6.62543 75.465 6.41892C75.7121 6.28321 75.9588 6.15341 76.1828 6H82.185C83.0006 6 83.6666 6.68443 83.6666 7.52227V32.1205C83.6666 32.9584 83.0006 33.6428 82.185 33.6428H65.5401C64.7245 33.6428 64.0581 32.9584 64.0581 32.1205V7.52227C64.0523 6.68443 64.7186 6 65.5401 6ZM75.1031 17.9776C77.211 16.7444 78.1759 15.3224 78.2965 12.9682C77.4408 15.8476 76.1887 17.24 75.1031 17.9776ZM67.9926 14.2958C68.2912 18.426 72.6334 18.7741 73.8624 21.1106C75.0917 18.7741 79.4336 18.4201 79.7325 14.2958L79.8704 11.2512C76.901 9.66407 70.83 9.66407 67.8605 11.2512L67.9926 14.2958Z" fill="url(#paint0_linear_2422_149)"/>
<path fill-rule="evenodd" clip-rule="evenodd" d="M42.8412 6H59.4861C60.3018 6 60.9681 6.68443 60.9681 7.52227V32.1205C60.9681 32.9584 60.3018 33.6428 59.4861 33.6428H42.8412C42.0256 33.6428 41.3594 32.9584 41.3594 32.1205V7.52227C41.3594 6.68443 42.0256 6 42.8412 6ZM52.4962 24.9222C54.6041 23.689 55.569 22.267 55.6896 19.9128C54.8339 22.7922 53.5818 24.1847 52.4962 24.9222ZM45.2995 21.4646C45.5981 25.5948 49.9403 25.9488 51.1694 28.2795C52.3986 25.9429 56.7406 25.5889 57.0392 21.4646L57.1771 18.4201C54.208 16.8329 48.1368 16.8329 45.1674 18.4201L45.2995 21.4646ZM50.3826 14.343C49.2396 14.3961 48.0909 14.5613 46.9479 14.8504C45.667 15.1749 44.5528 15.9597 44.5528 17.3108C44.5528 17.7474 44.6677 18.1604 44.863 18.5204L44.8515 18.2372L45.0238 18.1487C45.1789 18.0661 45.3454 17.9952 45.5063 17.9245C45.9198 17.7474 46.3505 17.5999 46.7814 17.476C49.3085 16.7444 53.0304 16.7444 55.5576 17.476C55.9882 17.5999 56.4192 17.7533 56.8325 17.9245C56.9933 17.9894 57.1598 18.0661 57.315 18.1487L57.4875 18.2372L57.4761 18.5204C57.6713 18.1604 57.7861 17.7474 57.7861 17.3108C57.7861 15.9597 56.6718 15.1631 55.391 14.8504C54.1734 14.5554 52.9557 14.3784 51.7381 14.3371C51.9908 14.0066 52.3814 13.7942 52.7719 13.5878C53.6336 13.1216 54.472 12.6673 54.5754 11.3634C52.9787 11.5699 53.7829 11.4932 52.209 12.4903C51.4509 12.9033 50.6755 13.3223 50.3826 14.343Z" fill="url(#paint1_linear_2422_149)"/>
<path fill-rule="evenodd" clip-rule="evenodd" d="M20.1484 6H22.5434L22.6009 7.29216C22.8995 11.4224 27.2417 11.7705 28.4708 14.107C29.6999 11.7705 34.0421 11.4164 34.3408 7.29216L34.3982 6H36.7933C37.6089 6 38.2751 6.68443 38.2751 7.52227V32.1205C38.2751 32.9584 37.6089 33.6428 36.7933 33.6428H34.404L34.4786 32.0084C31.5091 30.4213 25.4382 30.4213 22.4688 32.0084L22.5434 33.6428H20.1484C19.3328 33.6487 18.6665 32.9584 18.6665 32.1205V7.52227C18.6665 6.68443 19.3328 6 20.1484 6ZM33.0197 6C32.1755 8.46042 31.0324 9.70537 30.0274 10.3839C31.9399 9.26285 32.9106 7.98249 33.1634 6H33.0197ZM27.6897 27.9372C26.5467 27.9903 25.398 28.1555 24.255 28.4447C22.9742 28.7692 21.8599 29.5539 21.8599 30.905C21.8599 31.3417 21.9748 31.7547 22.1701 32.1146L22.1586 31.8314L22.3309 31.7429C22.486 31.6603 22.6525 31.5895 22.8134 31.5187C23.2269 31.3417 23.6577 31.1942 24.0884 31.0702C26.6156 30.3387 30.3375 30.3387 32.8647 31.0702C33.2955 31.1942 33.7262 31.3476 34.1398 31.5187C34.3006 31.5836 34.4671 31.6603 34.6222 31.7429L34.7945 31.8314L34.7831 32.1146C34.9783 31.7547 35.0931 31.3417 35.0931 30.905C35.0931 29.5539 33.9789 28.7574 32.6981 28.4447C31.4805 28.1496 30.2628 27.9726 29.0452 27.9313C29.2979 27.6009 29.6884 27.3885 30.079 27.182C30.9406 26.7159 31.7791 26.2615 31.8825 24.9576C30.2858 25.1641 31.0899 25.0874 29.5162 26.0846C28.758 26.4917 27.9826 26.9106 27.6897 27.9372Z" fill="url(#paint2_linear_2422_149)"/>
<defs>
<linearGradient id="paint0_linear_2422_149" x1="82.703" y1="7.08376" x2="64.5835" y2="31.8228" gradientUnits="userSpaceOnUse">
<stop stop-color="#F8B900"/>
<stop offset="1" stop-color="#E67508"/>
</linearGradient>
<linearGradient id="paint1_linear_2422_149" x1="60.0097" y1="7.08382" x2="41.8897" y2="31.8228" gradientUnits="userSpaceOnUse">
<stop stop-color="#F8B900"/>
<stop offset="1" stop-color="#E67508"/>
</linearGradient>
<linearGradient id="paint2_linear_2422_149" x1="37.3161" y1="7.08376" x2="19.1961" y2="31.8228" gradientUnits="userSpaceOnUse">
<stop stop-color="#F8B900"/>
<stop offset="1" stop-color="#E67508"/>
</linearGradient>
</defs>
</svg>
