<svg width="101" height="41" viewBox="0 0 101 41" fill="none" xmlns="http://www.w3.org/2000/svg">
<path d="M98.4979 19.0452C98.7819 19.0056 99.0576 19.0275 99.3155 19.1545C99.6003 19.2947 99.8258 19.5489 99.9271 19.851C100.037 20.1775 100.009 20.5284 99.8547 20.8351C99.6769 21.1882 99.3797 21.3564 99.0192 21.476C98.746 21.5222 98.4576 21.4886 98.2085 21.3672C97.936 21.2344 97.7003 20.982 97.6029 20.694C97.4924 20.3653 97.4951 20.0233 97.6534 19.7089C97.8353 19.3473 98.1234 19.167 98.4979 19.0452ZM98.6686 19.2029C98.3489 19.2595 98.0847 19.3773 97.8927 19.6512C97.727 19.8874 97.6691 20.174 97.7226 20.4567C97.7766 20.7421 97.9503 20.9856 98.1898 21.1473C98.4137 21.2988 98.6604 21.3279 98.9248 21.3146C99.2612 21.2124 99.526 21.073 99.6963 20.7489C99.8313 20.4923 99.8527 20.1992 99.7649 19.924C99.6832 19.6663 99.4829 19.4409 99.2431 19.3197C99.0738 19.2342 98.8582 19.1873 98.6686 19.2029Z" fill="white"/>
<path d="M98.287 19.552C98.5147 19.5509 98.8184 19.5133 99.0349 19.5838C99.1318 19.6154 99.2366 19.7115 99.2796 19.8039C99.3235 19.8984 99.3271 20.0528 99.2901 20.15C99.2388 20.2859 99.1331 20.3501 99.0072 20.4029L98.9943 20.4082C98.9496 20.4861 99.295 20.8342 99.3082 20.9718L99.106 20.9772C98.9644 20.827 98.845 20.5993 98.7295 20.4241C98.6453 20.411 98.5701 20.4156 98.4859 20.4241L98.4714 20.9664L98.3084 20.9772C98.2478 20.8899 98.2867 19.7437 98.287 19.552ZM98.4788 19.7224V20.2433C98.6321 20.2449 98.8859 20.2797 99.0102 20.1842L99.0228 20.1748C99.0324 20.1671 99.0327 20.1657 99.0423 20.1555C99.1029 20.0528 99.1093 20.0364 99.104 19.9178C99.0505 19.8286 99.0234 19.7639 98.9145 19.7346C98.7891 19.7008 98.6091 19.7212 98.4788 19.7224Z" fill="white"/>
<path d="M24.9211 14.9883H27.0533V21.5013L25.5227 19.277L25.0672 18.6183C25.0305 18.5647 24.9388 18.4631 24.9211 18.4046C24.9064 18.3561 24.9211 18.2534 24.9211 18.1993V14.9883Z" fill="white"/>
<path d="M78.7036 14.9883H86.802V16.6101H83.8137V18.4764V21.4912H81.6862V16.6101H78.7036V14.9883Z" fill="white"/>
<path d="M87.3765 14.9883H89.4929V17.3066H93.9587V14.9883H96.0914V21.4753L95.9797 21.4912H93.9587V19.0347H89.4929V21.4912H87.3765V14.9883Z" fill="white"/>
<path d="M27.8027 14.9883H31.0979L35.0929 19.7242V14.9883H37.2253V21.4912H33.9274L29.9299 16.7519V21.4912H27.8027V14.9883Z" fill="white"/>
<path d="M40.109 14.9391L40.4843 14.921L42.82 14.9188C43.569 14.9191 44.3479 14.8767 45.0835 15.0392C45.4223 15.1141 45.7576 15.2393 46.007 15.489C46.4136 15.8956 46.3892 16.5212 46.3864 17.0514H44.264C44.2601 16.9556 44.2571 16.8563 44.2387 16.7622C44.2192 16.6634 44.1677 16.5697 44.0804 16.5157C43.7871 16.3344 43.3078 16.3805 42.9753 16.38L41.7102 16.3807C41.3508 16.3815 40.8961 16.3278 40.5515 16.4116C40.41 16.446 40.2736 16.4923 40.177 16.6088C40.0925 16.711 40.0788 16.8394 40.0906 16.9666C40.1054 17.1233 40.1474 17.2345 40.2947 17.3097C40.6465 17.4889 41.266 17.4431 41.6575 17.4438L43.845 17.4601C44.5411 17.4805 45.6007 17.475 46.1595 17.9405C46.5066 18.2295 46.6158 18.6303 46.6548 19.0649C46.7042 19.6195 46.7228 20.4683 46.3456 20.9132C45.8536 21.4932 44.9545 21.4908 44.2568 21.5481L40.5197 21.5595C39.8217 21.5536 38.845 21.5497 38.3259 21.016C37.8976 20.5759 37.942 19.9206 37.9478 19.3536H40.067L40.1054 19.6567C40.1315 19.7925 40.1998 19.9147 40.318 19.99C40.4336 20.0635 40.5559 20.0824 40.6893 20.0946C41.2871 20.1493 41.9316 20.1064 42.5346 20.1058L43.4417 20.1038C43.6444 20.103 43.8623 20.112 44.0604 20.0667C44.1836 20.0385 44.3364 19.9707 44.405 19.8598L44.4118 19.8482C44.4922 19.7171 44.4977 19.5741 44.4823 19.425C44.4659 19.2616 44.3877 19.1744 44.2409 19.1091C43.868 18.9431 43.2677 18.9717 42.8611 18.9681C41.8043 18.9587 39.1657 19.118 38.3849 18.4761C38.0954 18.2384 38.0016 17.8601 37.9698 17.5024C37.9163 16.8981 37.8921 16.0508 38.3009 15.5669C38.7201 15.0703 39.5037 14.9927 40.109 14.9391Z" fill="white"/>
<path d="M46.7427 14.9883H48.8295L50.3078 19.7802L52.0717 14.9883H54.041L55.8058 19.7749L57.2827 14.9883H59.364L59.057 15.8827L57.1222 21.4912H54.6757L53.055 17.1814L51.436 21.4912H48.996L46.7427 14.9883Z" fill="white"/>
<path d="M69.6118 14.9883L74.1432 14.9865C74.952 14.9866 75.8166 14.9264 76.6166 15.0272C76.8773 15.0601 77.1538 15.1485 77.3804 15.2826C77.7127 15.4795 77.9157 15.8064 78.0096 16.1746C78.1517 16.7326 78.1917 17.8446 77.8905 18.3421C77.6683 18.7089 77.2795 18.8437 76.8825 18.9392C77.1867 18.9823 77.4981 19.0822 77.7212 19.3024C78.2142 19.789 78.0661 20.8662 78.0661 21.4912H77.5396H75.9334C75.9354 21.0899 76.0363 20.2924 75.7408 19.9975C75.6185 19.8749 75.4643 19.8399 75.2991 19.8162C74.9312 19.7637 74.5111 19.8003 74.1375 19.8001L71.7442 19.8004V21.4912H69.6118V14.9883ZM71.7442 16.6101V18.1786L74.2963 18.1799C74.6689 18.1797 75.101 18.2215 75.4676 18.1686C75.6256 18.1457 75.7444 18.0973 75.8725 18.0027C76.0369 17.7388 76.0717 17.3741 76.002 17.0703C75.9716 16.9371 75.9027 16.8128 75.785 16.7378C75.5845 16.61 75.2788 16.6141 75.0481 16.6118L74.0362 16.6098L71.7442 16.6101Z" fill="white"/>
<path d="M61.8345 14.9407C62.6222 14.879 63.4398 14.9203 64.2308 14.9203C65.1354 14.9203 66.105 14.8483 66.9978 14.9927C67.4165 15.0604 67.8837 15.1893 68.2182 15.4618C68.6679 15.8274 68.8443 16.3358 68.9027 16.8975C68.9444 17.2992 68.9151 17.7332 68.9153 18.1383C68.9153 18.7181 68.9688 19.3516 68.8536 19.9192C68.7894 20.2334 68.6742 20.5243 68.4703 20.7742C67.9866 21.3677 67.1981 21.4773 66.4839 21.548L63.7526 21.5635C62.9767 21.5632 62.141 21.6223 61.3761 21.4974C60.9014 21.42 60.4471 21.2967 60.0687 20.9864C59.6303 20.6266 59.4709 20.0706 59.4215 19.5264C59.3834 19.1103 59.405 18.6774 59.4053 18.2594C59.4059 17.6782 59.3633 17.0465 59.4961 16.478C59.5644 16.1853 59.6871 15.9135 59.8808 15.6822C60.3549 15.1151 61.1415 15.0016 61.8345 14.9407ZM62.5221 16.621C62.2376 16.6769 61.9671 16.7501 61.7958 17.0031C61.5462 17.3726 61.5991 17.8823 61.5994 18.3072C61.5997 18.588 61.5862 18.8771 61.6408 19.154C61.6888 19.3956 61.7725 19.5809 61.9832 19.7202C62.1223 19.8122 62.3012 19.852 62.465 19.8697C63.0239 19.9302 63.6398 19.8832 64.205 19.883C64.7521 19.8827 65.3793 19.94 65.9162 19.8607C66.1835 19.8084 66.4011 19.7418 66.5602 19.5028C66.772 19.1851 66.7377 18.6769 66.7382 18.3081C66.7391 17.9958 66.7498 17.6807 66.6864 17.3734C66.6378 17.1392 66.5166 16.9254 66.3122 16.7936C66.1599 16.6955 65.9596 16.6392 65.7815 16.6165C65.2715 16.5516 64.7225 16.5932 64.2064 16.593C63.6555 16.5928 63.0651 16.5462 62.5221 16.621Z" fill="white"/>
<path d="M17.6195 9L32.8164 30.9492C27.612 27.1108 21.824 23.9615 15.5965 22.1386L14.0689 27.4575H4.78779L9.6428 20.5178L1.69971 19.1483C3.00229 18.7255 4.40322 18.5204 5.76077 18.3649C7.62096 18.1518 9.48878 18.0502 11.3608 18.0408L17.6195 9ZM17.4307 15.7361C17.3176 16.1324 16.5012 18.7636 16.5224 18.8991L18.7606 19.5159L19.4608 19.7625C19.437 19.6368 19.3435 19.4956 19.2854 19.3812L18.9077 18.6391L17.4307 15.7361Z" fill="#ED1C24"/>
</svg>
