<svg width="100" height="40" viewBox="0 0 100 40" fill="none" xmlns="http://www.w3.org/2000/svg">
<path d="M15.8152 12.0023C15.953 12.0022 16.0909 12.0012 16.2287 12.0001C17.0691 11.9971 17.9052 12.0516 18.724 12.2511C18.775 12.2632 18.8259 12.2754 18.8784 12.2878C19.9235 12.5423 20.8689 12.9207 21.6979 13.6171C21.734 13.6469 21.7701 13.6767 21.8073 13.7074C22.4367 14.2794 22.8567 15.1747 22.9313 16.0122C22.9745 17.799 22.0295 19.343 20.8392 20.6055C20.7018 20.7509 20.7018 20.7509 20.5857 20.9009C20.491 21.0182 20.3986 21.1108 20.2836 21.2074C20.1048 21.3596 19.9327 21.517 19.7614 21.6776C19.379 22.0269 18.9649 22.3341 18.5442 22.6355C18.513 22.6581 18.4818 22.6808 18.4497 22.7041C18.3014 22.8082 18.2319 22.8568 18.0463 22.8568C18.0746 22.6139 18.1534 22.5004 18.316 22.3208C18.9778 21.5378 19.4457 20.6058 19.7787 19.6409C19.7989 19.5835 19.7989 19.5835 19.8194 19.5249C20.2297 18.2766 20.179 16.8306 19.6127 15.6504C19.0416 14.5315 18.0303 13.7892 16.8585 13.3844C15.9009 13.0839 14.9493 13.0116 13.952 13.0638C13.8714 13.068 13.8714 13.068 13.7891 13.0723C10.9786 13.2383 8.14962 14.5521 6.23143 16.6237C5.08819 17.9235 4.5505 19.4181 4.65688 21.1417C4.80855 22.4071 5.5456 23.5455 6.53387 24.3239C8.57274 25.845 11.1522 26.3209 13.62 26.6191C13.6615 26.6242 13.7031 26.6293 13.7459 26.6345C16.3328 26.9466 19.0268 26.8545 21.6215 26.6848C21.8505 26.6721 22.0772 26.6703 22.3065 26.6745C22.2882 26.7475 22.27 26.8205 22.2512 26.8958C21.4138 27.0836 20.5755 27.2559 19.7303 27.4041C19.6737 27.4141 19.6737 27.4141 19.6159 27.4242C19.3902 27.4638 19.1643 27.5024 18.9382 27.54C18.8591 27.5533 18.78 27.5667 18.7009 27.5802C17.9968 27.7005 17.2913 27.7829 16.5806 27.8534C16.4033 27.871 16.226 27.8891 16.0487 27.9072C14.9902 28.0147 13.9466 28.068 12.8824 28.0679C12.685 28.068 12.4877 28.069 12.2903 28.0701C11.4372 28.0722 10.5959 28.0306 9.74706 27.947C9.70451 27.9429 9.66196 27.9389 9.61812 27.9347C6.57176 27.6417 3.31174 26.7961 1.22655 24.406C0.834951 23.9189 0.55556 23.3883 0.341301 22.8015C0.314413 22.7351 0.287524 22.6687 0.259822 22.6003C-0.134465 21.544 -0.0690326 20.2287 0.381716 19.2058C0.717982 18.478 1.16861 17.8464 1.7245 17.2687C1.74985 17.2416 1.77521 17.2146 1.80133 17.1867C4.56851 14.2366 9.05968 12.81 12.9561 12.2339C13.0677 12.2167 13.1794 12.1995 13.2911 12.1822C13.3915 12.1671 13.4919 12.152 13.5923 12.137C13.6349 12.1306 13.6775 12.1242 13.7213 12.1176C14.4167 12.019 15.114 12.0022 15.8152 12.0023Z" fill="#A6CE3A"/>
<path d="M38.4635 15.0292C38.507 15.0288 38.5504 15.0284 38.5952 15.0279C38.687 15.0273 38.7789 15.0272 38.8707 15.0274C39.0112 15.0275 39.1514 15.0252 39.2918 15.0227C39.3811 15.0224 39.4704 15.0223 39.5597 15.0223C39.6016 15.0214 39.6435 15.0205 39.6867 15.0195C39.893 15.0222 39.9891 15.0339 40.1402 15.1792C40.1707 15.2295 40.2011 15.2799 40.2325 15.3318C40.2593 15.374 40.2862 15.4161 40.3138 15.4596C40.3518 15.5256 40.3518 15.5256 40.3905 15.5928C40.4346 15.669 40.4346 15.669 40.4795 15.7466C40.5267 15.8288 40.5267 15.8288 40.5749 15.9127C40.6443 16.0327 40.7137 16.1526 40.7832 16.2726C40.8379 16.3673 40.8379 16.3673 40.8937 16.4639C41.0859 16.7961 41.2799 17.1273 41.4739 17.4584C41.4937 17.4921 41.5134 17.5258 41.5337 17.5605C41.8451 18.092 42.1603 18.621 42.4781 19.1486C42.7477 19.5965 43.0141 20.0463 43.2785 20.4974C43.3065 20.5449 43.3345 20.5925 43.3633 20.6415C43.4001 20.7044 43.4001 20.7044 43.4377 20.7685C43.4904 20.8624 43.4904 20.8624 43.5522 20.9199C43.5834 20.8654 43.5834 20.8654 43.6152 20.8098C44.0379 20.0721 44.4655 19.3383 44.9046 18.6103C45.1383 18.2224 45.3683 17.8326 45.5959 17.4411C45.8651 16.9781 46.1355 16.5157 46.408 16.0546C46.4471 15.9883 46.4863 15.9219 46.5254 15.8556C46.5799 15.763 46.6345 15.6706 46.6892 15.5782C46.7362 15.4987 46.7362 15.4987 46.7841 15.4176C46.813 15.371 46.842 15.3244 46.8719 15.2764C46.9048 15.2131 46.9048 15.2131 46.9384 15.1485C47.097 14.9996 47.278 15.0257 47.4839 15.0296C47.5275 15.0297 47.5711 15.0297 47.616 15.0298C47.7081 15.0301 47.8002 15.031 47.8922 15.0324C48.0332 15.0344 48.1741 15.0346 48.3151 15.0346C48.4046 15.0351 48.4941 15.0358 48.5836 15.0365C48.6469 15.0367 48.6469 15.0367 48.7114 15.0369C48.9202 15.0407 49.0178 15.0472 49.1956 15.1658C49.2165 15.3302 49.2165 15.3302 49.2167 15.5456C49.217 15.5851 49.2172 15.6246 49.2175 15.6653C49.2182 15.7984 49.2176 15.9314 49.2171 16.0645C49.2173 16.1597 49.2176 16.2548 49.218 16.3499C49.2188 16.6089 49.2185 16.8678 49.2179 17.1267C49.2175 17.3973 49.2179 17.6678 49.2182 17.9384C49.2185 18.3928 49.2181 18.8473 49.2173 19.3018C49.2164 19.8276 49.2167 20.3535 49.2176 20.8794C49.2183 21.3303 49.2184 21.7812 49.218 22.2322C49.2177 22.5017 49.2177 22.7713 49.2183 23.0409C49.2187 23.2943 49.2184 23.5478 49.2175 23.8012C49.2172 23.8944 49.2173 23.9875 49.2177 24.0807C49.2181 24.2076 49.2175 24.3345 49.2167 24.4614C49.2167 24.5325 49.2166 24.6036 49.2165 24.6769C49.1956 24.8482 49.1956 24.8482 49.1245 24.9541C48.954 25.0622 48.7531 25.0365 48.5574 25.0343C48.4882 25.0343 48.4882 25.0343 48.4175 25.0343C48.32 25.0342 48.2225 25.0337 48.1249 25.0328C47.9753 25.0315 47.8258 25.0316 47.6762 25.032C47.5815 25.0317 47.4868 25.0313 47.3921 25.0308C47.3472 25.0309 47.3023 25.0309 47.256 25.031C46.94 25.0269 46.94 25.0269 46.8165 24.9035C46.8045 24.7319 46.7993 24.565 46.7989 24.3932C46.7981 24.3139 46.7981 24.3139 46.7972 24.2329C46.7955 24.0575 46.7946 23.882 46.7936 23.7066C46.7926 23.5852 46.7915 23.4638 46.7904 23.3424C46.7875 23.0224 46.7853 22.7024 46.7833 22.3824C46.7811 22.0561 46.7783 21.7297 46.7755 21.4034C46.7701 20.7627 46.7654 20.122 46.7612 19.4814C46.711 19.5709 46.711 19.5709 46.6598 19.6623C46.615 19.742 46.5703 19.8216 46.5256 19.9013C46.5036 19.9405 46.4816 19.9797 46.459 20.0201C46.2588 20.3765 46.0512 20.7281 45.8414 21.079C45.6085 21.4696 45.3767 21.8608 45.15 22.2551C45.1315 22.2872 45.1131 22.3193 45.0941 22.3523C45.0066 22.5047 44.9193 22.6572 44.8323 22.8099C44.2611 23.8073 44.2611 23.8073 44.0501 24.0183C43.8785 24.0458 43.705 24.0413 43.5314 24.0425C43.4837 24.0443 43.4359 24.0461 43.3866 24.048C43.3404 24.0484 43.2942 24.0488 43.2466 24.0492C43.1833 24.0503 43.1833 24.0503 43.1188 24.0514C42.8438 23.9754 42.7083 23.6368 42.5712 23.406C42.552 23.3737 42.5327 23.3415 42.5129 23.3082C42.4715 23.2388 42.4302 23.1694 42.389 23.0999C42.2785 22.9134 42.1673 22.7274 42.0562 22.5413C42.0334 22.5031 42.0107 22.4649 41.9872 22.4256C41.7171 21.9729 41.443 21.5226 41.1688 21.0723C40.971 20.7471 40.7741 20.4215 40.5784 20.095C40.5557 20.0571 40.5329 20.0191 40.5095 19.98C40.454 19.8876 40.3986 19.7951 40.3432 19.7027C40.3428 19.7668 40.3425 19.8309 40.3422 19.8969C40.339 20.5002 40.335 21.1035 40.3301 21.7068C40.3276 22.0169 40.3255 22.3271 40.324 22.6373C40.3226 22.9365 40.3203 23.2356 40.3175 23.5348C40.3166 23.6491 40.316 23.7634 40.3156 23.8777C40.3151 24.0375 40.3136 24.1972 40.3118 24.357C40.3118 24.4045 40.3119 24.452 40.312 24.501C40.3069 24.8228 40.3069 24.8228 40.2165 24.9433C40.0516 25.0668 39.8498 25.0377 39.6516 25.0362C39.6055 25.0364 39.5595 25.0365 39.5121 25.0367C39.4148 25.0368 39.3175 25.0365 39.2202 25.0358C39.0712 25.0349 38.9222 25.0358 38.7732 25.0369C38.6787 25.0367 38.5842 25.0365 38.4897 25.0362C38.4451 25.0365 38.4005 25.0369 38.3545 25.0372C38.0496 25.0334 38.0496 25.0334 37.9246 24.9539C37.816 24.7928 37.8325 24.6567 37.8323 24.4639C37.8321 24.4245 37.8318 24.3852 37.8315 24.3447C37.8309 24.2125 37.8314 24.0804 37.8319 23.9482C37.8317 23.8536 37.8314 23.759 37.831 23.6644C37.8303 23.4072 37.8306 23.15 37.8311 22.8928C37.8315 22.624 37.8311 22.3551 37.8309 22.0863C37.8306 21.6347 37.831 21.1832 37.8318 20.7317C37.8327 20.2092 37.8324 19.6868 37.8315 19.1644C37.8307 18.7162 37.8306 18.2681 37.831 17.82C37.8313 17.5521 37.8313 17.2843 37.8308 17.0165C37.8303 16.7647 37.8306 16.513 37.8316 16.2612C37.8318 16.1686 37.8318 16.0761 37.8314 15.9836C37.8309 15.8575 37.8315 15.7315 37.8323 15.6054C37.8324 15.4995 37.8324 15.4995 37.8325 15.3914C37.8534 15.2211 37.8534 15.2211 37.9253 15.1156C38.0887 15.0106 38.2753 15.0292 38.4635 15.0292Z" fill="#A6CE3A"/>
<path d="M71.8796 15.0292C71.9229 15.0288 71.9662 15.0284 72.0108 15.0279C72.1024 15.0273 72.1941 15.0272 72.2857 15.0274C72.4255 15.0275 72.5651 15.0252 72.7049 15.0227C72.794 15.0224 72.8832 15.0223 72.9723 15.0223C73.0139 15.0214 73.0555 15.0205 73.0984 15.0195C73.3175 15.0224 73.4158 15.0441 73.587 15.1852C73.6262 15.2336 73.6654 15.2819 73.7058 15.3318C73.7535 15.3862 73.8012 15.4406 73.8504 15.4967C73.9003 15.5557 73.9501 15.6148 73.9997 15.6741C74.0265 15.7059 74.0532 15.7376 74.0807 15.7703C74.2688 15.9946 74.453 16.2217 74.6349 16.4511C74.7885 16.6438 74.9439 16.835 75.0994 17.0262C75.1301 17.064 75.1608 17.1018 75.1925 17.1407C75.2556 17.2183 75.3188 17.2959 75.3819 17.3736C75.5334 17.5597 75.6846 17.7459 75.8359 17.9322C75.8959 18.006 75.9558 18.0797 76.0157 18.1535C76.3754 18.5961 76.3754 18.5961 76.4654 18.7069C76.525 18.7802 76.5846 18.8536 76.6441 18.9269C76.7996 19.1181 76.9549 19.3094 77.1102 19.5008C77.1423 19.5404 77.1745 19.58 77.2076 19.6208C77.2686 19.696 77.3296 19.7712 77.3906 19.8464C77.4185 19.8807 77.4463 19.915 77.475 19.9504C77.4991 19.9801 77.5232 20.0098 77.5481 20.0404C77.6681 20.1868 77.7895 20.3319 77.9107 20.4773C77.9112 20.3791 77.9112 20.3791 77.9117 20.2788C77.9149 19.6625 77.9189 19.0462 77.9238 18.4299C77.9263 18.113 77.9284 17.7962 77.9299 17.4793C77.9313 17.1737 77.9336 16.868 77.9364 16.5624C77.9373 16.4456 77.9379 16.3288 77.9383 16.2121C77.9388 16.0489 77.9403 15.8857 77.9421 15.7225C77.942 15.6496 77.942 15.6496 77.9419 15.5753C77.9471 15.2444 77.9471 15.2444 78.0439 15.1257C78.1551 15.0367 78.2151 15.0341 78.3565 15.0337C78.4238 15.0329 78.4238 15.0329 78.4925 15.0321C78.5648 15.0326 78.5648 15.0326 78.6386 15.0331C78.7132 15.0328 78.7132 15.0328 78.7893 15.0326C78.8944 15.0325 78.9995 15.0328 79.1046 15.0335C79.2657 15.0344 79.4266 15.0335 79.5876 15.0324C79.6897 15.0325 79.7918 15.0328 79.8939 15.0331C79.9421 15.0328 79.9904 15.0324 80.0401 15.0321C80.085 15.0326 80.1298 15.0331 80.176 15.0337C80.2352 15.0339 80.2352 15.0339 80.2955 15.0341C80.4396 15.063 80.4791 15.1023 80.5665 15.2211C80.5874 15.3914 80.5874 15.3914 80.5876 15.6054C80.5878 15.6448 80.5881 15.6841 80.5883 15.7246C80.589 15.8568 80.5885 15.9889 80.588 16.1211C80.5882 16.2157 80.5885 16.3103 80.5888 16.4049C80.5896 16.6621 80.5893 16.9193 80.5888 17.1765C80.5884 17.4453 80.5887 17.7142 80.589 17.983C80.5893 18.4346 80.5889 18.8861 80.5881 19.3376C80.5872 19.8601 80.5875 20.3825 80.5884 20.9049C80.5892 21.3531 80.5893 21.8012 80.5888 22.2493C80.5886 22.5172 80.5886 22.785 80.5891 23.0528C80.5896 23.3046 80.5892 23.5563 80.5883 23.8081C80.5881 23.9007 80.5881 23.9932 80.5885 24.0857C80.5889 24.2118 80.5884 24.3378 80.5876 24.4639C80.5875 24.5345 80.5874 24.6051 80.5874 24.6779C80.5665 24.8482 80.5665 24.8482 80.4945 24.9537C80.3316 25.0584 80.146 25.0401 79.9583 25.0401C79.915 25.0405 79.8717 25.0409 79.827 25.0414C79.7354 25.042 79.6438 25.0421 79.5522 25.0419C79.4124 25.0418 79.2727 25.0441 79.1329 25.0466C79.0438 25.0469 78.9547 25.047 78.8656 25.047C78.824 25.0479 78.7823 25.0488 78.7395 25.0498C78.5229 25.0469 78.4227 25.0256 78.253 24.887C78.1931 24.813 78.1931 24.813 78.132 24.7375C78.1008 24.7019 78.0696 24.6662 78.0374 24.6294C78.0096 24.5954 77.9818 24.5613 77.9531 24.5262C77.9216 24.4877 77.8901 24.4493 77.8577 24.4098C77.825 24.3696 77.7923 24.3294 77.7586 24.288C77.7242 24.246 77.6898 24.204 77.6544 24.1607C77.586 24.0771 77.5177 23.9934 77.4494 23.9097C77.3349 23.7693 77.2199 23.6293 77.105 23.4892C76.8454 23.1715 76.5868 22.8531 76.3283 22.5346C76.2043 22.3818 76.0801 22.2292 75.9557 22.0768C75.645 21.6959 75.3377 21.3129 75.0357 20.925C74.8351 20.6689 74.6267 20.42 74.4135 20.1743C74.287 20.0275 74.1686 19.8779 74.0568 19.7198C74.0323 19.6854 74.0079 19.651 73.9828 19.6155C73.9644 19.5895 73.946 19.5635 73.9271 19.5367C73.9268 19.6029 73.9265 19.669 73.9261 19.7372C73.923 20.3601 73.9189 20.9829 73.9141 21.6057C73.9116 21.9259 73.9094 22.2461 73.908 22.5663C73.9065 22.8752 73.9043 23.1841 73.9015 23.493C73.9006 23.611 73.8999 23.729 73.8996 23.847C73.8991 24.0119 73.8975 24.1768 73.8957 24.3418C73.8958 24.3908 73.8959 24.4399 73.896 24.4905C73.8953 24.5354 73.8946 24.5803 73.8939 24.6266C73.8935 24.6851 73.8935 24.6851 73.8931 24.7448C73.8654 24.8794 73.8118 24.9294 73.7058 25.0142C73.6008 25.0352 73.6008 25.0352 73.4814 25.0356C73.4141 25.0364 73.4141 25.0364 73.3454 25.0372C73.273 25.0367 73.273 25.0367 73.1992 25.0362C73.1246 25.0364 73.1246 25.0364 73.0485 25.0367C72.9434 25.0368 72.8383 25.0365 72.7332 25.0358C72.5722 25.0349 72.4112 25.0358 72.2502 25.0369C72.1481 25.0367 72.046 25.0365 71.944 25.0362C71.8957 25.0365 71.8475 25.0369 71.7978 25.0372C71.7529 25.0367 71.708 25.0362 71.6618 25.0356C71.6027 25.0354 71.6027 25.0354 71.5423 25.0352C71.3982 25.0063 71.3587 24.967 71.2714 24.8482C71.2505 24.6779 71.2505 24.6779 71.2503 24.4639C71.25 24.4245 71.2498 24.3852 71.2495 24.3447C71.2488 24.2125 71.2494 24.0804 71.2499 23.9482C71.2497 23.8536 71.2494 23.759 71.249 23.6644C71.2483 23.4072 71.2486 23.15 71.2491 22.8928C71.2495 22.624 71.2491 22.3551 71.2488 22.0863C71.2485 21.6347 71.2489 21.1832 71.2497 20.7317C71.2506 20.2092 71.2503 19.6868 71.2494 19.1644C71.2487 18.7162 71.2486 18.2681 71.249 17.82C71.2493 17.5521 71.2493 17.2843 71.2488 17.0165C71.2483 16.7647 71.2486 16.513 71.2496 16.2612C71.2498 16.1686 71.2497 16.0761 71.2494 15.9836C71.2489 15.8575 71.2495 15.7315 71.2503 15.6054C71.2504 15.4995 71.2504 15.4995 71.2505 15.3914C71.2714 15.2211 71.2714 15.2211 71.3434 15.1156C71.5062 15.0109 71.6919 15.0292 71.8796 15.0292Z" fill="#A6CE3A"/>
<path d="M51.5829 15.0397C51.6519 15.0389 51.6519 15.0389 51.7222 15.0381C51.7717 15.0381 51.8211 15.0382 51.8721 15.0382C51.923 15.038 51.974 15.0377 52.0265 15.0375C52.1342 15.0372 52.2419 15.0371 52.3496 15.0374C52.5147 15.0376 52.6796 15.0363 52.8447 15.0349C52.9493 15.0347 53.0539 15.0347 53.1585 15.0347C53.2079 15.0342 53.2574 15.0337 53.3083 15.0332C53.3773 15.0337 53.3773 15.0337 53.4476 15.0342C53.4881 15.0342 53.5285 15.0342 53.5701 15.0341C53.7113 15.0615 53.754 15.1091 53.8432 15.2208C53.8638 15.3353 53.8638 15.3353 53.8637 15.4695C53.8641 15.5204 53.8645 15.5714 53.8649 15.6238C53.8644 15.6796 53.864 15.7354 53.8636 15.7929C53.8638 15.8518 53.864 15.9106 53.8642 15.9713C53.8645 16.0993 53.8645 16.2274 53.8642 16.3554C53.8637 16.5586 53.8642 16.7616 53.8651 16.9647C53.8673 17.5423 53.8674 18.1198 53.8673 18.6974C53.8673 19.0506 53.8683 19.4038 53.87 19.757C53.8706 19.9563 53.8699 20.1556 53.8692 20.3549C53.8697 20.4785 53.8703 20.6021 53.8709 20.7257C53.8704 20.7805 53.8698 20.8353 53.8693 20.8917C53.8753 21.4827 54.0511 22.0776 54.4518 22.5241C54.8661 22.8712 55.2132 22.922 55.7381 22.9253C55.7829 22.9264 55.8276 22.9275 55.8736 22.9287C56.4043 22.9321 56.7806 22.7894 57.1659 22.4236C57.32 22.2505 57.4136 22.0759 57.4948 21.8602C57.5165 21.8054 57.5382 21.7506 57.5605 21.6942C57.6672 21.3003 57.6691 20.9048 57.6695 20.4996C57.6698 20.4426 57.6701 20.3856 57.6704 20.3269C57.6709 20.2038 57.6714 20.0808 57.6718 19.9577C57.6725 19.7631 57.6735 19.5685 57.6747 19.3739C57.6781 18.8209 57.6812 18.2678 57.683 17.7147C57.6841 17.3759 57.6861 17.0371 57.6886 16.6983C57.6893 16.5692 57.6898 16.4401 57.69 16.311C57.6903 16.131 57.6916 15.951 57.6931 15.771C57.6928 15.6907 57.6928 15.6907 57.6926 15.6088C57.6935 15.5353 57.6935 15.5353 57.6944 15.4605C57.6946 15.4179 57.6948 15.3754 57.695 15.3316C57.7217 15.1914 57.7712 15.142 57.8821 15.0548C57.9871 15.0341 57.9871 15.0341 58.1065 15.0342C58.1738 15.0337 58.1738 15.0337 58.2425 15.0332C58.2907 15.0337 58.339 15.0342 58.3887 15.0347C58.4633 15.0347 58.4633 15.0347 58.5394 15.0347C58.6445 15.0348 58.7496 15.0353 58.8547 15.0362C59.0157 15.0376 59.1767 15.0374 59.3377 15.037C59.4398 15.0373 59.5419 15.0377 59.6439 15.0382C59.6922 15.0382 59.7404 15.0381 59.7901 15.0381C59.835 15.0386 59.8799 15.0391 59.9261 15.0397C59.9852 15.04 59.9852 15.04 60.0456 15.0404C60.1505 15.0548 60.1505 15.0548 60.3165 15.1655C60.3374 15.2734 60.3374 15.2734 60.3376 15.4081C60.3381 15.4591 60.3385 15.5101 60.339 15.5627C60.3385 15.6469 60.3385 15.6469 60.338 15.7329C60.3384 15.8214 60.3384 15.8214 60.3389 15.9117C60.3396 16.1081 60.3391 16.3044 60.3386 16.5007C60.3387 16.6374 60.3388 16.774 60.3391 16.9107C60.3393 17.2349 60.3387 17.5591 60.3379 17.8833C60.3371 18.2127 60.3379 18.542 60.3388 18.8714C60.3394 19.1542 60.3392 19.437 60.3387 19.7198C60.3386 19.8547 60.3388 19.9896 60.3391 20.1244C60.3424 21.574 60.1886 22.9072 59.1408 24.0041C58.6749 24.4503 58.1588 24.7492 57.5501 24.9586C57.4871 24.9804 57.4242 25.0022 57.3593 25.0247C56.0867 25.4137 54.4868 25.3033 53.309 24.6852C53.0427 24.5385 52.7968 24.3872 52.5706 24.184C52.5265 24.1456 52.4825 24.1072 52.437 24.0677C51.6412 23.3295 51.2474 22.2747 51.1769 21.2032C51.1728 21.0419 51.1718 20.881 51.1722 20.7198C51.1719 20.6594 51.1716 20.5991 51.1714 20.5369C51.1706 20.3398 51.1706 20.1428 51.1708 19.9458C51.1706 19.808 51.1703 19.6703 51.17 19.5326C51.1696 19.2453 51.1697 18.958 51.1699 18.6707C51.1702 18.3754 51.1698 18.0802 51.1688 17.7849C51.1676 17.4276 51.1671 17.0702 51.1674 16.7129C51.1673 16.5767 51.167 16.4406 51.1665 16.3045C51.1658 16.1151 51.1662 15.9258 51.1668 15.7364C51.1664 15.6799 51.166 15.6234 51.1655 15.5651C51.1659 15.5138 51.1663 15.4625 51.1667 15.4096C51.1667 15.3649 51.1667 15.3201 51.1667 15.274C51.1769 15.2203 51.1769 15.2203 51.1874 15.1655C51.3568 15.0526 51.392 15.0409 51.5829 15.0397Z" fill="#A6CE3A"/>
<path d="M82.9588 15.0407C83.0202 15.0403 83.0815 15.0399 83.1447 15.0395C83.2124 15.0396 83.28 15.0397 83.3497 15.0399C83.4562 15.0395 83.4562 15.0395 83.5648 15.039C83.7598 15.0383 83.9548 15.0383 84.1498 15.0384C84.3125 15.0385 84.4752 15.0382 84.6378 15.0379C85.0215 15.0373 85.4052 15.0373 85.7889 15.0376C86.185 15.038 86.5811 15.0373 86.9772 15.0361C87.3171 15.0351 87.6569 15.0348 87.9967 15.035C88.1998 15.0351 88.4028 15.0349 88.6059 15.0342C88.8323 15.0333 89.0587 15.0338 89.2851 15.0345C89.3526 15.0341 89.4202 15.0336 89.4897 15.0332C89.5513 15.0336 89.6128 15.034 89.6762 15.0344C89.7565 15.0344 89.7565 15.0344 89.8385 15.0344C89.9726 15.0551 89.9726 15.0551 90.0729 15.1278C90.1811 15.2813 90.1611 15.4519 90.1587 15.6328C90.1588 15.6928 90.1588 15.6928 90.1588 15.7541C90.1587 15.8386 90.1581 15.9231 90.1572 16.0076C90.1559 16.1372 90.1561 16.2667 90.1564 16.3962C90.1561 16.4783 90.1557 16.5604 90.1553 16.6425C90.1553 16.6814 90.1554 16.7202 90.1554 16.7602C90.1514 17.0341 90.1514 17.0341 90.028 17.1575C89.8713 17.168 89.7201 17.1715 89.5634 17.1701C89.4913 17.1701 89.4913 17.1701 89.4178 17.1702C89.2585 17.1701 89.0993 17.1692 88.94 17.1684C88.8297 17.1681 88.7195 17.168 88.6093 17.1679C88.3187 17.1675 88.0282 17.1664 87.7377 17.1651C87.4414 17.164 87.1451 17.1635 86.8488 17.163C86.2671 17.1618 85.6854 17.1598 85.1038 17.1575C85.1038 17.7601 85.1038 18.3626 85.1038 18.9834C85.299 18.9825 85.299 18.9825 85.4982 18.9816C85.9275 18.9798 86.3568 18.9786 86.7861 18.9776C87.0465 18.9771 87.3068 18.9763 87.5672 18.975C87.8183 18.9738 88.0694 18.9732 88.3205 18.9729C88.4165 18.9727 88.5125 18.9723 88.6084 18.9717C88.7425 18.9709 88.8766 18.9708 89.0106 18.9708C89.0706 18.9702 89.0706 18.9702 89.1317 18.9696C89.4067 18.9707 89.4067 18.9707 89.53 19.094C89.5404 19.2282 89.5442 19.356 89.5428 19.4902C89.5427 19.5292 89.5427 19.5682 89.5427 19.6084C89.5425 19.6909 89.5421 19.7733 89.5414 19.8558C89.5404 19.9824 89.5403 20.1091 89.5403 20.2357C89.54 20.3157 89.5397 20.3957 89.5393 20.4757C89.5392 20.5138 89.5392 20.5519 89.5391 20.5912C89.5364 20.8581 89.5364 20.8581 89.4747 20.9198C89.3383 20.9251 89.2035 20.9268 89.0672 20.9261C89.0245 20.9261 88.9819 20.9261 88.938 20.9262C88.7963 20.9261 88.6547 20.9257 88.5131 20.9253C88.4152 20.9251 88.3173 20.9251 88.2194 20.925C87.9612 20.9248 87.7029 20.9243 87.4447 20.9236C87.1351 20.923 86.8256 20.9227 86.516 20.9224C86.0453 20.9219 85.5745 20.9208 85.1038 20.9198C85.1038 21.5771 85.1038 22.2344 85.1038 22.9117C85.2594 22.9114 85.4149 22.9111 85.5752 22.9108C86.088 22.9099 86.6008 22.9093 87.1136 22.9088C87.4246 22.9085 87.7357 22.9081 88.0467 22.9075C88.3466 22.9069 88.6465 22.9066 88.9464 22.9064C89.0611 22.9063 89.1758 22.9061 89.2905 22.9058C89.4505 22.9054 89.6106 22.9053 89.7706 22.9054C89.8186 22.9052 89.8665 22.905 89.9158 22.9048C90.243 22.9053 90.243 22.9053 90.3046 22.967C90.3109 23.1092 90.3137 23.2498 90.3139 23.3921C90.3141 23.4347 90.3143 23.4774 90.3145 23.5213C90.3147 23.6117 90.3149 23.7021 90.3149 23.7924C90.315 23.931 90.316 24.0695 90.317 24.2081C90.3172 24.2957 90.3173 24.3834 90.3174 24.471C90.3177 24.5126 90.3181 24.5542 90.3186 24.5971C90.3173 24.8908 90.3173 24.8908 90.1939 25.0141C90.0631 25.028 90.0631 25.028 89.8957 25.0282C89.8324 25.0285 89.7691 25.0288 89.7039 25.0291C89.6341 25.0289 89.5643 25.0287 89.4924 25.0284C89.4184 25.0286 89.3445 25.0288 89.2705 25.029C89.0693 25.0295 88.8681 25.0293 88.6669 25.029C88.4567 25.0287 88.2464 25.029 88.0362 25.0291C87.6831 25.0293 87.3299 25.0291 86.9768 25.0285C86.5682 25.0279 86.1596 25.0281 85.7509 25.0287C85.4005 25.0292 85.0501 25.0293 84.6996 25.029C84.4901 25.0289 84.2807 25.0288 84.0712 25.0292C83.8743 25.0295 83.6774 25.0293 83.4805 25.0287C83.3734 25.0284 83.2664 25.0288 83.1594 25.0291C83.0961 25.0288 83.0328 25.0285 82.9676 25.0282C82.9123 25.0281 82.8571 25.0281 82.8002 25.028C82.6693 25.0141 82.6693 25.0141 82.5587 24.9035C82.5448 24.7381 82.5448 24.7381 82.5446 24.5212C82.5445 24.4814 82.5443 24.4417 82.5441 24.4007C82.5437 24.2667 82.544 24.1327 82.5444 23.9988C82.5442 23.903 82.544 23.8072 82.5438 23.7114C82.5433 23.4508 82.5435 23.1902 82.5438 22.9296C82.5441 22.6573 82.5438 22.385 82.5437 22.1127C82.5435 21.6554 82.5437 21.1981 82.5443 20.7408C82.5449 20.2115 82.5447 19.6822 82.5441 19.1528C82.5436 18.699 82.5435 18.2452 82.5438 17.7914C82.5439 17.5201 82.544 17.2488 82.5436 16.9774C82.5433 16.7224 82.5435 16.4674 82.5441 16.2123C82.5443 16.1185 82.5442 16.0247 82.544 15.9309C82.5437 15.8033 82.5441 15.6756 82.5446 15.548C82.5447 15.4764 82.5447 15.4049 82.5448 15.3311C82.5693 15.0397 82.7007 15.0412 82.9588 15.0407Z" fill="#A6CE3A"/>
<path d="M69.4456 15.6634C69.5177 15.838 69.5091 15.9172 69.4454 16.0952C69.4169 16.1513 69.3885 16.2073 69.3591 16.2651C69.2054 16.5786 69.0718 16.8944 68.9479 17.2209C68.8883 17.375 68.8446 17.4816 68.7263 17.5999C68.4874 17.5785 68.2744 17.4778 68.0555 17.3855C67.3735 17.1059 66.7308 16.9817 65.9945 16.9775C65.9213 16.9757 65.9213 16.9757 65.8467 16.974C65.4273 16.9715 64.9985 17.0254 64.6597 17.2921C64.4739 17.4826 64.3945 17.6304 64.3865 17.8973C64.3938 18.1092 64.4305 18.2551 64.5856 18.4119C65.0314 18.7327 65.6056 18.8332 66.1327 18.9465C68.8993 19.5463 68.8993 19.5463 69.6669 20.6429C69.9097 21.0774 69.9536 21.4702 69.9539 21.9604C69.9546 22.0082 69.9553 22.0561 69.956 22.1053C69.9576 22.833 69.6878 23.5154 69.1828 24.0421C67.9495 25.1768 66.3287 25.2357 64.7427 25.1798C63.7235 25.1107 62.5421 24.8223 61.7033 24.2174C61.6443 24.1286 61.6443 24.1286 61.659 24.0067C61.706 23.828 61.7729 23.6688 61.8484 23.5001C61.8779 23.4338 61.9074 23.3676 61.9378 23.2993C61.9532 23.2652 61.9686 23.2311 61.9845 23.1959C62.0318 23.0909 62.0786 22.9857 62.1254 22.8805C62.3557 22.366 62.3557 22.366 62.4189 22.3028C62.6842 22.3087 62.8607 22.381 63.0932 22.5068C63.3999 22.6675 63.7091 22.7746 64.0407 22.8733C64.1111 22.8944 64.1111 22.8944 64.1829 22.916C64.6622 23.0546 65.1169 23.0887 65.6141 23.0912C65.6706 23.0923 65.7271 23.0935 65.7853 23.0947C66.2464 23.097 66.8093 23.0558 67.1771 22.7454C67.3367 22.5033 67.3791 22.3138 67.3431 22.0261C67.193 21.707 66.995 21.5936 66.6792 21.4729C66.2646 21.3243 65.842 21.2225 65.4136 21.1236C62.7555 20.504 62.7555 20.504 62.0628 19.4326C61.707 18.7776 61.6636 18.0391 61.8172 17.3148C62.1035 16.3832 62.6956 15.7943 63.5255 15.3314C65.0504 14.5723 68.051 14.5461 69.4456 15.6634Z" fill="#A6CE3A"/>
<path d="M14.2283 16.3824C14.422 16.5396 14.6037 16.7054 14.7815 16.8803C14.8336 16.9314 14.8336 16.9314 14.8868 16.9834C15.3721 17.4973 15.6671 18.1363 15.8328 18.8168C15.8432 18.8583 15.8536 18.8998 15.8643 18.9426C16.0246 19.9599 15.8323 21.0115 15.2745 21.8819C15.0905 22.1325 14.89 22.3588 14.6709 22.5791C14.6158 22.6371 14.6158 22.6371 14.5596 22.6963C13.8828 23.3589 12.8883 23.7029 11.9564 23.7099C10.8452 23.6933 9.912 23.2823 9.11821 22.5069C8.23668 21.581 7.99774 20.5117 8.02613 19.2749C8.03624 19.039 8.07699 18.8217 8.14219 18.5955C8.15232 18.5518 8.16245 18.5082 8.17288 18.4632C8.42247 17.4834 9.14548 16.7272 9.9611 16.1749C11.2687 15.3989 12.9966 15.4855 14.2283 16.3824Z" fill="#A6CE39"/>
<path d="M91.8049 15.0344C91.8758 15.034 91.9466 15.0336 92.0196 15.0332C92.0982 15.0336 92.1769 15.034 92.2555 15.0345C92.3382 15.0344 92.4209 15.0341 92.5036 15.0339C92.7284 15.0334 92.9531 15.0339 93.1778 15.0346C93.4127 15.0352 93.6476 15.035 93.8826 15.0349C94.277 15.0349 94.6715 15.0355 95.066 15.0365C95.5225 15.0377 95.9789 15.0378 96.4354 15.0375C96.8741 15.0372 97.3128 15.0375 97.7514 15.0381C97.9384 15.0384 98.1253 15.0384 98.3122 15.0383C98.5321 15.0382 98.7521 15.0387 98.972 15.0395C99.0529 15.0398 99.1337 15.0398 99.2146 15.0397C99.3247 15.0395 99.4348 15.04 99.5448 15.0407C99.6065 15.0408 99.6682 15.0409 99.7318 15.041C99.8763 15.0551 99.8763 15.0551 99.9869 15.1657C99.9973 15.3119 100.001 15.4521 99.9997 15.5982C99.9997 15.6409 99.9996 15.6836 99.9996 15.7276C99.9995 15.8179 99.999 15.9081 99.9983 15.9984C99.9973 16.1371 99.9972 16.2757 99.9972 16.4144C99.9969 16.502 99.9966 16.5895 99.9962 16.6771C99.9962 16.7188 99.9961 16.7606 99.9961 16.8035C99.9934 17.0958 99.9934 17.0958 99.9316 17.1575C99.8399 17.1627 99.748 17.164 99.6562 17.1638C99.5974 17.1638 99.5387 17.1638 99.4783 17.1638C99.4144 17.1635 99.3505 17.1632 99.2848 17.163C99.2197 17.1629 99.1547 17.1628 99.0878 17.1627C98.8792 17.1624 98.6706 17.1617 98.462 17.161C98.3209 17.1607 98.1799 17.1605 98.0389 17.1602C97.6923 17.1596 97.3458 17.1587 96.9992 17.1575C96.9994 17.197 96.9995 17.2365 96.9997 17.2772C97.0034 18.2372 97.0061 19.1971 97.0078 20.1571C97.0087 20.6214 97.0099 21.0856 97.0118 21.5498C97.0134 21.9544 97.0145 22.3589 97.0149 22.7635C97.0151 22.9778 97.0156 23.192 97.0168 23.4063C97.0179 23.6079 97.0183 23.8095 97.018 24.0111C97.0181 24.1205 97.019 24.23 97.0199 24.3394C97.0197 24.4044 97.0194 24.4693 97.0192 24.5362C97.0193 24.5928 97.0195 24.6493 97.0197 24.7076C96.9992 24.8481 96.9992 24.8481 96.9217 24.9493C96.8089 25.0319 96.7428 25.0351 96.6037 25.0356C96.5348 25.0364 96.5348 25.0364 96.4644 25.0372C96.415 25.0368 96.3655 25.0365 96.3145 25.0362C96.2381 25.0364 96.2381 25.0364 96.1602 25.0366C96.0524 25.0368 95.9447 25.0365 95.837 25.0358C95.672 25.0349 95.507 25.0357 95.342 25.0368C95.2374 25.0367 95.1328 25.0365 95.0282 25.0362C94.9787 25.0365 94.9293 25.0368 94.8783 25.0372C94.8323 25.0367 94.7864 25.0361 94.739 25.0356C94.6986 25.0355 94.6582 25.0353 94.6165 25.0352C94.4735 25.007 94.432 24.9636 94.3435 24.8481C94.3231 24.7076 94.3231 24.7076 94.3235 24.5362C94.3233 24.4713 94.3231 24.4063 94.3228 24.3394C94.3234 24.2681 94.324 24.1968 94.3246 24.1233C94.3247 24.0475 94.3247 23.9717 94.3246 23.8959C94.3245 23.6901 94.3255 23.4842 94.3267 23.2784C94.3277 23.0633 94.3278 22.8481 94.328 22.633C94.3285 22.2257 94.3299 21.8183 94.3315 21.4109C94.3334 20.9472 94.3343 20.4834 94.3351 20.0196C94.3369 19.0656 94.3398 18.1116 94.3435 17.1575C94.2888 17.1579 94.2888 17.1579 94.2329 17.1583C93.8542 17.1607 93.4755 17.1624 93.0967 17.1636C92.9552 17.1642 92.8138 17.1649 92.6723 17.1659C92.4693 17.1672 92.2664 17.1679 92.0634 17.1684C91.968 17.1692 91.968 17.1692 91.8707 17.1701C91.812 17.1701 91.7533 17.1701 91.6929 17.1701C91.641 17.1704 91.5892 17.1706 91.5357 17.1709C91.4111 17.1575 91.4111 17.1575 91.3005 17.0469C91.2887 16.91 91.2836 16.7795 91.2838 16.6425C91.2836 16.6025 91.2833 16.5626 91.2831 16.5214C91.2828 16.4368 91.2827 16.3522 91.283 16.2676C91.2832 16.1381 91.2819 16.0087 91.2805 15.8793C91.2803 15.7971 91.2803 15.7149 91.2804 15.6328C91.2798 15.5941 91.2793 15.5553 91.2788 15.5154C91.2813 15.2493 91.2813 15.2493 91.3636 15.1278C91.5121 15.0228 91.624 15.0344 91.8049 15.0344Z" fill="#A7CE3B"/>
<path d="M32.1968 15.0195C32.5615 15.0233 32.5619 15.0235 32.7349 15.1777C32.8143 15.3236 32.888 15.4661 32.9527 15.6191C32.9778 15.678 33.0029 15.7372 33.0288 15.7979C33.0563 15.8633 33.0845 15.9287 33.1128 15.9961C33.1432 16.0673 33.1732 16.1387 33.2036 16.21C33.2551 16.3302 33.3067 16.4509 33.3579 16.5713C33.5948 17.1273 33.8368 17.682 34.0777 18.2363C34.1611 18.4285 34.2442 18.6213 34.3277 18.8135C34.6295 19.509 34.9317 20.2044 35.2349 20.8994C35.2903 21.0265 35.3456 21.1541 35.4009 21.2812C35.5913 21.7192 35.7831 22.1564 35.9771 22.5928C36.0816 22.8281 36.1857 23.0642 36.2896 23.2998C36.3402 23.4142 36.3918 23.5284 36.4429 23.6426C36.5139 23.8011 36.5839 23.9601 36.6538 24.1191C36.6753 24.1665 36.6971 24.2139 36.7193 24.2627C36.8596 24.5855 36.8592 24.5859 36.8491 24.79C36.8018 24.9035 36.8016 24.904 36.6909 25.0146C36.589 25.0294 36.5887 25.029 36.4634 25.0303C36.4164 25.031 36.3692 25.0325 36.3208 25.0332C36.2444 25.0334 36.2435 25.033 36.1655 25.0332C36.0876 25.0338 36.0871 25.0336 36.0073 25.0342C35.8968 25.0347 35.7858 25.0352 35.6753 25.0352C35.506 25.0354 35.3368 25.037 35.1675 25.0391C35.0602 25.0394 34.9526 25.0399 34.8452 25.04C34.7944 25.0408 34.7433 25.0412 34.6909 25.042C34.3427 25.0395 34.3424 25.04 34.2056 24.9248C34.1764 24.8598 34.1758 24.8592 34.146 24.793C34.1215 24.7389 34.0971 24.6847 34.0718 24.6289C34.0472 24.5662 34.022 24.5031 33.9966 24.4385C33.9834 24.405 33.9702 24.3714 33.9566 24.3369C33.9288 24.2661 33.901 24.195 33.8736 24.124C33.8314 24.0155 33.7885 23.9071 33.7456 23.7988C33.7186 23.7299 33.6915 23.6608 33.6646 23.5918C33.6401 23.5292 33.6165 23.4659 33.5913 23.4014C33.5381 23.2439 33.5376 23.244 33.5376 23.0781H29.1118C29.0936 23.1694 29.075 23.2605 29.0562 23.3545C29.0135 23.476 28.9682 23.5969 28.9214 23.7168C28.9083 23.7505 28.8949 23.7846 28.8814 23.8193C28.8537 23.89 28.8262 23.9607 28.7984 24.0312C28.7556 24.1396 28.7136 24.2488 28.6714 24.3574C28.6444 24.4262 28.6165 24.4947 28.5894 24.5635C28.5648 24.626 28.5405 24.6894 28.5152 24.7539C28.4477 24.904 28.447 24.9041 28.3364 25.0146C28.2365 25.029 28.2363 25.0285 28.1138 25.0293C28.0678 25.0298 28.0215 25.0307 27.9741 25.0312C27.9245 25.0312 27.8749 25.0313 27.8237 25.0312C27.7729 25.0315 27.7219 25.032 27.6694 25.0322C27.5615 25.0325 27.4531 25.0325 27.3452 25.0322C27.1797 25.0321 27.0137 25.0328 26.8482 25.0342C26.7434 25.0343 26.6385 25.0342 26.5337 25.0342C26.4841 25.0347 26.4344 25.0356 26.3833 25.0361C26.3372 25.0358 26.2911 25.0355 26.2437 25.0352C26.2031 25.0352 26.1624 25.0351 26.1206 25.0352C25.9814 25.0083 25.9313 24.9612 25.8472 24.8486C25.8452 24.4669 26.036 24.1339 26.1929 23.7939C26.2384 23.6934 26.2842 23.5928 26.3296 23.4922C26.3611 23.4225 26.3927 23.3529 26.4243 23.2832C26.5902 22.9172 26.7496 22.5477 26.9087 22.1787C26.9693 22.0384 27.0297 21.8981 27.0903 21.7578C27.1059 21.7218 27.1221 21.6856 27.1382 21.6484C27.3351 21.1932 27.5336 20.7388 27.7319 20.2842C28.0163 19.6324 28.3002 18.9803 28.5835 18.3281C28.771 17.8965 28.9582 17.4647 29.146 17.0332C29.2598 16.7717 29.3741 16.5099 29.4868 16.248C29.5563 16.0868 29.626 15.9257 29.6958 15.7646C29.7309 15.6825 29.7314 15.6824 29.7671 15.5986C29.7988 15.5258 29.7984 15.5252 29.8306 15.4512C29.8481 15.4104 29.8662 15.3692 29.8843 15.3271C30.0022 15.1096 30.1026 15.0349 30.3511 15.0322C30.4002 15.0313 30.4499 15.0302 30.5005 15.0293C30.5795 15.0293 30.5798 15.0293 30.6607 15.0293C30.7151 15.0289 30.7696 15.0288 30.8257 15.0283C30.9409 15.0277 31.0562 15.0271 31.1714 15.0273C31.3479 15.0274 31.5243 15.0259 31.7007 15.0234C31.8127 15.0231 31.9247 15.0225 32.0366 15.0225C32.0894 15.0216 32.1424 15.0205 32.1968 15.0195ZM31.2691 17.6006C31.1339 17.9389 30.9995 18.2777 30.8648 18.6162C30.7959 18.7894 30.7269 18.9626 30.6577 19.1357C30.5902 19.3046 30.5228 19.4736 30.4556 19.6426L30.3032 20.0234C30.2793 20.0838 30.2561 20.1426 30.2329 20.2012C30.1283 20.4638 30.1276 20.4638 29.9409 21.0859H32.7075C32.7075 20.9755 32.7076 20.9753 32.6685 20.8672C32.5857 20.6665 32.5032 20.4655 32.4234 20.2637C32.4017 20.2083 32.3809 20.1544 32.3599 20.1006C32.3371 20.0425 32.3146 19.9861 32.2925 19.9297C32.2572 19.8396 32.2577 19.8392 32.2232 19.751C32.1479 19.559 32.0718 19.3668 31.9966 19.1748C31.9445 19.0418 31.8925 18.9084 31.8403 18.7754C31.7004 18.4183 31.5604 18.0612 31.4204 17.7041C31.4067 17.669 31.3937 17.6346 31.3804 17.6006H31.2691Z" fill="#A6CE3A"/>
</svg>
