<svg width="100" height="40" viewBox="0 0 100 40" fill="none" xmlns="http://www.w3.org/2000/svg">
<g clip-path="url(#clip0_1789_25127)">
<path d="M96.1573 25.2931C93.5529 25.2931 92.1298 23.7936 92.1298 21.2973V16.2027H89.9733V13.8564H92.1755L92.9553 10.6735H94.9638V13.8564H99.9429L99.3355 16.2027H94.9638V20.8055C94.9638 22.225 95.3998 22.9003 96.7193 22.9003H99.3355V25.2931H96.1573ZM84.6916 19.5687C84.6916 17.531 83.1196 16.0428 81.1919 16.0428C79.3103 16.0428 77.8187 17.5194 77.8187 19.5687C77.8187 21.63 79.3103 23.1067 81.1919 23.1067C83.1196 23.1067 84.6916 21.618 84.6916 19.5687ZM85.1039 13.8564H87.5137V25.2931H85.1039L84.8058 23.6333C83.8423 24.8692 82.3972 25.5794 80.6979 25.5794C77.5552 25.5794 74.9965 23.1638 74.9965 19.5687C74.9965 16.0312 77.5433 13.5585 80.7216 13.5585C82.4196 13.5585 83.8542 14.2682 84.8058 15.5045L85.1039 13.8564ZM71.0465 16.2027C69.3366 16.2027 68.3964 17.2447 68.3964 18.9166V22.9691L72.5039 23.1067V25.2931H63.417V23.1067L65.5739 22.9691V16.1915L63.417 16.0428V13.8564H67.834L68.0526 15.4702C68.5568 14.3593 69.716 13.6505 71.2419 13.6505H73.2377V16.2027H71.0465ZM57.5161 19.5687C57.5161 17.531 55.9441 16.0428 54.0164 16.0428C52.1348 16.0428 50.6427 17.5194 50.6427 19.5687C50.6427 21.63 52.1348 23.1067 54.0164 23.1067C55.9441 23.1067 57.5161 21.618 57.5161 19.5687ZM57.9292 13.8564H60.3378V25.2931H57.9292L57.6303 23.6333C56.6668 24.8692 55.2213 25.5794 53.5232 25.5794C50.3797 25.5794 47.8214 23.1638 47.8214 19.5687C47.8214 16.0312 50.3678 13.5585 53.5461 13.5585C55.2437 13.5585 56.6787 14.2682 57.6303 15.5045L57.9292 13.8564ZM36.1256 19.5687C36.1256 21.618 37.7094 23.1067 39.6253 23.1067C41.5065 23.1067 42.9981 21.63 42.9981 19.5687C42.9981 17.5194 41.5065 16.0428 39.6253 16.0428C37.7094 16.0428 36.1256 17.531 36.1256 19.5687ZM36.1256 23.7816V27.9145L40.3024 28.0637V30.2621H31.2155V28.0637L33.3035 27.9261V13.8564H35.7124L36.0114 15.5162C36.9748 14.2798 38.4204 13.5585 40.1299 13.5585C43.3081 13.5585 45.8203 16.0312 45.8203 19.5687C45.8203 23.1638 43.2282 25.5794 40.0956 25.5794C38.4665 25.5794 37.0776 24.9268 36.1256 23.7816ZM20.8508 19.5687C20.8508 21.618 22.4229 23.1067 24.3387 23.1067C26.2201 23.1067 27.7233 21.63 27.7233 19.5687C27.7233 17.5194 26.2201 16.0428 24.3387 16.0428C22.4229 16.0428 20.8508 17.531 20.8508 19.5687ZM20.8508 23.7936V27.9145L25.0268 28.0637V30.2621H15.9402V28.0637L18.0168 27.9261V16.1915L15.8597 16.0428V13.8564H20.4264L20.7357 15.5162C21.6995 14.2682 23.1453 13.5585 24.8437 13.5585C28.0218 13.5585 30.5457 16.0312 30.5457 19.5687C30.5457 23.1638 27.9525 25.5794 24.8092 25.5794C23.1798 25.5794 21.8029 24.9268 20.8508 23.7936ZM11.2093 25.2931L10.4864 22.179H3.78623L3.06374 25.2931H-0.0571289L2.65059 14.6005H5.53024L4.36009 19.6719H9.91258L8.29526 12.6888H-0.0571289L0.574036 10.1813H10.6015L14.3875 25.2931H11.2093Z" fill="#FFCD00"/>
</g>
<defs>
<clipPath id="clip0_1789_25127">
<rect width="100" height="40" fill="white"/>
</clipPath>
</defs>
</svg>
