<svg width="100" height="40" viewBox="0 0 100 40" fill="none" xmlns="http://www.w3.org/2000/svg">
<g clip-path="url(#clip0_3345_31)">
<g clip-path="url(#clip1_3345_31)">
<mask id="mask0_3345_31" style="mask-type:luminance" maskUnits="userSpaceOnUse" x="0" y="7" width="101" height="26">
<path d="M100.5 7.53906H0.5V32.4612H100.5V7.53906Z" fill="white"/>
</mask>
<g mask="url(#mask0_3345_31)">
<path d="M70.2319 8.24256C71.2369 8.23164 72.2397 8.24558 73.245 8.24139C73.2079 8.95151 73.2222 9.93807 73.2173 10.6636L73.1154 31.3939L69.4596 31.3858C69.1792 30.2114 68.8444 29.0102 68.5453 27.8376L66.5864 20.1991C66.282 18.9891 65.9696 17.781 65.6497 16.5749C65.4609 15.849 65.2951 15.0651 65.0188 14.3741C65.0662 14.9678 65.0534 15.5879 65.0521 16.1849L65.0503 18.5743L65.0518 26.4716C65.045 27.7784 65.0459 29.0853 65.0546 30.3921C64.7774 30.2326 64.4235 30.1096 64.1294 29.9825C63.4428 29.6857 62.4658 29.3448 61.8403 28.9661C61.8039 27.3796 61.8338 25.7042 61.8347 24.1129L61.8366 16.0033C63.5148 13.6388 65.3444 11.2089 66.9699 8.82857C67.2378 10.0019 67.4652 11.258 67.7104 12.4429C68.1982 14.8321 68.7232 17.2137 69.2839 19.5868C69.4213 20.1581 69.6521 21.455 69.8933 21.8845C69.9182 21.4314 69.8976 20.7952 69.8973 20.331L69.8989 17.3941L69.9297 8.24998L70.2319 8.24256Z" fill="white"/>
<path d="M80.4217 7.58149C81.9168 7.40955 83.9199 8.02057 85.0068 9.09818C86.1921 10.273 86.1062 11.6648 86.1482 13.2064C86.1753 14.0698 86.1928 14.9335 86.1996 15.7974L82.7666 15.8041C82.7763 15.261 82.7576 14.6654 82.7495 14.1146C82.7298 13.4481 82.7672 12.8239 82.6311 12.1646C82.3588 10.8461 80.6566 10.6139 79.747 11.3676C79.214 11.8092 79.1844 12.859 79.1669 13.5224C79.1423 14.4379 79.161 15.3859 79.1619 16.3099L79.1594 24.635C79.1591 25.5069 79.0311 27.176 79.661 27.8497C80.4513 28.6946 82.4205 28.4566 82.6482 27.1498C82.7597 26.5113 82.7435 25.8847 82.7432 25.2316L82.7398 23.0146C82.7361 22.886 82.7295 22.8165 82.7576 22.6915C82.8501 22.6147 85.8485 22.6455 86.2021 22.6458C86.2196 23.5015 86.2492 24.514 86.214 25.3626C85.4414 26.3264 84.0616 27.644 83.1657 28.5573L81.3576 30.4038C81.1616 30.6026 80.1978 31.6379 79.9987 31.6286C79.046 31.572 77.9794 31.1255 77.247 30.516C75.3186 28.9113 75.537 26.3284 75.537 24.0753L75.5345 14.9701C75.5345 13.9202 75.4903 12.7412 75.6594 11.7178C75.8046 10.8403 76.2006 9.84898 76.7825 9.17354C77.7847 8.01112 78.971 7.7043 80.4217 7.58149Z" fill="white"/>
<path fill-rule="evenodd" clip-rule="evenodd" d="M13.0562 14.3281C13.0859 14.3428 13.0789 14.3485 13.1015 14.3894C13.1101 15.4163 13.1221 16.0063 12.7828 17.0094C12.4423 18.016 11.7876 18.8033 10.8243 19.2692C10.9487 19.3567 11.1815 19.4606 11.3244 19.5363C11.6396 19.7015 11.9293 19.9116 12.1848 20.16C13.1881 21.139 13.3818 22.4984 13.4672 23.8389C13.6317 26.421 13.692 29.8748 10.9873 31.1962C9.81498 31.769 8.72367 31.743 7.45835 31.7629L5.04205 31.7954L2.31397 31.7987L2.31394 24.7433C2.31385 24.4246 2.32564 24.0013 2.28467 23.6933C2.91851 23.0904 3.72483 22.4265 4.39567 21.8424L8.41162 18.3526L11.3565 15.7779C11.8865 15.3149 12.5051 14.7454 13.0562 14.3281ZM9.77947 22.9405C9.59034 21.0492 7.95075 21.1761 6.51934 21.2282L5.94788 21.2376C5.93526 23.6162 5.94015 25.9948 5.96249 28.3734C6.72034 28.3827 8.38215 28.5088 8.99738 28.1619C9.41744 27.8747 9.70676 27.5455 9.76473 27.0189C9.90888 25.7102 9.90966 24.2428 9.77947 22.9405Z" fill="white"/>
<path fill-rule="evenodd" clip-rule="evenodd" d="M0.544933 8.62413C2.51427 8.60133 4.49577 8.59681 6.45465 8.62535C9.3501 8.66758 11.1036 10.1732 11.2806 13.1193C11.3013 13.4649 11.4637 14.3028 11.221 14.5769C10.7856 15.0685 10.2187 15.4819 9.73636 15.9296C8.60982 16.9346 7.45857 17.908 6.3348 18.9164C4.41306 20.5967 2.47417 22.257 0.518479 23.8972C0.559186 22.601 0.518004 21.1338 0.517172 19.8258L0.517085 11.8848C0.517055 11.4727 0.465212 8.89031 0.544933 8.62413ZM6.52676 12.0631C6.02284 11.9499 5.45536 12.002 4.9425 12.0107L4.18636 12.0217L4.18131 18.0848C4.81717 18.1104 6.23683 18.185 6.76321 17.9188C7.1439 17.6907 7.42228 17.4511 7.5344 17.0018C7.74259 16.1673 7.79337 13.3351 7.37705 12.6538C7.18518 12.3399 6.88125 12.1427 6.52676 12.0631Z" fill="white"/>
<path d="M100.432 11.7246C100.503 11.8599 100.466 29.3293 100.469 31.0643C99.3346 31.0387 98.0216 31.0504 96.886 31.0725C96.9184 29.8415 96.8951 28.5191 96.8957 27.2824L96.8951 20.5841L93.0325 20.5868L93.0418 24.0466L93.0387 31.0714C91.9571 31.0249 90.5013 31.0485 89.4072 31.0655L89.4203 22.9925C89.8038 22.535 90.5004 21.8642 90.9315 21.4187L93.5402 18.7193C94.0237 18.2214 94.5549 17.704 95.0194 17.1938C95.6262 17.2013 96.2331 17.1974 96.8399 17.182C96.8446 16.645 96.8219 15.9015 96.8568 15.3866C97.3212 14.8313 97.986 14.2123 98.4985 13.6848C99.1309 13.0337 99.7839 12.3588 100.432 11.7246Z" fill="white"/>
<path d="M20.9652 8.32427C21.816 8.2925 22.7863 8.31353 23.6469 8.31272L28.269 8.31718C28.6541 8.71369 29.1926 9.10918 29.6143 9.47479C30.4656 10.2125 31.4008 10.9376 32.2432 11.6792C31.005 11.7125 29.6006 11.7114 28.3624 11.6936L28.3636 31.7526C27.162 31.7446 25.9604 31.7433 24.7588 31.7488L24.7644 11.6979C23.4975 11.6986 22.2303 11.693 20.9633 11.6809C20.9408 10.5941 20.9562 9.41082 20.9652 8.32427Z" fill="white"/>
<path d="M19.111 8.97266L19.1257 8.98687C19.1997 9.2039 19.1468 13.1903 19.147 13.7331L19.143 31.725C18.7964 31.7208 15.6276 31.7347 15.5575 31.6951L15.5369 31.6017C15.5733 29.3678 15.5324 26.995 15.5317 24.7498L15.5374 12.0836C15.6243 11.9942 15.724 11.9036 15.8168 11.8199C16.8938 10.8481 18.0419 9.95285 19.111 8.97266Z" fill="white"/>
<path d="M33.8057 13.0215C34.0963 13.1289 36.9007 15.4839 37.3792 15.8753C37.3873 16.8751 37.3873 17.875 37.3795 18.8748C38.5166 18.9637 39.4244 18.9842 40.4331 18.3713C40.6244 18.5837 40.8483 18.7607 41.0698 18.9397C41.7739 19.5091 42.4664 20.0961 43.1923 20.6373C43.1032 20.7342 43.0128 20.8298 42.9209 20.9239C41.4957 22.3691 39.2515 22.2115 37.3792 22.2125C37.3605 22.8399 37.3786 23.5832 37.3789 24.2191C37.3782 26.0062 37.392 27.815 37.3714 29.6004C37.1119 29.7035 36.7094 29.8113 36.4356 29.9014C35.572 30.1854 34.6923 30.4134 33.8128 30.6404C33.7664 29.1679 33.8069 27.4536 33.8066 25.9628L33.8078 17.7165C33.8088 16.1638 33.8293 14.5701 33.8057 13.0215Z" fill="white"/>
<path d="M35.3247 8.2422L35.7898 8.23765L39.1131 8.23251C39.9916 8.23251 41.3125 8.18895 42.1275 8.38961C42.9137 8.5757 43.6349 8.97428 44.2128 9.54237C45.5318 10.8629 45.6935 12.345 45.6975 14.0951C45.6963 14.7902 45.6885 15.4852 45.6754 16.1801C45.6471 17.8473 45.6047 19.3209 44.3524 20.5873C43.696 20.0656 43.0296 19.4926 42.3695 18.9596C42.1944 18.7888 41.7966 18.4766 41.5907 18.2962C42.3181 17.2344 42.0421 13.953 41.8723 12.6498C41.7003 11.3321 39.5648 11.5994 38.5907 11.5993C38.5773 13.0039 38.5751 14.4085 38.5845 15.8131C37.3689 14.8636 36.1785 13.8303 34.981 12.8493L34.986 9.75356C34.9854 9.53142 34.9667 8.45651 35.0053 8.28836C35.0817 8.23137 35.2243 8.24331 35.3247 8.2422Z" fill="white"/>
<path d="M47.5422 8.19897C48.7429 8.19047 49.9432 8.18913 51.1435 8.19496L51.1479 26.0892C49.9042 25.1073 48.7606 24.1233 47.5419 23.1313C47.5201 21.4033 47.5401 19.6326 47.5401 17.9025L47.5422 8.19897Z" fill="white"/>
<path d="M88.3768 7.93379C89.5768 7.92763 90.7768 7.92841 91.9771 7.93612L91.9765 14.0051C91.9765 15.0974 92.0051 16.337 91.9655 17.4195C92.6472 17.4159 93.3285 17.4202 94.0101 17.4323L91.2191 20.2732C90.2631 21.2286 89.3138 22.1907 88.3711 23.1595L88.3699 13.567C88.369 11.7278 88.3316 9.7593 88.3768 7.93379Z" fill="white"/>
<path d="M55.3227 8.24095C56.3031 8.21965 57.3168 8.24637 58.3034 8.23509L58.2996 15.5228L58.304 17.8353C58.3046 18.219 58.3199 18.7929 58.2887 19.158C57.6713 20.0932 56.8722 21.1194 56.1875 22.0133C55.8143 22.5041 55.2379 23.33 54.852 23.7697C54.8738 21.9949 54.8532 20.1803 54.8532 18.4021L54.8501 8.25038L55.3227 8.24095Z" fill="white"/>
<path d="M95.8606 7.93664C97.0314 7.90388 98.3067 7.92931 99.4862 7.92958C99.5011 8.94846 99.4843 9.97341 99.4912 10.9928C99.4934 11.2986 99.503 11.6828 99.4709 11.9808C98.9074 12.5027 98.2223 13.2627 97.6581 13.832C97.0694 14.4547 96.4684 15.0659 95.856 15.6653C95.8949 13.1245 95.7921 10.4565 95.8606 7.93664Z" fill="white"/>
<path d="M59.1984 18.957C59.2046 18.9624 59.2115 18.9669 59.2168 18.973C59.304 19.0748 59.2501 25.2838 59.2208 26.0732C59.1996 26.6495 59.1386 27.2235 59.0834 27.7973C58.4002 27.4604 57.5314 27.1073 56.8255 26.7978C56.4881 26.6466 56.0435 26.4643 55.7495 26.2595C55.6915 25.4611 55.7199 24.3925 55.7196 23.5802C56.8295 22.0007 58.0572 20.5003 59.1984 18.957Z" fill="white"/>
<path d="M61.0122 8.24195C62.82 8.23011 64.6275 8.23214 66.4352 8.24812C65.4007 9.70057 64.2975 11.1123 63.2337 12.5458C62.4683 13.5512 61.7063 14.6692 60.9106 15.644C60.9614 13.9423 60.8854 12.209 60.9156 10.5073C60.9206 10.2132 60.8851 8.41883 60.9362 8.27627L61.0122 8.24195Z" fill="white"/>
<path d="M48.8634 26.8945L48.9341 26.9053C49.046 27.0842 48.955 28.329 49.384 28.7899C49.7924 29.2282 49.9818 29.3367 50.5939 29.4219C50.1528 30.1904 49.7497 30.9671 49.3248 31.7443C49.0927 32.1695 48.9865 32.3006 48.5404 32.4441C48.1921 32.3587 47.893 32.1988 47.5927 32.0079C46.8232 31.4841 46.2634 30.8518 45.9076 29.9639C45.7142 29.4115 45.3996 28.5764 45.483 27.9944C45.5083 27.8188 46.2731 27.6461 46.455 27.5845C47.226 27.3233 48.1092 27.1877 48.8634 26.8945Z" fill="white"/>
<path d="M87.2013 25.3984C87.2823 25.5088 87.234 26.255 87.2281 26.4154C87.1483 28.5345 86.0757 30.483 83.9894 31.1591C83.0661 31.4584 82.3682 31.4493 81.4119 31.3909L81.3729 31.371L81.3701 31.3193C81.4885 31.1588 81.7854 30.889 81.9421 30.7327L83.0306 29.6366L87.2013 25.3984Z" fill="white"/>
<path d="M51.7074 28.7168C52.2959 28.6662 52.7488 28.3928 53.2725 28.8298C53.9681 29.4101 54.7146 30.0198 55.4161 30.6028C55.503 30.6752 55.7136 30.8071 55.7666 30.8723L55.7476 30.9231C55.66 30.907 55.5202 30.7911 55.479 30.8313C55.2822 31.0245 55.0896 31.1937 54.8498 31.3323C53.3834 32.1809 51.627 32.2576 50.0208 31.8498L49.998 31.7072C50.2264 31.2486 51.4479 28.9809 51.7074 28.7168Z" fill="white"/>
<path d="M54.8252 26.6152C54.899 26.6602 55.0423 26.7525 55.1152 26.7909C55.4463 26.9655 58.2021 28.0576 58.2828 28.2216C58.2323 28.3071 58.1386 28.3466 58.0491 28.3986C57.8949 29.1432 57.3974 29.9397 56.9167 30.5155C56.8401 30.6053 56.7569 30.7169 56.6551 30.7705C56.5653 30.7278 56.6361 30.6778 56.613 30.6373C56.5691 30.5597 56.3828 30.4155 56.3199 30.3635L54.6034 28.9494C54.4666 28.8383 53.8392 28.3481 53.77 28.2589L53.8121 28.2386C53.96 28.2537 53.9921 28.2792 54.1211 28.3586C54.5906 27.7945 54.7376 27.3559 54.8252 26.6152Z" fill="white"/>
<path d="M18.0153 8.63772L18.0324 8.67252C17.9101 8.85538 16.384 10.1548 16.1139 10.3827C15.3742 11.0067 14.584 11.7396 13.8399 12.3477C13.7471 12.2237 13.7955 9.13703 13.7941 8.656C15.1736 8.5988 16.6527 8.69253 18.0153 8.63772Z" fill="white"/>
<path d="M46.4655 23.291C46.535 23.3279 47.1955 23.8875 47.3029 23.9748C48.2198 24.7173 49.1307 25.4671 50.036 26.2241C49.7677 26.3103 49.4307 26.3907 49.1546 26.4646C48.2478 26.7149 47.3441 26.9743 46.4422 27.2427C46.4475 25.9296 46.4244 24.6029 46.4655 23.291Z" fill="white"/>
<path d="M29.3198 8.26198C29.6172 8.23033 30.3073 8.24621 30.6371 8.24589L33.2923 8.25115C33.2808 9.31927 33.2764 10.3874 33.2789 11.4556L33.2207 11.4575C33.0372 11.3564 29.4358 8.41137 29.3198 8.26198Z" fill="white"/>
<path d="M36.3092 30.373L36.3438 30.4046C36.3768 30.8895 36.331 31.8773 36.336 32.415C35.2354 32.3847 33.9522 32.3953 32.8491 32.4153L32.8058 32.3941C32.7715 32.2873 32.7793 31.4961 32.7787 31.3414L36.3092 30.373Z" fill="white"/>
<path d="M60.9391 29.3223C61.1743 29.4136 61.6192 29.6381 61.8656 29.7504L64.1397 30.7978C64.1291 31.0814 64.1298 31.3742 64.1273 31.6587C63.0846 31.6783 61.9581 31.6676 60.9145 31.6577L60.9142 30.1669C60.9145 29.964 60.9067 29.5072 60.9391 29.3223Z" fill="white"/>
<path d="M50.0209 31.8505C49.8797 31.819 49.7324 31.7959 49.6084 31.7226L49.6112 31.6927C49.7517 31.6645 49.8579 31.6879 49.9981 31.7079L50.0209 31.8505Z" fill="white"/>
</g>
</g>
</g>
<defs>
<clipPath id="clip0_3345_31">
<rect width="100" height="40" fill="white"/>
</clipPath>
<clipPath id="clip1_3345_31">
<rect width="100" height="24.9221" fill="white" transform="translate(0.5 7.53906)"/>
</clipPath>
</defs>
</svg>
