<svg width="101" height="31" viewBox="0 0 101 31" fill="none" xmlns="http://www.w3.org/2000/svg">
<path d="M27.4115 23.589H32.0259V29.0661C31.3593 29.5498 30.6534 29.9093 29.9017 30.1249C29.1501 30.3472 28.3658 30.4517 27.5488 30.4517C26.4834 30.4517 25.5096 30.2818 24.6338 29.9485C23.7579 29.6151 23.0063 29.1511 22.3854 28.5629C21.7645 27.9746 21.2808 27.2753 20.941 26.4648C20.6011 25.6544 20.4312 24.772 20.4312 23.8243C20.4312 22.857 20.5946 21.9681 20.9148 21.1576C21.2351 20.3472 21.6926 19.6478 22.2874 19.0596C22.8821 18.4714 23.6076 18.0138 24.4508 17.687C25.2939 17.3602 26.2416 17.1968 27.2874 17.1968C27.8298 17.1968 28.3331 17.2426 28.8102 17.3276C29.2874 17.4191 29.7253 17.5367 30.124 17.6936C30.5227 17.8504 30.8887 18.0334 31.222 18.2426C31.5553 18.4583 31.8495 18.687 32.1109 18.9354L31.2416 20.2622C31.1044 20.4714 30.9279 20.5955 30.7122 20.6478C30.4965 20.6936 30.2612 20.6413 30.0129 20.4844C29.7776 20.3406 29.5488 20.2164 29.3396 20.1119C29.1305 20.0073 28.9148 19.9223 28.6926 19.857C28.4704 19.7916 28.2416 19.7459 27.9998 19.7132C27.7579 19.6805 27.4834 19.6674 27.1828 19.6674C26.6207 19.6674 26.1109 19.7655 25.6599 19.9681C25.2089 20.1642 24.8233 20.4452 24.5096 20.8112C24.1893 21.1707 23.9475 21.6086 23.7776 22.1184C23.6076 22.6282 23.5227 23.1903 23.5227 23.8112C23.5227 24.4975 23.6207 25.1119 23.8102 25.6478C23.9998 26.1838 24.2678 26.6348 24.6142 27.0008C24.9606 27.3668 25.3789 27.6478 25.8625 27.8439C26.3462 28.0334 26.8821 28.1315 27.4704 28.1315C27.8298 28.1315 28.1632 28.0988 28.4573 28.0269C28.7514 27.955 29.039 27.8635 29.3135 27.7393V25.772H28.0325C27.8429 25.772 27.6926 25.7197 27.588 25.6217C27.4834 25.5236 27.4246 25.3929 27.4246 25.2361V23.589H27.4115ZM45.4834 30.308H43.1501C42.8887 30.308 42.6795 30.2491 42.5161 30.1249C42.3527 30.0008 42.2351 29.8504 42.1501 29.6544L41.3854 27.3929H36.4508L35.6926 29.6609C35.6272 29.8243 35.5096 29.9746 35.3396 30.1119C35.1697 30.2426 34.9606 30.3145 34.7122 30.3145H32.3593L37.3789 17.3406H40.4638L45.4834 30.308ZM40.7057 25.3537L39.503 21.8047C39.4115 21.5825 39.32 21.3145 39.2155 21.0073C39.1174 20.7001 39.0128 20.3733 38.9148 20.0138C38.8233 20.3733 38.7318 20.7132 38.6272 21.0204C38.5292 21.3276 38.4312 21.5955 38.3396 21.8243L37.1566 25.3537H40.7057ZM61.0913 17.3406V30.3145H58.4377V22.8504C58.4377 22.6805 58.4442 22.491 58.4508 22.2883C58.4573 22.0857 58.4769 21.8831 58.4965 21.674L55.0521 28.3406C54.9475 28.5498 54.8037 28.7066 54.6207 28.8112C54.4377 28.9158 54.2351 28.9746 53.9998 28.9746H53.588C53.3593 28.9746 53.1501 28.9223 52.9671 28.8112C52.7841 28.7066 52.6403 28.5498 52.5357 28.3406L49.0913 21.6544C49.1109 21.87 49.124 22.0792 49.137 22.2818C49.1501 22.4844 49.1566 22.674 49.1566 22.8439V30.3014H46.503V17.3406H48.7972C48.9279 17.3406 49.039 17.3406 49.137 17.3472C49.2351 17.3537 49.32 17.3733 49.3985 17.3995C49.4769 17.4256 49.5423 17.4779 49.6076 17.5367C49.673 17.6021 49.7318 17.687 49.7906 17.7981L53.1436 24.3798C53.2612 24.6086 53.3789 24.8374 53.4834 25.0857C53.5946 25.3276 53.6991 25.5759 53.7972 25.8308C53.8952 25.5694 54.0063 25.3145 54.1109 25.0661C54.222 24.8178 54.3396 24.5825 54.4638 24.3537L57.7906 17.7981C57.8494 17.687 57.9083 17.5955 57.9736 17.5367C58.039 17.4714 58.1044 17.4256 58.1828 17.3995C58.2612 17.3668 58.3462 17.3537 58.4442 17.3472C58.5423 17.3406 58.6534 17.3406 58.7841 17.3406H61.0913ZM66.6272 19.6544V22.6805H70.7057V24.9093H66.6272V28.0008H71.954V30.3145H63.6011V17.3406H71.954V19.6544H66.6272ZM80.9736 19.9746C80.8821 20.1184 80.7906 20.223 80.6926 20.2949C80.5945 20.3668 80.4704 20.3995 80.3135 20.3995C80.1762 20.3995 80.0325 20.3537 79.8756 20.2687C79.7187 20.1838 79.5423 20.0857 79.3396 19.9812C79.1436 19.8766 78.9148 19.7785 78.6599 19.6936C78.405 19.6086 78.1109 19.5629 77.7841 19.5629C77.222 19.5629 76.7972 19.6805 76.5226 19.9223C76.2481 20.1642 76.1109 20.4844 76.1109 20.8962C76.1109 21.1576 76.1959 21.3733 76.3592 21.5432C76.5226 21.7132 76.7449 21.8635 77.0128 21.9877C77.2808 22.1119 77.5946 22.2295 77.941 22.3276C78.2874 22.4321 78.6403 22.5498 79.0063 22.674C79.3658 22.8047 79.7253 22.9485 80.0717 23.1249C80.4181 23.2949 80.7253 23.5171 80.9998 23.7851C81.2677 24.0531 81.49 24.3798 81.6534 24.7589C81.8168 25.1446 81.9017 25.6021 81.9017 26.1446C81.9017 26.7459 81.7972 27.308 81.588 27.8243C81.3789 28.3472 81.0782 28.8047 80.6861 29.1903C80.2939 29.5759 79.8037 29.8831 79.2285 30.1053C78.6468 30.3276 77.9932 30.4387 77.2547 30.4387C76.8495 30.4387 76.4377 30.3995 76.0194 30.3145C75.6011 30.2295 75.1959 30.1119 74.8037 29.9615C74.4115 29.8112 74.0455 29.6282 73.6991 29.4256C73.3527 29.2164 73.0521 28.9877 72.7972 28.7328L73.6861 27.3276C73.7579 27.2295 73.8494 27.1446 73.9671 27.0727C74.0847 27.0073 74.2089 26.9681 74.3462 26.9681C74.5227 26.9681 74.7057 27.0269 74.8821 27.138C75.0651 27.2491 75.2677 27.3733 75.4965 27.5106C75.7253 27.6478 75.9867 27.772 76.2874 27.8831C76.5815 27.9942 76.9344 28.0531 77.3396 28.0531C77.8887 28.0531 78.307 27.9354 78.6142 27.6936C78.9148 27.4517 79.0651 27.0727 79.0651 26.5498C79.0651 26.2491 78.9802 26.0008 78.8168 25.8112C78.6534 25.6217 78.4312 25.4648 78.1632 25.3406C77.8952 25.2164 77.588 25.1053 77.2416 25.0138C76.8952 24.9158 76.5423 24.8112 76.1828 24.7001C75.8233 24.5825 75.4704 24.4452 75.124 24.2753C74.7776 24.1053 74.4704 23.8831 74.2024 23.6086C73.9344 23.3341 73.7122 22.9877 73.5488 22.5759C73.3854 22.1642 73.3004 21.6544 73.3004 21.0465C73.3004 20.5629 73.3985 20.0857 73.5946 19.6217C73.7906 19.1576 74.0782 18.7459 74.4573 18.3864C74.8364 18.0269 75.3004 17.7328 75.856 17.5171C76.405 17.3014 77.039 17.1903 77.7514 17.1903C78.1501 17.1903 78.5357 17.223 78.9148 17.2818C79.2939 17.3406 79.6468 17.4387 79.9867 17.5563C80.3266 17.6805 80.6403 17.8243 80.9344 17.9942C81.2285 18.1642 81.49 18.3537 81.7253 18.5694L80.9736 19.9746Z" fill="white"/>
<path d="M11.7776 1.2426C12.673 1.2426 13.4377 1.32757 14.0652 1.49097C14.6926 1.65437 15.209 1.88966 15.6077 2.19685C16.0063 2.50404 16.2939 2.87005 16.4769 3.30142C16.6599 3.7328 16.7514 4.21646 16.7514 4.75241C16.7514 5.04652 16.7122 5.32103 16.6273 5.59554C16.5423 5.86352 16.4116 6.11842 16.2351 6.35371C16.0586 6.58901 15.8299 6.80469 15.5488 7.00077C15.2678 7.19685 14.9345 7.36678 14.5423 7.51058C15.3985 7.71973 16.026 8.05306 16.4377 8.51711C16.8495 8.98116 17.0521 9.58247 17.0521 10.3145C17.0521 10.8635 16.9475 11.3799 16.7318 11.857C16.5162 12.3341 16.2024 12.7459 15.7907 13.0988C15.3789 13.4518 14.8691 13.7263 14.2612 13.9289C13.6534 14.125 12.9671 14.2295 12.1894 14.2295H7.00635V1.2426H11.7776ZM10.0129 3.4975V6.70012H11.5815C11.9148 6.70012 12.2155 6.67397 12.4835 6.62822C12.7514 6.58247 12.9802 6.4975 13.1632 6.37986C13.3528 6.26221 13.49 6.09881 13.588 5.88966C13.6861 5.68051 13.7318 5.41907 13.7318 5.10535C13.7318 4.79816 13.6926 4.54326 13.6142 4.3341C13.5358 4.13149 13.4181 3.96156 13.2612 3.83737C13.0979 3.71319 12.8952 3.62169 12.6534 3.5694C12.405 3.51711 12.1175 3.49097 11.7776 3.49097H10.0129V3.4975ZM12.1305 11.9485C12.5292 11.9485 12.856 11.8962 13.1044 11.7982C13.3593 11.7001 13.5554 11.5694 13.6992 11.406C13.8429 11.2426 13.941 11.0661 13.9933 10.8635C14.0456 10.6609 14.0717 10.4583 14.0717 10.2491C14.0717 10.0138 14.039 9.79816 13.9802 9.60861C13.9148 9.41907 13.8103 9.25567 13.6599 9.12495C13.5096 8.99424 13.307 8.8962 13.0586 8.8243C12.8103 8.75241 12.4965 8.71973 12.1175 8.71973H10.0129V11.9485H12.1305ZM62.5096 1.2426V14.2165H59.856V6.75894C59.856 6.58901 59.8626 6.39946 59.8691 6.19685C59.8756 5.99424 59.8952 5.79162 59.9148 5.58247L56.4704 12.2491C56.3658 12.4583 56.222 12.6151 56.039 12.7197C55.856 12.8243 55.6534 12.8831 55.4181 12.8831H55.0063C54.7776 12.8831 54.5684 12.8308 54.3854 12.7197C54.2024 12.6151 54.0586 12.4583 53.9541 12.2491L50.5096 5.56286C50.5292 5.77855 50.5423 5.9877 50.5554 6.19031C50.5684 6.39293 50.575 6.58247 50.575 6.7524V14.2099H47.9214V1.2426H50.2155C50.3462 1.2426 50.4573 1.2426 50.5554 1.24914C50.6534 1.25567 50.7384 1.27528 50.8168 1.30143C50.8952 1.3341 50.9606 1.37986 51.026 1.43868C51.0913 1.50404 51.1501 1.58901 51.209 1.70012L54.5488 8.28182C54.6665 8.51058 54.7841 8.73933 54.8887 8.9877C54.9998 9.22953 55.1044 9.47789 55.2024 9.7328C55.3005 9.47136 55.4116 9.21646 55.5161 8.96809C55.6273 8.71973 55.7449 8.48443 55.8691 8.25567L59.1959 1.70012C59.2547 1.58901 59.3135 1.4975 59.3789 1.43868C59.4443 1.37332 59.5096 1.32757 59.588 1.30143C59.6665 1.26875 59.7514 1.25567 59.8495 1.24914C59.9475 1.2426 60.0586 1.2426 60.1894 1.2426H62.5096ZM68.0521 14.2165H65.026V1.2426H68.0521V14.2165ZM81.8822 1.2426V14.2165H80.3135C80.0848 14.2165 79.8887 14.1772 79.7318 14.1053C79.575 14.0335 79.4181 13.9027 79.2612 13.7197L73.1436 5.98116C73.1697 6.20992 73.1828 6.43868 73.1893 6.65437C73.1959 6.87005 73.2024 7.07267 73.2024 7.26221V14.2165H70.5488V1.2426H72.1305C72.2612 1.2426 72.3724 1.24914 72.4573 1.26221C72.5488 1.27528 72.6273 1.29489 72.6992 1.32757C72.771 1.36025 72.8364 1.406 72.9018 1.46482C72.9671 1.52365 73.039 1.60208 73.124 1.70665L79.2939 9.4975C79.2612 9.24914 79.2416 9.00731 79.2286 8.77201C79.2155 8.53672 79.209 8.3145 79.209 8.11188V1.24914H81.8822V1.2426ZM90.6273 7.4975H95.2416V12.9746C94.575 13.4583 93.8691 13.8178 93.1175 14.0335C92.3658 14.2557 91.5815 14.3602 90.7645 14.3602C89.6992 14.3602 88.7253 14.1903 87.8495 13.857C86.9737 13.5236 86.222 13.0596 85.6011 12.4714C84.9802 11.8831 84.4965 11.1838 84.1567 10.3733C83.8168 9.56286 83.6469 8.68051 83.6469 7.7328C83.6469 6.76548 83.8103 5.87659 84.1305 5.06613C84.4508 4.25567 84.9083 3.55633 85.5031 2.96809C86.0978 2.37986 86.8233 1.92234 87.6665 1.59554C88.5096 1.26875 89.4573 1.10535 90.5031 1.10535C91.0456 1.10535 91.5488 1.1511 92.026 1.23607C92.5031 1.32757 92.941 1.44522 93.3397 1.60208C93.7384 1.75894 94.1044 1.94195 94.4377 2.1511C94.771 2.36678 95.0652 2.59554 95.3266 2.84391L94.4573 4.17724C94.3201 4.38639 94.1436 4.51058 93.9279 4.56286C93.7122 4.60861 93.4769 4.55633 93.2286 4.39946C92.9933 4.25567 92.7645 4.13149 92.5554 4.02691C92.3462 3.92234 92.1305 3.83737 91.9083 3.77201C91.6861 3.70665 91.4573 3.6609 91.2155 3.62822C90.9737 3.59554 90.6992 3.58247 90.3985 3.58247C89.8364 3.58247 89.3266 3.68051 88.8756 3.88312C88.4246 4.0792 88.039 4.36025 87.7253 4.72626C87.405 5.08574 87.1632 5.52365 86.9933 6.03345C86.8233 6.54325 86.7384 7.10535 86.7384 7.72626C86.7384 8.41254 86.8364 9.02691 87.026 9.56286C87.2155 10.0988 87.4835 10.5498 87.8299 10.9158C88.1763 11.2818 88.5946 11.5629 89.0782 11.7589C89.5619 11.9485 90.0978 12.0465 90.6861 12.0465C91.0456 12.0465 91.3789 12.0138 91.673 11.9419C91.9671 11.8701 92.2547 11.7785 92.5292 11.6544V9.68705H91.2482C91.0586 9.68705 90.9083 9.63476 90.8037 9.53672C90.6992 9.43868 90.6403 9.30796 90.6403 9.1511V7.4975H90.6273ZM43.5227 8.37332C43.1567 10.3537 41.4312 11.7851 39.4181 11.7851H39.3266C39.0325 11.7785 38.7188 11.7851 37.9344 11.4518C37.1567 11.1184 36.9867 10.9223 36.4181 10.4779C36.0913 10.223 35.6207 9.7328 35.1567 9.32103C34.6992 9.81776 33.6599 10.9681 33.5684 11.0596C33.9671 11.491 34.941 12.3406 35.3331 12.6413L35.2743 12.589C36.1371 13.308 37.1894 13.8112 38.3462 14.0008C38.7057 14.0596 39.0194 14.0857 39.3201 14.0857C39.6469 14.0857 39.9148 14.0727 40.2024 14.04C42.7841 13.7263 44.9475 11.8897 45.6534 9.37332L43.5227 8.37332Z" fill="#EC1C24"/>
<path d="M36.2678 4.8701C37.0325 3.98774 38.1567 3.43219 39.4116 3.43219C40.392 3.43219 41.3136 3.77206 42.0456 4.36683L41.0521 5.07925L45.6338 7.18382L45.1633 2.16422L43.9802 3.00082C42.7842 1.80474 41.1567 1.125 39.4182 1.125C37.4116 1.125 35.6208 2.04003 34.4312 3.47794V3.48448C34.3855 3.5433 30.7972 7.92892 29.3201 9.3799C29.2417 9.45833 29.1567 9.53023 29.0718 9.60212C29.0587 9.6152 29.0391 9.62827 29.026 9.64134C28.9214 9.73284 28.8169 9.82435 28.7123 9.90931C28.6927 9.92892 28.6665 9.94853 28.6469 9.9616C28.5489 10.04 28.4508 10.1185 28.3593 10.1904C28.3332 10.21 28.307 10.2296 28.2874 10.2492C28.2221 10.3015 28.1567 10.3472 28.0979 10.393C28.0718 10.4126 28.0456 10.4322 28.026 10.4518C27.9999 10.4714 27.9737 10.491 27.9476 10.5041C27.8626 10.5629 27.7776 10.6217 27.6992 10.6806C27.6731 10.7002 27.6535 10.7132 27.6273 10.7263L27.392 10.8832C27.3724 10.8962 27.3528 10.9093 27.3267 10.9224C27.2548 10.9681 27.1894 11.0074 27.124 11.0466C27.0979 11.0596 27.0718 11.0792 27.0456 11.0923C26.9803 11.1315 26.9214 11.1642 26.8626 11.1969C26.4312 11.4322 26.0718 11.5825 25.7711 11.674C25.4704 11.7655 25.2352 11.8113 24.758 11.8113C22.4443 11.7002 20.6142 9.70016 20.7907 7.32761C20.941 5.27533 22.6208 3.6152 24.6731 3.47794C25.9868 3.39297 27.1437 3.95507 28.0064 4.7982C28.1502 4.93546 29.3201 6.1969 29.5685 6.50409C30.0129 6.02696 31.0783 4.77206 31.1175 4.72631C30.9084 4.4518 30.026 3.52369 29.9672 3.45833C28.7123 2.0531 26.9018 1.13807 24.8691 1.16422C21.4901 1.20997 18.6665 3.90931 18.4835 7.28186C18.2874 10.8766 21.0325 13.8832 24.5227 14.1185C24.6469 14.125 25.2025 14.1446 25.4966 14.1119C25.7972 14.0792 26.0652 14.0139 26.294 13.9616C26.66 13.8766 27.0325 13.6806 27.0391 13.6806C27.0587 13.674 27.0783 13.6609 27.0979 13.6544C27.1698 13.6217 27.2482 13.5891 27.3267 13.5498C27.3593 13.5368 27.3986 13.5172 27.4312 13.4975C27.5097 13.4583 27.5946 13.4191 27.6796 13.3734C27.7123 13.3603 27.7384 13.3407 27.7711 13.3276C27.9999 13.2034 28.2482 13.0662 28.4966 12.9093C28.5293 12.8897 28.5685 12.8636 28.6012 12.844C28.6927 12.7851 28.7842 12.7263 28.8822 12.6609C28.9214 12.6348 28.9672 12.6021 29.0129 12.576C29.1044 12.5106 29.2025 12.4453 29.3005 12.3734C29.3397 12.3407 29.3789 12.3145 29.4247 12.2819C29.5227 12.21 29.6208 12.1315 29.7188 12.0596C29.745 12.04 29.7711 12.0204 29.7907 12.0008C29.8103 11.9877 29.8234 11.9747 29.843 11.9616C29.9868 11.8505 30.1306 11.7263 30.2809 11.6021C30.3136 11.576 30.3528 11.5433 30.3855 11.5106C30.4966 11.4126 30.6142 11.3145 30.7319 11.21C30.7842 11.1642 30.8299 11.1185 30.8822 11.0792C30.9018 11.0596 30.928 11.04 30.9476 11.0204C31.0325 10.942 31.1175 10.8636 31.209 10.7786C31.2613 10.7328 32.5685 9.4518 33.4508 8.3799C34.3332 7.30801 35.2874 6.02696 36.2678 4.8701Z" fill="#EC1C24"/>
</svg>
