<svg width="101" height="30" viewBox="0 0 101 30" fill="none" xmlns="http://www.w3.org/2000/svg">
<path d="M54.3299 23.4259C49.8518 24.9019 45.1789 25.7033 40.4647 25.8039C42.4606 27.6777 44.9187 28.9877 47.5875 29.5998C50.268 30.2172 53.0638 30.1188 55.6943 29.3147C58.3099 28.5182 60.666 27.0396 62.5202 25.0308C64.3551 23.0421 65.6129 20.5909 66.1583 17.941C62.4823 20.2965 58.5031 22.1417 54.3299 23.4259Z" fill="#E42315"/>
<path d="M54.5434 18.0438L54.1452 18.9892H54.9411L54.5434 18.0438Z" fill="#E42315"/>
<path d="M43.5108 17.9509H42.9802V19.4791H43.5108C43.73 19.4901 43.9451 19.4162 44.1112 19.2728C44.2553 19.1228 44.3358 18.9229 44.3358 18.715C44.3358 18.5071 44.2553 18.3072 44.1112 18.1573C43.9451 18.0138 43.73 17.9399 43.5108 17.9509Z" fill="#E42315"/>
<path d="M48.6475 6.33323C52.8112 4.97175 57.1395 4.17787 61.5156 3.97308C59.4788 2.14241 56.9923 0.885037 54.3103 0.32944C51.6174 -0.23134 48.8243 -0.0741295 46.2114 0.78529C43.6143 1.63667 41.2912 3.1649 39.4815 5.21249C37.6909 7.23891 36.4872 9.71525 36 12.3748C39.8899 9.74003 44.1531 7.7035 48.6475 6.33323Z" fill="#E42315"/>
<path d="M57.1271 21.0779C60.3471 20.0788 63.4355 18.697 66.3262 16.9621C66.6235 14.7372 66.4079 12.4738 65.6957 10.345C64.978 8.20306 63.7847 6.25129 62.2052 4.6358C58.8408 4.89237 55.5189 5.54837 52.3096 6.58998C49.4374 7.48814 46.6667 8.68345 44.0426 10.1564H47.1154V11.2903H43.8372V12.6153H46.735V13.7134H43.8372V15.1193H47.2315V16.2521H42.3982V11.1527C38.0877 13.9681 35.7057 17.1381 36.5273 19.6101C37.8565 23.6124 47.0797 24.2694 57.1271 21.0779ZM50.4246 19.9472H49.8431V17.4831H50.4246V19.9472ZM53.1039 17.9479H52.3007V19.9472H51.7228V17.9479H50.9132V17.4831H53.1013L53.1039 17.9479ZM58.2388 19.9472H56.4V17.4831H56.9816V19.4824H58.2425L58.2388 19.9472ZM54.3827 10.1501H59.8227V11.3013H57.8264V16.2479H56.3827V11.3008H54.3864L54.3827 10.1501ZM54.834 17.4831L55.9572 19.9472H55.3467L55.1255 19.4189H53.9582L53.737 19.9472H53.1423L54.2613 17.4831H54.834ZM48.1745 11.5734C48.4711 11.0923 48.8956 10.7031 49.4007 10.4495C49.9488 10.1731 50.5558 10.0339 51.1696 10.0441C51.6788 10.0369 52.1846 10.1286 52.659 10.314C53.0901 10.4832 53.475 10.7521 53.7822 11.0986L52.8549 11.9357C52.65 11.715 52.4008 11.54 52.1236 11.4221C51.8447 11.3032 51.5442 11.2437 51.241 11.2472C50.873 11.2402 50.509 11.3237 50.1809 11.4904C49.8788 11.6462 49.6278 11.8855 49.458 12.1799C49.2889 12.4917 49.2004 12.8407 49.2004 13.1953C49.2004 13.5499 49.2889 13.899 49.458 14.2108C49.6279 14.5044 49.8769 14.7444 50.1766 14.9035C50.4992 15.0731 50.8593 15.1585 51.2237 15.1519C51.614 15.1575 51.9996 15.0674 52.3469 14.8893V13.1037H53.6671V15.5788C53.3114 15.8374 52.9134 16.032 52.4908 16.1539C52.0543 16.2864 51.6006 16.3542 51.1444 16.355C50.5374 16.3646 49.9372 16.2254 49.3965 15.9496C48.8945 15.6939 48.4731 15.3044 48.1787 14.8241C47.8899 14.3311 47.7376 13.7701 47.7376 13.1988C47.7376 12.6274 47.8899 12.0664 48.1787 11.5734H48.1745ZM46.9173 18.0582C47.0362 17.8636 47.2071 17.7061 47.4106 17.6034C47.6309 17.4922 47.8748 17.4362 48.1215 17.44C48.3264 17.4372 48.5299 17.4739 48.7209 17.5482C48.8942 17.6165 49.0491 17.7244 49.1732 17.8633L48.7997 18.2015C48.717 18.1131 48.6166 18.0432 48.505 17.9962C48.3926 17.949 48.2717 17.9258 48.1498 17.9279C48.0016 17.9254 47.8551 17.9595 47.7232 18.0272C47.601 18.0892 47.4998 18.1859 47.4322 18.305C47.3639 18.431 47.3282 18.5719 47.3282 18.7152C47.3282 18.8584 47.3639 18.9994 47.4322 19.1253C47.5 19.2439 47.6 19.341 47.7206 19.4052C47.85 19.4737 47.9946 19.5082 48.1409 19.5056C48.2983 19.5072 48.4537 19.4701 48.5932 19.3974V18.6773H49.1238V19.6752C48.9808 19.7792 48.8208 19.8577 48.651 19.9073C48.4754 19.9607 48.2929 19.9879 48.1094 19.9882C47.8651 19.9917 47.6236 19.9357 47.4059 19.8249C47.2041 19.7211 47.0346 19.5637 46.9163 19.37C46.7996 19.1709 46.7381 18.9444 46.7381 18.7136C46.7381 18.4828 46.7996 18.2562 46.9163 18.0571L46.9173 18.0582ZM45.5419 17.4805H46.1198V19.9446H45.5419V17.4805ZM44.7502 19.3617C44.6326 19.5495 44.4633 19.6995 44.2627 19.7939C44.0367 19.8997 43.7893 19.9521 43.5398 19.9472H42.3998V17.4831H43.5409C43.7904 17.4782 44.0377 17.5307 44.2638 17.6365C44.4644 17.7308 44.6336 17.8808 44.7513 18.0687C44.8655 18.2658 44.9256 18.4895 44.9256 18.7173C44.9256 18.945 44.8655 19.1687 44.7513 19.3659L44.7502 19.3617Z" fill="#E42315"/>
</svg>
