<svg width="101" height="40" viewBox="0 0 101 40" fill="none" xmlns="http://www.w3.org/2000/svg">
<path d="M38.5391 11.7109H21.4692V16.9266H30.0042L21.4692 25.3853V30.5675H38.5391V25.3853H30.0042L38.5391 16.9266V11.7109Z" fill="white"/>
<path d="M18.9155 9.87284V3.95508H0.333496V6.93068V9.87284V14.2861V20.2373V24.6505V27.6261V30.5683H18.9155V24.6505H6.7179V20.2373H17.8738V14.2861H6.7179V9.87284H18.9155Z" fill="white"/>
<path d="M41.7651 25.519C41.7651 26.6892 42.1348 27.8594 42.8404 28.7621C44.1173 30.3669 46.2006 31.4034 48.4856 31.4034C50.4681 31.4034 52.2154 30.6344 53.4587 29.3974V30.5675H59.6415V11.7109H53.5259V23.0784C53.5259 24.5495 52.2154 25.7531 50.5689 25.7531C48.9224 25.7531 47.6119 24.5495 47.6119 23.0784C47.6119 23.045 47.6119 22.9781 47.6119 22.9447V11.7109H41.7651V25.519Z" fill="white"/>
<path d="M96.2004 9.47078C98.4831 9.47078 100.334 7.62962 100.334 5.35844C100.334 3.08725 98.4831 1.24609 96.2004 1.24609C93.9178 1.24609 92.0674 3.08725 92.0674 5.35844C92.0674 7.62962 93.9178 9.47078 96.2004 9.47078Z" fill="#FF1E41"/>
<path d="M81.9531 11.71H75.7367V12.7799C74.359 11.8438 72.7125 11.2754 70.9652 11.2754C66.1601 11.2754 62.2622 15.3543 62.2622 20.4028C62.2622 25.4513 66.1601 29.5302 70.9652 29.5302C72.8133 29.5302 74.527 28.9284 75.9383 27.8919C76.1063 32.9738 73.3509 34.0103 67.5713 32.372C66.2273 32.0043 65.0848 31.2687 64.1439 30.4329V36.2169C66.0256 37.454 68.7138 38.2564 71.7044 38.6576C77.2824 39.3597 81.8859 36.2503 81.9531 31.9708C81.9531 31.8371 81.9531 31.7368 81.9531 31.6031V11.71ZM75.7367 22.6094C75.031 23.579 73.8885 24.1808 72.6117 24.1808C70.4947 24.1808 68.7474 22.4757 68.7474 20.4028C68.7474 18.2965 70.4611 16.6248 72.6117 16.6248C73.8885 16.6248 75.031 17.26 75.7367 18.1962V22.6094Z" fill="white"/>
<path d="M91.6979 11.7109H85.3135V30.6344H91.6979V11.7109Z" fill="white"/>
<path d="M79.1372 1.24609H81.8844L83.7741 5.8512H83.8694L85.759 1.24609H88.5062V9.37649H86.3466V4.67611H86.2831L84.4728 9.31297H83.1706L81.3604 4.64435H81.2968V9.37649H79.1372V1.24609Z" fill="#FF1E41"/>
<path d="M75.6568 1.24609H77.864V6.45463C77.864 7.07394 77.7158 7.60988 77.4194 8.06245C77.1256 8.51237 76.7154 8.8604 76.1887 9.10654C75.6621 9.35002 75.0507 9.47177 74.3546 9.47177C73.6533 9.47177 73.0393 9.35002 72.5126 9.10654C71.9859 8.8604 71.5757 8.51237 71.2819 8.06245C70.9908 7.60988 70.8452 7.07394 70.8452 6.45463V1.24609H73.0525V6.26407C73.0525 6.5155 73.1081 6.74046 73.2192 6.93896C73.3304 7.13481 73.4839 7.28831 73.6797 7.39947C73.8782 7.51063 74.1032 7.56621 74.3546 7.56621C74.6087 7.56621 74.8337 7.51063 75.0295 7.39947C75.2254 7.28831 75.3789 7.13481 75.49 6.93896C75.6012 6.74046 75.6568 6.5155 75.6568 6.26407V1.24609Z" fill="#FF1E41"/>
<path d="M69.5759 1.24609V9.37649H67.3687V1.24609H69.5759Z" fill="#FF1E41"/>
<path d="M56.73 1.24609H59.4772L61.3668 5.8512H61.4621L63.3518 1.24609H66.099V9.37649H63.9394V4.67611H63.8758L62.0656 9.31297H60.7634L58.9531 4.64435H58.8896V9.37649H56.73V1.24609Z" fill="#FF1E41"/>
<path d="M49.5522 9.37649V1.24609H55.4118V3.02462H51.7595V4.42203H55.1101V6.20055H51.7595V7.59797H55.396V9.37649H49.5522Z" fill="#FF1E41"/>
<path d="M41.8608 9.37649V1.24609H45.3702C45.9737 1.24609 46.5017 1.35593 46.9542 1.5756C47.4068 1.79527 47.7588 2.11154 48.0102 2.52441C48.2617 2.93728 48.3874 3.4322 48.3874 4.00916C48.3874 4.59141 48.2577 5.08236 47.9983 5.482C47.7416 5.88164 47.3804 6.18335 46.9145 6.38714C46.4514 6.59093 45.9102 6.69282 45.2909 6.69282H43.1947V4.97782H44.8462C45.1056 4.97782 45.3266 4.94606 45.5092 4.88254C45.6945 4.81638 45.8361 4.71183 45.934 4.56892C46.0345 4.426 46.0848 4.23941 46.0848 4.00916C46.0848 3.77626 46.0345 3.58702 45.934 3.44146C45.8361 3.29325 45.6945 3.18474 45.5092 3.11593C45.3266 3.04447 45.1056 3.00874 44.8462 3.00874H44.0681V9.37649H41.8608ZM46.6247 5.64477L48.6573 9.37649H46.2595L44.2746 5.64477H46.6247Z" fill="#FF1E41"/>
<path d="M34.3008 9.37649V1.24609H37.8102C38.4136 1.24609 38.9416 1.36519 39.3942 1.60339C39.8468 1.84158 40.1988 2.17638 40.4502 2.60778C40.7016 3.03917 40.8273 3.54335 40.8273 4.12032C40.8273 4.70257 40.6976 5.20675 40.4383 5.63286C40.1816 6.05896 39.8203 6.38714 39.3545 6.6174C38.8913 6.84765 38.3501 6.96278 37.7308 6.96278H35.6347V5.24777H37.2862C37.5455 5.24777 37.7665 5.20278 37.9491 5.1128C38.1344 5.02016 38.276 4.88916 38.3739 4.71977C38.4745 4.55039 38.5248 4.35057 38.5248 4.12032C38.5248 3.88741 38.4745 3.68892 38.3739 3.52483C38.276 3.35809 38.1344 3.23105 37.9491 3.14372C37.7665 3.05373 37.5455 3.00874 37.2862 3.00874H36.5081V9.37649H34.3008Z" fill="#FF1E41"/>
</svg>
