<svg width="101" height="30" viewBox="0 0 101 30" fill="none" xmlns="http://www.w3.org/2000/svg">
<path d="M12.697 14.2386V15.8351C12.697 18.9544 11.1313 22 7.14783 22C3.1644 22 1 19.1017 1 15.0245C1 10.9474 3.1644 8 7.12481 8C10.0261 8 11.8451 9.62105 12.3516 12.1018H9.58852C9.31223 11.0947 8.48332 10.5053 7.12481 10.5053C4.8683 10.5053 3.71701 12.4211 3.71701 14.9755C3.71701 17.5298 4.84527 19.4947 7.14783 19.4947C9.105 19.4947 10.003 18.2667 10.049 16.5474H7.0327V14.2386H12.697Z" fill="white"/>
<path d="M21.9758 18.1198H17.1634L16.1043 21.7549H13.5254L17.5549 8.24609H21.6535L25.7059 21.7549H23.012L21.9758 18.1198ZM17.8312 15.6637H21.285L19.9495 10.9724H19.1435L17.8312 15.6637Z" fill="white"/>
<path d="M27.0184 8.24609H31.0708L33.1432 13.6987H33.6036L35.6759 8.24609H39.7744V21.7549H37.3108V11.6847H36.8502L34.7318 17.1373H32.084L29.9886 11.6847H29.528V21.7549H27.0644V8.24609H27.0184Z" fill="white"/>
<path d="M49.0543 19.2489L48.6629 21.7542H42.2616V8.24541H50.8734L50.4128 10.7507H44.9097V13.5752H49.9982L49.5839 16.0314H44.9097V19.2243H49.0543V19.2489Z" fill="white"/>
<path d="M59.5539 14.9513C60.4289 15.4916 60.9815 16.4741 60.9585 17.5793C60.9585 20.4039 58.794 21.7302 56.3765 21.7302H50.8734L53.0838 8.19687H58.1034C59.8994 8.19687 61.5341 9.25301 61.5341 11.2916C61.5571 12.667 60.7974 13.9688 59.6 14.5337L59.5539 14.9513ZM56.2152 20.6495C58.1494 20.6495 59.8072 19.7653 59.8072 17.5548C59.8072 15.8846 58.4257 15.246 57.0442 15.246H53.1528L52.2779 20.6004H56.2382V20.6495H56.2152ZM53.3371 14.1407H57.2514C58.9553 14.1407 60.4059 13.453 60.4059 11.4635C60.4059 10.0144 59.2086 9.42495 58.0342 9.42495H54.143L53.3371 14.1407Z" fill="#2BDC24"/>
<path d="M67.5442 20.649L66.9916 21.8034H62.0644L64.2748 8.27002H73.6234L73.0708 9.4244H65.288L64.4821 14.1648H70.6988L70.1462 15.3192H64.2979L63.3999 20.649H67.5442Z" fill="#2BDC24"/>
<path d="M80.5311 21.7549H79.3103L78.5968 17.4075H72.8864L70.7448 21.7549H69.4785L76.1097 8.24609H78.2746L80.5311 21.7549ZM73.4162 16.2531H78.3895L77.3071 9.57241H76.6396L73.4162 16.2531Z" fill="#2BDC24"/>
<path d="M90.3853 9.37519H86.1943L84.1449 21.7541H82.9937L85.0431 9.37519H80.8528L81.0138 8.2208H90.5695L90.3853 9.37519Z" fill="#2BDC24"/>
<path d="M98.7202 21.7549H91.8357L94.115 8.24609H101L98.7202 21.7549Z" fill="url(#paint0_linear_2047_79)"/>
<path d="M95.106 21.7549H88.2208L90.5695 8.24609H97.4547L95.106 21.7549Z" fill="url(#paint1_linear_2047_79)"/>
<defs>
<linearGradient id="paint0_linear_2047_79" x1="51.0465" y1="22.1268" x2="51.0465" y2="9.09175" gradientUnits="userSpaceOnUse">
<stop offset="0.2" stop-color="#2BDC24" stop-opacity="0"/>
<stop offset="1" stop-color="#2BDC24"/>
</linearGradient>
<linearGradient id="paint1_linear_2047_79" x1="92.8449" y1="8.19009" x2="92.8449" y2="22.4809" gradientUnits="userSpaceOnUse">
<stop offset="0.2" stop-color="#2BDC24" stop-opacity="0"/>
<stop offset="1" stop-color="#2BDC24"/>
</linearGradient>
</defs>
</svg>
