<svg width="101" height="41" viewBox="0 0 101 41" fill="none" xmlns="http://www.w3.org/2000/svg">
<g clip-path="url(#clip0_2426_182)">
<path d="M6.4523 21.5946C4.88237 21.5946 3.61229 20.3245 3.61229 18.7546C3.61229 17.1846 4.88237 15.9145 6.4523 15.9145C8.02226 15.9145 9.29231 17.1846 9.29231 18.7546C9.27468 20.3245 8.0046 21.5946 6.4523 21.5946ZM12.2205 12.9863H9.29231V13.7448C8.44561 13.2685 7.49305 13.004 6.4523 13.004C3.27714 13.004 0.684082 15.597 0.684082 18.7722C0.684082 21.9474 3.2595 24.5228 6.4523 24.5228C9.64512 24.5228 12.2205 21.9297 12.2205 18.7546C12.2205 18.7369 12.2205 18.7369 12.2205 18.7193V12.9863Z" fill="url(#paint0_linear_2426_182)"/>
<path d="M3.59471 31.4205H0.666504C0.666504 28.2629 3.24192 25.6875 6.39944 25.6875H12.2206V28.6157H6.39944C4.84714 28.5981 3.59471 29.8682 3.59471 31.4205Z" fill="url(#paint1_linear_2426_182)"/>
<path d="M16.3306 24.5229H13.4023V18.7017C13.4023 15.5442 15.9777 12.9688 19.1353 12.9688V15.897C17.583 15.897 16.3129 17.167 16.3129 18.7193V24.5229H16.3306Z" fill="url(#paint2_linear_2426_182)"/>
<path d="M69.9205 24.5228C66.7452 24.5228 64.1699 21.9474 64.1699 18.7899V12.9863H67.098V18.7899C67.098 20.3422 68.3681 21.6122 69.9205 21.6122C71.4728 21.6122 72.7429 20.3422 72.7429 18.7899V12.9863H75.671V18.7899C75.6533 21.9474 73.0781 24.5228 69.9205 24.5228Z" fill="url(#paint3_linear_2426_182)"/>
<path d="M55.791 24.5228H52.8806V18.7369C52.8806 17.1846 51.6105 15.9145 50.0582 15.9145C48.5058 15.9145 47.2357 17.1846 47.2357 18.7369V24.5228H44.3076V18.7369C44.3076 15.5793 46.8829 13.0039 50.0405 13.0039C53.1981 13.0039 55.7734 15.5793 55.7734 18.7369V24.5228H55.791Z" fill="url(#paint4_linear_2426_182)"/>
<path d="M82.7447 21.6125C81.1924 21.6125 79.9222 20.3425 79.9222 18.7901C79.9222 17.2378 81.1924 15.9678 82.7447 15.9678C84.297 15.9678 85.5668 17.2378 85.5668 18.7901C85.5668 20.3425 84.297 21.6125 82.7447 21.6125ZM82.7447 13.0572C81.7215 13.0572 80.7512 13.3218 79.9222 13.7981V9H76.9941V18.7901C76.9941 21.9477 79.5694 24.5231 82.727 24.5231C85.8844 24.5231 88.4599 21.9477 88.4599 18.7901C88.4599 15.6326 85.902 13.0572 82.7447 13.0572Z" fill="url(#paint5_linear_2426_182)"/>
<path d="M62.7237 15.9149V12.9866H59.9015V9H56.9731V18.7549C56.9731 21.9124 59.5487 24.4879 62.706 24.4879V21.5772C61.1537 21.5772 59.8839 20.3072 59.8839 18.7549V15.9149H62.7237Z" fill="url(#paint6_linear_2426_182)"/>
<path d="M30.7778 20.2537C30.9011 19.7951 30.9717 19.3012 30.9717 18.7896C30.9717 15.6321 28.3963 13.0566 25.2388 13.0566C22.0813 13.0566 19.5059 15.6321 19.5059 18.7896C19.5059 21.9471 22.0636 24.5226 25.2211 24.5226C27.5496 24.5226 29.5783 23.129 30.4602 21.1181H26.7911C26.3325 21.4356 25.7856 21.612 25.2035 21.612C23.6512 21.612 22.3811 20.3419 22.3811 18.7896C22.3811 17.2373 23.6512 15.9672 25.2035 15.9672C26.2266 15.9672 27.1262 16.5141 27.6202 17.3255H24.4273V20.2537H30.7778Z" fill="url(#paint7_linear_2426_182)"/>
<path d="M36.8459 20.2537V17.3255H40.0386C39.5448 16.5141 38.6452 15.9672 37.622 15.9672C36.0696 15.9672 34.7995 17.2373 34.7995 18.7896C34.7995 20.3419 36.0696 21.612 37.622 21.612C38.204 21.612 38.7508 21.4356 39.2096 21.1181H42.8787C41.9967 23.129 39.9856 24.5226 37.6396 24.5226C34.482 24.5226 31.9067 21.9471 31.9067 18.7896C31.9067 15.6321 34.482 13.0566 37.6396 13.0566C40.7972 13.0566 43.3725 15.6321 43.3725 18.7896C43.3725 19.3012 43.3019 19.7774 43.1786 20.2537H36.8459Z" fill="url(#paint8_linear_2426_182)"/>
<path d="M97.3328 20.2537H94.1399V17.3255H97.3328C96.8387 16.5141 95.9391 15.9672 94.9162 15.9672C93.3639 15.9672 92.0937 17.2373 92.0937 18.7896C92.0937 20.3419 93.3639 21.612 94.9162 21.612C95.4983 21.612 96.045 21.4356 96.5035 21.1181H100.173C99.273 23.129 97.2622 24.5226 94.9336 24.5226C91.7762 24.5226 89.2007 21.9471 89.2007 18.7896C89.2007 15.6321 91.7586 13.0566 94.9336 13.0566C98.0912 13.0566 100.667 15.6321 100.667 18.7896C100.667 19.3012 100.596 19.7774 100.473 20.2537H97.3328Z" fill="url(#paint9_linear_2426_182)"/>
</g>
<defs>
<linearGradient id="paint0_linear_2426_182" x1="6.44925" y1="7.87925" x2="6.44925" y2="24.873" gradientUnits="userSpaceOnUse">
<stop offset="7.00827e-07" stop-color="#B0FF0B"/>
<stop offset="0.1124" stop-color="#A7FA0C"/>
<stop offset="0.2958" stop-color="#8FED0E"/>
<stop offset="0.5274" stop-color="#67D811"/>
<stop offset="0.7953" stop-color="#30BC15"/>
<stop offset="1" stop-color="#02A319"/>
</linearGradient>
<linearGradient id="paint1_linear_2426_182" x1="6.44383" y1="7.6748" x2="6.44383" y2="24.8686" gradientUnits="userSpaceOnUse">
<stop offset="7.00827e-07" stop-color="#B0FF0B"/>
<stop offset="0.1124" stop-color="#A7FA0C"/>
<stop offset="0.2958" stop-color="#8FED0E"/>
<stop offset="0.5274" stop-color="#67D811"/>
<stop offset="0.7953" stop-color="#30BC15"/>
<stop offset="1" stop-color="#02A319"/>
</linearGradient>
<linearGradient id="paint2_linear_2426_182" x1="16.2704" y1="7.54571" x2="16.2704" y2="24.6404" gradientUnits="userSpaceOnUse">
<stop offset="7.00827e-07" stop-color="#B0FF0B"/>
<stop offset="0.1124" stop-color="#A7FA0C"/>
<stop offset="0.2958" stop-color="#8FED0E"/>
<stop offset="0.5274" stop-color="#67D811"/>
<stop offset="0.7953" stop-color="#30BC15"/>
<stop offset="1" stop-color="#02A319"/>
</linearGradient>
<linearGradient id="paint3_linear_2426_182" x1="69.9179" y1="6.57929" x2="69.9179" y2="23.3758" gradientUnits="userSpaceOnUse">
<stop offset="7.00827e-07" stop-color="#B0FF0B"/>
<stop offset="0.1124" stop-color="#A7FA0C"/>
<stop offset="0.2958" stop-color="#8FED0E"/>
<stop offset="0.5274" stop-color="#67D811"/>
<stop offset="0.7953" stop-color="#30BC15"/>
<stop offset="1" stop-color="#02A319"/>
</linearGradient>
<linearGradient id="paint4_linear_2426_182" x1="50.0551" y1="6.91312" x2="50.0551" y2="23.7096" gradientUnits="userSpaceOnUse">
<stop offset="7.00827e-07" stop-color="#B0FF0B"/>
<stop offset="0.1124" stop-color="#A7FA0C"/>
<stop offset="0.2958" stop-color="#8FED0E"/>
<stop offset="0.5274" stop-color="#67D811"/>
<stop offset="0.7953" stop-color="#30BC15"/>
<stop offset="1" stop-color="#02A319"/>
</linearGradient>
<linearGradient id="paint5_linear_2426_182" x1="82.7447" y1="6.22214" x2="82.7447" y2="23.0698" gradientUnits="userSpaceOnUse">
<stop offset="7.00827e-07" stop-color="#B0FF0B"/>
<stop offset="0.1124" stop-color="#A7FA0C"/>
<stop offset="0.2958" stop-color="#8FED0E"/>
<stop offset="0.5274" stop-color="#67D811"/>
<stop offset="0.7953" stop-color="#30BC15"/>
<stop offset="1" stop-color="#02A319"/>
</linearGradient>
<linearGradient id="paint6_linear_2426_182" x1="59.8469" y1="6.69459" x2="59.8469" y2="23.5438" gradientUnits="userSpaceOnUse">
<stop offset="7.00827e-07" stop-color="#B0FF0B"/>
<stop offset="0.1124" stop-color="#A7FA0C"/>
<stop offset="0.2958" stop-color="#8FED0E"/>
<stop offset="0.5274" stop-color="#67D811"/>
<stop offset="0.7953" stop-color="#30BC15"/>
<stop offset="1" stop-color="#02A319"/>
</linearGradient>
<linearGradient id="paint7_linear_2426_182" x1="25.2258" y1="7.43292" x2="25.2258" y2="24.4258" gradientUnits="userSpaceOnUse">
<stop offset="7.00827e-07" stop-color="#B0FF0B"/>
<stop offset="0.1124" stop-color="#A7FA0C"/>
<stop offset="0.2958" stop-color="#8FED0E"/>
<stop offset="0.5274" stop-color="#67D811"/>
<stop offset="0.7953" stop-color="#30BC15"/>
<stop offset="1" stop-color="#02A319"/>
</linearGradient>
<linearGradient id="paint8_linear_2426_182" x1="37.6399" y1="7.13744" x2="37.6399" y2="24.1303" gradientUnits="userSpaceOnUse">
<stop offset="7.00827e-07" stop-color="#B0FF0B"/>
<stop offset="0.1124" stop-color="#A7FA0C"/>
<stop offset="0.2958" stop-color="#8FED0E"/>
<stop offset="0.5274" stop-color="#67D811"/>
<stop offset="0.7953" stop-color="#30BC15"/>
<stop offset="1" stop-color="#02A319"/>
</linearGradient>
<linearGradient id="paint9_linear_2426_182" x1="94.9313" y1="5.77373" x2="94.9313" y2="22.7666" gradientUnits="userSpaceOnUse">
<stop offset="7.00827e-07" stop-color="#B0FF0B"/>
<stop offset="0.1124" stop-color="#A7FA0C"/>
<stop offset="0.2958" stop-color="#8FED0E"/>
<stop offset="0.5274" stop-color="#67D811"/>
<stop offset="0.7953" stop-color="#30BC15"/>
<stop offset="1" stop-color="#02A319"/>
</linearGradient>
<clipPath id="clip0_2426_182">
<rect width="100" height="40" fill="white" transform="translate(0.666504 0.679688)"/>
</clipPath>
</defs>
</svg>
