<svg width="100" height="40" viewBox="0 0 100 40" fill="none" xmlns="http://www.w3.org/2000/svg">
<g clip-path="url(#clip0_2885_184)">
<path d="M5.37022 5.37C5.61022 5.56 5.83022 5.75 6.05022 5.95C6.74022 6.6 7.51022 6.99 8.43022 7.21C8.48022 7.22 8.53022 7.24 8.59022 7.25C9.20022 7.34 9.61022 7.26 10.1502 6.97C13.9702 5.03 18.5902 4.85 22.6402 6.13C23.4502 6.4 24.2602 6.69 24.9902 7.14C25.5502 7.46 26.1602 7.26 26.7502 7.09C27.5202 6.86 28.1302 6.43 28.7202 5.9C29.2602 5.42 29.7202 5.1 30.4502 5C31.6002 5.07 32.6802 5.65 33.4902 6.44C34.4602 7.54 34.8402 8.85 34.7502 10.3C34.5602 11.7 33.9502 12.82 32.8102 13.69C31.8369 14.3833 31.1736 14.73 30.8202 14.73C30.8502 14.79 30.8702 14.85 30.9002 14.92C31.5302 16.43 32.1002 17.91 32.4402 19.51C32.4502 19.57 32.4702 19.64 32.4802 19.7C32.5202 20.05 32.5302 20.4 32.5302 20.75C32.5302 20.82 32.5302 20.9 32.5302 20.97C32.5302 21.48 32.4402 21.86 32.2202 22.31C32.1802 22.29 32.1402 22.27 32.0902 22.26C31.6702 22.09 31.3802 22.1 30.9502 22.24C30.9002 22.26 30.8602 22.29 30.8102 22.31C30.7802 22.48 30.7602 22.64 30.7502 22.81C30.7402 22.92 30.7302 23.02 30.7202 23.13C30.7202 23.19 30.7102 23.24 30.7002 23.3C30.4502 25.93 29.8002 28.49 27.8602 30.39C27.6602 30.31 27.4702 30.23 27.2702 30.13C26.9502 30.02 26.8402 30.07 26.5202 30.18C26.3802 30.2733 26.2402 30.3767 26.1002 30.49C25.7702 30.75 25.4402 31 25.0902 31.24C24.7602 31.46 24.4402 31.68 24.1202 31.91C20.2202 34.65 17.9036 35.9867 17.1702 35.92C16.9102 35.87 16.7102 35.8 16.4702 35.68C16.3902 35.64 16.3102 35.6 16.2202 35.56C16.1302 35.52 16.0402 35.47 15.9602 35.43C15.9202 35.41 15.8702 35.39 15.8202 35.36C13.2902 34.13 10.9902 32.46 8.83022 30.67C8.49689 30.37 8.12356 30.1567 7.71022 30.03C7.44022 30.13 7.19022 30.25 6.94022 30.38C5.09022 28.97 4.43022 26.34 4.12022 24.15C4.06022 23.7 4.03022 23.26 4.01022 22.81C3.99689 22.6367 3.96689 22.47 3.92022 22.31C3.54022 22.08 3.30022 22.08 2.87022 22.17C2.73689 22.2167 2.62022 22.2633 2.52022 22.31C1.66022 20.39 2.66022 18 3.34022 16.16C3.52022 15.7 3.71022 15.24 3.93022 14.79C3.89022 14.77 3.85022 14.75 3.81022 14.73C2.23022 13.94 0.840224 13.06 0.210224 11.32C-0.169776 9.97 -0.0297755 8.56 0.620224 7.31C1.26022 6.23 2.40022 5.43 3.61022 5.11C4.25022 4.97 4.82022 4.99 5.37022 5.37Z" fill="url(#paint0_linear_2885_184)"/>
<path d="M10.9402 12.8697H11.0802C12.0302 12.8697 13.1102 12.8897 13.9802 13.3197C14.5302 13.5397 15.1102 13.4997 15.7002 13.4897C15.8302 13.4897 15.9502 13.4897 16.0802 13.4897C16.3402 13.4897 16.6102 13.4897 16.8702 13.4897C17.2102 13.4897 17.5402 13.4897 17.8802 13.4897C18.1402 13.4897 18.4002 13.4897 18.6602 13.4897C18.7802 13.4897 18.9102 13.4897 19.0302 13.4897C19.6369 13.4897 20.2169 13.383 20.7702 13.1697C22.6102 12.5997 25.0802 12.6397 26.8002 13.5197C27.2702 13.7697 27.6602 14.0697 27.8702 14.5797C28.0102 15.0697 28.0402 15.5597 28.0302 16.0697C28.0302 16.1397 28.0302 16.2097 28.0302 16.2797C28.0302 16.8597 27.9502 17.3897 27.8002 17.9497C27.7902 17.9897 27.7802 18.0397 27.7602 18.0797C27.5102 18.9797 27.1502 19.7697 26.3202 20.2597C25.2802 20.7697 24.2302 20.9197 23.1002 20.6197C21.7402 20.1597 20.6202 19.2397 19.9702 17.9497C19.5302 17.0397 19.3602 16.2197 19.3602 15.2097H15.0802V16.1197C14.8602 17.4997 14.2102 18.8497 13.0802 19.7097C11.9402 20.5297 10.7302 20.8797 9.3402 20.7097C8.5802 20.5697 7.8302 20.1797 7.3702 19.5597C6.7102 18.4997 6.4302 17.2797 6.4402 16.0397C6.4402 15.9697 6.4402 15.8997 6.4402 15.8197C6.4402 15.0097 6.5602 14.4797 7.1302 13.8897C8.1302 12.9597 9.6402 12.8497 10.9402 12.8597V12.8697Z" fill="#EAB313"/>
<path d="M17.1903 16.5105C17.2503 16.5105 17.3136 16.5105 17.3803 16.5105C18.1203 16.5305 18.7103 16.7705 19.2403 17.2905C19.7803 17.9005 20.0903 18.7905 20.4403 19.5205C20.4703 19.5805 20.5003 19.6405 20.5303 19.7005C21.0103 20.6905 21.4803 21.6905 21.9403 22.6905C22.0603 22.9405 22.1703 23.1905 22.2903 23.4405C22.3303 23.5305 22.3703 23.6105 22.4103 23.7005C22.4803 23.8605 22.5603 24.0205 22.6303 24.1805C22.6603 24.2505 22.7003 24.3205 22.7303 24.4005C22.7603 24.4605 22.7903 24.5205 22.8203 24.5905C23.0203 25.0705 23.0403 25.6305 22.9203 26.1305C22.6603 26.7605 22.1903 27.2005 21.6003 27.5205C21.2503 27.6105 20.9403 27.5005 20.6103 27.4005C18.4303 26.7205 16.0203 26.7505 13.8403 27.4305C13.4203 27.5605 13.1503 27.6005 12.7403 27.4105C12.2403 27.1105 11.8103 26.7805 11.6203 26.2005C11.4703 25.3905 11.6003 24.7905 11.9403 24.0505C11.9603 24.0005 11.9803 23.9605 12.0003 23.9105C12.1703 23.5305 12.3503 23.1605 12.5303 22.7805C12.5903 22.6605 12.6403 22.5405 12.7003 22.4205C13.0603 21.6605 13.4303 20.9005 13.7903 20.1405C13.9703 19.7705 14.1503 19.4005 14.3203 19.0305C14.3503 18.9605 14.3903 18.8805 14.4203 18.8105C14.4803 18.6705 14.5503 18.5405 14.6103 18.4005C14.8503 17.8905 15.1403 17.4205 15.5603 17.0505C15.6003 17.0105 15.6403 16.9805 15.6803 16.9405C16.1603 16.6205 16.6003 16.4905 17.1703 16.5005L17.1903 16.5105Z" fill="#F7C41F"/>
<path d="M69.18 25.4609C69.2734 25.4609 69.3633 25.4609 69.45 25.4609C69.54 25.4609 69.63 25.4609 69.72 25.4609C69.79 25.4609 69.86 25.4609 69.93 25.4609C69.91 25.5809 69.88 25.6909 69.86 25.8109C70.03 25.8909 70.15 25.9009 70.34 25.9209C70.4067 25.9209 70.4734 25.9276 70.54 25.9409C70.6067 25.9543 70.6767 25.9609 70.75 25.9609C70.82 25.9609 70.89 25.9709 70.96 25.9809C71.13 26.0009 71.3 26.0109 71.48 26.0309C71.44 26.2909 71.36 26.5109 71.25 26.7509C71.22 26.8209 71.19 26.8909 71.16 26.9609C71.13 27.0309 71.1 27.1009 71.06 27.1809C70.8 27.7143 70.6334 28.2676 70.56 28.8409C70.9 28.8109 71.1 28.6509 71.33 28.4209C71.45 28.2609 71.55 28.1009 71.65 27.9309C71.68 27.8809 71.7 27.8409 71.73 27.7909C72.13 27.0909 72.43 26.3509 72.74 25.6109H73.93C74.03 25.8309 74.13 26.0509 74.23 26.2709C74.26 26.3309 74.29 26.3909 74.32 26.4609C74.69 27.2709 74.98 28.1309 74.7 29.0209C74.52 29.4109 74.22 29.6709 73.86 29.9009C73.34 30.0909 72.66 30.0609 72.16 29.8509C72 29.7709 71.88 29.6809 71.73 29.5609C71.69 29.5309 71.65 29.5109 71.61 29.4809C71.31 29.5509 71.09 29.7309 70.84 29.9009C70.55 30.0009 70.3 30.0109 70 29.9709C69.69 29.8209 69.49 29.6609 69.37 29.3409C69.24 28.5109 69.61 27.6609 70 26.9509C69.81 26.9009 69.63 26.8609 69.44 26.8109C69.42 26.9009 69.39 26.9809 69.37 27.0709C69.03 28.0809 68.19 29.3109 67.26 29.8409C66.93 29.9809 66.62 30.0109 66.28 29.9009C66.07 29.7709 65.9 29.6309 65.79 29.4109C65.76 29.4409 65.72 29.4709 65.69 29.5009C65.6434 29.5409 65.6 29.5809 65.56 29.6209C65.56 29.6209 65.47 29.7009 65.43 29.7409C65.21 29.9209 65.04 29.9209 64.76 29.9309C64.69 29.9309 64.61 29.9309 64.54 29.9309C64.21 29.8909 64.03 29.7609 63.81 29.5209C63.73 29.4076 63.69 29.3043 63.69 29.2109C63.69 29.2109 63.59 29.2809 63.55 29.3109C62.75 29.8509 62.05 30.0009 61.1 29.9109C60.66 29.8209 60.33 29.6409 60.06 29.2809C59.69 28.6709 59.72 28.0709 59.89 27.3909C60.1 26.7409 60.48 26.2109 61.07 25.8509C61.59 25.6109 62.11 25.5709 62.65 25.7709C62.96 25.9009 63.1 26.0809 63.23 26.3809C63.35 26.7809 63.36 27.2109 63.17 27.5909C62.91 27.9709 62.56 28.2709 62.12 28.4109C61.74 28.4809 61.35 28.4609 60.96 28.4409C61.0534 28.6143 61.1734 28.7609 61.32 28.8809C61.83 29.0009 62.32 28.9509 62.79 28.7209C63.24 28.4009 63.51 28.0809 63.65 27.5509C63.87 26.7809 64.35 26.1909 65.03 25.7709C65.4 25.6509 65.82 25.6209 66.19 25.7709C66.32 25.8609 66.45 25.9409 66.58 26.0409C66.63 25.9509 66.67 25.8509 66.72 25.7609C66.85 25.7609 66.99 25.7609 67.12 25.7609C67.2 25.7609 67.27 25.7609 67.35 25.7609C67.56 25.7709 67.66 25.8209 67.84 25.9109C67.8133 25.9776 67.7867 26.0443 67.76 26.1109C67.67 26.3609 67.57 26.6109 67.48 26.8609C67.44 26.9709 67.4 27.0809 67.36 27.1809C67.1534 27.7209 67.0067 28.2776 66.92 28.8509C67.37 28.7609 67.58 28.5109 67.83 28.1509C68.29 27.3709 68.57 26.5409 68.84 25.6809C68.92 25.4609 68.93 25.4809 69.18 25.4809V25.4609ZM61.44 26.7309C61.18 27.0109 60.95 27.3209 60.95 27.7109C61.42 27.7009 61.79 27.6109 62.14 27.2909C62.25 27.1109 62.28 27.0309 62.28 26.8209C62.2467 26.7009 62.1734 26.6109 62.06 26.5509C61.78 26.5009 61.67 26.5709 61.44 26.7309ZM65.09 27.0109C64.79 27.4709 64.59 28.0009 64.67 28.5509C64.7767 28.6909 64.8934 28.8076 65.02 28.9009C65.26 28.8709 65.4 28.8009 65.57 28.6309C65.94 28.1309 66.29 27.5109 66.29 26.8709C66.12 26.7309 65.98 26.6709 65.76 26.6309C65.47 26.6709 65.3 26.8109 65.09 27.0109ZM73.24 26.8709C73.2 26.9409 73.17 27.0209 73.13 27.1009C72.83 27.7009 72.61 28.1109 72.47 28.3309C72.3567 28.4776 72.31 28.6476 72.33 28.8409C72.53 29.0109 72.67 29.0509 72.93 29.0809C73.22 29.0409 73.33 28.9809 73.53 28.7709C73.73 28.3909 73.68 27.9909 73.6 27.5809C73.52 27.3409 73.43 27.1109 73.32 26.8809H73.25L73.24 26.8709Z" fill="white"/>
<path d="M76.6802 10.5098C79.7268 10.5098 81.5635 10.7964 82.1902 11.3698C82.6702 11.9198 82.7502 12.4798 82.7402 13.1898C82.7002 13.7198 82.5302 14.0198 82.1402 14.3698C82.0502 14.4398 81.9702 14.5098 81.8802 14.5798C81.9902 14.6898 82.1002 14.7998 82.2202 14.8898C82.6702 15.2498 82.9602 15.6898 83.0702 16.2598C83.1402 17.0198 82.9902 17.7098 82.4902 18.3098C81.0802 19.6998 78.2002 19.2098 76.6802 19.2098V10.5098ZM78.5002 12.0598V14.0998C78.7602 14.0998 79.0202 14.0998 79.2802 14.1098C79.3602 14.1098 79.4402 14.1098 79.5202 14.1098C79.9102 14.1098 80.2002 14.1098 80.5302 13.8798C80.7702 13.6298 80.7902 13.3998 80.8102 13.0698C80.8102 12.7698 80.7002 12.5898 80.5002 12.3698C80.1902 12.0998 79.9602 12.0398 79.5602 12.0398C79.5002 12.0398 79.4502 12.0398 79.3902 12.0398C79.3202 12.0398 79.2502 12.0398 79.1802 12.0398C78.9502 12.0398 78.7302 12.0398 78.5002 12.0398V12.0598ZM78.5002 15.4298V17.6798C78.7402 17.6798 78.9902 17.6798 79.2402 17.6898C79.3202 17.6898 79.3902 17.6898 79.4702 17.6898C79.9902 17.6898 80.4002 17.6398 80.8102 17.2898C81.0702 16.9798 81.1302 16.7598 81.1202 16.3598C81.0802 16.0898 81.0002 15.9098 80.8202 15.7098C80.3302 15.3898 79.9202 15.3898 79.3502 15.4098C79.0702 15.4098 78.7902 15.4198 78.5102 15.4298H78.5002Z" fill="url(#paint1_linear_2885_184)"/>
<path d="M76.6802 10.5098C79.7268 10.5098 81.5635 10.7964 82.1902 11.3698C82.6702 11.9198 82.7502 12.4798 82.7402 13.1898C82.7002 13.7198 82.5302 14.0198 82.1402 14.3698C82.0502 14.4398 81.9702 14.5098 81.8802 14.5798C81.9902 14.6898 82.1002 14.7998 82.2202 14.8898C82.6702 15.2498 82.9602 15.6898 83.0702 16.2598C83.1402 17.0198 82.9902 17.7098 82.4902 18.3098C81.0802 19.6998 78.2002 19.2098 76.6802 19.2098V10.5098ZM78.5002 12.0598V14.0998C78.7602 14.0998 79.0202 14.0998 79.2802 14.1098C79.3602 14.1098 79.4402 14.1098 79.5202 14.1098C79.9102 14.1098 80.2002 14.1098 80.5302 13.8798C80.7702 13.6298 80.7902 13.3998 80.8102 13.0698C80.8102 12.7698 80.7002 12.5898 80.5002 12.3698C80.1902 12.0998 79.9602 12.0398 79.5602 12.0398C79.5002 12.0398 79.4502 12.0398 79.3902 12.0398C79.3202 12.0398 79.2502 12.0398 79.1802 12.0398C78.9502 12.0398 78.7302 12.0398 78.5002 12.0398V12.0598ZM78.5002 15.4298V17.6798C78.7402 17.6798 78.9902 17.6798 79.2402 17.6898C79.3202 17.6898 79.3902 17.6898 79.4702 17.6898C79.9902 17.6898 80.4002 17.6398 80.8102 17.2898C81.0702 16.9798 81.1302 16.7598 81.1202 16.3598C81.0802 16.0898 81.0002 15.9098 80.8202 15.7098C80.3302 15.3898 79.9202 15.3898 79.3502 15.4098C79.0702 15.4098 78.7902 15.4198 78.5102 15.4298H78.5002Z" fill="url(#paint2_linear_2885_184)"/>
<path d="M37.29 10.5098H39.19V14.0198H42.7V10.5098H44.6V19.2198H42.7V15.5698H39.19V19.2198H37.29V10.5098Z" fill="url(#paint3_linear_2885_184)"/>
<path d="M37.29 10.5098H39.19V14.0198H42.7V10.5098H44.6V19.2198H42.7V15.5698H39.19V19.2198H37.29V10.5098Z" fill="url(#paint4_linear_2885_184)"/>
<path d="M0.700195 9.59984C0.880195 9.77984 0.900195 9.91984 0.960195 10.1598C1.3902 11.5998 2.6502 12.6698 3.9302 13.3898C4.2302 13.5398 4.5302 13.6798 4.8402 13.8198C4.8902 13.8398 4.9502 13.8698 5.0102 13.8898C5.0602 13.9098 5.1102 13.9298 5.1602 13.9498C5.23353 13.9898 5.29353 14.0565 5.3402 14.1498C5.38686 14.2432 5.3402 14.3665 5.2002 14.5198C5.1702 14.5998 5.1402 14.6798 5.1002 14.7598C5.0702 14.8398 5.0302 14.9298 4.9902 15.0198C4.2802 16.7798 3.6902 18.5698 3.5102 20.4698C3.5602 20.4498 3.6002 20.4198 3.6502 20.3998C4.2702 20.3198 4.7402 20.5798 5.2702 20.8898C5.4402 21.0598 5.4302 21.1198 5.4502 21.3598C5.4502 21.4265 5.45353 21.4965 5.4602 21.5698C5.4602 21.6398 5.4602 21.7198 5.4702 21.7898C5.6302 23.8598 5.9802 26.5898 7.6502 28.0498C7.7702 28.0965 7.88686 28.1198 8.0002 28.1198C8.06686 28.0865 8.13353 28.0532 8.2002 28.0198C8.4702 27.8898 8.6202 27.8798 8.9102 27.9098C9.03686 27.9898 9.1602 28.0832 9.2802 28.1898C9.35019 28.2498 9.4102 28.3098 9.4802 28.3698C9.55019 28.4298 9.6102 28.4898 9.6802 28.5498C9.73353 28.6032 9.7902 28.6565 9.8502 28.7098C9.9602 28.8098 10.0802 28.9198 10.1902 29.0198C10.4902 29.2798 10.7902 29.5198 11.1002 29.7598C11.2702 29.8898 11.4402 30.0298 11.6102 30.1698C13.0402 31.3298 14.5602 32.3598 16.1702 33.2398C16.3302 33.3298 16.4802 33.4198 16.6302 33.5198C16.8802 33.6698 17.1002 33.7798 17.3902 33.8298C17.7602 33.7298 18.0502 33.5698 18.3702 33.3598C18.5202 33.2698 18.6702 33.1798 18.8302 33.0998C20.4302 32.2598 21.8902 31.1698 23.3002 30.0398C23.3469 30.0065 23.3935 29.9698 23.4402 29.9298C24.0302 29.4498 24.6202 28.9698 25.1902 28.4698C25.2302 28.4398 25.2602 28.4098 25.3002 28.3798C25.3702 28.3198 25.4502 28.2498 25.5202 28.1898C25.7202 28.0198 25.8102 27.9398 26.0702 27.8998C26.3302 27.9398 26.5002 28.0298 26.7402 28.1498C26.9602 28.1398 27.0602 28.1098 27.2202 27.9598C28.3202 26.4198 29.1502 24.4998 29.2202 22.5898C29.2202 22.4965 29.2235 22.4032 29.2302 22.3098C29.2302 22.1298 29.2402 21.9398 29.2402 21.7598C29.2535 21.3398 29.3302 21.0598 29.4702 20.9198C29.6302 20.8298 29.7902 20.7598 29.9602 20.6998C30.0502 20.6598 30.1502 20.6198 30.2402 20.5698C30.6102 20.4398 30.9902 20.4298 31.3602 20.5598C31.2502 18.6998 30.6502 17.0698 29.9602 15.3598C29.9335 15.2865 29.9035 15.2165 29.8702 15.1498C29.7402 14.8198 29.6002 14.4998 29.4602 14.1698C29.5002 14.1498 29.5402 14.1298 29.5802 14.1198C30.4302 13.7298 31.2402 13.3298 31.9902 12.7698C32.0302 12.7398 32.0702 12.7098 32.1102 12.6798C33.0802 11.9498 33.6702 11.0598 33.9602 9.88984H34.0302C34.1302 10.7998 33.7402 11.7098 33.1902 12.4198C32.4902 13.2398 31.6402 13.7498 30.6702 14.2098C30.4802 14.2998 30.3202 14.3798 30.1702 14.5298C30.1902 14.5798 30.2102 14.6298 30.2302 14.6798C31.5635 17.9865 32.0569 20.1832 31.7102 21.2698C31.7102 21.2698 31.6202 21.2498 31.5702 21.2298C30.9702 21.1298 30.5102 21.2298 29.9502 21.4798C29.8302 21.5998 29.8502 21.7698 29.8302 21.9298C29.8235 22.0098 29.8169 22.0898 29.8102 22.1698C29.8102 22.2598 29.7902 22.3398 29.7802 22.4298C29.7102 23.1298 29.6202 23.8098 29.4602 24.4898C29.4402 24.5798 29.4202 24.6798 29.4002 24.7698C29.2702 25.3598 29.0902 25.9098 28.8302 26.4498C28.8102 26.4898 28.7902 26.5298 28.7702 26.5698C28.3602 27.4198 27.8402 28.1898 27.1402 28.8298C26.9535 28.7365 26.8202 28.6632 26.7402 28.6098C26.4902 28.5098 26.2802 28.4798 26.0202 28.5498C25.7402 28.7298 25.4902 28.9498 25.2502 29.1798C25.1302 29.2898 25.0102 29.3898 24.8902 29.4998C24.8302 29.5498 24.7702 29.5998 24.7202 29.6598C24.4402 29.9098 24.1402 30.1398 23.8502 30.3698C23.7802 30.4298 23.7002 30.4898 23.6302 30.5498C23.4202 30.7198 23.2102 30.8798 23.0002 31.0398C22.9202 31.0998 22.8302 31.1698 22.7502 31.2298C21.4302 32.2598 20.0102 33.2398 18.5202 34.0098C18.4302 34.0598 18.3402 34.1098 18.2502 34.1598C18.1602 34.2098 18.0702 34.2498 17.9902 34.2998C17.9102 34.3398 17.8402 34.3798 17.7602 34.4198C17.3602 34.5598 17.0702 34.4498 16.7002 34.2698C16.5702 34.1998 16.4402 34.1298 16.3102 34.0598C16.2402 34.0198 16.1702 33.9898 16.1002 33.9498C14.2802 32.9698 12.6202 31.7198 11.0202 30.4298C10.9602 30.3798 10.9002 30.3298 10.8402 30.2798C10.4302 29.9398 10.0202 29.5998 9.6102 29.2498C9.5302 29.1798 9.4502 29.1198 9.3802 29.0498C9.3002 28.9798 9.2302 28.9198 9.1502 28.8498C8.9002 28.6298 8.7402 28.5398 8.4102 28.5098C8.0802 28.5398 7.9302 28.6298 7.6602 28.8098C6.3202 27.7998 5.4802 25.7998 5.2002 24.1798C5.1702 23.9598 5.1402 23.7298 5.1102 23.5098C5.1102 23.4498 5.1002 23.3898 5.0902 23.3298C5.0502 23.0198 5.0202 22.7198 4.9902 22.4098C4.9802 22.2998 4.9602 22.1798 4.9502 22.0698C4.9502 22.0165 4.94686 21.9632 4.9402 21.9098C4.9102 21.6498 4.89019 21.5398 4.6802 21.3798C4.1602 21.1598 3.6602 21.0998 3.1002 21.2398C2.7002 20.5298 2.9402 19.4098 3.1502 18.6598C3.1802 18.5598 3.2102 18.4598 3.2402 18.3698C3.2602 18.3198 3.2702 18.2698 3.2902 18.2198C3.6402 17.0898 4.0902 15.9998 4.5702 14.9198C4.64353 14.7665 4.69353 14.6065 4.7202 14.4398C4.6502 14.4098 4.5802 14.3698 4.5002 14.3298C2.9102 13.5498 1.5202 12.6198 0.910195 10.8798C0.780195 10.4398 0.680195 10.0498 0.720195 9.58984L0.700195 9.59984Z" fill="#EBB312"/>
<path d="M61.46 13.0409C61.98 13.1509 62.5 13.1409 63.03 13.1609C63.13 13.1609 63.24 13.1609 63.35 13.1609C63.6 13.1609 63.86 13.1709 64.11 13.1809V14.5109H63.27C63.29 14.5642 63.3133 14.6209 63.34 14.6809C63.51 15.2809 63.39 15.7809 63.13 16.3309C62.64 17.1009 61.8 17.2709 60.97 17.4509C60.92 17.4609 60.86 17.4709 60.81 17.4909C60.7167 17.5109 60.6267 17.5442 60.54 17.5909V17.8009C60.97 17.9209 61.39 18.0209 61.83 18.0909C62.8767 18.2642 63.57 18.5676 63.91 19.0009C64.17 19.5109 64.17 20.0209 64 20.5609C63.78 21.1009 63.3 21.4009 62.78 21.6209C62.17 21.8509 61.58 21.9009 60.94 21.9009C60.86 21.9009 60.78 21.9009 60.7 21.9009C59.86 21.8909 59 21.8009 58.37 21.1909C58.07 20.8609 57.98 20.5909 57.99 20.1509C58.03 19.7809 58.23 19.5509 58.49 19.3009C58.7 19.1509 58.9 19.0409 59.13 18.9309C59.1 18.9009 59.07 18.8609 59.04 18.8309C59 18.7842 58.96 18.7409 58.92 18.7009C58.92 18.7009 58.84 18.6109 58.8 18.5709C58.61 18.3409 58.6 18.1809 58.63 17.8909C58.82 17.5209 59.06 17.3409 59.4 17.1209C59.36 17.1009 59.32 17.0709 59.28 17.0509C58.74 16.7109 58.38 16.3509 58.21 15.7209C58.14 15.0409 58.19 14.4309 58.61 13.8809C59.33 13.1009 60.43 12.8009 61.46 13.0509V13.0409ZM60.05 14.6609C59.88 14.9409 59.87 15.1809 59.9 15.5009C60.03 15.7909 60.19 15.9709 60.46 16.1309C60.81 16.1909 61.08 16.1709 61.4 16.0209C61.63 15.8109 61.71 15.6609 61.79 15.3609C61.79 15.0109 61.7 14.7909 61.47 14.5209C60.97 14.2309 60.46 14.2109 60.05 14.6609ZM59.87 19.7309C59.7833 19.8509 59.7433 19.9842 59.75 20.1309C59.86 20.4109 59.99 20.4809 60.25 20.6209C60.71 20.7709 61.31 20.7609 61.77 20.6009C61.9567 20.5009 62.1033 20.3676 62.21 20.2009C62.25 19.9509 62.25 19.8309 62.1 19.6209C61.75 19.3709 61.41 19.3409 60.99 19.3309C60.9 19.3309 60.81 19.3309 60.72 19.3309C60.36 19.3709 60.13 19.4809 59.87 19.7309Z" fill="url(#paint5_linear_2885_184)"/>
<path d="M61.46 13.0409C61.98 13.1509 62.5 13.1409 63.03 13.1609C63.13 13.1609 63.24 13.1609 63.35 13.1609C63.6 13.1609 63.86 13.1709 64.11 13.1809V14.5109H63.27C63.29 14.5642 63.3133 14.6209 63.34 14.6809C63.51 15.2809 63.39 15.7809 63.13 16.3309C62.64 17.1009 61.8 17.2709 60.97 17.4509C60.92 17.4609 60.86 17.4709 60.81 17.4909C60.7167 17.5109 60.6267 17.5442 60.54 17.5909V17.8009C60.97 17.9209 61.39 18.0209 61.83 18.0909C62.8767 18.2642 63.57 18.5676 63.91 19.0009C64.17 19.5109 64.17 20.0209 64 20.5609C63.78 21.1009 63.3 21.4009 62.78 21.6209C62.17 21.8509 61.58 21.9009 60.94 21.9009C60.86 21.9009 60.78 21.9009 60.7 21.9009C59.86 21.8909 59 21.8009 58.37 21.1909C58.07 20.8609 57.98 20.5909 57.99 20.1509C58.03 19.7809 58.23 19.5509 58.49 19.3009C58.7 19.1509 58.9 19.0409 59.13 18.9309C59.1 18.9009 59.07 18.8609 59.04 18.8309C59 18.7842 58.96 18.7409 58.92 18.7009C58.92 18.7009 58.84 18.6109 58.8 18.5709C58.61 18.3409 58.6 18.1809 58.63 17.8909C58.82 17.5209 59.06 17.3409 59.4 17.1209C59.36 17.1009 59.32 17.0709 59.28 17.0509C58.74 16.7109 58.38 16.3509 58.21 15.7209C58.14 15.0409 58.19 14.4309 58.61 13.8809C59.33 13.1009 60.43 12.8009 61.46 13.0509V13.0409ZM60.05 14.6609C59.88 14.9409 59.87 15.1809 59.9 15.5009C60.03 15.7909 60.19 15.9709 60.46 16.1309C60.81 16.1909 61.08 16.1709 61.4 16.0209C61.63 15.8109 61.71 15.6609 61.79 15.3609C61.79 15.0109 61.7 14.7909 61.47 14.5209C60.97 14.2309 60.46 14.2109 60.05 14.6609ZM59.87 19.7309C59.7833 19.8509 59.7433 19.9842 59.75 20.1309C59.86 20.4109 59.99 20.4809 60.25 20.6209C60.71 20.7709 61.31 20.7609 61.77 20.6009C61.9567 20.5009 62.1033 20.3676 62.21 20.2009C62.25 19.9509 62.25 19.8309 62.1 19.6209C61.75 19.3709 61.41 19.3409 60.99 19.3309C60.9 19.3309 60.81 19.3309 60.72 19.3309C60.36 19.3709 60.13 19.4809 59.87 19.7309Z" fill="url(#paint6_linear_2885_184)"/>
<path d="M78.0104 22.8691C78.4304 22.8891 78.8404 22.9191 79.2704 22.9391C79.2171 23.3591 79.1704 23.6458 79.1304 23.7991C79.1171 23.8525 79.1037 23.9058 79.0904 23.9591C79.0771 24.0125 79.0637 24.0691 79.0504 24.1291C79.0204 24.2491 78.9904 24.3691 78.9604 24.4991C78.9404 24.5591 78.9304 24.6291 78.9104 24.6891C78.6004 25.9791 78.3104 27.2591 78.0704 28.5591C78.0904 28.5191 78.1104 28.4791 78.1404 28.4391C78.6004 27.5691 79.0804 26.7091 79.5804 25.8691C79.6304 25.7891 79.6704 25.7091 79.7204 25.6291C79.8104 25.4791 79.9004 25.3291 79.9904 25.1891C80.0704 25.0591 80.1404 24.9291 80.2204 24.7891C80.3737 24.5158 80.5304 24.3525 80.6904 24.2991C80.8604 24.2891 81.0204 24.2991 81.2004 24.2991C81.2604 24.2991 81.3204 24.2991 81.3804 24.2991C81.5204 24.2991 81.6704 24.3191 81.8104 24.3291C81.7704 25.3491 81.6904 26.3591 81.6004 27.3691C81.6004 27.4291 81.6004 27.4791 81.5904 27.5391C81.5904 27.6491 81.5704 27.7491 81.5604 27.8591C81.5404 28.1391 81.5304 28.4091 81.5304 28.6891C81.5504 28.6491 81.5704 28.5991 81.5904 28.5591C81.8104 28.0991 82.0304 27.6491 82.2504 27.1891C82.3304 27.0191 82.4104 26.8491 82.5004 26.6791C82.9504 25.7391 83.4104 24.7991 83.8704 23.8591C83.9104 23.7791 83.9504 23.6991 83.9904 23.6191C84.0304 23.5491 84.0604 23.4791 84.1004 23.3991C84.1304 23.3391 84.1604 23.2691 84.2004 23.2091C84.2537 23.1158 84.3037 23.0458 84.3504 22.9991C84.4404 22.9991 84.5404 22.9991 84.6304 22.9991C84.6904 22.9991 84.7404 22.9991 84.8004 22.9991C84.8604 22.9991 84.9204 22.9991 84.9804 22.9991C85.0404 22.9991 85.1004 22.9991 85.1604 22.9991C85.3104 22.9991 85.4604 22.9991 85.6104 22.9991C85.5504 23.2391 85.4704 23.4591 85.3604 23.6791C85.3304 23.7491 85.3004 23.8191 85.2604 23.8891C85.2337 23.9425 85.2104 23.9958 85.1904 24.0491C85.1904 24.0491 85.2704 23.9991 85.3104 23.9791C85.5604 23.8691 85.7704 23.9091 86.0304 23.9791C86.2304 24.1391 86.2404 24.2391 86.2704 24.4991C86.2304 24.7991 86.1404 24.9391 85.9604 25.1791C85.9304 25.2191 85.9004 25.2591 85.8704 25.3091C85.6604 25.4491 85.4304 25.4791 85.1904 25.4591C85.0504 25.3858 84.9337 25.2925 84.8404 25.1791C84.8104 25.0391 84.7904 24.8991 84.7704 24.7591C84.5004 25.2991 84.2304 25.8391 83.9604 26.3791C83.8304 26.6291 83.7104 26.8791 83.5804 27.1291C83.0004 28.2791 82.4304 29.4291 81.8804 30.5991C81.8404 30.6891 81.7904 30.7791 81.7504 30.8691H80.2104C80.2004 30.0491 80.2504 29.2391 80.3204 28.4191C80.3404 28.2391 80.3504 28.0591 80.3704 27.8691C80.3704 27.7591 80.3904 27.6491 80.4004 27.5291C80.4304 27.1891 80.4404 26.8591 80.4304 26.5091C80.2704 26.7891 80.1204 27.0691 79.9604 27.3391C79.9404 27.3791 79.9104 27.4191 79.8904 27.4691C79.4904 28.1891 79.1004 28.8991 78.7204 29.6291C78.6504 29.7691 78.5704 29.9091 78.4904 30.0491C78.4237 30.1691 78.3637 30.2891 78.3104 30.4091C78.2304 30.5691 78.1704 30.6791 78.0404 30.7991C77.7604 30.8691 77.5004 30.8491 77.2104 30.8391C77.1304 30.8391 77.0604 30.8391 76.9804 30.8391C76.7904 30.8391 76.6104 30.8191 76.4204 30.8091C76.6904 29.1491 77.0104 27.4991 77.3504 25.8591C77.3704 25.7725 77.3871 25.6825 77.4004 25.5891C77.5904 24.6791 77.7804 23.7691 78.0304 22.8791L78.0104 22.8691Z" fill="white"/>
<path d="M39.1103 22.5893H40.3003C40.4103 22.8093 40.3203 23.0093 40.2603 23.2293C40.2503 23.2793 40.2303 23.3293 40.2203 23.3893C40.1903 23.4993 40.1603 23.6193 40.1403 23.7293C40.0703 24.0293 39.9903 24.3293 39.9203 24.6293C39.9069 24.6893 39.8903 24.7526 39.8703 24.8193C39.7103 25.5093 39.5603 26.1993 39.4103 26.8893C39.4003 26.9493 39.3903 27.0093 39.3703 27.0693C39.3403 27.2393 39.3003 27.3993 39.2703 27.5693C39.2603 27.6193 39.2503 27.6693 39.2403 27.7193C39.2069 27.8859 39.1836 28.0526 39.1703 28.2193C39.1703 28.2193 39.2203 28.1293 39.2403 28.0793C39.7403 27.1093 40.2503 26.1393 40.8003 25.1993C40.9203 24.9893 41.0303 24.7793 41.1203 24.5593C41.2336 24.2993 41.3569 24.1159 41.4903 24.0093C41.8803 23.9193 42.2903 23.9593 42.6803 24.0093C42.6403 24.9693 42.5603 25.9193 42.4703 26.8693C42.4703 26.9693 42.4503 27.0793 42.4403 27.1793C42.4403 27.2693 42.4203 27.3593 42.4103 27.4593C42.3903 27.7393 42.3903 28.0093 42.3903 28.2893C42.4203 28.2193 42.4603 28.1393 42.4903 28.0593C43.0803 26.7793 43.6803 25.4893 44.2803 24.2093C44.3303 24.1093 44.3803 23.9993 44.4203 23.8993C44.4903 23.7593 44.5503 23.6193 44.6203 23.4693C44.6603 23.3893 44.6903 23.3093 44.7303 23.2293C44.8636 22.9559 44.9703 22.7693 45.0503 22.6693C45.1303 22.5693 45.2236 22.5593 45.3303 22.6393C45.4369 22.7193 45.4903 22.7193 45.4903 22.6393C45.5503 22.6393 45.6003 22.6393 45.6603 22.6393C45.7136 22.6393 45.7703 22.6393 45.8303 22.6393C45.9703 22.6393 46.1103 22.6493 46.2403 22.6593C46.1403 22.9793 46.0103 23.2793 45.8603 23.5793C45.8103 23.6793 45.7603 23.7693 45.7103 23.8693C45.6803 23.9193 45.6603 23.9693 45.6303 24.0193C45.1003 25.0593 44.6003 26.1093 44.1103 27.1693C43.8503 27.7293 43.5803 28.2893 43.3203 28.8593C43.0503 29.4393 42.7803 30.0193 42.5103 30.5993C42.0103 30.5993 41.5303 30.5993 41.0403 30.5293C41.1203 29.0993 41.2103 27.6693 41.3203 26.2493C40.5503 27.6693 39.8103 29.0993 39.0703 30.5293H37.5303C37.7703 28.9993 38.0503 27.4693 38.3503 25.9493C38.3803 25.8093 38.4103 25.6693 38.4303 25.5293C38.6303 24.5493 38.8303 23.5593 39.0703 22.5893H39.1103Z" fill="white"/>
<path d="M69.1704 13.1797H71.2104C71.3804 13.6097 71.5504 14.0397 71.6904 14.4797C71.7104 14.5297 71.7304 14.5897 71.7404 14.6397C71.8004 14.8097 71.8504 14.9797 71.9104 15.1397C71.9804 15.3597 72.0604 15.5797 72.1304 15.7997C72.1504 15.853 72.1671 15.9064 72.1804 15.9597C72.3204 16.3697 72.4604 16.7697 72.6104 17.1797C72.6404 17.0997 72.6604 17.0197 72.6904 16.9297C72.7904 16.6197 72.8804 16.3097 72.9804 16.0097C73.0204 15.8797 73.0604 15.7497 73.1104 15.6097C73.3104 14.9697 73.5204 14.3197 73.7304 13.6797C73.7604 13.5997 73.7804 13.5097 73.8104 13.4297C73.8571 13.3097 73.9037 13.2264 73.9504 13.1797C74.1004 13.1797 74.2504 13.1797 74.4004 13.1797C74.4904 13.1797 74.5804 13.1797 74.6804 13.1797C74.7804 13.1797 74.8804 13.1797 74.9704 13.1797C75.0704 13.1797 75.1704 13.1797 75.2604 13.1797C75.5004 13.1797 75.7404 13.1797 75.9804 13.1797C75.4804 14.5197 74.9604 15.8597 74.4404 17.1997C74.3704 17.3897 74.2904 17.5797 74.2204 17.7597C74.1104 18.0397 74.0004 18.3197 73.8904 18.5997C73.8504 18.6997 73.8104 18.7997 73.7704 18.9097C73.3104 20.1097 72.7204 21.2497 71.5004 21.8097C71.1004 21.9597 70.7404 21.9697 70.3204 21.9697C70.2704 21.9697 70.2104 21.9697 70.1604 21.9697C69.9104 21.9697 69.7004 21.9497 69.4504 21.8897V20.1997C69.5904 20.2197 69.7304 20.2497 69.8704 20.2697C70.3204 20.3097 70.6204 20.2497 70.9904 19.9897C71.2804 19.7197 71.4704 19.4697 71.5504 19.0797C71.5004 18.8597 71.4204 18.6597 71.3304 18.4597C71.3004 18.3997 71.2804 18.3397 71.2504 18.2797C71.1704 18.0797 71.0804 17.8797 71.0004 17.6797C70.9404 17.5397 70.8804 17.3997 70.8304 17.2697C70.7104 16.9897 70.5904 16.6997 70.4704 16.4197C70.2204 15.8197 69.9704 15.2197 69.7204 14.6197C69.6504 14.4397 69.5704 14.2597 69.5004 14.0797C69.4604 13.9697 69.4104 13.8597 69.3704 13.7497C69.3504 13.6997 69.3304 13.6497 69.3104 13.5997C69.2171 13.373 69.1704 13.233 69.1704 13.1797Z" fill="url(#paint7_linear_2885_184)"/>
<path d="M69.1704 13.1797H71.2104C71.3804 13.6097 71.5504 14.0397 71.6904 14.4797C71.7104 14.5297 71.7304 14.5897 71.7404 14.6397C71.8004 14.8097 71.8504 14.9797 71.9104 15.1397C71.9804 15.3597 72.0604 15.5797 72.1304 15.7997C72.1504 15.853 72.1671 15.9064 72.1804 15.9597C72.3204 16.3697 72.4604 16.7697 72.6104 17.1797C72.6404 17.0997 72.6604 17.0197 72.6904 16.9297C72.7904 16.6197 72.8804 16.3097 72.9804 16.0097C73.0204 15.8797 73.0604 15.7497 73.1104 15.6097C73.3104 14.9697 73.5204 14.3197 73.7304 13.6797C73.7604 13.5997 73.7804 13.5097 73.8104 13.4297C73.8571 13.3097 73.9037 13.2264 73.9504 13.1797C74.1004 13.1797 74.2504 13.1797 74.4004 13.1797C74.4904 13.1797 74.5804 13.1797 74.6804 13.1797C74.7804 13.1797 74.8804 13.1797 74.9704 13.1797C75.0704 13.1797 75.1704 13.1797 75.2604 13.1797C75.5004 13.1797 75.7404 13.1797 75.9804 13.1797C75.4804 14.5197 74.9604 15.8597 74.4404 17.1997C74.3704 17.3897 74.2904 17.5797 74.2204 17.7597C74.1104 18.0397 74.0004 18.3197 73.8904 18.5997C73.8504 18.6997 73.8104 18.7997 73.7704 18.9097C73.3104 20.1097 72.7204 21.2497 71.5004 21.8097C71.1004 21.9597 70.7404 21.9697 70.3204 21.9697C70.2704 21.9697 70.2104 21.9697 70.1604 21.9697C69.9104 21.9697 69.7004 21.9497 69.4504 21.8897V20.1997C69.5904 20.2197 69.7304 20.2497 69.8704 20.2697C70.3204 20.3097 70.6204 20.2497 70.9904 19.9897C71.2804 19.7197 71.4704 19.4697 71.5504 19.0797C71.5004 18.8597 71.4204 18.6597 71.3304 18.4597C71.3004 18.3997 71.2804 18.3397 71.2504 18.2797C71.1704 18.0797 71.0804 17.8797 71.0004 17.6797C70.9404 17.5397 70.8804 17.3997 70.8304 17.2697C70.7104 16.9897 70.5904 16.6997 70.4704 16.4197C70.2204 15.8197 69.9704 15.2197 69.7204 14.6197C69.6504 14.4397 69.5704 14.2597 69.5004 14.0797C69.4604 13.9697 69.4104 13.8597 69.3704 13.7497C69.3504 13.6997 69.3304 13.6497 69.3104 13.5997C69.2171 13.373 69.1704 13.233 69.1704 13.1797Z" fill="url(#paint8_linear_2885_184)"/>
<path d="M91.2102 25.75H92.4702C92.5702 25.97 92.6702 26.19 92.7702 26.41C92.8002 26.47 92.8302 26.53 92.8602 26.6C93.2202 27.39 93.4702 28.16 93.2702 29.03C93.0902 29.49 92.7502 29.83 92.3102 30.05C91.8202 30.2 91.1802 30.19 90.7102 29.99C90.4702 29.86 90.2402 29.71 90.0102 29.55C89.9502 29.6 89.8902 29.66 89.8302 29.71C89.4302 30.04 89.0502 30.16 88.5402 30.11C88.2402 30 88.0702 29.89 87.9102 29.62C87.7302 28.88 88.0802 28.27 88.4002 27.62C88.5202 27.37 88.5902 27.16 88.6202 26.88C88.2502 26.91 88.0302 27.04 87.7802 27.3C87.2202 28.1 86.8802 29.04 86.5902 29.97H85.4702C85.4702 29.97 85.4202 29.88 85.4002 29.83C85.3535 29.8633 85.3035 29.8967 85.2502 29.93C85.0102 30.05 84.8602 30.07 84.5902 30.07C84.5102 30.07 84.4402 30.07 84.3602 30.07C84.0902 30.03 83.9802 29.94 83.7902 29.75C83.4902 29.25 83.6602 28.62 83.7902 28.09C83.9802 27.34 84.2802 26.61 84.5702 25.89H85.6902C85.6402 26.2 85.5902 26.42 85.4802 26.7C85.4502 26.77 85.4202 26.84 85.4002 26.92C85.3702 26.99 85.3402 27.07 85.3102 27.15C85.0702 27.7433 84.9168 28.3533 84.8502 28.98C85.3402 28.87 85.6002 28.58 85.8802 28.18C86.3102 27.5 86.5502 26.72 86.8102 25.96H87.9302C87.9102 26.08 87.8802 26.19 87.8602 26.31C87.9002 26.28 87.9302 26.25 87.9702 26.22C88.3602 25.93 88.6902 25.78 89.1902 25.82C89.4902 25.92 89.6602 26.04 89.8202 26.31C89.9702 27.14 89.5702 27.84 89.1802 28.55C89.1268 28.6633 89.1068 28.8067 89.1202 28.98C89.4602 28.95 89.6002 28.81 89.8202 28.56C90.5102 27.74 90.8902 26.75 91.2202 25.75H91.2102ZM91.7802 27.01C91.7402 27.08 91.7102 27.16 91.6702 27.23C91.4002 27.78 91.1202 28.32 90.7902 28.83C90.9768 29.0233 91.1935 29.15 91.4402 29.21C91.6868 29.27 91.8402 29.21 91.9002 29.03C92.1902 28.65 92.2102 28.38 92.1602 27.92C92.1002 27.6 91.9802 27.31 91.8402 27.01H91.7702H91.7802Z" fill="white"/>
<path d="M59.6403 23.2797C60.1103 23.6697 60.4103 24.0997 60.4703 24.7197C60.4903 25.3496 60.3203 25.8196 59.9203 26.2996C59.4603 26.7796 58.9203 27.0597 58.2803 27.2297C58.3303 27.2697 58.3803 27.2997 58.4303 27.3397C58.8203 27.6697 59.1403 28.0097 59.2203 28.5297C59.2303 29.0897 59.1003 29.5197 58.7403 29.9497C57.9403 30.7097 56.8603 30.7797 55.8203 30.7597C54.9703 30.7297 54.1903 30.4997 53.4403 30.1097C53.3903 30.0897 53.3503 30.0597 53.3003 30.0397C53.3403 29.7797 53.4103 29.5797 53.5403 29.3597C53.567 29.3063 53.597 29.2497 53.6303 29.1897C53.6636 29.1297 53.767 29.063 53.9403 28.9897C54.1103 29.0497 54.2703 29.1197 54.4303 29.1997C54.4503 29.1497 54.4603 29.1097 54.4803 29.0597C54.6303 28.6097 54.7903 28.1697 54.9403 27.7197C55.0203 27.4897 55.1003 27.2597 55.1803 27.0297C55.2703 26.7697 55.3603 26.4997 55.4503 26.2397C55.4803 26.1597 55.5103 26.0797 55.5403 25.9897C55.5703 25.9097 55.5903 25.8397 55.6203 25.7597C55.6403 25.6897 55.6703 25.6197 55.6903 25.5597C55.7803 25.3197 55.8803 25.0897 55.9803 24.8597H57.1703C57.0603 25.4697 56.8303 26.0397 56.6103 26.6197C57.4803 26.5397 58.4003 26.4096 59.0003 25.7096C59.1903 25.3996 59.1903 25.0797 59.1403 24.7297C58.9503 24.3297 58.6603 24.1197 58.2503 23.9497C57.1703 23.6497 56.1203 24.0097 55.1403 24.4497C55.0703 24.2997 55.0003 24.1497 54.9203 24.0097C54.8803 23.9297 54.8403 23.8497 54.8003 23.7597C54.7403 23.613 54.7336 23.4697 54.7803 23.3297C56.1403 22.5097 58.3303 22.3297 59.6503 23.3097L59.6403 23.2797ZM56.2403 27.5797C56.0503 28.0297 55.8903 28.4897 55.7303 28.9497C55.7103 29.0097 55.6903 29.0597 55.6703 29.1197C55.6036 29.3063 55.557 29.4963 55.5303 29.6897C56.1203 29.8697 56.7903 29.8197 57.3503 29.5597C57.6003 29.4097 57.7803 29.2497 57.9203 28.9797C57.9503 28.6397 57.9603 28.4897 57.7803 28.1897C57.4403 27.8397 56.9803 27.6797 56.5203 27.5797H56.2403Z" fill="white"/>
<path d="M94.5902 13.4591C95.1202 13.9491 95.3702 14.4291 95.4302 15.1491C95.4302 15.4591 95.4302 15.7791 95.4302 16.0891C95.4302 16.1791 95.4302 16.2691 95.4302 16.3591C95.4302 16.5991 95.4302 16.8291 95.4302 17.0691C95.4302 17.3091 95.4302 17.5491 95.4302 17.7991C95.4302 18.2691 95.4302 18.7491 95.4302 19.2191H93.7402C93.6935 18.9858 93.6469 18.7524 93.6002 18.5191C93.5702 18.5691 93.5302 18.6191 93.4902 18.6691C93.1302 19.0791 92.6602 19.3191 92.1202 19.3791C91.4602 19.3791 90.8702 19.3091 90.3702 18.8491C89.9502 18.3691 89.9102 17.8991 89.9202 17.2791C89.9702 16.7991 90.1302 16.4791 90.4802 16.1391C90.9902 15.7291 91.6002 15.5491 92.2402 15.5591C92.3102 15.5591 92.3902 15.5591 92.4702 15.5591C92.5502 15.5591 92.6269 15.5591 92.7002 15.5591C92.7802 15.5591 92.8602 15.5591 92.9402 15.5591C93.1302 15.5591 93.3302 15.5591 93.5202 15.5591C93.5002 15.4691 93.4802 15.3791 93.4602 15.2891C93.4502 15.2391 93.4402 15.1891 93.4302 15.1391C93.3702 14.9391 93.2702 14.8391 93.1102 14.7191C92.2702 14.4391 91.3702 14.6791 90.5802 14.9991C90.5102 15.0191 90.4402 15.0491 90.3702 15.0691V13.3791C90.7369 13.2191 90.9936 13.1258 91.1402 13.0991C91.1402 13.0991 91.2302 13.0791 91.2802 13.0691C91.3269 13.0624 91.3769 13.0524 91.4302 13.0391C91.4802 13.0391 91.5302 13.0191 91.5902 13.0091C92.5402 12.8591 93.7802 12.8291 94.5902 13.4391V13.4591ZM91.8202 16.9191C91.6802 17.1691 91.6702 17.3191 91.7102 17.5991C91.8602 17.8191 91.9602 17.8691 92.2202 17.9491C92.6602 17.9491 92.9302 17.7791 93.2502 17.4791C93.4302 17.1991 93.4902 16.9391 93.5402 16.6191C93.0002 16.3491 92.2502 16.5291 91.8202 16.9191Z" fill="url(#paint9_linear_2885_184)"/>
<path d="M94.5902 13.4591C95.1202 13.9491 95.3702 14.4291 95.4302 15.1491C95.4302 15.4591 95.4302 15.7791 95.4302 16.0891C95.4302 16.1791 95.4302 16.2691 95.4302 16.3591C95.4302 16.5991 95.4302 16.8291 95.4302 17.0691C95.4302 17.3091 95.4302 17.5491 95.4302 17.7991C95.4302 18.2691 95.4302 18.7491 95.4302 19.2191H93.7402C93.6935 18.9858 93.6469 18.7524 93.6002 18.5191C93.5702 18.5691 93.5302 18.6191 93.4902 18.6691C93.1302 19.0791 92.6602 19.3191 92.1202 19.3791C91.4602 19.3791 90.8702 19.3091 90.3702 18.8491C89.9502 18.3691 89.9102 17.8991 89.9202 17.2791C89.9702 16.7991 90.1302 16.4791 90.4802 16.1391C90.9902 15.7291 91.6002 15.5491 92.2402 15.5591C92.3102 15.5591 92.3902 15.5591 92.4702 15.5591C92.5502 15.5591 92.6269 15.5591 92.7002 15.5591C92.7802 15.5591 92.8602 15.5591 92.9402 15.5591C93.1302 15.5591 93.3302 15.5591 93.5202 15.5591C93.5002 15.4691 93.4802 15.3791 93.4602 15.2891C93.4502 15.2391 93.4402 15.1891 93.4302 15.1391C93.3702 14.9391 93.2702 14.8391 93.1102 14.7191C92.2702 14.4391 91.3702 14.6791 90.5802 14.9991C90.5102 15.0191 90.4402 15.0491 90.3702 15.0691V13.3791C90.7369 13.2191 90.9936 13.1258 91.1402 13.0991C91.1402 13.0991 91.2302 13.0791 91.2802 13.0691C91.3269 13.0624 91.3769 13.0524 91.4302 13.0391C91.4802 13.0391 91.5302 13.0191 91.5902 13.0091C92.5402 12.8591 93.7802 12.8291 94.5902 13.4391V13.4591ZM91.8202 16.9191C91.6802 17.1691 91.6702 17.3191 91.7102 17.5991C91.8602 17.8191 91.9602 17.8691 92.2202 17.9491C92.6602 17.9491 92.9302 17.7791 93.2502 17.4791C93.4302 17.1991 93.4902 16.9391 93.5402 16.6191C93.0002 16.3491 92.2502 16.5291 91.8202 16.9191Z" fill="url(#paint10_linear_2885_184)"/>
<path d="M57.1202 13.4206C57.5402 13.8606 57.7402 14.4606 57.7402 15.0606C57.7402 15.1106 57.7402 15.1506 57.7402 15.2006C57.7402 15.3506 57.7402 15.5006 57.7402 15.6406C57.7402 15.7406 57.7402 15.8506 57.7402 15.9506C57.7402 16.2206 57.7402 16.4906 57.7402 16.7606C57.7402 17.0406 57.7402 17.3106 57.7402 17.5906C57.7402 18.1306 57.7402 18.6706 57.7402 19.2206H55.9102C55.9102 18.9473 55.9102 18.6706 55.9102 18.3906C55.9102 18.1206 55.9102 17.8606 55.9002 17.5906C55.9002 17.4106 55.9002 17.2206 55.9002 17.0406C55.9002 16.7806 55.9002 16.5106 55.9002 16.2506C55.9002 16.1706 55.9002 16.0906 55.9002 16.0006C55.9002 15.5706 55.8702 15.2406 55.6502 14.8606C55.4102 14.7106 55.1402 14.7006 54.8602 14.7506C54.4802 14.8806 54.1902 15.0606 53.9902 15.4206C53.8402 15.7806 53.8602 16.1406 53.8602 16.5206C53.8602 16.6006 53.8602 16.6706 53.8602 16.7506C53.8602 17.0006 53.8602 17.2406 53.8602 17.4906C53.8602 17.6606 53.8602 17.8206 53.8602 17.9906C53.8602 18.4006 53.8502 18.8106 53.8502 19.2106H51.9502V13.1706H53.6402C53.7202 13.3306 53.7302 13.4606 53.7502 13.6406C53.7502 13.7006 53.7569 13.7573 53.7702 13.8106C53.7702 13.8106 53.7702 13.9006 53.7802 13.9406C53.8202 13.8806 53.8702 13.8206 53.9102 13.7606C54.7002 12.8206 56.2202 12.6606 57.1802 13.4106L57.1202 13.4206Z" fill="url(#paint11_linear_2885_184)"/>
<path d="M57.1202 13.4206C57.5402 13.8606 57.7402 14.4606 57.7402 15.0606C57.7402 15.1106 57.7402 15.1506 57.7402 15.2006C57.7402 15.3506 57.7402 15.5006 57.7402 15.6406C57.7402 15.7406 57.7402 15.8506 57.7402 15.9506C57.7402 16.2206 57.7402 16.4906 57.7402 16.7606C57.7402 17.0406 57.7402 17.3106 57.7402 17.5906C57.7402 18.1306 57.7402 18.6706 57.7402 19.2206H55.9102C55.9102 18.9473 55.9102 18.6706 55.9102 18.3906C55.9102 18.1206 55.9102 17.8606 55.9002 17.5906C55.9002 17.4106 55.9002 17.2206 55.9002 17.0406C55.9002 16.7806 55.9002 16.5106 55.9002 16.2506C55.9002 16.1706 55.9002 16.0906 55.9002 16.0006C55.9002 15.5706 55.8702 15.2406 55.6502 14.8606C55.4102 14.7106 55.1402 14.7006 54.8602 14.7506C54.4802 14.8806 54.1902 15.0606 53.9902 15.4206C53.8402 15.7806 53.8602 16.1406 53.8602 16.5206C53.8602 16.6006 53.8602 16.6706 53.8602 16.7506C53.8602 17.0006 53.8602 17.2406 53.8602 17.4906C53.8602 17.6606 53.8602 17.8206 53.8602 17.9906C53.8602 18.4006 53.8502 18.8106 53.8502 19.2106H51.9502V13.1706H53.6402C53.7202 13.3306 53.7302 13.4606 53.7502 13.6406C53.7502 13.7006 53.7569 13.7573 53.7702 13.8106C53.7702 13.8106 53.7702 13.9006 53.7802 13.9406C53.8202 13.8806 53.8702 13.8206 53.9102 13.7606C54.7002 12.8206 56.2202 12.6606 57.1802 13.4106L57.1202 13.4206Z" fill="url(#paint12_linear_2885_184)"/>
<path d="M45.3601 13.1797H47.1901C47.1901 13.4497 47.1901 13.7197 47.1901 13.9897C47.1901 14.2497 47.1901 14.5097 47.2001 14.7697C47.2001 14.9497 47.2001 15.1297 47.2001 15.3097C47.2001 15.5697 47.2001 15.8297 47.2001 16.0897C47.2001 16.1697 47.2001 16.2497 47.2001 16.3297C47.2001 16.7597 47.2301 17.0797 47.4501 17.4597C47.6201 17.5997 47.7401 17.5997 47.9601 17.6297C48.3401 17.5897 48.6301 17.4797 48.9001 17.1997C49.1401 16.8797 49.2201 16.6097 49.2201 16.1997C49.2201 16.1297 49.2201 16.0697 49.2201 15.9997C49.2201 15.9264 49.2201 15.853 49.2201 15.7797C49.2201 15.7097 49.2201 15.6297 49.2201 15.5497C49.2201 15.3097 49.2201 15.0697 49.2301 14.8397C49.2301 14.6797 49.2301 14.5197 49.2301 14.3597C49.2301 13.9697 49.2401 13.5697 49.2501 13.1797H51.1501V19.2197H49.3901C49.3701 18.9397 49.3401 18.6597 49.3201 18.3797C49.2801 18.4397 49.2301 18.4997 49.1901 18.5597C48.8101 19.0097 48.2101 19.3197 47.6301 19.3797C46.9501 19.3797 46.4101 19.2897 45.8701 18.8597C45.4301 18.3997 45.3101 17.8297 45.3101 17.2197V16.9497C45.3101 16.8497 45.3101 16.7597 45.3101 16.6597C45.3101 16.5597 45.3101 16.4597 45.3101 16.3597C45.3101 16.0997 45.3101 15.8297 45.3101 15.5697C45.3101 15.2997 45.3101 15.0297 45.3101 14.7597C45.3101 14.2297 45.3101 13.7097 45.3101 13.1797H45.3601Z" fill="url(#paint13_linear_2885_184)"/>
<path d="M45.3601 13.1797H47.1901C47.1901 13.4497 47.1901 13.7197 47.1901 13.9897C47.1901 14.2497 47.1901 14.5097 47.2001 14.7697C47.2001 14.9497 47.2001 15.1297 47.2001 15.3097C47.2001 15.5697 47.2001 15.8297 47.2001 16.0897C47.2001 16.1697 47.2001 16.2497 47.2001 16.3297C47.2001 16.7597 47.2301 17.0797 47.4501 17.4597C47.6201 17.5997 47.7401 17.5997 47.9601 17.6297C48.3401 17.5897 48.6301 17.4797 48.9001 17.1997C49.1401 16.8797 49.2201 16.6097 49.2201 16.1997C49.2201 16.1297 49.2201 16.0697 49.2201 15.9997C49.2201 15.9264 49.2201 15.853 49.2201 15.7797C49.2201 15.7097 49.2201 15.6297 49.2201 15.5497C49.2201 15.3097 49.2201 15.0697 49.2301 14.8397C49.2301 14.6797 49.2301 14.5197 49.2301 14.3597C49.2301 13.9697 49.2401 13.5697 49.2501 13.1797H51.1501V19.2197H49.3901C49.3701 18.9397 49.3401 18.6597 49.3201 18.3797C49.2801 18.4397 49.2301 18.4997 49.1901 18.5597C48.8101 19.0097 48.2101 19.3197 47.6301 19.3797C46.9501 19.3797 46.4101 19.2897 45.8701 18.8597C45.4301 18.3997 45.3101 17.8297 45.3101 17.2197V16.9497C45.3101 16.8497 45.3101 16.7597 45.3101 16.6597C45.3101 16.5597 45.3101 16.4597 45.3101 16.3597C45.3101 16.0997 45.3101 15.8297 45.3101 15.5697C45.3101 15.2997 45.3101 15.0297 45.3101 14.7597C45.3101 14.2297 45.3101 13.7097 45.3101 13.1797H45.3601Z" fill="url(#paint14_linear_2885_184)"/>
<path d="M88.55 13.5997C89.42 14.4797 89.39 15.3097 89.39 16.5497H85.46C85.6533 17.0297 85.9567 17.3897 86.37 17.6297C87.32 17.8997 88.28 17.6297 89.19 17.3197V18.9397C87.92 19.4497 86.58 19.5597 85.29 19.0797C84.6 18.7797 84.1 18.2397 83.78 17.5697C83.47 16.7397 83.39 15.6397 83.77 14.8097C84.26 13.9297 84.81 13.3797 85.78 13.0497C86.73 12.8097 87.79 12.9797 88.56 13.5997H88.55ZM85.83 14.7597C85.56 15.0397 85.53 15.1497 85.46 15.5597H87.64C87.5933 15.1797 87.45 14.8564 87.21 14.5897C86.71 14.3697 86.26 14.3697 85.84 14.7497L85.83 14.7597Z" fill="url(#paint15_linear_2885_184)"/>
<path d="M88.55 13.5997C89.42 14.4797 89.39 15.3097 89.39 16.5497H85.46C85.6533 17.0297 85.9567 17.3897 86.37 17.6297C87.32 17.8997 88.28 17.6297 89.19 17.3197V18.9397C87.92 19.4497 86.58 19.5597 85.29 19.0797C84.6 18.7797 84.1 18.2397 83.78 17.5697C83.47 16.7397 83.39 15.6397 83.77 14.8097C84.26 13.9297 84.81 13.3797 85.78 13.0497C86.73 12.8097 87.79 12.9797 88.56 13.5997H88.55ZM85.83 14.7597C85.56 15.0397 85.53 15.1497 85.46 15.5597H87.64C87.5933 15.1797 87.45 14.8564 87.21 14.5897C86.71 14.3697 86.26 14.3697 85.84 14.7497L85.83 14.7597Z" fill="url(#paint16_linear_2885_184)"/>
<path d="M46.4102 23.2891H47.5302C47.4702 23.5891 47.3902 23.8591 47.2802 24.1491C47.2602 24.1991 47.2502 24.2491 47.2302 24.2891C47.1802 24.4391 47.1202 24.5891 47.0702 24.7391C47.0302 24.8391 47.0002 24.9491 46.9602 25.0491C46.8702 25.2991 46.7802 25.5491 46.6902 25.8091C46.7102 25.8291 46.7402 25.8591 46.7602 25.8791C46.8002 25.8524 46.8436 25.8257 46.8902 25.7991C47.3002 25.5791 47.6302 25.4391 48.0902 25.5291C48.3502 25.6291 48.4202 25.7091 48.5702 25.9591C48.7102 26.3491 48.6502 26.7491 48.5102 27.1291C48.4202 27.3191 48.3302 27.5091 48.2302 27.6991C48.1602 27.8291 48.1002 27.9591 48.0302 28.0891C48.0002 28.1491 47.9702 28.1991 47.9402 28.2591C47.8869 28.3724 47.8669 28.5191 47.8802 28.6991C48.2202 28.6691 48.3602 28.5291 48.5802 28.2791C48.6402 28.2191 48.7002 28.1591 48.7602 28.0991C48.9302 27.8891 48.9902 27.6691 49.0702 27.4091C49.2902 26.6391 49.7302 26.0791 50.4302 25.6891C50.9402 25.5291 51.4402 25.4691 51.9502 25.6691C52.3502 25.8991 52.5302 26.2291 52.6502 26.6591C52.7402 27.4891 52.5602 28.2991 52.0602 28.9791C51.6602 29.4491 51.1902 29.7591 50.5702 29.8391C50.1802 29.8491 49.8202 29.8091 49.4902 29.5991C49.3502 29.4691 49.2502 29.3391 49.1402 29.1791C49.0902 29.1291 49.0502 29.0891 49.0002 29.0391C48.9602 29.0791 48.9202 29.1191 48.8802 29.1591C48.5002 29.5191 48.1802 29.7991 47.6402 29.8291C47.2302 29.8091 47.0302 29.6891 46.7502 29.3991C46.5802 29.0591 46.6402 28.6291 46.7502 28.2791C46.8702 27.9891 47.0002 27.7091 47.1402 27.4291C47.1702 27.3591 47.2002 27.2891 47.2402 27.2191C47.2702 27.1591 47.3002 27.0991 47.3302 27.0391C47.3902 26.8591 47.3902 26.7691 47.3202 26.5891C47.0102 26.6291 46.8502 26.7291 46.6202 26.9391C46.0002 27.7391 45.6702 28.7291 45.3602 29.6791H44.2402C44.3302 29.2091 44.4602 28.7791 44.6302 28.3291C44.6502 28.2591 44.6802 28.1891 44.7002 28.1291C44.7802 27.9091 44.8602 27.6891 44.9302 27.4691C44.9802 27.3191 45.0402 27.1691 45.0902 27.0191C45.2002 26.7191 45.3102 26.4091 45.4102 26.1091C45.6102 25.5491 45.8102 24.9891 46.0102 24.4291C46.0802 24.2291 46.1502 24.0391 46.2202 23.8391C46.2802 23.6591 46.3502 23.4791 46.4102 23.2891ZM50.6702 26.6891C50.3002 27.0791 50.0902 27.6491 50.0502 28.1691C50.0702 28.4391 50.1002 28.5691 50.2802 28.7691C50.3869 28.8291 50.5036 28.8524 50.6302 28.8391C51.1002 28.6091 51.3102 28.2291 51.4902 27.7591C51.5702 27.3591 51.6202 27.0291 51.4202 26.6591C51.1602 26.4391 50.9402 26.4991 50.6702 26.6891Z" fill="white"/>
<path d="M19.9403 22.5205C20.1203 22.6805 20.1503 22.7105 20.1903 22.9505C20.1403 23.2205 20.1203 23.2705 19.9503 23.4705C19.9103 23.5205 19.8603 23.5705 19.8103 23.6205C19.5403 23.9105 19.2703 24.1905 18.9903 24.4705C18.9203 24.5405 18.8503 24.6105 18.7903 24.6805C18.3703 25.1205 17.9903 25.5005 17.3803 25.6505C16.8503 25.6505 16.5203 25.4005 16.1403 25.0505C16.0503 24.9605 15.9503 24.8605 15.8603 24.7605C15.7303 24.6305 15.5903 24.5005 15.4503 24.3805C14.717 23.7472 14.3336 23.2572 14.3003 22.9105C14.4803 22.4005 15.0103 22.1905 15.4803 21.9605C16.9103 21.3505 18.7103 21.5505 19.9403 22.5105V22.5205Z" fill="#222220"/>
<path d="M14.9901 27.9599C15.3701 27.9999 15.7401 28.0099 16.1201 27.9999C16.1901 27.9999 16.2601 27.9999 16.3301 27.9999C16.5501 27.9999 16.7701 27.9999 17.0001 27.9999H17.4601C18.3101 27.9999 19.1501 27.9999 20.0001 27.9299C20.5101 27.8999 20.9201 27.9899 21.3501 28.2699C21.3301 28.4699 21.3101 28.5899 21.1701 28.7499C20.5501 29.2199 19.9001 29.6699 19.2501 30.0999C19.2001 30.1299 19.1501 30.1699 19.1001 30.1999C18.2601 30.7399 17.2801 30.7499 16.3201 30.6199C15.6401 30.4699 15.0801 30.0299 14.5501 29.5999C14.3501 29.4399 14.1401 29.2799 13.9201 29.1399C13.8701 29.1099 13.8301 29.0799 13.7801 29.0499C13.6901 28.9899 13.6001 28.9299 13.5101 28.8699C13.4301 28.8166 13.3301 28.7366 13.2101 28.6299C13.0901 28.5232 13.0901 28.4066 13.2101 28.2799C13.6501 27.7999 14.4201 27.8999 15.0001 27.9599H14.9901Z" fill="#F0B814"/>
<path d="M68.7403 13.0402V14.8702H67.9003C67.4303 15.0302 67.1603 15.2802 66.9203 15.7102C66.7603 16.0902 66.7603 16.4402 66.7503 16.8502C66.7503 16.9202 66.7503 16.9902 66.7503 17.0602C66.7503 17.2802 66.7503 17.4902 66.7403 17.7102C66.7403 17.8602 66.7403 18.0002 66.7403 18.1502C66.7403 18.5102 66.7303 18.8702 66.7203 19.2302H64.8203V13.1902H66.5103C66.5603 13.4202 66.6003 13.6502 66.6503 13.8902C66.7103 13.8202 66.7603 13.7402 66.8203 13.6702C67.2403 13.1702 68.1103 12.7302 68.7603 13.0502L68.7403 13.0402Z" fill="url(#paint17_linear_2885_184)"/>
<path d="M68.7403 13.0402V14.8702H67.9003C67.4303 15.0302 67.1603 15.2802 66.9203 15.7102C66.7603 16.0902 66.7603 16.4402 66.7503 16.8502C66.7503 16.9202 66.7503 16.9902 66.7503 17.0602C66.7503 17.2802 66.7503 17.4902 66.7403 17.7102C66.7403 17.8602 66.7403 18.0002 66.7403 18.1502C66.7403 18.5102 66.7303 18.8702 66.7203 19.2302H64.8203V13.1902H66.5103C66.5603 13.4202 66.6003 13.6502 66.6503 13.8902C66.7103 13.8202 66.7603 13.7402 66.8203 13.6702C67.2403 13.1702 68.1103 12.7302 68.7603 13.0502L68.7403 13.0402Z" fill="url(#paint18_linear_2885_184)"/>
<path d="M99.9201 12.9707C99.9668 13.0174 99.9935 13.1007 100 13.2207C100 13.3007 100 13.3707 100 13.4507C100 13.5307 100 13.6107 100 13.7007C100 13.7874 100 13.874 100 13.9607C100 14.0507 100 14.1307 100 14.2207C100 14.4407 100 14.6507 100 14.8707C99.9501 14.8707 99.9001 14.8707 99.8401 14.8707C99.7701 14.8707 99.7001 14.8707 99.6301 14.8707C99.5601 14.8707 99.4901 14.8707 99.4201 14.8707C99.0101 14.8907 98.7501 15.0707 98.4601 15.3607C98.0701 15.9307 98.0201 16.4707 98.0001 17.1407C98.0001 17.2007 98.0001 17.2607 98.0001 17.3207C98.0001 17.5107 98.0001 17.7007 97.9901 17.8907C97.9901 18.0207 97.9901 18.1507 97.9901 18.2807C97.9901 18.6007 97.9801 18.9207 97.9701 19.2307H96.1401V13.1907H97.8301C97.8801 13.4207 97.9201 13.6507 97.9701 13.8907C98.0301 13.8207 98.0801 13.7407 98.1401 13.6707C98.6301 13.1007 99.2201 12.9607 99.9301 12.9807L99.9201 12.9707Z" fill="url(#paint19_linear_2885_184)"/>
<path d="M99.9201 12.9707C99.9668 13.0174 99.9935 13.1007 100 13.2207C100 13.3007 100 13.3707 100 13.4507C100 13.5307 100 13.6107 100 13.7007C100 13.7874 100 13.874 100 13.9607C100 14.0507 100 14.1307 100 14.2207C100 14.4407 100 14.6507 100 14.8707C99.9501 14.8707 99.9001 14.8707 99.8401 14.8707C99.7701 14.8707 99.7001 14.8707 99.6301 14.8707C99.5601 14.8707 99.4901 14.8707 99.4201 14.8707C99.0101 14.8907 98.7501 15.0707 98.4601 15.3607C98.0701 15.9307 98.0201 16.4707 98.0001 17.1407C98.0001 17.2007 98.0001 17.2607 98.0001 17.3207C98.0001 17.5107 98.0001 17.7007 97.9901 17.8907C97.9901 18.0207 97.9901 18.1507 97.9901 18.2807C97.9901 18.6007 97.9801 18.9207 97.9701 19.2307H96.1401V13.1907H97.8301C97.8801 13.4207 97.9201 13.6507 97.9701 13.8907C98.0301 13.8207 98.0801 13.7407 98.1401 13.6707C98.6301 13.1007 99.2201 12.9607 99.9301 12.9807L99.9201 12.9707Z" fill="url(#paint20_linear_2885_184)"/>
<path d="M14.8101 13.8809H19.7301C19.6201 14.2309 19.5201 14.5909 19.3801 14.9309H15.1001C14.9134 14.3242 14.8201 13.9742 14.8201 13.8809H14.8101Z" fill="#403F3B"/>
<path d="M26.4 13.7402C26.6667 13.8269 26.8534 13.8969 26.96 13.9502C26.85 14.2002 26.71 14.3602 26.52 14.5502C26.46 14.6102 26.4 14.6702 26.34 14.7302C26.2734 14.7902 26.21 14.8536 26.15 14.9202C25.8234 15.2402 25.5067 15.5669 25.2 15.9002C24.77 16.4002 24.29 16.8502 23.82 17.3102C23.36 17.7702 22.9 18.2302 22.48 18.7202C22.36 18.8502 22.24 18.9802 22.12 19.1102C22.06 19.1702 22.0034 19.2302 21.95 19.2902C21.8967 19.3502 21.79 19.3902 21.63 19.4102C21.49 19.3402 21.4 19.2602 21.29 19.1402C21.38 18.9402 21.48 18.7902 21.64 18.6402C21.68 18.6002 21.72 18.5602 21.77 18.5102C21.82 18.4702 21.86 18.4202 21.91 18.3802C21.96 18.3302 22 18.2902 22.05 18.2402C22.2 18.0902 22.35 17.9402 22.5 17.7902C22.65 17.6402 22.8 17.4902 22.95 17.3502C23.04 17.2602 23.14 17.1702 23.23 17.0802C23.49 16.8202 23.74 16.5502 23.99 16.2602C24.17 16.0602 24.36 15.8602 24.56 15.6702C24.6 15.6302 24.64 15.5902 24.68 15.5502C24.81 15.4202 24.93 15.3002 25.06 15.1702C25.23 15.0002 25.4 14.8402 25.56 14.6702C25.6 14.6302 25.64 14.6002 25.67 14.5602C25.93 14.3002 26.18 14.0202 26.42 13.7402H26.4Z" fill="#3C3A34"/>
<path d="M7.9301 13.7405C8.1701 13.8205 8.3201 13.9705 8.5001 14.1505C8.5501 14.2005 8.6101 14.2605 8.6601 14.3105C8.71343 14.3638 8.7701 14.4205 8.8301 14.4805C8.8801 14.5305 8.9401 14.5905 9.0001 14.6505C9.2401 14.8905 9.4801 15.1405 9.7001 15.4005C10.0901 15.8505 10.5301 16.2605 10.9501 16.6805C11.6234 17.3405 12.0801 17.8171 12.3201 18.1105C12.4901 18.3105 12.6801 18.5005 12.8801 18.6905C12.9201 18.7305 12.9601 18.7705 13.0001 18.8005C13.0901 18.8905 13.1801 18.9805 13.2801 19.0705C13.1734 19.1905 13.0568 19.3071 12.9301 19.4205C12.7601 19.4105 12.6701 19.3705 12.5501 19.2505C12.5201 19.2105 12.4801 19.1705 12.4501 19.1205C12.2101 18.8405 11.9601 18.5805 11.7001 18.3205C11.6601 18.2805 11.6201 18.2405 11.5701 18.1905C11.4401 18.0605 11.3101 17.9305 11.1801 17.8005C10.5334 17.1605 10.1234 16.7405 9.9501 16.5405C9.7201 16.2705 9.4801 16.0305 9.2301 15.7905C9.1901 15.7505 9.1401 15.7105 9.1001 15.6605C8.9201 15.4805 8.7401 15.3105 8.5601 15.1305C8.4301 15.0005 8.2901 14.8705 8.1601 14.7405C8.1201 14.7005 8.0801 14.6605 8.0401 14.6205C7.8301 14.4105 7.6801 14.2405 7.6001 13.9405C7.70676 13.8671 7.82343 13.7971 7.9501 13.7305L7.9301 13.7405Z" fill="#3B3A34"/>
<path d="M27.3804 14.3691C27.527 14.5625 27.5904 14.7258 27.5704 14.8591C27.5004 15.0291 27.4304 15.1191 27.3004 15.2491C27.2503 15.2991 27.2104 15.3391 27.1604 15.3891C27.107 15.4358 27.057 15.4858 27.0104 15.5391C26.9604 15.5891 26.9104 15.6391 26.8504 15.6991C26.6804 15.8591 26.5204 16.0291 26.3504 16.1891C26.1904 16.3491 26.0204 16.5191 25.8604 16.6791C25.7604 16.7791 25.6604 16.8791 25.5504 16.9791C25.2704 17.2491 25.0104 17.5291 24.7604 17.8291C24.4404 18.1991 24.0904 18.5391 23.7504 18.8791C23.6604 18.9791 23.5604 19.0691 23.4704 19.1691C23.3304 19.3091 23.2004 19.4491 23.0604 19.5791C23.0204 19.6191 22.9804 19.6691 22.9304 19.7091C22.8504 19.7891 22.7404 19.8858 22.6004 19.9991C22.3904 19.9791 22.2904 19.9091 22.1104 19.7891C22.2004 19.5791 22.3104 19.4291 22.4804 19.2691C22.5204 19.2291 22.5704 19.1791 22.6204 19.1391C22.6704 19.0891 22.7104 19.0491 22.7604 18.9991C23.0304 18.7391 23.2904 18.4891 23.5304 18.1991C23.9604 17.6991 24.4504 17.2391 24.9204 16.7791C25.347 16.3591 25.757 15.9291 26.1504 15.4891C26.3504 15.2591 26.5604 15.0491 26.7704 14.8391C26.8104 14.7991 26.8604 14.7491 26.9004 14.7091C26.9404 14.6691 26.9837 14.6258 27.0304 14.5791C27.077 14.5325 27.1137 14.4958 27.1404 14.4691C27.167 14.4425 27.247 14.4158 27.3804 14.3891V14.3691Z" fill="#393832"/>
<path d="M7.16036 14.3691C7.50036 14.6491 7.82036 14.9491 8.13036 15.2591C8.17702 15.2991 8.22036 15.3425 8.26036 15.3891C8.35036 15.4791 8.44036 15.5691 8.53036 15.6591C8.67036 15.7991 8.81036 15.9391 8.94036 16.0691C9.42702 16.5558 9.75703 16.8991 9.93036 17.0991C10.1604 17.3691 10.4104 17.6191 10.6604 17.8691C10.7004 17.9091 10.7504 17.9591 10.7904 17.9991C10.9804 18.1791 11.1604 18.3691 11.3504 18.5491C11.4904 18.6791 11.6204 18.8191 11.7604 18.9591C11.8004 18.9991 11.8404 19.0391 11.8904 19.0791C12.1104 19.2891 12.2804 19.4891 12.4204 19.7691C12.2137 19.9091 12.0537 19.9758 11.9404 19.9691C11.7504 19.8891 11.6404 19.7791 11.4904 19.6291C11.4304 19.5691 11.3804 19.5191 11.3204 19.4591C11.2604 19.3991 11.2004 19.3391 11.1404 19.2791C11.0804 19.2191 11.0204 19.1591 10.9604 19.0991C10.7104 18.8491 10.4604 18.5891 10.2304 18.3191C9.84036 17.8691 9.41036 17.4591 8.98036 17.0391C8.30702 16.3725 7.84702 15.8925 7.60036 15.5991C7.47036 15.4591 7.33036 15.3291 7.19036 15.1991C7.03036 15.0391 6.94702 14.8691 6.94036 14.6891C6.93369 14.5091 7.00702 14.4025 7.16036 14.3691Z" fill="#393732"/>
<path d="M25.5502 13.3691C25.7102 13.4091 25.8402 13.4591 25.9802 13.5391C25.7002 13.9291 25.4002 14.2791 25.0602 14.6091C25.0102 14.6591 24.9702 14.6991 24.9202 14.7491C24.7702 14.8991 24.6202 15.0391 24.4802 15.1891C24.3302 15.3391 24.1902 15.4791 24.0402 15.6291C23.9502 15.7191 23.8602 15.8091 23.7702 15.8991C23.5102 16.1591 23.2602 16.4291 23.0202 16.7091C22.8402 16.9191 22.6402 17.1191 22.4402 17.3191C22.4002 17.3591 22.3602 17.4025 22.3202 17.4491C22.2302 17.5391 22.1502 17.6191 22.0602 17.7091C21.9302 17.8391 21.8002 17.9691 21.6702 18.1091C21.5902 18.1891 21.5002 18.2791 21.4202 18.3591C21.3802 18.3991 21.3402 18.4391 21.3002 18.4791C21.1135 18.6591 20.9702 18.7491 20.8702 18.7491C20.7702 18.7491 20.7002 18.6558 20.6602 18.4691C20.6802 18.1991 20.8302 18.0691 21.0202 17.8891C21.2102 17.7091 21.3902 17.5191 21.5602 17.3191C22.0202 16.7791 22.5402 16.2991 23.0502 15.7991C23.5302 15.3191 23.9968 14.8291 24.4502 14.3291C24.9635 13.7358 25.3335 13.4225 25.5602 13.3891L25.5502 13.3691Z" fill="#3D3C36"/>
<path d="M9.17006 13.4607C9.17006 13.4607 9.25006 13.5307 9.29006 13.5707C9.33006 13.6107 9.38006 13.6507 9.42006 13.6907C9.46006 13.7307 9.50339 13.7707 9.55006 13.8107C9.55006 13.8107 9.63006 13.8807 9.67006 13.9207C9.79006 14.0407 9.91006 14.1507 10.0301 14.2707C10.0767 14.3107 10.1201 14.3541 10.1601 14.4007C10.2501 14.4907 10.3401 14.5807 10.4301 14.6707C10.5701 14.8107 10.7101 14.9507 10.8401 15.0807C11.2201 15.4607 11.5901 15.8407 11.9401 16.2507C12.2801 16.6307 12.6501 16.9907 13.0201 17.3507C13.1101 17.4407 13.1901 17.5207 13.2801 17.6107C13.4901 17.8207 13.7001 18.0207 13.9001 18.2307C13.8334 18.4507 13.7367 18.5974 13.6101 18.6707C13.6101 18.6707 13.5201 18.7007 13.4801 18.7207C13.2801 18.5207 13.0801 18.3207 12.8801 18.1207C12.8201 18.0607 12.7701 18.0107 12.7101 17.9507C12.4601 17.7007 12.2201 17.4607 11.9901 17.1907C11.6001 16.7407 11.1701 16.3307 10.7401 15.9107C10.0667 15.2441 9.60672 14.7674 9.36006 14.4807C9.15006 14.2407 8.92006 14.0307 8.70006 13.8107C8.60672 13.7107 8.56006 13.6141 8.56006 13.5207C8.84006 13.3941 9.04339 13.3707 9.17006 13.4507V13.4607Z" fill="#3D3B36"/>
<path d="M27.5903 15.4297H27.7303C27.8103 15.7097 27.8003 15.9197 27.7303 16.1997C27.5003 16.5597 27.1703 16.8497 26.8603 17.1397C26.6103 17.3797 26.3603 17.6297 26.1203 17.8797C25.9303 18.0697 25.7303 18.2697 25.5403 18.4597C25.1603 18.8397 24.7803 19.2297 24.4303 19.6397C24.3103 19.7697 24.2003 19.8997 24.0703 20.0297C24.0103 20.0897 23.9603 20.1497 23.9003 20.2097C23.7803 20.2964 23.647 20.3497 23.5003 20.3697C23.3537 20.3897 23.217 20.333 23.0903 20.1997C23.1803 19.9897 23.2803 19.8497 23.4403 19.6897C23.4803 19.6497 23.5303 19.5997 23.5703 19.5597C23.617 19.513 23.6637 19.4664 23.7103 19.4197C23.7103 19.4197 23.8103 19.3197 23.8603 19.2697C24.0203 19.1197 24.1703 18.9597 24.3303 18.8097C24.4803 18.6597 24.6403 18.4997 24.7903 18.3497C24.8903 18.2597 24.9803 18.1597 25.0803 18.0697C25.3503 17.7997 25.6003 17.5297 25.8503 17.2397C26.0103 17.0597 26.1803 16.8897 26.3503 16.7197C26.3803 16.6897 26.4203 16.6497 26.4503 16.6197C26.5503 16.5197 26.6603 16.4097 26.7603 16.3097C26.9003 16.1697 27.0403 16.0297 27.1803 15.8997C27.2403 15.8397 27.3003 15.7797 27.3703 15.7197C27.4637 15.6264 27.5337 15.5297 27.5803 15.4297H27.5903Z" fill="#383630"/>
<path d="M6.81025 15.4297C7.13025 15.6797 7.41025 15.9597 7.68025 16.2697C8.13025 16.7597 8.60025 17.2297 9.08025 17.6997C9.68025 18.293 10.1036 18.7364 10.3503 19.0297C10.5503 19.2597 10.7703 19.4697 10.9803 19.6797C11.0203 19.7197 11.0703 19.7697 11.1203 19.8097C11.2303 19.9197 11.3403 20.0197 11.4503 20.1297C11.3003 20.2997 11.2503 20.3397 11.0103 20.3897C10.7203 20.3397 10.7103 20.3297 10.5503 20.1197C10.3103 19.8397 10.0603 19.5797 9.80025 19.3197C9.76025 19.2797 9.72025 19.2397 9.67025 19.1897C9.54025 19.0597 9.41025 18.9297 9.28025 18.7997C8.62025 18.1464 8.16359 17.673 7.91025 17.3797C7.79025 17.2497 7.67025 17.1397 7.54025 17.0197C7.08025 16.613 6.82025 16.283 6.76025 16.0297C6.76025 15.8197 6.78025 15.6397 6.82025 15.4397L6.81025 15.4297Z" fill="#363530"/>
<path d="M10.4603 13.2496C10.6403 13.3696 10.7703 13.5096 10.9203 13.6696C10.9603 13.7096 10.9903 13.7496 11.0303 13.7896C11.2203 13.9896 11.4103 14.1996 11.5903 14.4096C11.9903 14.8596 12.4203 15.2796 12.8503 15.6996C13.8036 16.6462 14.3169 17.2329 14.3903 17.4596C14.3236 17.6062 14.2536 17.7462 14.1803 17.8796C13.7403 17.5196 13.3303 17.1096 12.9303 16.7096C12.8103 16.5896 12.7003 16.4796 12.5803 16.3596C12.1603 15.9462 11.8636 15.6362 11.6903 15.4296C11.3103 14.9796 10.8703 14.5796 10.4503 14.1596C10.3403 14.0496 10.2203 13.9396 10.1103 13.8196C10.0703 13.7896 10.0403 13.7496 10.0003 13.7196C9.92025 13.6396 9.84025 13.5496 9.76025 13.4596V13.3196C10.0203 13.2296 10.1903 13.2196 10.4603 13.2496Z" fill="#3F3D38"/>
<path d="M24.7201 13.2501C24.7201 13.3901 24.6901 13.4968 24.6301 13.5701C24.6301 13.5701 24.5501 13.6501 24.5101 13.6901C24.4601 13.7301 24.4201 13.7801 24.3701 13.8201C24.3201 13.8701 24.2701 13.9101 24.2201 13.9601C23.9501 14.2201 23.6901 14.4801 23.4401 14.7601C23.0101 15.2601 22.5201 15.7201 22.0501 16.1801C21.5901 16.6401 21.1301 17.0901 20.7101 17.5901C20.6034 17.7101 20.5101 17.8034 20.4301 17.8701H20.2901C20.2201 17.6801 20.1501 17.5001 20.0801 17.3101C20.1201 17.2701 20.1701 17.2201 20.2101 17.1801C20.3801 17.0101 20.5401 16.8501 20.7101 16.6801C20.7801 16.6101 20.8501 16.5401 20.9201 16.4701C21.2401 16.1568 21.5501 15.8334 21.8501 15.5001C22.2001 15.0901 22.5701 14.7101 22.9501 14.3201C23.0401 14.2301 23.1301 14.1401 23.2101 14.0501C23.3401 13.9201 23.4701 13.7801 23.6001 13.6501C23.6401 13.6101 23.6801 13.5701 23.7201 13.5301C24.0301 13.2201 24.2801 13.1901 24.7101 13.2401L24.7201 13.2501Z" fill="#3F3D38"/>
<path d="M22.7801 13.2407C22.8534 13.2407 22.9234 13.2407 22.9901 13.2407C23.0601 13.2407 23.1301 13.2407 23.2101 13.2407C23.2701 13.2407 23.3201 13.2407 23.3801 13.2407C23.2701 13.5207 23.0701 13.7107 22.8601 13.9107C22.8201 13.9507 22.7801 13.9807 22.7501 14.0207C22.6301 14.1407 22.5101 14.2607 22.3901 14.3807C21.9501 14.814 21.5234 15.2574 21.1101 15.7107C20.9101 15.9407 20.7001 16.1507 20.4901 16.3607C20.4501 16.4007 20.4001 16.4507 20.3601 16.4907C20.3201 16.5307 20.2801 16.5707 20.2301 16.6207C20.1901 16.6607 20.1601 16.7007 20.1201 16.7307C20.0534 16.784 19.9734 16.8107 19.8801 16.8107C19.7867 16.424 19.7867 16.1407 19.8801 15.9607C20.0001 15.8207 20.1301 15.6907 20.2701 15.5707C20.3201 15.5207 20.3701 15.4707 20.4201 15.4307C20.5801 15.2807 20.7301 15.1307 20.8901 14.9807C21.0501 14.8307 21.2001 14.6807 21.3601 14.5307C21.4601 14.4407 21.5501 14.3407 21.6501 14.2507C21.9701 13.9507 22.2601 13.6307 22.5401 13.3007C22.5867 13.254 22.6701 13.2274 22.7901 13.2207L22.7801 13.2407Z" fill="#413F39"/>
<path d="M11.0903 13.2496C11.4603 13.1796 11.7403 13.1696 12.0603 13.3896C12.2703 13.5796 12.4603 13.7796 12.6503 13.9896C12.7203 14.0596 12.7803 14.1296 12.8503 14.1996C13.1303 14.4896 13.4003 14.7996 13.6703 15.0996C13.8203 15.2696 13.9703 15.4196 14.1303 15.5696C14.5237 15.9229 14.7337 16.1962 14.7603 16.3896C14.7203 16.5496 14.6803 16.6796 14.6003 16.8296C14.3103 16.7196 14.1403 16.5096 13.9403 16.2796C13.6403 15.9496 13.3303 15.6196 13.0103 15.3096C12.9703 15.2696 12.9303 15.2296 12.8903 15.1896C12.7703 15.0696 12.6503 14.9596 12.5403 14.8396C11.6737 13.9862 11.1903 13.4562 11.0903 13.2496Z" fill="#413F39"/>
<path d="M6.81006 16.9004C7.23006 17.2604 7.63006 17.6204 7.99006 18.0504C8.24006 18.3304 8.50006 18.6004 8.76006 18.8604C8.80006 18.9004 8.85006 18.9504 8.89006 18.9904C9.07006 19.1704 9.25006 19.3504 9.43006 19.5304C9.56006 19.6604 9.70006 19.7904 9.83006 19.9304C9.87006 19.9704 9.91006 20.0104 9.96006 20.0504C10.0601 20.1504 10.1501 20.2504 10.2501 20.3504V20.4904C9.91006 20.5304 9.58006 20.5404 9.29006 20.3404C9.00006 20.0904 8.75006 19.8004 8.50006 19.5104C8.46006 19.4604 8.41006 19.4104 8.37006 19.3604C8.30006 19.2804 8.22006 19.1904 8.15006 19.1004C8.03006 18.9704 7.90006 18.8404 7.77006 18.7204C7.25006 18.2404 6.87006 17.8704 6.82006 17.1204V16.9104L6.81006 16.9004Z" fill="#36342D"/>
<path d="M27.59 16.9707C27.7 17.1907 27.65 17.3707 27.59 17.6107C27.35 18.2907 26.6 18.9107 26.1 19.4307C26.02 19.5107 25.94 19.6007 25.86 19.6807C25.4267 20.1474 25.0834 20.4107 24.83 20.4707C24.64 20.4707 24.47 20.4607 24.29 20.4207C24.54 20.1207 24.8 19.8407 25.07 19.5707C25.19 19.4507 25.29 19.3307 25.4 19.2007C25.8 18.7407 26.24 18.3207 26.67 17.8907C26.76 17.8007 26.85 17.7107 26.94 17.6207C27.16 17.4007 27.37 17.1907 27.59 16.9707Z" fill="#34322D"/>
<path d="M21.8403 13.3906C21.6403 13.7106 21.4203 13.9706 21.1503 14.2406C21.1103 14.2806 21.0703 14.3206 21.0303 14.3606C20.9503 14.4406 20.8703 14.5206 20.7903 14.6006C20.6703 14.7206 20.5403 14.8506 20.4203 14.9706C20.3403 15.0506 20.2603 15.1306 20.1803 15.2006C20.1403 15.2406 20.1036 15.2773 20.0703 15.3106C19.897 15.484 19.7836 15.5706 19.7303 15.5706C19.6803 15.3006 19.6703 15.0706 19.7303 14.8006C19.9503 14.4806 20.2203 14.2306 20.5003 13.9606C20.5903 13.8606 20.6803 13.7606 20.7703 13.6706C21.0903 13.3606 21.4003 13.3906 21.8303 13.4006L21.8403 13.3906Z" fill="#45423A"/>
<path d="M12.5703 13.32C12.9803 13.28 13.3203 13.34 13.6503 13.59C13.8303 13.75 14.0003 13.91 14.1703 14.08C14.2303 14.14 14.2803 14.19 14.3403 14.25C14.7803 14.71 14.8303 15.01 14.8203 15.64C14.3803 15.28 13.9803 14.9 13.6103 14.46C13.3603 14.17 13.1003 13.91 12.8203 13.64C12.7403 13.56 12.6503 13.47 12.5703 13.39V13.32Z" fill="#44423B"/>
<path d="M33.9801 9.88086H34.0501C34.0501 9.99086 34.0501 10.1009 34.0501 10.2109C34.0501 10.2709 34.0501 10.3309 34.0501 10.4009C34.0401 10.5909 33.9901 10.7009 33.9001 10.8609C33.7901 10.6809 33.7501 10.6109 33.7901 10.4009C33.8101 10.3409 33.8301 10.2809 33.8501 10.2109C33.8701 10.1509 33.8901 10.0809 33.9101 10.0209C33.9301 9.97086 33.9401 9.93086 33.9601 9.88086H33.9801Z" fill="#B79020"/>
<path d="M0.700195 9.59961C0.870195 9.76961 0.880195 9.86961 0.920195 10.0996C0.933529 10.1663 0.946862 10.2296 0.960195 10.2896C0.973529 10.3496 0.983529 10.3996 0.990195 10.4396H0.780195C0.690195 10.1596 0.700195 9.88961 0.710195 9.59961H0.700195Z" fill="#B48F21"/>
</g>
<defs>
<linearGradient id="paint0_linear_2885_184" x1="17.3802" y1="5" x2="17.3802" y2="35.94" gradientUnits="userSpaceOnUse">
<stop stop-color="#4B4B4A"/>
<stop offset="1" stop-color="#040404"/>
</linearGradient>
<linearGradient id="paint1_linear_2885_184" x1="79.8802" y1="9.99977" x2="79.8802" y2="17.7298" gradientUnits="userSpaceOnUse">
<stop stop-color="#373737"/>
<stop offset="1" stop-color="white"/>
</linearGradient>
<linearGradient id="paint2_linear_2885_184" x1="79.8802" y1="9.99977" x2="79.8802" y2="17.7298" gradientUnits="userSpaceOnUse">
<stop stop-color="#373737"/>
<stop offset="1" stop-color="white"/>
</linearGradient>
<linearGradient id="paint3_linear_2885_184" x1="40.94" y1="9.99977" x2="40.94" y2="17.7298" gradientUnits="userSpaceOnUse">
<stop stop-color="#373737"/>
<stop offset="1" stop-color="white"/>
</linearGradient>
<linearGradient id="paint4_linear_2885_184" x1="40.94" y1="9.99977" x2="40.94" y2="17.7298" gradientUnits="userSpaceOnUse">
<stop stop-color="#373737"/>
<stop offset="1" stop-color="white"/>
</linearGradient>
<linearGradient id="paint5_linear_2885_184" x1="61.04" y1="10.0009" x2="61.04" y2="17.7309" gradientUnits="userSpaceOnUse">
<stop stop-color="#373737"/>
<stop offset="1" stop-color="white"/>
</linearGradient>
<linearGradient id="paint6_linear_2885_184" x1="61.04" y1="10.0009" x2="61.04" y2="17.7309" gradientUnits="userSpaceOnUse">
<stop stop-color="#373737"/>
<stop offset="1" stop-color="white"/>
</linearGradient>
<linearGradient id="paint7_linear_2885_184" x1="72.5704" y1="9.99969" x2="72.5704" y2="17.7297" gradientUnits="userSpaceOnUse">
<stop stop-color="#373737"/>
<stop offset="1" stop-color="white"/>
</linearGradient>
<linearGradient id="paint8_linear_2885_184" x1="72.5704" y1="9.99969" x2="72.5704" y2="17.7297" gradientUnits="userSpaceOnUse">
<stop stop-color="#373737"/>
<stop offset="1" stop-color="white"/>
</linearGradient>
<linearGradient id="paint9_linear_2885_184" x1="92.6802" y1="9.99909" x2="92.6802" y2="17.7291" gradientUnits="userSpaceOnUse">
<stop stop-color="#373737"/>
<stop offset="1" stop-color="white"/>
</linearGradient>
<linearGradient id="paint10_linear_2885_184" x1="92.6802" y1="9.99909" x2="92.6802" y2="17.7291" gradientUnits="userSpaceOnUse">
<stop stop-color="#373737"/>
<stop offset="1" stop-color="white"/>
</linearGradient>
<linearGradient id="paint11_linear_2885_184" x1="54.8102" y1="10.0006" x2="54.8102" y2="17.7306" gradientUnits="userSpaceOnUse">
<stop stop-color="#373737"/>
<stop offset="1" stop-color="white"/>
</linearGradient>
<linearGradient id="paint12_linear_2885_184" x1="54.8102" y1="10.0006" x2="54.8102" y2="17.7306" gradientUnits="userSpaceOnUse">
<stop stop-color="#373737"/>
<stop offset="1" stop-color="white"/>
</linearGradient>
<linearGradient id="paint13_linear_2885_184" x1="48.2701" y1="9.99969" x2="48.2701" y2="17.7297" gradientUnits="userSpaceOnUse">
<stop stop-color="#373737"/>
<stop offset="1" stop-color="white"/>
</linearGradient>
<linearGradient id="paint14_linear_2885_184" x1="48.2701" y1="9.99969" x2="48.2701" y2="17.7297" gradientUnits="userSpaceOnUse">
<stop stop-color="#373737"/>
<stop offset="1" stop-color="white"/>
</linearGradient>
<linearGradient id="paint15_linear_2885_184" x1="86.45" y1="9.9997" x2="86.45" y2="17.7297" gradientUnits="userSpaceOnUse">
<stop stop-color="#373737"/>
<stop offset="1" stop-color="white"/>
</linearGradient>
<linearGradient id="paint16_linear_2885_184" x1="86.45" y1="9.9997" x2="86.45" y2="17.7297" gradientUnits="userSpaceOnUse">
<stop stop-color="#373737"/>
<stop offset="1" stop-color="white"/>
</linearGradient>
<linearGradient id="paint17_linear_2885_184" x1="66.7803" y1="10.0002" x2="66.7803" y2="17.7302" gradientUnits="userSpaceOnUse">
<stop stop-color="#373737"/>
<stop offset="1" stop-color="white"/>
</linearGradient>
<linearGradient id="paint18_linear_2885_184" x1="66.7803" y1="10.0002" x2="66.7803" y2="17.7302" gradientUnits="userSpaceOnUse">
<stop stop-color="#373737"/>
<stop offset="1" stop-color="white"/>
</linearGradient>
<linearGradient id="paint19_linear_2885_184" x1="98.0701" y1="10.0007" x2="98.0701" y2="17.7307" gradientUnits="userSpaceOnUse">
<stop stop-color="#373737"/>
<stop offset="1" stop-color="white"/>
</linearGradient>
<linearGradient id="paint20_linear_2885_184" x1="98.0701" y1="10.0007" x2="98.0701" y2="17.7307" gradientUnits="userSpaceOnUse">
<stop stop-color="#373737"/>
<stop offset="1" stop-color="white"/>
</linearGradient>
<clipPath id="clip0_2885_184">
<rect width="100" height="40" fill="white"/>
</clipPath>
</defs>
</svg>
