<svg width="101" height="41" viewBox="0 0 101 41" fill="none" xmlns="http://www.w3.org/2000/svg">
<path d="M41.3442 17.3573C41.4886 17.3418 41.6347 17.3326 41.7799 17.3436C41.9926 17.3599 42.2457 17.4976 42.3822 17.6622C42.9289 18.3214 42.7181 19.4558 42.6381 20.2427L43.1032 18.9214C43.2498 18.5408 43.4128 18.1331 43.6477 17.7972C43.813 17.5609 44.0807 17.3924 44.366 17.3498C44.5929 17.3159 44.8212 17.3519 45.0075 17.4904C45.2334 17.6584 45.3778 17.9464 45.4142 18.2239L45.4259 18.3027C45.5078 18.7102 45.4665 19.2408 45.2823 19.6165C45.1703 19.8447 45.0338 20.009 44.7846 20.0903C44.5952 20.1522 44.3958 20.1415 44.2171 20.0466C43.965 19.9128 43.8523 19.6638 43.7734 19.4033C43.6521 19.0022 43.6801 18.4621 43.8794 18.088C43.9116 18.0273 43.9344 17.9661 43.9578 17.9017C43.6343 18.1805 43.4636 18.6045 43.302 18.9902C43.008 19.692 42.7721 20.4227 42.5562 21.1519L42.2152 22.3951L41.9478 23.5324C41.9127 23.6951 41.8989 23.9489 41.8199 24.0895L39.6807 24.0912C39.7316 23.6835 39.8684 23.2724 39.9595 22.8713L40.7022 19.7122C40.7916 19.3306 40.9275 18.9357 40.9758 18.5476C41.0005 18.3486 41.0081 18.2236 40.8831 18.0618L40.7926 18.0541C40.6108 18.1447 40.4839 18.384 40.3963 18.5588C40.2133 18.9245 40.0515 19.2996 39.9224 19.688C39.862 19.8699 39.8163 20.0925 39.7183 20.2557C39.6285 20.2328 39.6128 20.2232 39.5464 20.1581C39.6976 19.5911 39.8943 19.0361 40.1551 18.5097C40.4453 17.9237 40.7051 17.5731 41.3442 17.3573Z" fill="#FEFEFE"/>
<path d="M55.3933 17.3304C55.4289 17.3093 55.6594 17.3275 55.712 17.3295C56.3389 17.3528 57.0626 17.5768 57.4977 18.0556C57.7965 18.3843 57.9085 18.7907 57.8778 19.2265C57.8643 19.4198 57.7673 19.6421 57.6153 19.7661C57.4443 19.9053 57.2403 19.9393 57.0254 19.9128C56.7793 19.8825 56.527 19.7754 56.3772 19.57C56.206 19.3353 56.1403 19.0367 56.1864 18.75C56.2159 18.5673 56.3143 18.3513 56.4696 18.243C56.6842 18.0932 56.9051 18.1186 57.1485 18.1589L57.1164 18.1191C56.8463 17.8302 56.4114 17.6552 56.02 17.6344C55.6761 17.6161 55.3215 17.6241 55.052 17.8728C54.8766 18.0347 54.7734 18.2627 54.762 18.4993C54.718 19.4094 55.6626 19.7681 56.2994 20.1923C56.5377 20.351 56.7644 20.5506 56.9563 20.763C57.2959 21.139 57.4428 21.5912 57.4141 22.0962C57.38 22.6946 57.1542 23.2087 56.7029 23.6101C56.0532 24.1881 55.2353 24.2899 54.4007 24.244C53.9903 24.1908 53.6123 24.077 53.2549 23.8669C52.8317 23.6181 52.5218 23.2405 52.4016 22.7599C52.325 22.4538 52.3337 22.0812 52.5046 21.8067C52.6099 21.6378 52.7616 21.5049 52.9615 21.4647C53.2357 21.4096 53.5417 21.4518 53.7754 21.6077C53.9717 21.7386 54.1052 21.9862 54.1449 22.2157C54.1964 22.5135 54.1276 22.8601 53.949 23.1037C53.8625 23.2218 53.7219 23.3107 53.5763 23.3337L53.5573 23.3365C53.3779 23.3647 53.2025 23.3222 53.0265 23.2887C53.0814 23.3691 53.1513 23.4398 53.2211 23.5075C53.5854 23.8613 54.2688 23.9788 54.7542 23.9667C54.9931 23.9607 55.2816 23.8537 55.4471 23.6766C55.6114 23.5008 55.7299 23.2135 55.7145 22.9699C55.6507 21.9672 54.2334 21.5918 53.5856 21.0232C53.1828 20.6697 52.9283 20.2938 52.8937 19.7457C52.8569 19.1629 53.0252 18.6074 53.4174 18.1703C53.924 17.6055 54.6555 17.364 55.3933 17.3304Z" fill="#FEFEFE"/>
<path d="M76.6786 6.05481C77.2565 6.03039 77.8687 6.22234 78.3349 6.56582C78.8743 6.96334 79.2586 7.61299 79.3533 8.27658C79.4565 8.99412 79.2697 9.71936 78.834 10.2986C78.3679 10.9183 77.6884 11.2065 76.9412 11.312C76.2514 11.3222 75.5719 11.1569 75.0372 10.6979C74.5064 10.242 74.1714 9.5833 74.1217 8.88474C74.0724 8.19133 74.2854 7.46801 74.7511 6.94289C75.2652 6.36258 75.9185 6.10158 76.6786 6.05481ZM76.7428 6.50733C76.0925 6.54806 75.5364 6.75092 75.0985 7.25564C74.7078 7.70536 74.5364 8.29539 74.5805 8.88367C74.62 9.40742 74.8933 9.96246 75.2935 10.3036C75.7313 10.6766 76.2823 10.8989 76.8624 10.8521C77.4669 10.802 78.0088 10.5507 78.4047 10.088C78.7971 9.63042 78.9527 9.02321 78.9081 8.43022C78.8717 7.94241 78.5658 7.36729 78.1926 7.05257C77.8199 6.73804 77.2638 6.46434 76.7608 6.50488L76.7428 6.50733Z" fill="#FEFEFE"/>
<path d="M75.5874 7.2793C76.045 7.33816 76.5248 7.26713 76.9858 7.31524C77.2013 7.33773 77.4806 7.41772 77.6177 7.60002C77.7565 7.78437 77.8127 7.98201 77.7762 8.21032C77.7493 8.37873 77.6362 8.572 77.4978 8.67204C77.3598 8.7713 77.239 8.82507 77.0762 8.87404C77.4733 9.21794 77.7257 9.70112 77.9943 10.1451L77.4241 10.1377C77.1627 9.7988 77.0372 9.39869 76.7232 9.09143C76.5231 8.89563 76.3162 8.93402 76.0548 8.93706L76.063 10.1508L75.593 10.1479L75.5874 7.2793ZM76.0535 7.6944L76.054 8.51926C76.4314 8.52286 76.7947 8.58241 77.1435 8.40988C77.2317 8.28542 77.296 8.20226 77.2716 8.04259C77.2574 7.94885 77.1859 7.84697 77.1092 7.79243C76.883 7.63219 76.3264 7.69119 76.0535 7.6944Z" fill="#FEFEFE"/>
<path d="M71.7069 14.2647C71.9549 14.268 73.7059 14.2299 73.7882 14.2798L73.0303 17.4812C73.1297 17.5074 73.2612 17.4914 73.364 17.4906L74.0795 17.4797L73.9878 17.8977L72.9343 17.9007C72.8782 18.0327 72.8662 18.2039 72.8345 18.3449L72.5928 19.3502L72.1469 21.2505C72.017 21.7754 71.8628 22.3151 71.772 22.8474C71.7446 23.0068 71.7073 23.2184 71.7638 23.3728C71.805 23.4847 71.8705 23.5236 71.9733 23.5677C72.4797 23.4851 72.9206 22.2627 73.0787 21.8256C73.1387 21.6598 73.1764 21.3993 73.2895 21.266C73.373 21.2944 73.3949 21.2939 73.4446 21.3644L73.3687 21.633C73.1155 22.4334 72.7501 23.5278 72.0012 24.0029C71.6649 24.2164 71.203 24.3231 70.8106 24.2327C70.5038 24.1621 70.2271 24.006 70.0591 23.7324C69.898 23.4698 69.8183 23.1781 69.8123 22.8709C69.7926 21.923 70.1328 20.9031 70.3564 19.9851L70.85 17.902L69.8376 17.8996L69.9302 17.507C70.0043 17.4705 70.1161 17.4869 70.1975 17.4868L70.9477 17.4878L71.7069 14.2647Z" fill="#FEFEFE"/>
<path d="M69.2824 14.1776C69.4816 14.149 69.7125 14.1539 69.9075 14.2052C70.2648 14.2994 70.5476 14.5419 70.7245 14.8636C70.9049 15.1915 70.9353 15.6338 70.8282 15.9909C70.7588 16.2209 70.6187 16.4249 70.4053 16.5387C70.2537 16.6196 70.0716 16.6411 69.9066 16.5897L69.8865 16.5833C69.8415 16.5695 69.7974 16.5559 69.7554 16.5343C69.5703 16.4402 69.4409 16.2349 69.3754 16.0436C69.2623 15.7132 69.2811 15.3048 69.4379 14.9921C69.5198 14.8294 69.6487 14.6771 69.8282 14.6236C69.8753 14.6095 69.9045 14.5996 69.9439 14.5705C69.8646 14.5209 69.7901 14.4828 69.698 14.463C69.5472 14.4306 69.4011 14.4593 69.2743 14.5464C68.7096 14.933 68.4881 16.7945 68.3621 17.4853L69.6534 17.4773L69.5549 17.8995L68.2889 17.9007C68.2829 18.0669 68.2362 18.2274 68.2135 18.3915L67.9234 20.0913L66.6921 26.1233L66.3412 27.562L63.6571 27.561L63.6284 27.5157L63.6443 27.4487C63.6854 27.3086 63.7385 27.2916 63.8589 27.2256C64.0538 27.1189 64.119 27.0041 64.2042 26.8051C64.5534 25.9893 64.7115 25.0668 64.9373 24.2092L66.5756 17.9033L65.4141 17.8994L65.5079 17.488L66.6853 17.489C66.8588 16.6975 67.2821 15.8227 67.7606 15.1728C68.1346 14.665 68.6518 14.2763 69.2824 14.1776Z" fill="#FEFEFE"/>
<path d="M27.9439 14.184C28.0573 14.148 28.1962 14.1631 28.3154 14.1631L29.0517 14.1625L31.8593 14.1635L32.7736 14.161C32.9045 14.1607 33.0731 14.1394 33.1983 14.1743C33.2017 14.1965 33.2028 14.198 33.2019 14.2243C33.2001 14.2838 33.1753 14.4197 33.118 14.4486C33.0952 14.4602 32.987 14.4499 32.9565 14.4503C32.638 14.4543 32.2938 14.4444 32.0447 14.6837C31.9305 14.7934 31.8438 15.0184 31.7996 15.1696C31.6163 15.7968 31.5018 16.4547 31.3625 17.0933L30.6822 20.1884L30.2657 22.0564C30.1738 22.4689 30.0399 22.9074 30.0393 23.3322C30.0386 23.8068 30.478 23.7908 30.8323 23.7962C30.9206 23.7975 31.0217 23.7739 31.0855 23.8368C31.0711 23.9249 31.0537 23.9906 31.0146 24.0716C30.8835 24.1139 30.7018 24.0919 30.5635 24.0921L29.5542 24.0932L25.798 24.0839C25.7552 23.9893 25.7791 23.9377 25.7965 23.8368C25.9156 23.7436 26.382 23.8064 26.5629 23.763C26.7837 23.7101 26.9363 23.5954 27.0486 23.4022C27.2418 23.07 27.3099 22.6267 27.3891 22.2528L27.6514 21.0636L28.2028 18.5725L28.892 15.4252C28.9246 15.2336 28.9835 14.9444 28.9245 14.7617C28.8098 14.407 28.4432 14.4509 28.1443 14.4492C28.0679 14.4487 27.98 14.4613 27.9099 14.4293C27.8857 14.3347 27.9169 14.2767 27.9439 14.184Z" fill="#FEFEFE"/>
<path d="M61.3111 17.3567C62.0969 17.3101 62.6971 17.3729 63.3676 17.8148C63.9897 18.225 64.3894 18.993 64.5377 19.7059C64.7386 20.6732 64.4982 21.8038 63.9567 22.6224C63.4019 23.4606 62.653 24.0148 61.6642 24.2156C60.9423 24.3029 60.2586 24.2541 59.6319 23.8469C58.9972 23.4345 58.5473 22.6519 58.3996 21.9181C58.1812 20.8331 58.4315 19.7245 59.0355 18.8106C59.5846 17.9799 60.3541 17.5494 61.3111 17.3567ZM61.9247 17.6395C61.5948 17.8269 61.4641 18.1325 61.3673 18.4844L60.8039 20.9418L60.4697 22.3789C60.3993 22.6843 60.3097 22.9962 60.2867 23.3101C60.2766 23.4474 60.3119 23.5814 60.3803 23.7004C60.442 23.8075 60.5566 23.9208 60.6809 23.9498C60.776 23.9719 60.9054 23.9585 61.0023 23.946C61.3334 23.746 61.468 23.435 61.5584 23.0702L62.1813 20.3691C62.3398 19.6964 62.572 18.9755 62.626 18.2881C62.6359 18.1612 62.6093 18.0105 62.5416 17.9016C62.4683 17.7833 62.3475 17.6658 62.2066 17.6359C62.1187 17.6174 62.0138 17.6323 61.9247 17.6395Z" fill="#FEFEFE"/>
<path d="M48.5352 17.3564C49.2656 17.3182 49.8875 17.3438 50.5229 17.7595C51.1407 18.1636 51.626 18.8948 51.7704 19.62C51.9718 20.6323 51.7801 21.7561 51.2012 22.6171C50.6221 23.4787 49.8916 24.021 48.8661 24.2201C48.1863 24.3358 47.4658 24.2159 46.882 23.8427C46.1986 23.4059 45.8023 22.6408 45.6385 21.8668C45.4213 20.8403 45.6835 19.7231 46.2485 18.8536C46.8018 18.0021 47.5652 17.5632 48.5352 17.3564ZM49.1673 17.6409C48.8704 17.8071 48.7339 18.0717 48.6446 18.391L47.8866 21.652C47.7693 22.1673 47.5829 22.717 47.5368 23.2421C47.5213 23.4187 47.55 23.5723 47.6403 23.7258C47.6963 23.8209 47.8235 23.9287 47.9318 23.9543C48.0251 23.9764 48.1587 23.951 48.2545 23.9404C48.5709 23.7558 48.7089 23.4416 48.7989 23.0981L49.4491 20.2723C49.599 19.6282 49.8381 18.9252 49.8755 18.2677C49.8827 18.1439 49.84 17.9831 49.7771 17.8777C49.7148 17.773 49.582 17.6589 49.459 17.6368C49.3666 17.6201 49.2605 17.6328 49.1673 17.6409Z" fill="#FEFEFE"/>
<path d="M35.4303 17.3528C35.7928 17.3317 36.1083 17.3166 36.4154 17.5501C36.768 17.8182 36.8553 18.3332 36.9152 18.7425C36.9778 18.6197 36.9983 18.4486 37.0311 18.3142L37.2408 17.484L39.3755 17.4802L37.3833 25.4421C37.0989 26.2503 36.588 26.8843 35.8117 27.2558C35.1633 27.5661 34.2659 27.6951 33.5812 27.4472C33.1372 27.2865 32.7831 27.0622 32.5773 26.6224C32.4012 26.2461 32.3626 25.7714 32.5092 25.3786C32.6234 25.0725 32.7961 24.922 33.0825 24.7862C33.3546 24.7481 33.5953 24.7683 33.8287 24.9289C33.9912 25.0407 34.1322 25.3352 34.1673 25.5232C34.2331 25.8756 34.1655 26.2719 33.9582 26.565C33.7344 26.8815 33.5091 26.7825 33.1945 26.8346L33.2315 26.905C33.3474 27.0907 33.6127 27.2091 33.8193 27.25C34.0099 27.2877 34.1591 27.2829 34.323 27.1708C35.2072 26.5664 35.549 24.6785 35.7759 23.6884L36.0602 22.4673L35.8587 22.865C35.5451 23.4313 35.1234 24.0255 34.4707 24.209C34.1289 24.3051 33.7726 24.256 33.465 24.0779C33.0151 23.8175 32.7718 23.2631 32.644 22.7767C32.3259 21.5659 32.6656 20.075 33.2875 19.0128C33.7793 18.1726 34.4922 17.6007 35.4303 17.3528ZM36.1506 17.8781C35.9295 17.973 35.8597 18.1347 35.7744 18.3493C35.6595 18.6385 35.5984 18.9362 35.5251 19.2373L35.1868 20.6506L34.8088 22.2189C34.7388 22.5071 34.6477 22.7979 34.5999 23.0906C34.5807 23.2081 34.5546 23.3461 34.6034 23.4595C34.6383 23.5407 34.6716 23.5756 34.753 23.6075C34.8117 23.6306 34.9041 23.6223 34.96 23.5941C34.9807 23.5837 34.9993 23.5698 35.0174 23.5555C36.0325 22.6169 36.6246 20.5837 36.6809 19.227C36.6966 18.8491 36.707 18.2746 36.4407 17.9736C36.4012 17.929 36.3468 17.8955 36.2966 17.8643C36.2492 17.8683 36.197 17.8687 36.1506 17.8781Z" fill="#FEFEFE"/>
<path d="M22.4907 17.4922L22.5383 17.4982C22.5003 17.7622 22.4463 18.0264 22.4315 18.2931C22.3426 19.9033 22.7766 21.4169 23.626 22.7808C24.3257 23.9043 25.2408 24.8734 26.2562 25.7155C29.9249 28.7579 34.6493 30.4157 39.2402 31.4624C42.7758 32.2685 46.3744 32.6241 49.9924 32.7345C52.5363 32.8121 55.0718 32.683 57.603 32.4313C61.2969 32.0639 65.011 31.2958 68.5113 30.0508C70.734 29.2602 72.8928 28.288 74.8627 26.9798C76.2586 26.0533 77.5863 24.9586 78.6085 23.6219C78.9114 23.2264 79.1959 22.8115 79.4366 22.375L79.7597 21.7143C79.7948 21.6378 79.8261 21.5282 79.8981 21.4831L79.5313 22.6792C78.1317 26.0074 74.8837 28.2631 71.7451 29.8023C68.1767 31.5521 64.2814 32.6157 60.3706 33.2594C57.2347 33.7755 54.0842 34.0023 50.9073 33.9999C45.1829 33.9955 39.4399 33.1967 34.0146 31.3368C29.8515 29.9095 24.7688 27.2906 22.7582 23.1686C22.1687 21.96 21.895 20.564 22.0602 19.2246C22.1348 18.62 22.294 18.0653 22.4907 17.4922Z" fill="#FEFEFE"/>
<path d="M48.7681 6.02604C49.1347 5.98186 49.5337 6.00765 49.9043 6.00597L52.3197 6.02788C58.5111 6.20959 64.8261 7.29435 70.5011 9.85391C72.7238 10.8565 74.8934 12.1691 76.6345 13.8902C77.6778 14.9222 78.5676 16.1168 79.0886 17.4995C79.6927 19.101 79.7265 21.0443 79.0149 22.6208L79.116 21.8354C79.3516 19.8742 78.5068 17.8509 77.317 16.3347C76.2147 14.9287 74.7944 13.7791 73.2953 12.821C69.5847 10.4498 65.165 9.05708 60.8627 8.23402L56.2459 7.55715C49.0162 6.87786 41.7339 7.32978 34.7485 9.38744L31.994 10.3419C28.6443 11.6337 25.1452 13.5215 22.9204 16.4157C22.6138 16.8146 22.3317 17.244 22.0934 17.6872L21.6665 18.5433C21.7249 18.1379 21.8768 17.7132 22.0295 17.3337C22.4944 16.1783 23.2106 15.1388 24.067 14.2388C25.6813 12.5423 27.6424 11.2812 29.7289 10.2445C32.4083 8.91317 35.3049 7.96664 38.2238 7.32532C41.6964 6.56234 45.2122 6.11565 48.7681 6.02604Z" fill="#FEFEFE"/>
</svg>
