<svg width="101" height="40" viewBox="0 0 101 40" fill="none" xmlns="http://www.w3.org/2000/svg">
<path d="M17.7997 32.7626L16.5679 31.9234L17.6553 31.8711C17.5733 31.9156 17.493 31.9609 17.406 31.9947L17.413 32.1047L17.3523 32.0812L17.3894 32.2525C17.4232 32.2596 17.4462 32.2566 17.48 32.2506C17.4875 32.3069 17.4877 32.3861 17.5283 32.4267C17.5536 32.4518 17.5656 32.4726 17.5813 32.504L17.674 32.4635L17.7997 32.7626Z" fill="#009BDD"/>
<path d="M34.2129 26.4062L38.7001 27.4862C38.3792 28.0946 37.9643 28.6562 37.5588 29.2096L36.6457 30.2802L34.2129 26.4062Z" fill="#005EA7"/>
<path d="M40.3339 22.8943C40.3728 22.891 40.4112 22.8933 40.45 22.8943C40.2107 24.1283 39.7778 25.4314 39.2182 26.5563L36.0872 25.3562L34.7783 24.8594L40.3339 22.8943Z" fill="#005EA7"/>
<path d="M32.7786 27.334L36.077 30.8295C35.9353 31.1174 34.6511 32.0293 34.3557 32.2478C33.7334 32.7105 33.0176 33.1539 32.3081 33.4652L32.7786 27.334Z" fill="#005EA7"/>
<path d="M36.2327 9.33398L37.6196 10.8925C40.0761 14.0233 41.0633 18.0253 40.5828 21.9478L34.2689 23.3078L36.4208 20.0546L38.0179 17.6337C38.2494 17.2723 38.5132 16.9156 38.6937 16.5253C38.368 16.6921 38.0838 17.0416 37.8254 17.2975L36.3658 18.7626L33.6597 21.4914C35.7519 17.8296 36.6912 13.5332 36.2327 9.33398Z" fill="url(#paint0_linear_2432_223)"/>
<path d="M17.6555 31.8712C18.4114 31.7601 19.1629 31.6868 19.9131 31.531C23.3265 30.8223 26.5091 29.24 29.1549 26.9746L26.7485 30.5845L25.788 32.0421C25.5637 32.3834 25.3096 32.7161 25.1722 33.1043C25.4882 32.8937 25.7387 32.6222 26.0046 32.3538L27.0359 31.3067L30.9815 27.3198L31.2207 31.742L31.2998 33.282C31.3084 33.4818 31.3498 33.7452 31.3095 33.9384C30.3558 34.2737 29.4009 34.5783 28.4044 34.76C25.3832 35.3106 22.0591 34.9097 19.2836 33.5778L17.8 32.7627L17.6742 32.4636L17.5816 32.504C17.5659 32.4726 17.5538 32.4519 17.5285 32.4267C17.488 32.3862 17.4878 32.307 17.4803 32.2506C17.4465 32.2567 17.4234 32.2597 17.3896 32.2525L17.3525 32.0813L17.4133 32.1048L17.4062 31.9948C17.4933 31.961 17.5736 31.9157 17.6555 31.8712Z" fill="url(#paint1_linear_2432_223)"/>
<path d="M47.5107 9.86719L51.1913 9.86937L51.1873 31.1833C50.7994 31.2286 50.3512 31.176 49.9547 31.1724L47.515 31.1881L47.5107 9.86719Z" fill="white"/>
<path d="M90.5486 9.85347L91.5482 9.85156L91.5287 13.1919L84.7747 13.1866C84.8505 13.6767 84.7865 14.2555 84.7865 14.7565V18.2959L84.7879 31.1989L81.1308 31.2013L81.1267 25.5587L81.1412 13.1821L74.3369 13.1851L74.341 9.86405L90.5486 9.85347Z" fill="white"/>
<path d="M64.2631 9.55218L64.2654 9.55155C66.3273 9.40533 68.3973 9.70367 70.3152 10.4795C71.1596 10.8211 71.959 11.2588 72.7389 11.7273L71.0466 14.6363C70.2049 14.1291 69.366 13.6969 68.4313 13.3815C66.2723 12.653 63.6893 12.6233 61.6202 13.6579C59.9805 14.4777 58.7476 15.9514 58.1724 17.6873C57.4474 19.8729 57.5741 22.2898 58.6218 24.3504C59.4544 25.9883 61.0232 27.3192 62.7664 27.8884C64.5582 28.4736 66.6477 28.4407 68.4286 27.8106C68.8372 27.6661 69.2158 27.4691 69.6007 27.273L69.5916 23.0889L64.5859 23.1067C64.585 22.6861 64.5173 20.0782 64.6249 19.9119L65.0262 19.9079L73.0889 19.9045L73.1025 29.2216C70.9907 30.5546 68.7981 31.3266 66.3009 31.5096C63.1387 31.7414 59.9124 30.9086 57.4851 28.8105C55.1999 26.8357 54.0128 24.1918 53.7999 21.2058C53.5965 18.3553 54.5512 15.4633 56.4269 13.3099C58.4025 11.0427 61.2902 9.76123 64.2631 9.55218Z" fill="white"/>
<path fill-rule="evenodd" clip-rule="evenodd" d="M12.7717 27.6413C12.5406 27.3196 12.3528 26.9342 12.1785 26.5765L12.1638 26.5464C11.8108 25.8225 11.5129 25.0874 11.288 24.3138C10.1446 20.3821 10.5855 16.2882 12.5565 12.7035C14.4726 9.21865 17.714 6.69802 21.5161 5.59359C24.3296 4.77628 27.4359 4.79851 30.2307 5.68801C31.2786 6.02158 32.2673 6.48529 33.2291 7.01447C33.7814 7.34236 34.2975 7.70911 34.8087 8.09752C34.8509 8.12961 34.8955 8.16202 34.941 8.19512C35.1083 8.31669 35.2877 8.44711 35.4055 8.60236C35.5782 10.1 35.6441 11.5918 35.5183 13.097C35.2695 16.0729 34.3016 19.0371 32.7614 21.5945L32.3827 13.5618L32.2402 10.9075C32.2334 10.7859 32.2295 10.6595 32.2255 10.531C32.2132 10.139 32.2003 9.72667 32.1044 9.36659C31.9896 9.58703 31.972 9.83753 31.9547 10.083C31.9519 10.1222 31.9492 10.1613 31.946 10.2001L31.8494 11.503L31.5987 14.8117L31.2449 19.4533L31.0559 22.3451L28.8611 20.0281L26.5867 17.6221C26.485 17.5153 26.3818 17.3979 26.2761 17.2778C25.9719 16.9322 25.6474 16.5635 25.2824 16.3552C25.3819 16.6584 25.5543 16.9262 25.7263 17.1932C25.7677 17.2575 25.8091 17.3218 25.8494 17.3864L26.9593 19.1199L29.6086 23.2646L19.6428 20.868C19.5313 20.841 19.4162 20.8105 19.2989 20.7795C18.9014 20.6744 18.4788 20.5626 18.091 20.5601C18.28 20.7128 18.4938 20.7963 18.7123 20.8818C18.7839 20.9098 18.8561 20.938 18.9281 20.9689L29.0303 24.8066L26.0271 25.8546L22.1957 27.2138L19.189 28.2818C19.103 28.3133 19.0061 28.3431 18.9055 28.374C18.6442 28.4544 18.358 28.5424 18.1718 28.6871V28.7559C18.3356 28.8081 27.8092 26.7496 28.5197 26.5581C24.9672 29.5775 20.3201 31.2076 15.672 31.1979C14.6662 30.2977 13.7628 29.2354 13.0429 28.0927C13.0219 28.0593 12.9947 28.0203 12.9654 27.9784C12.8883 27.868 12.7975 27.7378 12.7717 27.6413C12.7717 27.6413 12.7717 27.6412 12.7717 27.6413ZM32.8329 7.43247C32.849 7.40278 32.8608 7.37214 32.8666 7.34499L29.4041 10.8891C29.3924 10.8973 29.3807 10.9052 29.3691 10.9128C29.2818 10.9696 29.1766 11.0931 29.0799 11.2065C29.0321 11.2624 28.9864 11.316 28.9461 11.3579L29.4041 10.8891C29.5871 10.7603 29.7743 10.5559 29.9476 10.3667C30.027 10.2799 30.1036 10.1962 30.1755 10.1246L32.2193 8.08317C32.2759 8.02625 32.3324 7.95743 32.3899 7.88738C32.4963 7.75764 32.6064 7.62354 32.728 7.55232C32.7682 7.52885 32.8063 7.482 32.8329 7.43247Z" fill="url(#paint2_linear_2432_223)"/>
<defs>
<linearGradient id="paint0_linear_2432_223" x1="41.0617" y1="21.1397" x2="32.602" y2="13.9895" gradientUnits="userSpaceOnUse">
<stop stop-color="#0065B0"/>
<stop offset="1" stop-color="#00B4F0"/>
</linearGradient>
<linearGradient id="paint1_linear_2432_223" x1="29.7482" y1="35.3233" x2="21.6754" y2="27.5226" gradientUnits="userSpaceOnUse">
<stop stop-color="#00579E"/>
<stop offset="1" stop-color="#00A8EC"/>
</linearGradient>
<linearGradient id="paint2_linear_2432_223" x1="15.1139" y1="9.42829" x2="30.233" y2="23.2185" gradientUnits="userSpaceOnUse">
<stop stop-color="#FFFF00"/>
<stop offset="0.756472" stop-color="#F35A25"/>
</linearGradient>
</defs>
</svg>
