<svg width="100" height="40" viewBox="0 0 100 40" fill="none" xmlns="http://www.w3.org/2000/svg">
<g clip-path="url(#clip0_3361_45)">
<path d="M28.7646 36.1338C27.6326 37.5488 26.1169 38.4202 24.4572 39.0118C20.8757 40.2909 17.2894 40.4092 13.727 38.8663C13.169 38.6248 13.1482 38.441 13.5144 37.9821C14.6336 36.5671 15.732 35.1249 16.8161 33.6763C17.0607 33.3565 17.2734 33.2526 17.6779 33.3997C18.4 33.674 19.1585 33.841 19.9291 33.8953C22.9031 34.0552 25.2055 32.2964 26.0689 29.1738C26.6829 26.9721 27.2585 24.7608 27.8501 22.5527C28.3297 22.6838 28.2786 23.1139 28.3457 23.4561C28.4385 23.9278 28.3953 24.4155 28.3953 24.8951C28.3953 28.1995 28.3953 31.5039 28.3953 34.8083C28.3953 35.2816 28.3713 35.766 28.7646 36.1338Z" fill="#FED100"/>
<path d="M33.7549 24.6592C33.0178 27.4173 32.6213 30.2825 31.2095 32.8312C30.7794 32.6969 30.6819 32.3403 30.6355 31.9582C30.6045 31.586 30.5954 31.2122 30.6083 30.8389C30.6083 26.2554 30.6083 21.6757 30.6083 17.0996C30.6083 15.5567 30.6003 14.0138 30.5412 12.4628C30.9169 10.4306 31.5692 8.46559 32.0729 6.47016C32.212 5.91694 32.148 5.53001 31.7963 5.09991C31.2447 4.42517 30.7506 3.70407 30.2326 3.00375C29.9703 2.19471 30.1542 1.37448 30.1862 0.559041C30.1821 0.491899 30.1929 0.424676 30.2178 0.362198C30.2427 0.29972 30.2812 0.243536 30.3304 0.197681C30.3796 0.151826 30.4384 0.117436 30.5025 0.0969809C30.5665 0.0765256 30.6344 0.070512 30.701 0.0793718C31.7307 0.128938 32.7668 -0.0229576 33.7933 0.167311C34.0363 0.487091 33.9996 0.874024 33.9996 1.24177C34.0049 8.25666 34.0049 15.2721 33.9996 22.288C33.9808 23.0837 33.899 23.8765 33.7549 24.6592Z" fill="#FECD01"/>
<path d="M30.5364 12.4707C30.7727 12.9988 30.8822 13.5748 30.8562 14.1527C30.8562 19.9567 30.8562 25.7602 30.8562 31.5631C30.8562 32.03 30.9009 32.4585 31.2063 32.8279C30.6739 33.6801 30.167 34.5499 29.5339 35.3333C29.3549 35.4637 29.2101 35.6354 29.1118 35.8338L28.7648 36.1344C28.0149 36.363 28.1492 35.8146 28.1492 35.4149C28.1492 31.6372 28.1492 27.8596 28.1492 24.0819C28.1492 23.5479 28.1061 23.0298 27.8486 22.5501C28.7136 19.1861 29.5387 15.8044 30.5364 12.4707Z" fill="#FECF00"/>
<path d="M33.755 24.6591C33.755 16.4962 33.7507 8.33329 33.7422 0.170393C33.9612 0.0105036 34.2139 0.112833 34.4489 0.0840529C35.0341 0.140014 35.6337 -0.0374633 36.2077 0.18958C36.4459 0.547733 36.3948 0.957051 36.3932 1.35038C36.3788 5.57147 36.4379 9.79256 36.3628 14.0136C36.3554 14.1444 36.3865 14.2745 36.4523 14.3878C35.6273 17.8318 34.7463 21.263 33.755 24.6591Z" fill="#FEC803"/>
<path d="M84.0817 2.41406C87.1371 5.1146 87.6168 9.77858 85.1705 13.1938C84.8635 13.6223 84.5949 14.0892 84.1632 14.4186C83.5972 14.3131 83.7091 13.8414 83.7011 13.4832C83.6691 11.9147 83.6883 10.3446 83.6883 8.77607C83.6883 6.9933 83.6755 5.21213 83.6979 3.42936C83.7027 3.06162 83.5876 2.61233 84.0817 2.41406Z" fill="#FE2E39"/>
<path d="M36.4521 14.3886C36.0092 14.1679 36.1403 13.749 36.1323 13.4004C36.1259 8.98963 36.1259 4.5788 36.1323 0.167979C36.1787 0.140798 36.225 0.0944301 36.2714 0.0944301C38.1693 0.0944301 38.1501 -0.225349 38.1437 1.81165C38.1437 3.93338 38.2205 6.05672 38.059 8.17685C37.6528 10.281 37.0453 12.334 36.4521 14.3886Z" fill="#FEC504"/>
<path d="M41.8391 17.5627L42.4163 15.2012C42.8384 15.3499 43.0239 15.7352 43.1166 16.095C43.4012 17.195 43.7562 18.279 43.7562 19.4526C43.7338 22.9318 43.7562 26.4126 43.745 29.8934C43.745 30.2852 43.8074 30.6929 43.5324 31.0414C42.9837 31.147 42.4196 31.1427 41.8727 31.0287C41.7128 30.5602 41.8135 30.0789 41.8135 29.604C41.8055 26.2272 41.8135 22.8503 41.8007 19.4734C41.7896 18.8323 41.9271 18.2007 41.8391 17.5627Z" fill="#FEBA08"/>
<path d="M82.809 26.3808C82.8314 26.5615 82.6907 26.6318 82.5772 26.7214C82.0687 27.1371 81.8209 26.8685 81.6706 26.368C81.6303 26.2115 81.613 26.0499 81.6195 25.8884C81.6067 17.9685 81.6067 10.0481 81.6195 2.12715C81.6195 1.72743 81.5635 1.23817 82.1519 1.12305C82.3693 1.37727 82.8346 1.20139 82.9705 1.60272C82.8554 1.9129 82.9082 2.24227 82.9066 2.55086C82.9066 6.45963 82.9066 10.3689 82.9066 14.2788C82.9162 17.7313 82.9226 21.1844 82.9258 24.638C82.9453 25.2214 82.9062 25.8053 82.809 26.3808Z" fill="#FE3736"/>
<path d="M43.4972 30.9996C43.4972 27.3541 43.4812 23.7087 43.4972 20.0632C43.5084 18.3508 43.219 16.7231 42.4099 15.2025C42.4006 15.1848 42.3955 15.1652 42.3951 15.1451C42.3946 15.1251 42.3988 15.1052 42.4073 15.0871C42.4158 15.069 42.4285 15.0531 42.4442 15.0406C42.4599 15.0282 42.4783 15.0196 42.4979 15.0155C42.5474 14.9931 42.621 14.9611 42.6434 14.9851C43.2957 15.7446 44.1335 16.2738 44.941 16.843C45.0657 18.1717 45.0273 19.502 45.0289 20.8306C45.0289 23.8366 45.0369 26.8441 45.0289 29.85C45.0273 31.1595 44.8498 31.2842 43.4972 30.9996Z" fill="#FEB709"/>
<path d="M82.8092 26.3797C82.5757 26.1302 82.6749 25.8233 82.6749 25.5402C82.6695 17.8506 82.6695 10.161 82.6749 2.47136C82.6749 2.17237 82.4558 1.74706 82.9691 1.60156L83.4823 1.92134C83.3048 4.20137 83.4264 6.48459 83.4024 8.76622C83.3832 10.6513 83.3928 12.5364 83.4024 14.4215C83.4138 14.6869 83.3891 14.9526 83.3288 15.2114C83.0826 15.4992 82.8491 15.7214 83.3288 16.078C83.6966 16.3514 83.8916 16.8359 84.0547 17.2883C84.2663 19.6747 84.262 22.0754 84.0419 24.461C83.7519 25.1706 83.3341 25.821 82.8092 26.3797Z" fill="#FE3437"/>
<path d="M80.9738 0.62002C81.0525 0.606505 81.1334 0.612881 81.2091 0.63857C81.2848 0.664259 81.3528 0.708447 81.4071 0.767119C81.4905 0.992249 81.5238 1.2329 81.5046 1.47223C81.4742 9.58823 81.5046 17.7026 81.4886 25.8186C81.4886 26.4838 81.519 27.1473 81.511 27.8125C81.3055 28.0853 81.0373 28.3047 80.7291 28.452C80.2319 28.2554 80.3502 27.8125 80.3454 27.4383C80.3214 25.9465 80.3326 24.4548 80.3358 22.9614C80.347 18.5916 80.3038 14.2218 80.3614 9.85045C80.3614 8.94548 80.3182 8.0437 80.2559 7.14192C80.4333 5.45508 80.299 3.76185 80.3406 2.07182C80.3256 1.72822 80.3432 1.38398 80.3934 1.04373C80.4557 0.738339 80.566 0.477719 80.9738 0.62002Z" fill="#FE3E34"/>
<path d="M81.5093 27.8193C81.1144 27.733 81.2359 27.4116 81.2359 27.1718C81.2263 18.6496 81.2215 10.1302 81.2215 1.61339C81.2035 1.32063 81.2648 1.02843 81.399 0.767578C81.6852 0.810748 81.9698 0.860314 82.1489 1.12893C81.8291 1.30321 81.8627 1.6086 81.8627 1.8996C81.8627 9.96337 81.8627 18.0266 81.8627 26.0893C81.8627 26.5898 81.925 26.9719 82.5726 26.7193C82.3015 27.1583 81.9388 27.5335 81.5093 27.8193Z" fill="#FE3B35"/>
<path d="M80.262 28.7788C79.9532 29.0756 79.5808 29.2981 79.1732 29.4296C78.5065 29.5367 78.6072 29.0026 78.5944 28.6637C78.5432 27.3126 78.5784 25.9583 78.572 24.6057C78.5933 23.9433 78.5613 23.2803 78.4761 22.623C78.5631 21.8358 78.6015 21.0439 78.5912 20.2519C78.5624 17.9623 78.5736 15.671 78.5752 13.3766C78.5752 12.9257 78.5432 12.4685 78.7351 12.0399C79.0917 11.8177 79.1428 11.7985 79.7696 11.4004C80.1117 11.8097 80.0302 12.3054 80.0302 12.7754C80.0377 17.586 80.0377 22.396 80.0302 27.2055C80.043 27.7507 80.059 28.2783 80.262 28.7788Z" fill="#FE4432"/>
<path d="M43.4971 30.9994C43.6296 30.9999 43.7619 31.0074 43.8936 31.0218C44.5812 31.1321 44.7986 30.8763 44.7938 30.1584C44.7602 25.6495 44.7762 21.1406 44.7762 16.6317C44.6656 16.5066 44.5996 16.3483 44.5886 16.1816C44.5777 16.015 44.6223 15.8494 44.7155 15.7108C44.9393 15.5509 45.0544 15.7108 45.1696 15.8706C45.2833 16.2537 45.3336 16.6529 45.3183 17.0522C45.2894 17.5351 45.4513 18.0099 45.7691 18.3745C46.0761 18.7119 46.1225 19.134 46.1225 19.5689C46.1225 20.5522 46.1305 21.5371 46.1225 22.5205C46.1225 23.0561 46.3176 23.5741 46.2424 24.1034C46.1681 24.5923 46.1307 25.0862 46.1305 25.5808C46.1593 27.2388 46.1129 28.8969 46.1577 30.5549C46.1871 30.7387 46.1484 30.9269 46.049 31.0842C43.4635 31.1513 40.8781 31.244 38.2959 31.0346C38.9786 30.5885 39.7349 30.8747 40.4624 30.7964C40.9421 30.8427 41.4665 30.662 41.9014 31.0138L43.4971 30.9994Z" fill="#FEB40A"/>
<path d="M41.9048 31.0016H40.4658C40.5921 28.6032 40.5217 26.2049 40.5361 23.7954C40.5361 23.4756 40.5841 23.1558 40.4258 22.8616C40.8479 21.0836 41.2828 19.3073 41.8392 17.5645C42.159 17.7627 42.0535 18.0825 42.0551 18.3639C42.0604 22.2951 42.0604 26.2262 42.0551 30.1574C42.0599 30.4468 42.0694 30.7394 41.9048 31.0016Z" fill="#FEBC07"/>
<path d="M80.2621 28.7769C79.6306 28.8041 79.7824 28.3324 79.7824 27.9951C79.7761 22.8402 79.7761 17.6859 79.7824 12.5321C79.7824 12.1388 79.8608 11.8606 79.6226 11.4961C80.131 11.1363 80.2333 11.0404 80.3421 9.9707C80.3421 15.9026 80.5723 21.5947 80.5819 27.5266C80.5819 27.8336 80.4684 28.1661 80.7114 28.446C80.6069 28.6073 80.4472 28.7249 80.2621 28.7769Z" fill="#FE4033"/>
<path d="M73.7242 31.0396C73.547 31.0852 73.3662 31.1157 73.1838 31.1308C68.6003 31.1308 64.0168 31.1308 59.4333 31.1308C59.2724 31.1223 59.1123 31.1041 58.9536 31.0764C58.6338 31.062 58.2741 31.2571 58.0502 30.859C57.8775 30.2882 57.9463 29.703 57.9511 29.1242C57.9719 26.9832 57.8775 24.8407 58.0023 22.6998C58.3969 22.3035 58.832 21.9498 59.3006 21.6445C59.8394 21.8924 59.7147 22.396 59.7179 22.8197C59.7371 25.1461 59.7291 27.4725 59.7179 29.7989C59.7179 30.3649 59.809 30.8126 60.5173 30.7742C60.8499 30.819 61.1841 30.7646 61.5166 30.787C61.7996 30.8142 62.0826 30.7694 62.3657 30.787C62.8357 30.787 63.3042 30.7662 63.7743 30.787C64.1948 30.787 64.6169 30.7662 65.0374 30.787C65.3572 30.787 65.6898 30.7726 66.0159 30.787C66.2973 30.7742 66.5771 30.787 66.8586 30.787C67.3782 30.7694 67.8962 30.771 68.4159 30.787C68.8955 30.7742 69.364 30.771 69.8373 30.787C70.1699 30.7758 70.5024 30.7742 70.835 30.787C71.2683 30.7678 71.7016 30.7758 72.1365 30.787C72.6833 30.8206 73.2525 30.6271 73.7242 31.0396Z" fill="#FE8F17"/>
<path d="M40.4256 22.8626C40.7262 22.7507 40.7837 22.893 40.7821 23.1648C40.7747 25.48 40.7747 27.7958 40.7821 30.112C40.7821 30.4526 40.5983 30.7164 40.4624 31.0042L38.2911 31.025C38.1568 30.5453 38.4158 30.1488 38.5373 29.7299C39.1992 27.4451 39.6597 25.1107 40.4256 22.8626Z" fill="#FEC006"/>
<path d="M51.6512 0.0585938H56.7676C56.7756 0.103295 56.7679 0.149374 56.7457 0.18901C56.7236 0.228646 56.6884 0.259397 56.6461 0.276044C56.2576 0.435933 55.8467 0.370379 55.447 0.384769C54.7722 0.328807 54.5804 0.682163 54.5963 1.30254C54.6251 2.3626 54.6299 3.42427 54.5963 4.48274C54.574 5.13989 54.8506 5.4101 55.4805 5.38132C55.674 5.3812 55.8597 5.45765 55.997 5.59397C56.021 5.7027 56.0609 5.68511 55.9682 5.75386C54.4067 5.82662 52.8426 5.81968 51.2818 5.73308C51.09 5.57319 51.4865 5.5556 51.6384 5.50284C52.2236 5.29818 52.2284 4.8361 52.222 4.33884C52.2092 3.30276 52.222 2.26027 52.222 1.23059C52.222 0.834059 52.1484 0.490296 51.7567 0.296829C51.7174 0.272108 51.6864 0.23624 51.6676 0.193805C51.6488 0.15137 51.6431 0.104295 51.6512 0.0585938Z" fill="#FEA011"/>
<path d="M38.0685 8.17675C37.7951 7.40288 37.9086 6.60024 37.9086 5.80878C37.8942 4.20989 37.867 2.61099 37.9214 1.02648C37.947 0.306978 37.7151 0.0575505 37.0212 0.153484C36.7297 0.176766 36.4371 0.181572 36.145 0.167874L34.3862 0.148688V0.0575505C36.145 0.0463583 37.9038 0.0415616 39.6626 0.0175781C40.0719 0.0175781 40.2686 0.107116 40.1423 0.562802C39.4196 3.09386 38.8759 5.67128 38.0685 8.17675Z" fill="#FEC206"/>
<path d="M83.335 15.2041C83.0696 15.0106 83.1527 14.7244 83.1527 14.4702C83.1527 10.5401 83.1527 6.60949 83.1527 2.67834C83.1527 2.39373 82.9928 2.002 83.4853 1.91406C83.7245 2.02444 83.9294 2.19734 84.0785 2.41452C83.8978 2.584 83.9474 2.80785 83.9474 3.0141C83.9474 6.57645 83.9474 10.1383 83.9474 13.6995C83.9474 13.9554 83.8738 14.2432 84.16 14.419C83.9394 14.7356 83.7443 15.0826 83.335 15.2041Z" fill="#FE3338"/>
<path d="M78.6631 22.5254C78.9637 23.4256 78.8054 24.3561 78.8229 25.2723C78.8469 26.4331 78.8229 27.5939 78.8309 28.7563C78.8309 29.0313 78.7414 29.3687 79.1747 29.431C78.7981 29.7433 78.3516 29.9599 77.8732 30.0626C77.336 30.2848 77.1809 29.9235 77.1761 29.5286C77.1569 27.7346 77.0162 25.9374 77.256 24.1483C77.8316 23.8093 78.097 23.0706 78.6631 22.5254Z" fill="#FE4930"/>
<path d="M51.6517 0.0585938C51.6517 0.0884398 51.6517 0.118819 51.6517 0.149731C51.5539 0.26628 51.4157 0.341647 51.2648 0.360785C49.8258 0.488697 49.8258 0.488697 49.8258 1.9325C49.8258 2.78311 49.8258 3.63373 49.8258 4.49074C49.8098 5.80183 49.418 6.06885 48.1309 5.66433C47.8655 5.35414 47.9055 4.972 47.9023 4.60746C47.8911 3.57777 47.9023 2.54808 47.9023 1.51839C47.9023 0.463115 47.8543 0.427939 46.7703 0.408752C46.6376 0.408752 46.5065 0.408752 46.3753 0.399159C46.0987 0.381571 45.8173 0.399159 45.5551 0.285637C45.5129 0.268279 45.4776 0.237286 45.455 0.197591C45.4324 0.157896 45.4238 0.111781 45.4304 0.0665882L51.6517 0.0585938Z" fill="#FEAB0D"/>
<path d="M58.2071 31.0008L58.9618 31.0743C56.8192 31.0935 54.6767 31.1287 52.5342 31.1287C50.4972 31.1287 48.4602 31.0935 46.4248 31.0743C46.5479 30.8361 46.7814 30.8393 47.0004 30.8121C47.4961 30.7913 47.9901 30.7865 48.4874 30.7945C48.8599 30.7721 49.2325 30.7849 49.6066 30.7945C51.0904 30.7514 51.0904 30.7514 51.092 29.2916C51.092 28.2347 51.092 27.1778 51.092 26.1209C51.0713 25.8296 51.1201 25.5375 51.2343 25.2687C51.5285 25.1728 51.9202 25.2288 52.3407 25.0977C52.7325 25.3998 52.6829 25.7724 52.6893 26.1945C52.7021 27.3137 52.6893 28.433 52.6893 29.5522C52.6893 30.7578 52.6893 30.7577 53.8661 30.7881C54.3985 30.8345 54.9309 30.753 55.465 30.7993C55.9446 30.7849 56.4355 30.7849 56.9216 30.7993C57.3549 30.8345 57.8201 30.6874 58.2071 31.0008Z" fill="#FEA410"/>
<path d="M45.4156 0.158716L46.2151 0.177903C46.263 0.241858 46.3398 0.296221 46.3462 0.374567C46.5061 2.11417 46.6372 3.85537 46.2678 5.58857C45.8265 5.90835 45.3788 5.89876 44.928 5.60776L44.6705 5.26879C44.4739 3.57876 44.3907 1.89032 44.7041 0.203485C44.9264 0.0180128 45.1726 0.0643809 45.4156 0.158716Z" fill="#FEB40A"/>
<path d="M73.7241 31.0379L72.1172 31.0011C72.0356 30.9128 71.9725 30.809 71.9315 30.6958C71.8906 30.5827 71.8728 30.4625 71.879 30.3424C71.8502 28.9055 71.8502 27.4665 71.879 26.0254C71.8663 25.8244 71.919 25.6247 72.0293 25.4562C72.4914 25.3858 73.0878 25.4865 73.5083 25.4258C73.7961 25.7264 73.6314 26.0286 73.6362 26.3931C73.6506 27.5315 73.6362 28.6699 73.6362 29.8084C73.6362 30.3152 73.8153 30.6222 74.3621 30.6238C74.6163 30.6238 74.8625 30.6558 75.0368 30.8732C74.6179 31.0731 74.1702 31.0459 73.7241 31.0379Z" fill="#FE5E28"/>
<path d="M75.0386 30.8799L74.3558 30.8543C74.2591 30.7629 74.1941 30.643 74.1704 30.5121C74.0543 28.8874 74.0586 27.2563 74.1831 25.6323C74.2061 25.5014 74.268 25.3805 74.3606 25.2853C74.8403 25.2677 75.1441 25.1526 75.846 25.0039C75.894 26.9098 75.9195 28.8157 75.8284 30.7232C75.5918 30.907 75.3136 30.883 75.0386 30.8799Z" fill="#FE552B"/>
<path d="M80.9738 0.61967C80.4941 0.680428 80.5948 1.04977 80.5948 1.35037C80.5948 2.98764 80.5948 4.62491 80.5948 6.26218C80.5727 6.61454 80.4543 6.95408 80.2527 7.2439C79.8865 6.73065 78.8137 6.09749 79.2646 6.01755C79.1814 4.40586 79.2278 2.79577 79.2374 1.18408C79.2374 0.845115 79.255 0.483764 79.6387 0.304688C80.0512 0.546121 80.5821 0.317479 80.9738 0.61967Z" fill="#FE4133"/>
<path d="M46.8642 31.0029L46.4229 31.0748H46.0456C45.7722 30.4352 45.9081 29.7781 45.8985 29.1273C45.8793 27.8914 45.8985 26.6554 45.8985 25.4179C46.3446 25.3907 46.7811 25.4691 47.2272 25.4499C47.411 25.7009 47.4174 25.9551 47.4206 26.2493C47.4318 27.4981 47.4334 28.7468 47.4206 29.9955C47.4142 30.4193 47.4142 30.8574 46.8642 31.0029Z" fill="#FEB10B"/>
<path d="M65.712 0.0488281L70.5358 0.0568226C70.8348 0.167147 71.2282 -0.0854792 71.4568 0.299855C71.6023 2.07143 71.7318 3.84141 71.3769 5.605C71.0061 5.76172 70.5924 5.78489 70.2065 5.67055C69.9203 5.36836 69.9666 4.98302 69.9618 4.61688C69.949 3.49765 69.9618 2.38961 69.9618 1.27518C69.9618 0.811502 69.8883 0.414976 69.3047 0.39419C68.9385 0.39419 68.574 0.402184 68.2094 0.382998C68.032 0.382998 67.8545 0.39419 67.6786 0.382998C67.4644 0.382998 67.2501 0.382998 67.039 0.382998C66.7896 0.382998 66.5386 0.382998 66.2892 0.371805C66.1233 0.372509 65.9593 0.335897 65.8095 0.264679C65.7883 0.257825 65.7687 0.246605 65.7521 0.231738C65.7354 0.216872 65.7221 0.19869 65.7129 0.17836C65.7037 0.15803 65.6989 0.136003 65.6987 0.113694C65.6986 0.0913861 65.7031 0.0692905 65.712 0.0488281Z" fill="#F16123"/>
<path d="M78.4043 0.143206C78.4106 0.13462 78.4187 0.12763 78.4282 0.12281C78.4376 0.117991 78.4481 0.115478 78.4587 0.115478C78.4693 0.115478 78.4798 0.117991 78.4892 0.12281C78.4987 0.12763 78.5068 0.13462 78.5131 0.143206C78.6929 0.376459 78.7795 0.668257 78.7561 0.961842C78.7561 2.57673 78.7865 4.19161 78.7561 5.8065C78.3851 6.04473 77.995 5.82728 77.5745 5.7985C77.3954 5.69618 77.3379 5.67699 77.2547 5.47873C77.0485 3.82866 77.1476 2.17381 77.1972 0.522145C77.2102 0.389053 77.2663 0.263858 77.357 0.165591C77.6958 0.0519316 78.0611 0.0441237 78.4043 0.143206Z" fill="#FE4930"/>
<path d="M56.7581 0.158262C56.7581 0.12735 56.7581 0.0969705 56.7581 0.0671244L57.7334 0.0527344C57.9525 0.121487 58.2483 0.0159597 58.357 0.318151C58.5617 1.95382 58.437 3.59269 58.4274 5.23156C58.4274 5.56413 58.3986 5.78478 58.074 5.94147C57.3737 5.7576 56.6526 5.80716 55.9683 5.74001C55.9683 5.70164 55.9683 5.63448 55.9683 5.59611C57.0011 5.36747 57.0875 4.63677 57.0235 3.74778C56.966 2.93235 57.0011 2.11051 57.0155 1.29188C57.009 0.900276 56.9214 0.51428 56.7581 0.158262Z" fill="#FE9316"/>
<path d="M45.4157 0.15808L44.7761 0.177266C43.7384 0.36114 43.6873 1.09184 43.7208 1.94725C43.7432 2.53404 43.9127 3.172 43.489 3.70603L40.6094 0.0605469H45.4141C45.4151 0.090393 45.4157 0.122904 45.4157 0.15808Z" fill="#FEBA09"/>
<path d="M77.3938 5.59466L77.7136 5.75455C77.6272 5.86007 77.5633 5.79932 77.429 5.78333C76.1498 5.62344 75.5503 5.78333 73.5388 5.72097C73.4525 5.65861 73.4525 5.72097 73.4109 5.62184C73.2111 3.97018 73.3182 2.31212 73.347 0.655665C73.347 0.335886 73.5069 0.099249 73.8666 0.0704689C75.3808 0.0544799 76.9045 -0.0798274 78.4075 0.153612L77.397 0.183991C77.1172 0.415831 76.7814 0.403039 76.4488 0.398243C76.1738 0.412633 75.8988 0.407836 75.6238 0.398243C74.6101 0.451006 74.6005 0.455803 74.5957 1.45032C74.5893 2.40965 74.5893 3.36526 74.5957 4.31714C74.5957 5.32125 74.6085 5.32444 75.6126 5.382C75.8892 5.382 76.1658 5.36761 76.4424 5.382C76.775 5.36442 77.1124 5.35322 77.3938 5.59466Z" fill="#FE5A2A"/>
<path d="M78.4042 5.92291C78.1756 5.52958 78.5161 5.10108 78.5145 4.68216C78.5145 3.17121 78.5145 1.66025 78.5145 0.147693C78.8983 0.147693 79.2868 0.0981274 79.6337 0.307583C79.4451 0.617769 79.4739 0.961532 79.4739 1.30529C79.4739 2.96602 79.4691 4.62674 79.4595 6.28746C80.0846 7.01655 79.1189 6.26507 78.4042 5.92291Z" fill="#FE4531"/>
<path d="M43.4873 3.70718C43.4873 2.94131 43.4873 2.17703 43.4985 1.41116C43.5209 0.0888752 43.2427 0.146436 44.7776 0.170419C44.7776 1.60943 44.7776 3.04843 44.7776 4.48744C44.7776 4.74646 44.8528 5.02307 44.6753 5.2629C44.2188 4.79349 43.8199 4.27121 43.4873 3.70718Z" fill="#FEB709"/>
<path d="M75.8298 30.7201C75.7646 30.6752 75.7125 30.6138 75.6788 30.5422C75.6451 30.4706 75.631 30.3913 75.6379 30.3124C75.6379 28.6783 75.6379 27.0427 75.6459 25.4086C75.6722 25.2541 75.7224 25.1047 75.7946 24.9657C75.9913 24.9657 76.2423 24.8394 76.666 24.6875C76.9187 25.3814 76.8051 26.1057 76.8259 26.8172C76.8659 28.01 76.7364 29.206 76.941 30.394C76.6048 30.5964 76.2221 30.7087 75.8298 30.7201Z" fill="#FE512D"/>
<path d="M73.8668 0.0607289C73.5086 0.244602 73.547 0.572376 73.547 0.892155C73.547 2.46121 73.547 4.02972 73.547 5.59771C73.3343 5.72722 73.0849 5.63608 72.8563 5.65847C72.4469 5.48579 72.4981 5.18839 72.4997 4.85102C72.4997 3.66144 72.4645 2.47187 72.5093 1.28388C72.5333 0.644326 72.4198 0.244602 71.6715 0.324547C71.6044 0.324187 71.5382 0.309772 71.4771 0.282231C71.4159 0.254691 71.3612 0.214638 71.3165 0.164657C71.0559 0.121487 70.7745 0.235009 70.5347 0.0527344L73.8668 0.0607289Z" fill="#FC5D28"/>
<path d="M43.3272 12.1326C43.348 11.6949 43.4567 11.2659 43.647 10.8711C44.3761 11.031 44.9773 11.4659 45.6472 11.7553C46.1429 12.1262 46.5586 12.5547 46.5858 13.2215C46.4019 13.4149 46.1061 13.4789 45.9766 13.7363C45.5577 14.0257 45.134 13.917 44.7102 13.7507C43.7173 13.3494 43.292 12.8521 43.3272 12.1326Z" fill="#F5AF0A"/>
<path d="M76.9445 30.396C76.6248 30.3592 76.5928 30.1417 76.5928 29.8827C76.5928 28.1218 76.5928 26.363 76.5928 24.6064C76.9669 24.6303 77.2004 24.2562 77.5441 23.9492C77.2611 24.7711 77.4322 25.6201 77.4066 26.4563C77.3762 27.4572 77.4066 28.4581 77.397 29.459C77.397 29.8108 77.421 30.0986 77.8767 30.0698C77.6035 30.2653 77.28 30.3785 76.9445 30.396Z" fill="#FE4E2E"/>
<path d="M34.383 0.0585938C34.383 0.0895058 34.383 0.120418 34.383 0.15133L33.7434 0.170517C32.8113 0.170517 31.8775 0.170517 30.9454 0.156126C30.536 0.148132 30.3762 0.300027 30.3762 0.71574C30.3873 1.48321 30.4337 2.25708 30.2307 3.01176L27.8931 0.0585938H34.383Z" fill="#FED002"/>
<path d="M84.053 24.4519C83.8292 23.8124 83.9667 23.1441 83.9555 22.4901C83.9315 21.0079 83.9443 19.5257 83.9555 18.0436C83.9555 17.7861 83.8771 17.5111 84.0706 17.2793C85.1163 19.6728 85.0587 22.0632 84.053 24.4519Z" fill="#FE313B"/>
<path d="M44.7759 15.6678V16.6271C44.1012 16.5999 43.5288 16.4384 43.1579 15.7685C43.0076 15.4967 42.8557 15.1449 42.5039 15.0106C42.5966 14.6349 42.6254 14.24 42.8413 13.9026C43.0012 13.7779 43.2138 13.7427 43.3465 13.8866C43.7237 14.286 44.17 14.6137 44.664 14.8539C44.9726 15.0282 45.0254 15.3592 44.7759 15.6678Z" fill="#FCB709"/>
<path d="M44.7759 15.668C44.7983 15.2331 44.7583 14.8685 44.1747 14.8589C43.815 14.8589 43.6231 14.5583 43.4648 14.2913C43.3065 14.0243 43.153 13.8708 42.8477 13.9092C42.9317 13.2991 43.0928 12.7022 43.3273 12.1328C43.572 12.8539 44.0916 13.3048 44.7663 13.5926C45.2044 14.0467 45.2716 14.6287 45.3339 15.2139C45.294 15.4361 45.2796 15.6696 45.0861 15.8311L44.7759 15.668Z" fill="#F9B309"/>
<path d="M45.5757 11.8305C44.8775 11.6371 44.2229 11.3115 43.6475 10.8712C43.6676 10.4787 43.777 10.0959 43.9672 9.75195C44.4469 10.3659 45.2639 10.3387 45.8443 10.7736C46.0682 10.9415 46.3416 11.0487 46.5127 11.2901C46.6838 11.5315 46.7957 11.8273 46.7333 12.1471C46.2249 12.5212 45.9643 11.9297 45.5757 11.8305Z" fill="#EFAA0A"/>
<path d="M44.1079 9.26439C44.1434 8.81399 44.2581 8.37339 44.4469 7.96289C44.7555 8.34343 44.9697 8.85667 45.6029 8.77673C45.8251 9.14767 46.2664 9.14448 46.5878 9.34754C46.8452 9.50743 47.1858 9.55219 47.3217 9.88157C47.3984 10.0878 47.4912 10.2925 47.3984 10.5211C47.2242 10.6634 46.9987 10.6107 46.8052 10.681C45.8555 10.2941 44.8946 9.94392 44.1079 9.26439Z" fill="#E5A20A"/>
<path d="M44.1076 9.26367L46.8546 10.5508C46.9057 10.773 47.0624 10.9617 47.0736 11.1903C46.9377 11.6876 46.6387 11.435 46.3749 11.3502C45.7865 10.9057 45.2061 10.4724 44.413 10.4405C44.0101 10.4245 43.9781 10.0631 43.9717 9.73854C43.9561 9.65427 43.9602 9.56751 43.9838 9.4851C44.0073 9.40269 44.0498 9.32689 44.1076 9.26367Z" fill="#EAA609"/>
<path d="M44.917 6.21779L44.9762 5.75411C45.3647 5.58143 45.7756 5.73652 46.1753 5.65818C46.2761 5.60871 46.3881 5.58624 46.5002 5.59296C46.6123 5.59969 46.7207 5.63538 46.8149 5.69655C46.9636 5.93798 46.7653 5.98595 46.615 6.0595C46.3096 6.13945 46.0218 5.98755 45.5629 5.96996C47.2482 6.18581 48.5849 6.96288 50.0303 7.40897C50.119 7.44084 50.1992 7.49256 50.2649 7.56017C50.3306 7.62778 50.3799 7.7095 50.4092 7.7991C50.3724 8.20362 50.0495 8.18763 49.824 8.09969C48.2091 7.48092 46.4919 7.14035 44.9506 6.32332L44.917 6.21779Z" fill="#C58809"/>
<path d="M45.5756 8.79254C44.9809 9.07075 44.53 8.73978 44.4404 7.95792C44.4404 7.73567 44.45 7.51023 44.6003 7.31836C45.3166 7.6909 46.0601 8.00109 46.7972 8.32566C46.9658 8.47973 47.1436 8.62337 47.3296 8.75577C47.5551 8.91566 47.7198 9.11392 47.408 9.35855C46.7189 9.4321 46.1433 9.12991 45.5756 8.79254Z" fill="#DD9C0B"/>
<path d="M44.7664 6.71547C44.7498 6.6281 44.7542 6.53804 44.7792 6.45269C44.8042 6.36735 44.8491 6.28917 44.9103 6.22461L44.9487 6.26298C45.5882 6.73146 46.3877 6.85777 47.0928 7.18874C47.6732 7.46216 48.3975 7.45256 48.818 8.04415C48.81 8.4103 48.6389 8.559 48.2696 8.47426C47.9002 8.38952 47.5165 8.28079 47.1392 8.18805C46.4836 7.87787 45.8057 7.61565 45.1374 7.33584C44.8751 7.22072 44.5841 7.1056 44.7664 6.71547Z" fill="#CF900A"/>
<path d="M44.7663 6.71484C44.8127 6.83476 44.8271 7.02503 44.9102 7.0618C45.6553 7.38958 46.4132 7.69017 47.1679 8.00036C47.369 8.16491 47.6063 8.27943 47.8602 8.33453C48.0921 8.39528 48.3255 8.512 48.1352 8.83338C47.5756 9.03324 47.1663 8.61273 46.6866 8.48003C46.1046 8.21941 45.5258 7.94759 44.9278 7.70776C44.736 7.62941 44.6081 7.54787 44.5889 7.33522C44.6176 7.11297 44.6065 6.88752 44.7663 6.71484Z" fill="#D6960A"/>
<path d="M58.2071 0.157028L57.7402 0.041907C60.3976 -0.03484 63.055 -0.00286207 65.7123 0.0483026C65.7123 0.0856102 65.7123 0.122385 65.7123 0.158627C65.6584 0.225329 65.587 0.275708 65.5061 0.304126C65.297 0.355827 65.0818 0.378425 64.8665 0.37128C64.6075 0.380873 64.3501 0.37128 64.091 0.37128C63.7809 0.390467 63.4707 0.361686 63.1605 0.37128C62.8871 0.393664 62.6137 0.37128 62.3403 0.37128C62.0205 0.396862 61.6847 0.37128 61.3585 0.37128C60.6854 0.37128 60.0123 0.37128 59.3375 0.37128C58.9442 0.396862 58.5429 0.444829 58.2071 0.157028Z" fill="#93673D"/>
<path d="M46.2134 5.738L44.9742 5.75559L44.9263 5.5957H46.2054L46.2613 5.66605L46.2134 5.738Z" fill="#FEB00B"/>
<path d="M29.1151 35.8364C29.106 35.7751 29.11 35.7127 29.127 35.6531C29.1439 35.5935 29.1733 35.5382 29.2132 35.4909C29.2531 35.4436 29.3026 35.4053 29.3585 35.3786C29.4144 35.3518 29.4753 35.3373 29.5372 35.3359C29.4673 35.5515 29.3158 35.7312 29.1151 35.8364Z" fill="#FED100"/>
<path d="M78.8231 20.3434C78.6104 19.8881 78.3378 19.4633 78.0124 19.0803C77.8334 18.0778 77.9805 17.0689 77.9501 16.0632C77.9229 15.1614 77.9373 14.2564 77.9501 13.3531C77.9501 12.9501 77.9661 12.5536 78.3498 12.285L78.983 11.9316C78.8648 12.2835 78.8154 12.6548 78.8375 13.0253C78.8279 15.4641 78.8231 17.9035 78.8231 20.3434Z" fill="#FE4730"/>
<path d="M47.4976 19.0261C47.2562 20.5147 46.7445 21.9329 46.3544 23.3815C46.2888 23.6277 46.3 23.9011 46.1593 24.1282C45.798 23.5206 45.9035 22.8491 45.8971 22.1935C45.8971 21.3461 45.8699 20.4971 45.8971 19.6497C45.9195 19.0885 45.8428 18.604 45.3583 18.2474C45.2676 18.1893 45.195 18.1071 45.1487 18.0099C45.1024 17.9127 45.0841 17.8044 45.0961 17.6974C45.192 17.0723 44.9026 16.4519 45.0961 15.8283C45.1185 15.6077 45.0225 15.3566 45.256 15.1888C45.6317 14.9745 45.8476 15.2655 46.0954 15.4526C46.3272 16.519 47.2002 17.3712 47.1315 18.5432C47.1171 18.7559 47.3057 18.9206 47.4976 19.0261Z" fill="#FDB10B"/>
<path d="M62.3542 16.9261C62.7507 15.551 63.2479 14.2079 63.3279 12.7513C63.4158 11.1748 63.1888 9.68146 62.3685 8.30641C62.2107 5.96391 62.2139 3.61333 62.3781 1.27127C62.4038 1.2029 62.4484 1.14327 62.5067 1.09937C62.5651 1.05548 62.6347 1.02913 62.7075 1.02344C63.1745 1.09415 63.6071 1.31074 63.9435 1.64221C63.9999 1.725 64.0486 1.81277 64.089 1.90443C64.2488 2.34253 64.2185 2.79661 64.2185 3.2475C64.2185 9.84242 64.2185 16.4379 64.2185 23.0339C64.2163 23.4588 64.1751 23.8827 64.0954 24.3002L63.2096 25.3826L63.9562 25.4514C64.4199 27.1942 64.2456 28.9498 64.0522 30.7038C64.0378 30.8317 63.8923 30.9116 63.7996 31.0028H62.3606C62.2214 30.7581 62.255 30.4879 62.255 30.2241C62.255 26.2151 62.255 22.2067 62.255 18.1988C62.2646 17.7703 62.3174 17.3498 62.3542 16.9261Z" fill="#FE811C"/>
<path d="M59.1421 21.7429L60.7554 19.8242C60.9936 20.0465 61.0064 20.3455 61.0064 20.6365C61.0208 23.7943 61.0256 26.9537 61.0064 30.1115C61.0064 30.4585 60.9728 30.8118 60.6083 31.0069C59.489 31.0501 59.4811 31.0501 59.4811 29.9276C59.4811 27.4542 59.4811 24.9807 59.4811 22.5072C59.4763 22.213 59.6361 21.8228 59.1421 21.7429Z" fill="#FE8B19"/>
<path d="M60.6133 31.0005C60.794 30.7127 60.7732 30.3913 60.7732 30.0747C60.7614 26.652 60.7556 23.2352 60.7556 19.8242L61.7149 18.2461C61.9691 18.4955 61.9628 18.8233 61.9644 19.1383C61.975 22.7433 61.975 26.3482 61.9644 29.9532C61.9644 30.3449 61.9867 30.7671 61.5614 31.0053L60.6133 31.0005Z" fill="#FE871A"/>
<path d="M61.5723 31.0012C61.7705 30.6814 61.7226 30.3345 61.7226 29.9907C61.7226 26.0745 61.7226 22.1583 61.7226 18.242L62.3477 16.9277C62.5236 17.2139 62.522 17.5321 62.522 17.8535C62.522 21.9531 62.522 26.0521 62.522 30.1506C62.522 30.4448 62.5316 30.7374 62.3621 31.0012H61.5723Z" fill="#FE841B"/>
<path d="M66.8411 25.4453H68.4399C68.6494 25.6484 68.6814 25.9154 68.6846 26.184C68.7048 27.5431 68.7048 28.9016 68.6846 30.2596C68.696 30.3929 68.6802 30.5271 68.6382 30.6541C68.5961 30.7811 68.5287 30.8982 68.4399 30.9983H66.8411C66.7523 30.8982 66.6849 30.7811 66.6428 30.6541C66.6008 30.5271 66.585 30.3929 66.5964 30.2596C66.5772 28.9005 66.5772 27.542 66.5964 26.184C66.5996 25.917 66.6316 25.65 66.8411 25.4453Z" fill="#FE7221"/>
<path d="M68.4399 30.9983V25.4453H69.8789C70.0884 25.6484 70.1204 25.9154 70.1236 26.184C70.1438 27.5431 70.1438 28.9016 70.1236 30.2596C70.1349 30.3929 70.1191 30.5271 70.077 30.654C70.035 30.781 69.9676 30.8981 69.8789 30.9983H68.4399Z" fill="#FE6B24"/>
<path d="M57.249 23.1923L58.2084 22.5527C58.2084 25.37 58.2084 28.1878 58.2084 31.0061H56.9404C57.0492 28.7581 56.9788 26.5068 56.9996 24.2588C56.9996 23.8798 57.0188 23.5121 57.249 23.1923Z" fill="#FE9316"/>
<path d="M70.8382 25.4453H72.1173C72.1173 27.2968 72.1173 29.1484 72.1173 30.9999H70.8382C70.425 29.1714 70.425 27.2738 70.8382 25.4453Z" fill="#FE6327"/>
<path d="M63.8047 31.0006C64.1245 29.8254 63.907 28.6262 63.9646 27.4398C63.9918 26.7779 63.9646 26.1128 63.9646 25.4492H65.0838C65.2933 25.6523 65.3252 25.9193 65.3284 26.1879C65.3487 27.547 65.3487 28.9055 65.3284 30.2635C65.3399 30.3968 65.3241 30.531 65.282 30.658C65.24 30.785 65.1725 30.9021 65.0838 31.0022L63.8047 31.0006Z" fill="#FE7C1D"/>
<path d="M65.082 30.9983C65.082 29.1468 65.082 27.2958 65.082 25.4453H66.0414C66.2508 25.6484 66.2828 25.9154 66.286 26.184C66.3063 27.5431 66.3063 28.9016 66.286 30.2596C66.2973 30.3929 66.2815 30.5271 66.2395 30.654C66.1974 30.781 66.13 30.8981 66.0414 30.9983H65.082Z" fill="#FE781F"/>
<path d="M70.8382 25.4453C70.8382 27.2968 70.8382 29.1484 70.8382 30.9999H69.8789C69.8789 29.1484 69.8789 27.2974 69.8789 25.4469L70.8382 25.4453Z" fill="#FE6725"/>
<path d="M66.0415 30.9983V25.4453H66.841C66.841 27.2968 66.841 29.1478 66.841 30.9983H66.0415Z" fill="#FE7520"/>
<path d="M56.7581 0.157116C57.1434 0.141127 57.2473 0.347385 57.2377 0.703939C57.2249 2.10937 57.2377 3.5148 57.2377 4.92023C57.2377 5.94832 56.4383 5.49104 55.9586 5.60935L55.4789 5.59496C55.1112 4.83869 55.1112 0.930982 55.4789 0.176303L56.7581 0.157116Z" fill="#FE9714"/>
<path d="M51.5073 5.70512H51.3315C51.114 5.50685 51.0916 5.23664 51.0884 4.97122C51.0682 3.61749 51.0682 2.26376 51.0884 0.910026C51.0699 0.641233 51.1577 0.375918 51.3331 0.171336L51.6528 0.152149C52.2492 0.0801987 52.4971 0.289654 52.4667 0.942004C52.4081 2.10526 52.4081 3.27074 52.4667 4.434C52.5083 5.19027 52.3963 5.70672 51.5073 5.70512Z" fill="#FEA410"/>
<path d="M55.4884 0.16774C55.4884 1.97449 55.4884 3.78125 55.4884 5.588C54.3691 5.60559 54.3691 5.60559 54.3691 4.50235C54.3691 3.39911 54.3691 2.33584 54.3691 1.25179C54.3691 0.16774 54.3691 0.156547 55.4884 0.16774Z" fill="#FE9B13"/>
<path d="M46.2134 5.59423C46.2134 3.78215 46.2134 1.97326 46.2134 0.167574C48.1321 0.133998 48.1321 0.133998 48.1321 2.03349C48.1321 3.21987 48.1321 4.40625 48.1321 5.59263C47.4925 6.06431 46.8529 5.6438 46.2134 5.59263V5.59423Z" fill="#FEB00B"/>
<path d="M46.2148 5.59491H48.1335C49.5725 5.59491 49.5725 5.59491 49.5725 4.18628C49.5725 3.12941 49.6205 2.06934 49.5565 1.01567C49.5118 0.286574 49.7836 0.0659257 50.4599 0.158662C50.7498 0.180957 51.0408 0.185762 51.3313 0.173052C51.3313 2.01711 51.3313 3.86171 51.3313 5.70683C51.2338 5.77559 51.1283 5.69404 51.0307 5.7628C50.3016 5.73242 49.7052 5.97545 49.0369 5.99144C48.3126 5.88271 47.5435 6.19929 46.8544 5.76439L46.2148 5.73881V5.59491Z" fill="#FEA70F"/>
<path d="M57.2491 23.1934C57.2491 25.4915 57.2491 27.7897 57.2491 30.0878C57.2491 30.4332 57.2875 30.7817 56.9373 31.004H55.4871C55.4358 30.9436 55.3971 30.8737 55.3732 30.7982C55.3493 30.7226 55.3408 30.6431 55.348 30.5643C55.4472 28.4329 55.4328 26.3032 55.332 24.1687L57.2491 23.1934Z" fill="#FE9615"/>
<path d="M52.2812 25.1008L54.1823 24.6211C54.6428 24.6819 54.5901 25.0656 54.5965 25.355C54.6332 26.9539 54.6188 28.5528 54.6076 30.1517C54.6076 30.6441 54.419 30.9655 53.8929 31.0135C52.4427 31.0646 52.4427 31.0646 52.4427 29.6208C52.4427 28.4265 52.4427 27.2305 52.4427 26.0361C52.4523 25.7035 52.4635 25.3854 52.2812 25.1008Z" fill="#FEA011"/>
<path d="M49.5728 25.4321C50.1504 25.3064 50.7405 25.2468 51.3316 25.2546C51.3316 26.7916 51.3316 28.3287 51.3316 29.8658C51.3316 31.025 51.3316 31.0266 50.2124 31.0202C50.0013 31.0202 49.7887 31.0074 49.5728 31.001C49.4847 30.9025 49.4175 30.787 49.3755 30.6616C49.3334 30.5363 49.3173 30.4037 49.3282 30.2719C49.3079 28.9022 49.3079 27.533 49.3282 26.1643C49.311 25.8977 49.3988 25.6348 49.5728 25.4321Z" fill="#FEA80E"/>
<path d="M53.9009 31.0022C54.1071 30.8279 54.3885 30.7656 54.3805 30.3626C54.3502 28.5847 54.3662 26.8051 54.3662 25.0271C54.3754 24.9479 54.3639 24.8676 54.3328 24.7942C54.3017 24.7208 54.252 24.6567 54.1887 24.6082L55.3319 24.1621C55.5553 24.4259 55.6697 24.765 55.6517 25.1103C55.6325 26.7092 55.6517 28.308 55.6357 29.9069C55.6067 30.2752 55.5533 30.6411 55.4758 31.0022H53.9009Z" fill="#FE9B13"/>
<path d="M47.1744 25.4453H48.4536C48.663 25.6484 48.695 25.9154 48.6982 26.184C48.7184 27.5431 48.7184 28.9016 48.6982 30.2596C48.7095 30.3929 48.6937 30.5271 48.6517 30.654C48.6096 30.781 48.5422 30.8981 48.4536 30.9983H46.8643C47.1601 30.7872 47.184 30.4866 47.184 30.1541C47.1649 28.5871 47.1744 27.0186 47.1744 25.4453Z" fill="#FEAE0C"/>
<path d="M48.4536 31.0006C48.4536 29.1491 48.4536 27.2981 48.4536 25.4476L49.5728 25.4316C49.5728 27.2874 49.5728 29.1437 49.5728 31.0006H48.4536Z" fill="#FEAB0D"/>
<path d="M73.3961 25.4461L74.5073 25.3086C74.2451 25.7259 74.365 26.1896 74.3618 26.6325C74.3474 28.0395 74.3618 29.4481 74.3618 30.8552C73.5895 31.0023 73.3545 30.6873 73.3849 29.9134C73.4376 28.4264 73.3961 26.9347 73.3961 25.4461Z" fill="#FE5A2A"/>
<path d="M67.6306 18.4922C67.5426 18.9975 67.1973 19.378 66.9814 19.8225C66.433 19.5715 66.6009 19.0582 66.5977 18.6473C66.5775 15.3578 66.5775 12.0684 66.5977 8.77891C66.5977 7.48061 66.5034 6.1807 66.6713 4.8872C67.1509 4.23644 67.2772 4.94476 67.5442 5.11424C67.7249 5.36527 67.9871 5.40044 68.2685 5.38285C68.6091 5.38285 68.9481 5.37166 69.2886 5.38285C69.6292 5.39405 69.9282 5.37166 70.2048 5.59551H71.324C71.8037 5.25974 72.2834 5.33169 72.763 5.59551L73.5625 5.6035C73.5665 5.6407 73.5665 5.67822 73.5625 5.71542C71.8597 5.72981 70.1552 5.76979 68.446 5.7474C67.8768 5.7474 67.7521 5.91529 67.9456 6.40935C68.1854 10.0021 67.9999 13.6044 68.0543 17.1923C68.0591 17.6688 68.0511 18.15 67.6306 18.4922Z" fill="#FE7221"/>
<path d="M72.7471 5.5948H71.3081C71.3081 3.78911 71.3081 1.98343 71.3081 0.177738C72.664 0.152156 72.6384 0.152156 72.6688 1.47604C72.7103 2.8431 72.5712 4.21975 72.7471 5.5948Z" fill="#F85F26"/>
<path d="M69.2392 5.5948H68.1199C68.0343 5.49431 67.9695 5.37786 67.9292 5.25217C67.8888 5.12648 67.8738 4.99404 67.8849 4.8625C67.8849 3.54501 67.8849 2.22752 67.8849 0.910029C67.8738 0.778493 67.8888 0.646056 67.9292 0.520365C67.9695 0.394675 68.0343 0.278222 68.1199 0.177734H69.2392C69.6069 0.924419 69.6069 4.83212 69.2392 5.5948Z" fill="#E46220"/>
<path d="M69.2393 5.5964C69.2393 3.78965 69.2393 1.98343 69.2393 0.177741C70.0227 0.0178517 70.245 0.352021 70.2162 1.11949C70.1602 2.60966 70.2002 4.10303 70.1986 5.5964H69.2393Z" fill="#EC6321"/>
<path d="M67.4805 5.27466L66.8409 4.6351C66.5867 4.52478 66.5531 4.33291 66.6379 4.09468C66.9033 3.18011 66.7098 2.24316 66.7674 1.31899C66.7913 0.927263 66.7018 0.519544 66.9976 0.175781H67.6372C67.7536 0.28576 67.8268 0.433807 67.8434 0.593093C67.901 1.98573 67.8882 3.37997 67.8434 4.77261C67.845 4.98846 67.8114 5.26027 67.4805 5.27466Z" fill="#D7621C"/>
<path d="M66.9992 0.17312C66.9992 1.3675 66.9992 2.56347 66.9992 3.75785C66.9992 3.94012 67.1591 4.31746 66.6794 4.16077C66.2813 4.23592 66.123 3.92253 65.9103 3.69229C65.8607 3.62075 65.831 3.53728 65.8242 3.45046C65.8175 3.36364 65.834 3.27659 65.872 3.19823C66.0414 2.5203 65.9423 1.83118 65.9711 1.14685C65.9855 0.806283 65.9439 0.452927 66.2013 0.169922L66.9992 0.17312Z" fill="#D0601A"/>
<path d="M67.4805 5.27449C67.7411 5.04105 67.6404 4.72927 67.6404 4.45106C67.6516 3.02324 67.6404 1.59383 67.6404 0.166016H68.12C68.12 1.97277 68.12 3.77899 68.12 5.58468C67.8626 5.57349 67.5348 5.70619 67.4805 5.27449Z" fill="#DC621D"/>
<path d="M66.1997 0.172748C66.1997 1.03296 66.1997 1.89316 66.1997 2.75177C66.1997 2.9996 66.2748 3.30179 65.8895 3.35935C65.7133 3.32178 65.557 3.22102 65.4501 3.07608C65.3432 2.93115 65.293 2.75208 65.3091 2.57269C65.4322 1.77324 65.1172 0.932224 65.5585 0.174347C65.6117 0.168447 65.6653 0.168447 65.7184 0.174347L66.1997 0.172748Z" fill="#C75F18"/>
<path d="M76.434 0.171875H77.3934C77.3934 1.97863 77.3934 3.78485 77.3934 5.59054H76.434C76.0663 4.83426 76.0663 0.926554 76.434 0.171875Z" fill="#FE4E2E"/>
<path d="M59.3247 6.23507L57.8857 5.9025C58.2375 5.68345 58.2055 5.33649 58.2055 4.99113C58.2055 3.38264 58.2055 1.77255 58.2055 0.164062L59.3056 0.176854C59.3745 0.247027 59.4322 0.327378 59.4766 0.415089C59.6477 2.15469 59.5742 3.89589 59.5166 5.63709C59.5078 5.85007 59.4415 6.0567 59.3247 6.23507Z" fill="#FE9017"/>
<path d="M75.6352 5.59572C75.5284 5.59212 75.4216 5.59585 75.3154 5.60692C74.5687 5.73003 74.2873 5.44703 74.3353 4.66996C74.4008 3.59071 74.3353 2.50346 74.3545 1.421C74.372 0.0987157 74.0954 0.153078 75.6336 0.178661C76.0029 0.926944 76.0029 4.83465 75.6352 5.59572Z" fill="#FE562B"/>
<path d="M75.6348 5.5948C75.6348 3.78911 75.6348 1.98342 75.6348 0.177734H76.4342C76.4342 1.98342 76.4342 3.78911 76.4342 5.5948H75.6348Z" fill="#FE512D"/>
<path d="M48.7529 14.3886C48.6411 15.1668 48.4371 15.929 48.1453 16.6591C47.8447 16.0451 47.1572 15.7397 46.895 15.0969C46.6168 14.5933 46.014 14.2703 46.0539 13.5908C46.022 13.4709 45.926 13.2934 45.9724 13.239C46.1483 13.0344 46.3385 13.319 46.5336 13.271C47.4354 13.3238 48.0925 13.861 48.7529 14.3886Z" fill="#F8AC0D"/>
<path d="M48.7523 14.3894L46.5331 13.2702C46.3428 12.7041 45.9655 12.2628 45.5737 11.8311C45.9846 11.8056 46.2613 12.2485 46.693 12.1509C47.6171 12.3108 48.5045 12.5427 49.0417 13.422L48.7523 14.3894Z" fill="#F4A90B"/>
<path d="M46.055 13.5898L47.0143 15.0289C47.1247 15.2703 47.2222 15.5437 46.9504 15.7116C46.6146 15.921 46.3108 15.7452 46.055 15.5085L45.2555 15.1887L44.7759 13.5898C44.9786 13.6739 45.196 13.7172 45.4154 13.7172C45.6349 13.7172 45.8523 13.6739 46.055 13.5898Z" fill="#F9AF0A"/>
<path d="M49.042 13.4299C48.364 12.8079 47.4846 12.5633 46.6948 12.1507L46.375 11.3513C46.5589 11.1802 46.8755 11.5432 47.0146 11.1914C47.6973 11.2394 48.2409 11.6359 48.8341 11.9093C49.1459 12.0532 49.1811 12.3442 49.2386 12.6272L49.042 13.4299Z" fill="#F0A50B"/>
<path d="M49.2437 12.6299C48.9143 12.0063 48.2651 11.8305 47.6991 11.5539C47.4689 11.4403 47.1923 11.4211 47.0196 11.1941C46.9333 10.9894 46.655 10.8327 46.8597 10.5545C46.9304 10.5063 47.014 10.4805 47.0995 10.4805C47.1851 10.4805 47.2687 10.5063 47.3394 10.5545C48.2252 10.433 48.8407 11.071 49.5778 11.354C49.5536 11.7975 49.4399 12.2315 49.2437 12.6299Z" fill="#EBA10D"/>
<path d="M49.8687 10.232C49.8796 10.3168 49.8733 10.403 49.8502 10.4854C49.8271 10.5678 49.7878 10.6447 49.7344 10.7116C48.8415 10.5965 47.9757 10.326 47.1762 9.9122C46.8004 9.51247 46.276 9.37976 45.7931 9.20548C45.5117 9.11275 45.6093 8.95286 45.5757 8.79297L47.4944 9.27264C48.4841 9.11275 49.1428 9.75231 49.8687 10.232Z" fill="#E19B0A"/>
<path d="M47.1743 9.91211C48.0809 10.0064 48.9043 10.3678 49.7326 10.7116C49.7505 10.9365 49.6944 11.1611 49.5727 11.3511C49.013 11.4327 48.6133 11.0553 48.1337 10.8714C47.865 10.7675 47.598 10.6572 47.3342 10.5517L47.1743 9.91211Z" fill="#E79D0B"/>
<path d="M50.5229 7.83308C50.5421 8.05811 50.4858 8.28312 50.363 8.47264C50.2687 8.56378 50.2862 8.826 50.1807 8.79242C49.701 8.61334 49.1606 8.65491 48.7209 8.36551C48.6714 8.33354 48.7209 8.21841 48.7753 8.15766C48.035 7.54048 47.0517 7.46374 46.241 7.01125C45.8093 6.77141 45.173 6.86735 44.9619 6.25977C46.5272 6.79699 48.0942 7.33263 49.6563 7.87625C49.9121 7.96579 50.1503 8.1001 50.3774 7.83628C50.3864 7.82604 50.3975 7.81779 50.4099 7.81205C50.4223 7.8063 50.4358 7.80318 50.4494 7.80288C50.4631 7.80257 50.4767 7.8051 50.4893 7.8103C50.5019 7.8155 50.5134 7.82325 50.5229 7.83308Z" fill="#CB8B0B"/>
<path d="M50.5228 7.83274H50.3629C49.1317 7.22196 47.8174 6.82383 46.5399 6.33297C46.206 6.22814 45.8844 6.08769 45.5806 5.91406H46.5399C47.6943 6.02439 48.7288 6.52804 49.7921 6.93256C50.0774 7.05473 50.3764 7.14223 50.6826 7.19318C50.7109 7.41884 50.6538 7.64691 50.5228 7.83274Z" fill="#C08209"/>
<path d="M50.6826 7.1931C50.5419 7.27624 50.4747 7.49689 50.2269 7.35298C49.0613 6.71343 47.7374 6.464 46.5366 5.90598C46.5996 5.91235 46.6631 5.90071 46.7197 5.8724C46.7763 5.84409 46.8237 5.80029 46.8564 5.74609H49.0949C48.8374 6.41923 48.3322 5.84043 48.0604 5.97633C47.8589 5.96194 47.974 6.15381 47.9612 6.04829C47.9612 6.0323 47.9708 6.0243 47.9948 6.0275C48.9989 6.10904 49.9391 6.36167 50.7273 7.03161L50.6826 7.1931Z" fill="#BC7F0B"/>
<path d="M49.8686 10.2314C49.0548 9.96922 48.3609 9.40641 47.4943 9.2721C47.4943 8.74607 46.8547 8.85159 46.6948 8.47266L48.1338 8.79244C48.9045 8.63255 49.5089 8.9875 50.0781 9.43999C50.073 9.71682 50.0011 9.98832 49.8686 10.2314Z" fill="#DC950B"/>
<path d="M50.0779 9.44434L48.1337 8.79359C48.0985 8.18441 47.2479 8.55535 47.1743 7.99414C47.7099 8.02452 48.1976 8.53137 48.7732 8.15403C49.2657 8.44023 49.7741 8.65129 50.3609 8.47381C50.3576 8.81719 50.2597 9.153 50.0779 9.44434Z" fill="#D5900C"/>
<path d="M65.5524 0.157849C65.4661 1.01006 65.7523 1.88626 65.383 2.71608C65.3416 2.75656 65.2893 2.78414 65.2326 2.7955C65.1758 2.80685 65.117 2.80148 65.0632 2.78004C64.9597 2.73132 64.8696 2.6581 64.8008 2.56671C64.732 2.47533 64.6865 2.36854 64.6683 2.2556C64.7882 1.56168 64.4428 0.816594 64.9065 0.15625L65.5524 0.157849Z" fill="#C15D16"/>
<path d="M64.9127 0.169922C64.7672 0.855849 65.0502 1.57535 64.7528 2.24849C64.2731 2.39719 64.1132 1.92871 63.8078 1.76082C63.8078 1.71073 63.8031 1.66009 63.7935 1.60893C64.1036 1.17563 63.8878 0.624009 64.1132 0.169922H64.9127Z" fill="#B75A15"/>
<path d="M64.1131 0.171875C64.0747 0.665934 64.5032 1.26712 63.7933 1.61088C63.4401 1.52926 63.1112 1.36486 62.834 1.13121C63.3264 0.945741 63.1282 0.520435 63.165 0.171875H64.1131Z" fill="#AE5613"/>
<path d="M63.1537 0.173828C63.4735 0.767019 63.3648 1.0836 62.8244 1.13317L62.5222 1.10598C62.3223 1.11878 62.1816 1.05162 62.1528 0.834172C62.2743 0.63431 62.244 0.386481 62.3559 0.183421L63.1537 0.173828Z" fill="#9F5210"/>
<path d="M62.3543 0.176317C62.4071 0.424146 62.6421 0.724739 62.1673 0.815876C61.8603 1.04772 61.5661 0.85425 61.2687 0.788695C61.2151 0.769286 61.1666 0.737875 61.127 0.696861C61.0873 0.655848 61.0576 0.606319 61.04 0.552058C61.0816 0.352196 61.3182 0.334608 61.3982 0.169922L62.3543 0.176317Z" fill="#924C0F"/>
<path d="M61.4065 0.173828C61.5872 0.597536 61.2322 0.445641 61.0627 0.493607C60.8868 0.679079 60.663 0.669486 60.4359 0.653497C60.065 0.549569 59.6365 0.611926 59.3343 0.303339C59.329 0.260507 59.3199 0.218234 59.3071 0.177026L61.4065 0.173828Z" fill="#8A480D"/>
<path d="M77.3936 18.7056L75.7947 18.3858C75.6567 18.3188 75.5465 18.2057 75.4829 18.066C75.2879 16.5023 75.4126 14.9338 75.4094 13.3685C75.4141 13.153 75.4951 12.9462 75.638 12.7849L77.3968 12.625C77.6383 12.8456 77.6494 13.1446 77.6526 13.4372C77.6708 14.9295 77.6708 16.4192 77.6526 17.9062C77.6399 18.1828 77.6303 18.4818 77.3936 18.7056Z" fill="#FE502D"/>
<path d="M68.7498 8.79175C69.0301 9.78876 69.1281 10.8282 69.0392 11.86C68.9784 12.5683 69.2086 12.8194 69.877 12.7762C69.9074 12.8194 69.9601 12.8593 69.9665 12.9057C70.2127 14.6837 70.3055 16.4601 69.9169 18.2316C68.2589 18.4843 68.1837 18.4235 68.1821 16.7798C68.1821 14.3943 68.1821 12.0087 68.1821 9.62318C68.1671 9.33177 68.1837 9.03959 68.2317 8.75178C68.2701 8.5791 68.3005 8.33926 68.5243 8.35205C68.7482 8.36484 68.6123 8.67343 68.7498 8.79175Z" fill="#FE6D24"/>
<path d="M75.6347 18.228L75.7946 18.3879L71.4776 18.3767C71.201 18.1816 70.7757 18.4838 70.5518 18.1033C70.312 16.4724 70.4367 14.8351 70.4783 13.2011C70.5003 13.0418 70.5719 12.8936 70.6829 12.7773H72.1219C72.3906 13.0971 72.3618 13.4713 72.3634 13.8422C72.3634 14.8815 72.3634 15.9208 72.3634 16.9601C72.373 17.897 72.3938 17.9194 73.3531 17.9977C73.6905 17.9881 74.0262 17.9802 74.362 17.9977C74.7985 18.0041 75.251 17.9194 75.6347 18.228Z" fill="#FE6426"/>
<path d="M70.6784 18.2242C70.9454 18.2658 71.246 18.1235 71.4778 18.3745L67.6309 18.4896C67.7671 18.1452 67.8282 17.7756 67.8099 17.4056C67.8025 14.0149 67.8025 10.6241 67.8099 7.23342C67.8099 6.95361 67.7092 6.64502 67.949 6.40039C68.3823 7.14228 68.7085 7.91934 68.7485 8.79874L68.4383 8.36384V11.3698C68.4383 13.313 68.4383 15.2556 68.4383 17.1977C68.4383 18.2274 68.4383 18.2274 69.4792 18.2274H69.8789C69.9873 18.1263 70.1298 18.0698 70.278 18.0692C70.4262 18.0686 70.5692 18.124 70.6784 18.2242Z" fill="#FE7022"/>
<path d="M73.3965 18.2264H73.3165C71.9559 18.2264 72.1253 18.3463 72.1189 17.056C72.1189 15.6298 72.1189 14.2036 72.1189 12.7773H73.3981C73.7658 13.5496 73.7658 17.4653 73.3965 18.2264Z" fill="#FE5E28"/>
<path d="M75.6347 18.2267H74.3556C73.9863 17.4657 73.9863 13.5516 74.3556 12.7793H75.6347C75.6347 14.5988 75.6347 16.4147 75.6347 18.2267Z" fill="#FE552B"/>
<path d="M77.3936 18.7058C77.3936 16.6741 77.3936 14.6425 77.3936 12.6108L78.3529 12.291C78.193 12.6108 78.193 12.9562 78.193 13.3015C78.193 14.9004 78.193 16.4881 78.193 18.0822C78.193 18.4308 78.193 18.7729 78.0075 19.0831L77.3936 18.7058Z" fill="#FE4B2F"/>
<path d="M74.3558 12.7793C74.3558 14.5914 74.3558 16.4072 74.3558 18.2267H73.3965C73.3965 16.4147 73.3965 14.5988 73.3965 12.7793H74.3558Z" fill="#FE5A2A"/>
<path d="M70.6784 18.2264H69.8789C69.8789 16.4143 69.8789 14.598 69.8789 12.7773H70.6784C70.6784 14.598 70.6784 16.4143 70.6784 18.2264Z" fill="#FE6825"/>
<path d="M63.8032 1.75781C64.1822 1.79619 64.4092 2.12876 64.7498 2.23748L65.0903 2.69317C65.3462 3.01295 65.3398 3.38549 65.3398 3.75963C65.3398 9.78001 65.3398 15.8025 65.3398 21.8272C65.321 22.1722 65.2793 22.5157 65.2151 22.8553C64.9093 23.3837 64.5327 23.8678 64.0958 24.2943C63.8496 24.0177 63.9631 23.6819 63.9631 23.3749C63.9557 16.5316 63.9557 9.68834 63.9631 2.84506C63.9615 2.47891 64.0143 2.09838 63.8032 1.75781Z" fill="#FE7C1D"/>
<path d="M65.2183 22.8627C65.0152 22.6677 65.084 22.415 65.084 22.1832C65.084 15.6917 65.084 9.19962 65.084 2.70703L65.383 2.73261L65.8882 3.35618L66.0481 3.66637C66.2831 4.04691 66.3023 4.46582 66.3023 4.89912C66.3023 9.96016 66.3055 15.0233 66.3119 20.0886C66.3119 20.5459 66.1232 20.968 66.1648 21.4221C65.8898 21.9242 65.6308 22.4406 65.2183 22.8627Z" fill="#FE781F"/>
<path d="M66.1629 21.4235C65.979 21.2205 66.043 20.9695 66.043 20.7376C66.043 15.0498 66.043 9.36252 66.043 3.67578L66.6825 4.16504L66.8424 4.64471C66.8424 9.45526 66.8424 14.2658 66.8424 19.0764C66.8424 19.3322 66.7593 19.6136 66.9751 19.8358C66.844 20.4242 66.4763 20.9055 66.1629 21.4235Z" fill="#FE7520"/>
<path d="M59.3327 0.300781C59.7084 0.324765 60.0954 0.281594 60.4439 0.479858C60.8884 0.588583 60.9988 0.929148 61.0051 1.32088C61.0307 2.90059 61.0419 4.4819 60.9956 6.06161C60.9876 6.34141 61.0323 6.73634 60.5511 6.74593L59.3247 6.23429C59.3279 4.25592 59.3306 2.27808 59.3327 0.300781Z" fill="#FE8B18"/>
<path d="M60.5525 6.7469C60.8611 6.54384 60.7604 6.22406 60.762 5.94745C60.77 4.4333 60.762 2.91754 60.77 1.40339C60.77 1.04843 60.77 0.712663 60.4502 0.482422L61.069 0.495213L61.2544 0.655103C61.466 0.695897 61.6554 0.812403 61.7873 0.982809C61.9191 1.15321 61.9844 1.36584 61.9707 1.58086C61.9963 3.36203 61.9995 5.14321 61.9707 6.92438C61.9798 7.04315 61.9618 7.16243 61.918 7.27322C61.8743 7.38401 61.8059 7.48342 61.7181 7.56394L60.5525 6.7469Z" fill="#FE871A"/>
<path d="M61.7149 7.56491C61.7149 5.56149 61.7149 3.55967 61.7437 1.55626C61.7437 1.11816 61.5534 0.876726 61.2544 0.646484L62.1818 0.815967L62.5351 1.09737C62.5351 3.19193 62.5351 5.28648 62.5351 7.38104C62.5351 7.70082 62.5575 8.0206 62.3752 8.3068L61.7149 7.56491Z" fill="#FE841B"/>
<path d="M46.0552 15.509C46.4246 15.4466 47.1217 16.043 47.0146 15.0293C47.2848 15.3363 47.4607 15.7184 47.8892 15.8879C48.217 16.0174 48.1146 16.3804 48.1466 16.6586C48.1002 17.4932 47.603 18.2063 47.4975 19.0249C47.0498 19.2136 46.8115 18.8746 46.8851 18.5868C47.1025 17.7362 46.5461 17.1478 46.2583 16.4907C46.1219 16.1815 46.0527 15.8469 46.0552 15.509Z" fill="#FCAE0B"/>
<path d="M50.7258 7.04707L47.7759 5.987C48.2236 5.79194 48.7096 6.10372 49.0918 5.76316C49.7409 5.82551 50.2222 5.73597 51.108 5.73438C51.0025 6.11171 50.8314 6.66813 50.7258 7.04707Z" fill="#B6790B"/>
</g>
<defs>
<clipPath id="clip0_3361_45">
<rect width="100" height="40" fill="white"/>
</clipPath>
</defs>
</svg>
