<svg width="100" height="31" viewBox="0 0 100 31" fill="none" xmlns="http://www.w3.org/2000/svg">
<path d="M26.9556 8.23629C26.957 8.74565 27.034 9.25186 27.1838 9.73778C27.5269 9.16264 27.9675 8.65424 28.4851 8.23629C28.4856 7.52866 28.6982 6.83811 29.0944 6.25706C29.4905 5.67601 30.0513 5.2322 30.7017 4.98505C30.827 5.25114 31.0421 5.46238 31.3075 5.58018C31.573 5.69797 31.8712 5.71446 32.1476 5.62661C32.35 5.5635 32.5322 5.44646 32.6755 5.2876C32.8188 5.12874 32.9179 4.93378 32.9625 4.72285C33.263 4.62365 33.5129 4.4076 33.658 4.12167C33.8031 3.83572 33.8316 3.50297 33.7375 3.19568C33.6433 2.88838 33.434 2.63136 33.1551 2.48046C32.8761 2.32956 32.55 2.29696 32.2476 2.38972C32.0942 2.24111 31.9039 2.13812 31.6972 2.09191C31.4905 2.04569 31.2753 2.058 31.075 2.12753C30.798 2.2157 30.5615 2.40292 30.4091 2.65471C30.2567 2.90651 30.1986 3.20594 30.2455 3.4979C29.2836 3.8435 28.4506 4.48491 27.8615 5.33363C27.2723 6.18235 26.9561 7.19653 26.9563 8.23629H26.9556Z" fill="#FF000B"/>
<path d="M35.2791 1.54572H17.8323V8.23746C17.3147 8.65543 16.8741 9.16383 16.531 9.73895C16.3823 9.25278 16.3053 8.74673 16.3027 8.23746V0H36.7949V8.25222C36.795 9.16927 36.5485 10.0688 36.082 10.853C35.6156 11.6371 34.9473 12.2759 34.1496 12.6998C33.3519 13.1237 32.4555 13.3165 31.5579 13.2573C30.6602 13.198 29.7956 12.889 29.0583 12.3638C29.1142 11.8177 29.3171 11.2981 29.6446 10.8623C30.1382 11.2972 30.744 11.5785 31.3899 11.6727C32.0357 11.7669 32.6946 11.67 33.288 11.3936C33.8815 11.1172 34.3846 10.6728 34.7375 10.1134C35.0905 9.55399 35.2785 8.90301 35.2791 8.23784V1.54611V1.54572Z" fill="#FF000B"/>
<path d="M26.9556 12.6402C26.9556 11.7232 27.2022 10.8238 27.6686 10.0397C28.1351 9.2556 28.8034 8.61689 29.6011 8.19301C30.3987 7.76912 31.295 7.57628 32.1926 7.63546C33.0903 7.69464 33.9548 8.00357 34.6922 8.52866C34.6364 9.07484 34.4335 9.59463 34.1059 10.0305C33.7293 9.69791 33.2856 9.45361 32.8062 9.3149C32.3268 9.17621 31.8234 9.14647 31.3315 9.22782C30.8396 9.30916 30.3713 9.49962 29.9595 9.78568C29.5477 10.0718 29.2025 10.4465 28.9483 10.8835C28.6942 11.3204 28.5372 11.8089 28.4885 12.3145C28.4398 12.8201 28.5005 13.3304 28.6664 13.8094C28.8323 14.2885 29.0994 14.7245 29.4487 15.0868C29.798 15.4491 30.2211 15.7288 30.6881 15.9062C30.8134 15.6401 31.0284 15.4289 31.2938 15.3111C31.5593 15.1933 31.8575 15.1768 32.1339 15.2646C32.3363 15.3277 32.5186 15.4447 32.6619 15.6036C32.8051 15.7625 32.9042 15.9574 32.9489 16.1684C33.2523 16.265 33.5056 16.4806 33.6532 16.7677C33.8007 17.0548 33.8303 17.3898 33.7355 17.6992C33.6407 18.0085 33.4292 18.2668 33.1476 18.4173C32.8661 18.5675 32.5374 18.5978 32.2339 18.5011C32.0806 18.6498 31.8903 18.7531 31.6836 18.7993C31.4769 18.8455 31.2617 18.8332 31.0613 18.7637C30.7844 18.6754 30.548 18.4882 30.3956 18.2364C30.2433 17.9846 30.1853 17.6852 30.2323 17.3933C29.275 17.0378 28.4478 16.3915 27.8621 15.5416C27.2765 14.6917 26.9606 13.6792 26.9571 12.6406L26.9556 12.6402Z" fill="#FF000B"/>
<path d="M26.1551 12.6382C26.1536 12.1288 26.0766 11.6226 25.9268 11.1367C25.5836 11.7118 25.1431 12.2202 24.6256 12.6382C24.6249 13.3458 24.4123 14.0362 24.0161 14.6172C23.62 15.1982 23.0592 15.6419 22.4089 15.889C22.2836 15.623 22.0685 15.4118 21.8031 15.294C21.5376 15.1763 21.2394 15.1599 20.9631 15.2479C20.7605 15.3109 20.5782 15.4278 20.4348 15.5867C20.2915 15.7456 20.1924 15.9406 20.1477 16.1517C19.9974 16.1995 19.8579 16.2771 19.7371 16.38C19.6163 16.4828 19.5165 16.6089 19.4434 16.7511C19.3704 16.8933 19.3256 17.0487 19.3115 17.2085C19.2974 17.3684 19.3143 17.5295 19.3612 17.6826C19.4082 17.8358 19.4843 17.978 19.5852 18.1012C19.6861 18.2244 19.8098 18.3261 19.9492 18.4006C20.0887 18.475 20.2412 18.5206 20.3979 18.5351C20.5547 18.5495 20.7128 18.5322 20.863 18.4844C21.0163 18.6332 21.2067 18.7362 21.4134 18.7825C21.6201 18.8287 21.8353 18.8162 22.0356 18.7466C22.3127 18.6584 22.5491 18.4711 22.7015 18.2193C22.8539 17.9675 22.912 17.6682 22.8651 17.3762C23.8258 17.0288 24.6577 16.3869 25.2466 15.5386C25.8354 14.6903 26.1525 13.6771 26.1543 12.6378L26.1551 12.6382Z" fill="#FF000B"/>
<path d="M26.155 8.23919C26.1553 7.19946 25.839 6.18525 25.2498 5.33653C24.6607 4.48781 23.8277 3.8464 22.8658 3.50083C22.9164 3.20844 22.8599 2.90731 22.707 2.65465C22.5541 2.40199 22.3154 2.21543 22.0363 2.13043C21.8352 2.06797 21.6217 2.05927 21.4164 2.10519C21.211 2.1511 21.0207 2.25009 20.8637 2.39265C20.5613 2.29987 20.2352 2.33248 19.9563 2.48337C19.6773 2.63427 19.468 2.89128 19.3739 3.19858C19.2797 3.50587 19.3083 3.83862 19.4534 4.12457C19.5985 4.41052 19.8484 4.62656 20.1488 4.72575C20.2032 4.97479 20.3325 5.20029 20.5186 5.3709C20.7047 5.54151 20.9383 5.6487 21.187 5.67756C21.4356 5.70642 21.687 5.65548 21.9059 5.53188C22.1248 5.40827 22.3005 5.21815 22.4085 4.98797C22.8751 5.16554 23.2978 5.44534 23.6468 5.80764C23.9958 6.16992 24.2626 6.60588 24.4282 7.08473C24.5939 7.56358 24.6545 8.07366 24.6058 8.579C24.557 9.08434 24.4 9.57262 24.146 10.0094C23.8919 10.4461 23.547 10.8207 23.1354 11.1067C22.7239 11.3927 22.2558 11.5832 21.7641 11.6646C21.2725 11.7461 20.7693 11.7166 20.2901 11.5782C19.8109 11.4398 19.3673 11.1958 18.9906 10.8636C18.6516 11.2927 18.4473 11.8159 18.4043 12.3651C19.1437 12.891 20.0103 13.2001 20.91 13.2588C21.8097 13.3176 22.7079 13.1237 23.5071 12.6983C24.3062 12.2729 24.9757 11.6323 25.4426 10.8461C25.9095 10.0599 26.1561 9.15826 26.1554 8.23919H26.155Z" fill="#FF000B"/>
<path d="M16.3162 12.6402C16.3162 11.7232 16.5628 10.8238 17.0293 10.0397C17.4957 9.2556 18.164 8.61689 18.9617 8.19301C19.7593 7.76912 20.6556 7.57628 21.5533 7.63546C22.4509 7.69464 23.3154 8.00357 24.0528 8.52866C23.9969 9.07471 23.794 9.59434 23.4665 10.0302C22.9729 9.59498 22.3671 9.31348 21.7211 9.21916C21.075 9.12483 20.416 9.22166 19.8225 9.49809C19.2289 9.77455 18.7257 10.219 18.3726 10.7785C18.0197 11.3381 17.8317 11.9893 17.8313 12.6546V19.3462H35.2788V12.6546C35.7963 12.2365 36.2369 11.7282 36.58 11.1531C36.7287 11.6393 36.8058 12.1453 36.8083 12.6546V21.312H16.3154V12.6402H16.3162Z" fill="#FF000B"/>
<path d="M43.6496 0.807919L46.1572 7.06604L48.6647 0.807919H49.9762V8.4778H48.9648V5.49097L49.0596 2.26709L46.5417 8.4778H45.7674L43.2547 2.2829L43.3547 5.49097V8.4778H42.3433V0.807919H43.6496ZM55.6972 6.47489H52.484L51.7621 8.47663H50.7191L53.6482 0.806756H54.533L57.4672 8.47663H56.4294L55.6972 6.47489ZM52.7895 5.64258H55.397L54.0905 2.05522L52.7895 5.64258ZM60.7596 5.05785C59.8921 4.8085 59.2601 4.50298 58.8632 4.14126C58.4698 3.77603 58.2731 3.3265 58.2731 2.79271C58.2731 2.18867 58.5137 1.68998 58.9948 1.29666C59.4795 0.899825 60.1081 0.701395 60.8808 0.701395C61.4075 0.701395 61.8762 0.803249 62.2872 1.00694C62.7016 1.21063 63.0212 1.49157 63.246 1.84978C63.4743 2.20798 63.5883 2.59956 63.5883 3.02448H62.5717C62.5717 2.56093 62.4241 2.19744 62.1292 1.93407C61.8342 1.66715 61.4181 1.5337 60.8808 1.5337C60.382 1.5337 59.9923 1.64434 59.7112 1.86558C59.4338 2.08331 59.2951 2.38708 59.2951 2.77691C59.2951 3.08947 59.4269 3.35461 59.6902 3.57234C59.9571 3.78655 60.4084 3.98323 61.044 4.16233C61.6832 4.34144 62.1818 4.53985 62.5401 4.75759C62.9017 4.97181 63.1687 5.22291 63.3408 5.51089C63.5165 5.79886 63.6041 6.13775 63.6041 6.52756C63.6041 7.14916 63.3618 7.64783 62.8772 8.0236C62.3925 8.39586 61.7447 8.582 60.9334 8.582C60.4067 8.582 59.9151 8.48189 59.4585 8.28173C59.0019 8.07804 58.649 7.80061 58.3997 7.44943C58.1539 7.09824 58.0309 6.69963 58.0309 6.25363H59.0476C59.0476 6.7172 59.2179 7.08418 59.5585 7.3546C59.9027 7.6215 60.361 7.75495 60.9334 7.75495C61.4672 7.75495 61.8762 7.64608 62.1608 7.42835C62.4453 7.21062 62.5875 6.91386 62.5875 6.53809C62.5875 6.16233 62.4557 5.8726 62.1924 5.66892C61.929 5.46172 61.4514 5.25803 60.7596 5.05785ZM70.547 6.04293C70.4522 6.85416 70.1521 7.48102 69.6464 7.92352C69.1442 8.36251 68.4751 8.582 67.6394 8.582C66.7331 8.582 66.0063 8.25715 65.4584 7.60746C64.9141 6.95776 64.6419 6.08858 64.6419 4.9999V4.26242C64.6419 3.54951 64.7683 2.92265 65.0213 2.38182C65.2775 1.841 65.6393 1.42659 66.1064 1.13863C66.5734 0.847135 67.1142 0.701395 67.7288 0.701395C68.5437 0.701395 69.1968 0.929666 69.6884 1.38621C70.18 1.83924 70.4663 2.46786 70.547 3.27208H69.5304C69.4426 2.66101 69.2513 2.21851 68.9561 1.9446C68.6647 1.67067 68.2557 1.5337 67.7288 1.5337C67.0826 1.5337 66.5752 1.77251 66.2064 2.25013C65.8412 2.72775 65.6585 3.40728 65.6585 4.28875V5.03151C65.6585 5.86382 65.8325 6.5258 66.18 7.01747C66.5278 7.50913 67.0142 7.75495 67.6394 7.75495C68.2011 7.75495 68.6313 7.62853 68.9299 7.37568C69.2318 7.1193 69.4322 6.67505 69.5304 6.04293H70.547ZM77.6101 4.83046C77.6101 5.58199 77.4835 6.23871 77.2308 6.80062C76.9778 7.35899 76.6197 7.78569 76.1562 8.08068C75.6926 8.37566 75.1517 8.52318 74.5337 8.52318C73.9297 8.52318 73.3941 8.37566 72.927 8.08068C72.46 7.78217 72.0965 7.35899 71.8366 6.81115C71.5802 6.25979 71.4486 5.62239 71.4414 4.89895V4.34583C71.4414 3.60835 71.5697 2.95688 71.826 2.39149C72.0824 1.82608 72.4442 1.39413 72.9112 1.09561C73.3818 0.793596 73.9191 0.642578 74.5231 0.642578C75.1376 0.642578 75.6786 0.791843 76.1456 1.09034C76.6162 1.38534 76.9778 1.81555 77.2308 2.38096C77.4835 2.94284 77.6101 3.59781 77.6101 4.34583V4.83046ZM76.6039 4.33529C76.6039 3.42572 76.4213 2.72863 76.056 2.24398C75.6907 1.75584 75.1798 1.51176 74.5231 1.51176C73.8841 1.51176 73.3801 1.75584 73.0113 2.24398C72.6461 2.72863 72.4583 3.40291 72.4477 4.26681V4.83046C72.4477 5.71193 72.632 6.40553 73.0007 6.91124C73.3729 7.41344 73.8841 7.66452 74.5337 7.66452C75.1869 7.66452 75.6926 7.42748 76.0508 6.95337C76.4089 6.47577 76.5933 5.79271 76.6039 4.90421V4.33529ZM83.589 1.58024H81.1236V8.41782H80.1174V1.58024H77.6575V0.747938H83.589V1.58024ZM48.0062 20.1865C47.7463 20.5589 47.3828 20.838 46.9156 21.0241C46.4521 21.2068 45.9113 21.2981 45.2933 21.2981C44.6682 21.2981 44.1133 21.1522 43.6286 20.8608C43.1439 20.5658 42.7682 20.148 42.5012 19.6072C42.2379 19.0662 42.1026 18.4393 42.0957 17.7265V17.0575C42.0957 15.9021 42.3643 15.0066 42.9018 14.3709C43.4425 13.7353 44.201 13.4175 45.1773 13.4175C45.978 13.4175 46.6224 13.6229 47.1106 14.0338C47.5988 14.4412 47.8974 15.0206 48.0062 15.7722H46.9948C46.805 14.7572 46.2011 14.2498 45.1825 14.2498C44.5048 14.2498 43.9904 14.4886 43.6392 14.9662C43.2915 15.4403 43.116 16.1286 43.1123 17.0311V17.658C43.1123 18.5183 43.309 19.2032 43.7024 19.7124C44.0956 20.2181 44.6277 20.471 45.2985 20.471C45.6778 20.471 46.0096 20.4288 46.2941 20.3446C46.5785 20.2603 46.8139 20.1181 47 19.9179V18.1953H45.2247V17.3736H48.0062V20.1865ZM53.9323 19.1909H50.7191L49.9974 21.1927H48.9544L51.8833 13.5228H52.7681L55.7024 21.1927H54.6646L53.9323 19.1909ZM51.0246 18.3586H53.6322L52.3258 14.7713L51.0246 18.3586ZM58.0412 13.5228L60.5487 19.781L63.0562 13.5228H64.3678V21.1927H63.3564V18.2058L63.4513 14.982L60.9332 21.1927H60.159L57.6462 14.9978L57.7462 18.2058V21.1927H56.7348V13.5228H58.0412ZM67.2388 21.1927H66.2274V13.5228H67.2388V21.1927ZM74.9876 21.1927H73.971L70.1097 15.2823V21.1927H69.0931V13.5228H70.1097L73.9816 19.4596V13.5228H74.9876V21.1927ZM82.4468 20.1865C82.1869 20.5589 81.8234 20.838 81.3564 21.0241C80.8929 21.2068 80.352 21.2981 79.7339 21.2981C79.1088 21.2981 78.554 21.1522 78.0692 20.8608C77.5847 20.5658 77.2089 20.148 76.942 19.6072C76.6787 19.0662 76.5435 18.4393 76.5363 17.7265V17.0575C76.5363 15.9021 76.8051 15.0066 77.3424 14.3709C77.8831 13.7353 78.6418 13.4175 79.618 13.4175C80.4188 13.4175 81.0632 13.6229 81.5514 14.0338C82.0394 14.4412 82.338 15.0206 82.4468 15.7722H81.4354C81.2458 14.7572 80.6417 14.2498 79.6234 14.2498C78.9456 14.2498 78.431 14.4886 78.0798 14.9662C77.7321 15.4403 77.5566 16.1286 77.5531 17.0311V17.658C77.5531 18.5183 77.7498 19.2032 78.143 19.7124C78.5364 20.2181 79.0685 20.471 79.7391 20.471C80.1185 20.471 80.4504 20.4288 80.7347 20.3446C81.0193 20.2603 81.2545 20.1181 81.4406 19.9179V18.1953H79.6655V17.3736H82.4468V20.1865Z" fill="#FF000B"/>
<path d="M78.834 25.8379H79.425L80.8147 29.2322H80.8626L82.2523 25.8379H82.8433V29.927H82.38V26.8202H82.3401L81.0622 29.927H80.615L79.3371 26.8202H79.2972V29.927H78.834V25.8379Z" fill="#FF000B"/>
<path d="M70.4901 25.8379H70.9853V28.5454C70.9853 28.8249 70.9194 29.0745 70.7876 29.2941C70.6572 29.5124 70.4728 29.6848 70.2346 29.8112C69.9963 29.9364 69.7168 29.9989 69.396 29.9989C69.0752 29.9989 68.7957 29.9364 68.5574 29.8112C68.3191 29.6848 68.1341 29.5124 68.0023 29.2941C67.8719 29.0745 67.8066 28.8249 67.8066 28.5454V25.8379H68.3018V28.5054C68.3018 28.7051 68.3457 28.8828 68.4336 29.0385C68.5214 29.1929 68.6466 29.3147 68.809 29.4039C68.9727 29.4918 69.1684 29.5357 69.396 29.5357C69.6236 29.5357 69.8193 29.4918 69.983 29.4039C70.1467 29.3147 70.2718 29.1929 70.3584 29.0385C70.4462 28.8828 70.4901 28.7051 70.4901 28.5054V25.8379Z" fill="#FF000B"/>
<path d="M59.9546 25.8379V29.927H59.4595V25.8379H59.9546Z" fill="#FF000B"/>
<path d="M47.5977 25.8379H48.1887L49.5783 29.2322H49.6263L51.0159 25.8379H51.6069V29.927H51.1437V26.8202H51.1038L49.8259 29.927H49.3787L48.1008 26.8202H48.0609V29.927H47.5977V25.8379Z" fill="#FF000B"/>
<path d="M37.3774 29.927V25.8379H39.8453V26.2772H37.8726V27.6588H39.7175V28.0981H37.8726V29.4878H39.8773V29.927H37.3774Z" fill="#FF000B"/>
<path d="M26.9219 29.927V25.8379H28.3036C28.623 25.8379 28.8852 25.8925 29.0902 26.0016C29.2952 26.1094 29.447 26.2579 29.5455 26.4469C29.644 26.6359 29.6932 26.8509 29.6932 27.0918C29.6932 27.3327 29.644 27.5464 29.5455 27.7327C29.447 27.9191 29.2959 28.0655 29.0922 28.172C28.8886 28.2771 28.6283 28.3297 28.3115 28.3297H27.1934V27.8825H28.2956C28.5139 27.8825 28.6896 27.8505 28.8227 27.7866C28.9571 27.7227 29.0543 27.6322 29.1142 27.5151C29.1754 27.3966 29.206 27.2555 29.206 27.0918C29.206 26.9281 29.1754 26.785 29.1142 26.6625C29.053 26.54 28.9551 26.4455 28.8207 26.379C28.6863 26.3111 28.5085 26.2772 28.2876 26.2772H27.417V29.927H26.9219ZM28.8466 28.0901L29.853 29.927H29.2779L28.2876 28.0901H28.8466Z" fill="#FF000B"/>
<path d="M16.4927 29.927V25.8379H17.8744C18.1952 25.8379 18.4574 25.8958 18.661 26.0116C18.866 26.1261 19.0178 26.2811 19.1163 26.4768C19.2148 26.6725 19.264 26.8908 19.264 27.1317C19.264 27.3727 19.2148 27.5916 19.1163 27.7886C19.0191 27.9856 18.8687 28.1427 18.665 28.2598C18.4614 28.3756 18.2005 28.4335 17.8823 28.4335H16.892V27.9943H17.8664C18.086 27.9943 18.2624 27.9563 18.3955 27.8805C18.5286 27.8046 18.6251 27.7021 18.685 27.573C18.7462 27.4425 18.7768 27.2954 18.7768 27.1317C18.7768 26.968 18.7462 26.8216 18.685 26.6925C18.6251 26.5633 18.5279 26.4622 18.3935 26.389C18.259 26.3144 18.0807 26.2772 17.8584 26.2772H16.9878V29.927H16.4927Z" fill="#FF000B"/>
</svg>
