<svg width="102" height="30" viewBox="0 0 102 30" fill="none" xmlns="http://www.w3.org/2000/svg">
<path d="M87.6478 11.4419L89.4175 11.4354L89.4083 19.093L87.6507 19.0971L87.6478 11.4419Z" fill="white"/>
<path d="M79.3193 11.4406L86.3966 11.4359L86.3914 12.9065L83.7324 12.9087L83.733 19.094L81.9927 19.0968L81.991 12.9048L79.317 12.9067L79.3193 11.4406Z" fill="white"/>
<path d="M44.601 11.4414C44.821 11.4408 46.388 11.3932 46.4558 11.437C46.5072 11.4702 48.0174 15.0859 48.2119 15.5451L48.569 16.3732C48.6137 16.4768 48.6596 16.6368 48.741 16.7152L51.0034 11.4384L52.8536 11.4374L52.1372 13.1057L49.5414 19.0933L47.9069 19.096L44.601 11.4414Z" fill="white"/>
<path d="M75.1796 11.4389L76.3772 11.4357C76.4753 11.4358 76.6817 11.4099 76.7622 11.4441C76.8127 11.4654 76.8156 11.4881 76.8367 11.5345L80.1775 19.0852L78.4571 19.0946L77.6507 17.2281L76.8962 17.2292L75.2249 17.2292C74.9328 17.2294 74.6069 17.2009 74.3189 17.2483L73.5404 19.0926L71.8033 19.0908L75.1796 11.4389ZM75.9895 13.3314L74.9481 15.7661L76.0501 15.7601L77.0223 15.7603L75.9895 13.3314Z" fill="white"/>
<path d="M62.5064 11.4421L64.2143 11.4378L66.6949 15.976L69.1767 11.4397L70.8869 11.4359L70.8863 19.0947L69.3476 19.098V14.3528L66.699 19.1206L64.0486 14.3647L64.0533 19.0901L62.511 19.0965L62.5064 11.4421Z" fill="white"/>
<path d="M95.6938 9.97489C95.8866 9.93145 96.1426 9.95552 96.3421 9.95448C97.9132 9.94649 99.3936 10.5075 100.808 11.1361L99.8595 12.7235C99.3679 12.4168 98.8432 12.1619 98.2979 11.9658C97.0862 11.5305 95.7036 11.3956 94.51 11.9608C93.7339 12.3283 93.1116 12.9783 92.8223 13.792C92.5337 14.6044 92.5611 15.645 92.9343 16.4257C93.3104 17.2128 93.9752 17.8185 94.8016 18.1078C96.3019 18.6333 97.7154 18.2981 99.0998 17.6307L100.225 16.915L101.068 18.3765C99.8153 19.17 98.4272 19.8591 96.9335 20.0259C95.3777 20.1995 93.6086 19.8057 92.377 18.8159C91.4322 18.0567 90.8555 16.9276 90.7268 15.729C90.5779 14.3432 90.855 12.9755 91.7425 11.8768C92.7268 10.6587 94.1781 10.1348 95.6938 9.97489Z" fill="white"/>
<path d="M39.9091 11.3661L39.9533 11.3586C41.0917 11.2049 42.5164 11.5421 43.4158 12.258C44.1432 12.837 44.5987 13.7139 44.7003 14.633C44.8264 15.7725 44.6573 16.8732 43.9213 17.7857C43.2037 18.6749 42.1527 19.0089 41.0562 19.1238C39.8222 19.2162 38.4904 19.0634 37.4888 18.2778C36.7378 17.6886 36.319 16.8147 36.2035 15.881C36.0722 14.8211 36.2558 13.6939 36.9271 12.8371C37.6782 11.8789 38.7369 11.5068 39.9091 11.3661ZM40.0177 12.8528C39.288 13.0198 38.6662 13.3396 38.2575 13.9929C37.9192 14.534 37.8193 15.231 37.9654 15.8513C38.1051 16.4454 38.4913 16.9842 39.0109 17.3059C39.5815 17.659 40.2616 17.8082 40.9272 17.6886C41.6315 17.5105 42.2844 17.1734 42.668 16.5273C43.0089 15.9526 43.0905 15.2699 42.9263 14.6233C42.7713 14.0123 42.3297 13.4879 41.7902 13.1726C41.2438 12.8534 40.6391 12.7787 40.0177 12.8528Z" fill="white"/>
<path d="M56.4865 11.3655L56.5393 11.3567C57.7124 11.2598 59.0629 11.5072 59.9912 12.2665C60.7457 12.8837 61.1908 13.7744 61.2846 14.7398C61.3891 15.8208 61.1931 16.9326 60.4868 17.7883C59.7236 18.7121 58.66 19.0233 57.5094 19.1319C56.3133 19.2301 54.9974 19.0149 54.0333 18.2642C53.2701 17.6701 52.8767 16.7492 52.761 15.8117C52.6319 14.7628 52.8533 13.6562 53.5123 12.8143C54.255 11.8656 55.3308 11.5052 56.4865 11.3655ZM56.5636 12.853C55.8223 13.0367 55.2035 13.3628 54.7985 14.0352C54.4668 14.5862 54.3878 15.292 54.5442 15.9119C54.6969 16.518 55.1316 17.0417 55.6653 17.3555C56.2235 17.6839 56.9584 17.8235 57.5934 17.6668C58.3211 17.4525 58.9293 17.1007 59.3042 16.4135C59.6001 15.8714 59.6483 15.1313 59.4739 14.543C59.299 13.9506 58.8256 13.4238 58.2862 13.1341C57.745 12.843 57.1677 12.7862 56.5636 12.853Z" fill="white"/>
<path d="M25.2817 10.0605L27.2258 10.0616L33.102 16.8509V10.06L34.9661 10.0576L34.9629 19.0559C34.9626 19.3547 34.9958 19.7013 34.943 19.9938L34.7251 20.0036L33.2565 20.0035L27.1429 12.9416L27.1459 20.004L25.2824 20.0062L25.2817 10.0605Z" fill="white"/>
<path d="M9.45281 4.0064L9.84167 4L12.3949 4.03055C12.6322 4.04473 12.8619 4.10365 13.0973 4.12708C14.0685 4.22377 15.0074 4.34538 15.9592 4.57341C17.0791 4.84171 18.2798 5.2571 19.1085 6.09174C20.0637 7.05385 20.2634 8.59041 20.2572 9.88422C20.251 11.1841 20.0839 12.477 19.9621 13.7694C19.7529 15.9877 19.5368 18.2129 19.0517 20.3916C18.7774 21.6233 18.4116 23.1509 17.4832 24.0662C16.2534 25.2786 14.2459 25.6516 12.5926 25.8705C12.4408 25.8906 12.2866 25.9678 12.1457 25.979C11.7581 26.0099 11.3526 25.9891 10.9632 25.9871L8.74618 25.989C8.55894 25.9877 8.16205 26.0327 8.00073 25.9496C7.73977 25.8153 7.23421 25.8138 6.93437 25.7636C5.53231 25.529 3.86638 25.1329 2.81528 24.1055C1.67665 22.9926 1.30318 21.0252 1.02386 19.5156C0.682751 17.6723 0.496042 15.8347 0.315831 13.9708C0.196973 12.7416 0.0266131 11.5501 0.0129775 10.312C0.00693624 9.76328 -0.0226006 9.17356 0.0347124 8.63102C0.128368 7.74448 0.540179 6.70724 1.16633 6.07018C2.91856 4.28738 7.05641 4.0231 9.45281 4.0064ZM8.58699 4.79953C6.53786 4.92141 3.04167 5.12541 1.6066 6.74226C0.678243 7.78821 0.728008 9.60866 0.809114 10.925L1.08366 13.8844C1.29793 16.1903 1.72124 22.1142 3.4453 23.6327C5.21033 25.1874 9.16258 25.3456 11.4263 25.198L11.7947 25.1716C13.5127 24.9766 15.9815 24.7344 17.1426 23.2763C17.6942 22.5837 17.9526 21.6015 18.165 20.7573C18.7503 18.4316 18.9567 16.0513 19.1919 13.6726C19.3425 12.1509 19.6118 10.4962 19.4362 8.97249C19.3192 7.95848 19.0944 7.03768 18.2564 6.37562C17.5219 5.79519 16.559 5.50334 15.6596 5.29745C13.9065 4.89615 12.0784 4.77608 10.2839 4.77158C9.72803 4.77018 9.13845 4.74245 8.58699 4.79953Z" fill="white"/>
<path d="M9.33386 5.84632C11.3952 5.80317 16.1781 5.88976 17.7284 7.32096C18.2837 7.83367 18.3692 8.74836 18.4003 9.45726C18.4612 10.846 18.2542 12.2496 18.1202 13.6295C17.8954 15.9439 17.6916 18.2609 17.1265 20.5238C16.951 21.2271 16.7219 22.1785 16.214 22.7265C15.1726 23.8503 12.3614 24.0853 10.8882 24.1499L10.8049 24.1538C9.22132 24.2232 7.58445 24.0858 6.04624 23.6944C5.39186 23.5278 4.62519 23.2796 4.11992 22.8104C3.59635 22.3241 3.37343 21.4439 3.19242 20.7743C2.5495 18.3961 2.34375 15.9078 2.11337 13.4632L1.85187 10.5117C1.81545 9.56981 1.75866 8.12751 2.45252 7.38622C2.83497 6.97767 3.4632 6.73663 3.98536 6.56924C5.69796 6.0203 7.54799 5.91013 9.33386 5.84632ZM4.43246 9.73078C4.22533 9.86315 4.19549 9.97396 4.1429 10.2123C4.10229 10.3964 4.04326 10.5885 4.1065 10.773C4.27002 10.9679 4.60424 11.0072 4.84121 11.0594C5.61322 11.2295 6.20387 11.5934 6.13168 12.4762C6.07109 13.2178 5.82595 14.0282 5.67759 14.7592L5.32062 16.5003C5.25752 16.8082 5.21668 17.1335 5.12036 17.4321C5.06419 17.6062 4.96158 17.8219 4.81997 17.9413C4.54486 18.1732 3.91646 18.076 3.75961 18.2948C3.66929 18.4208 3.638 18.6458 3.62296 18.7986C3.6156 18.8734 3.62819 18.943 3.65633 19.0125C3.73995 19.0839 3.81503 19.1281 3.92434 19.146C4.4245 19.228 5.04323 19.1638 5.55451 19.1665L8.80948 19.1635C8.93553 19.0872 8.97741 19.0486 9.01367 18.9006C9.06837 18.6768 9.1194 18.4285 9.11746 18.1978C8.75221 18.0729 8.20339 18.0026 8.00838 17.6195C7.95224 17.5093 7.93812 17.3584 7.94442 17.2364C7.97019 16.7404 8.11743 16.2082 8.20625 15.7158C8.26097 15.4127 8.28484 15.0378 8.39121 14.7518C8.40968 14.7022 8.44654 14.6633 8.48588 14.6295C8.6111 14.6323 8.63436 14.6234 8.72165 14.7144C8.90358 14.9042 9.02149 15.2192 9.15164 15.4499L10.5819 18.0153C10.7523 18.3198 10.9447 18.8036 11.1956 19.0427C11.3067 19.1485 11.438 19.1748 11.5867 19.18C12.1194 19.1987 15.4062 19.2459 15.7012 19.1129C15.7979 19.0693 15.8864 18.958 15.9275 18.8576L15.9448 18.8069C15.9888 18.6103 16.0688 18.3777 16.004 18.1806C15.6728 17.7505 14.309 17.8629 14.4139 17.0867C14.521 16.2935 14.8045 15.4598 14.9926 14.6769L15.4788 12.6778C15.5679 12.3071 15.6335 11.8915 15.7692 11.5373C15.8317 11.3741 15.9331 11.24 16.0733 11.1351C16.286 10.9762 16.8522 10.9426 16.9854 10.7682C17.097 10.6221 17.1593 10.1261 17.1933 9.9298C17.1557 9.82933 17.1583 9.79382 17.0603 9.74316C16.8202 9.61913 13.8014 9.70258 13.335 9.70117C13.0552 9.70036 12.5935 9.64378 12.3395 9.72293C12.2968 9.73632 12.2608 9.75843 12.2253 9.78513C12.0089 9.94724 11.9818 10.2923 11.9438 10.5423L11.9208 10.761C12.2102 10.8266 12.7078 10.9004 12.8737 11.1651C13.0968 11.5212 12.3982 14.3112 12.2734 14.838L10.4801 11.4406C10.2547 11.0114 10.0516 10.4837 9.76111 10.0988C9.63503 9.93168 9.4677 9.78952 9.26279 9.73231C9.09163 9.68454 8.8757 9.70397 8.6989 9.70281L5.42831 9.70431C5.11332 9.70489 4.74022 9.66595 4.43246 9.73078Z" fill="white"/>
</svg>
