<svg width="101" height="41" viewBox="0 0 101 41" fill="none" xmlns="http://www.w3.org/2000/svg">
<g clip-path="url(#clip0_1789_20802)">
<path d="M3.37705 24.3856V10.3155L15.254 16.2539L8.5281 19.6181V16.2539C8.5281 15.5044 7.92239 14.8987 7.17282 14.8987C6.42326 14.8987 5.81755 15.5044 5.81755 16.2539V21.8088C5.81755 22.2807 6.05984 22.7148 6.46112 22.9622C6.8624 23.2095 7.35706 23.2322 7.77853 23.0227L18.8908 17.4679C19.3501 17.2382 19.6403 16.7713 19.6403 16.2565C19.6403 15.7416 19.3501 15.2747 18.8908 15.045L2.62749 6.91087C2.20601 6.7014 1.70883 6.72159 1.31007 6.97144C0.908787 7.21877 0.666504 7.65287 0.666504 8.12481V24.3856C0.666504 25.1351 1.27221 25.7408 2.02178 25.7408C2.77134 25.7408 3.37705 25.1351 3.37705 24.3856Z" fill="#FF002A"/>
<path d="M37.337 13.2969C37.183 12.936 36.9307 12.6306 36.6101 12.4135C36.4511 12.305 36.272 12.2192 36.0827 12.1612C35.8934 12.1031 35.6915 12.0703 35.4845 12.0703H29.96C29.7404 12.0703 29.5234 12.1586 29.3669 12.3151C29.2104 12.4716 29.1221 12.6861 29.1221 12.9082V19.6038C29.1221 20.0657 29.4956 20.4417 29.96 20.4417C30.4243 20.4417 30.7979 20.0682 30.7979 19.6038V17.6504H35.4845C35.7596 17.6504 36.0272 17.5949 36.2669 17.4914C36.6278 17.3375 36.9332 17.0851 37.1502 16.7646C37.2588 16.6056 37.3446 16.4264 37.4026 16.2371C37.4607 16.0478 37.4935 15.8459 37.4935 15.6389V14.0767C37.4935 13.8016 37.4379 13.5341 37.3345 13.2943L37.337 13.2969ZM35.8202 15.6415C35.8202 15.6894 35.8101 15.7323 35.795 15.7727C35.7697 15.8308 35.7268 15.8838 35.6738 15.9216C35.6461 15.9393 35.6183 15.9544 35.588 15.9645C35.5577 15.9746 35.5249 15.9797 35.4871 15.9797H30.8004V13.7486H35.4871C35.535 13.7486 35.5779 13.7587 35.6183 13.7739C35.6763 13.7991 35.7293 13.842 35.7672 13.895C35.7849 13.9228 35.8 13.9505 35.8101 13.9808C35.8202 14.0111 35.8252 14.0439 35.8252 14.0818V15.644L35.8202 15.6415Z" fill="white"/>
<path d="M77.3971 15.7612C77.2381 15.6527 77.0589 15.5669 76.8696 15.5089C76.6803 15.4508 76.4784 15.418 76.2715 15.418H71.3602C71.3122 15.418 71.2693 15.4079 71.2289 15.3928C71.1709 15.3675 71.1179 15.3246 71.08 15.2716C71.0624 15.2439 71.0472 15.2161 71.0371 15.1858C71.027 15.1555 71.022 15.1227 71.022 15.0849V14.0804C71.022 14.0324 71.0321 13.9895 71.0472 13.9492C71.0725 13.8911 71.1154 13.8381 71.1684 13.8002C71.1961 13.7826 71.2239 13.7674 71.2542 13.7573C71.2845 13.7472 71.3173 13.7422 71.3551 13.7422H77.1573C77.6192 13.7422 77.9952 13.3687 77.9952 12.9043C77.9952 12.4399 77.6217 12.0664 77.1573 12.0664H71.3551C71.08 12.0664 70.8125 12.1219 70.5727 12.2254C70.2118 12.3794 69.9065 12.6317 69.6894 12.9523C69.5809 13.1113 69.4951 13.2904 69.437 13.4797C69.379 13.669 69.3462 13.8709 69.3462 14.0779V15.0823C69.3462 15.3574 69.4017 15.6249 69.5052 15.8647C69.6591 16.2256 69.9115 16.531 70.232 16.748C70.391 16.8566 70.5702 16.9424 70.7595 17.0004C70.9488 17.0585 71.1507 17.0913 71.3576 17.0913H76.2689C76.3169 17.0913 76.3598 17.1014 76.4002 17.1165C76.4582 17.1417 76.5112 17.1846 76.5491 17.2376C76.5667 17.2654 76.5819 17.2932 76.592 17.3235C76.6021 17.3537 76.6071 17.3865 76.6071 17.4244V18.4289C76.6071 18.4768 76.597 18.5197 76.5819 18.5601C76.5566 18.6182 76.5137 18.6712 76.4607 18.709C76.433 18.7267 76.4052 18.7418 76.3749 18.7519C76.3447 18.762 76.3118 18.7671 76.274 18.7671H70.4718C70.0099 18.7671 69.6339 19.1406 69.6339 19.605C69.6339 20.0693 70.0074 20.4429 70.4718 20.4429H76.274C76.5491 20.4429 76.8166 20.3873 77.0564 20.2839C77.4173 20.1299 77.7226 19.8775 77.9397 19.557C78.0482 19.398 78.134 19.2188 78.1921 19.0295C78.2501 18.8402 78.2829 18.6383 78.2829 18.4314V17.4269C78.2829 17.1518 78.2274 16.8843 78.1239 16.6446C77.97 16.2837 77.7176 15.9783 77.3971 15.7612Z" fill="white"/>
<path d="M67.3398 12.2762C66.9915 11.9708 66.464 12.0062 66.1586 12.3544L62.8827 16.0972L59.6069 12.3544C59.3015 12.0062 58.774 11.9708 58.4257 12.2762C58.0775 12.5816 58.0421 13.1091 58.3475 13.4573L62.0474 17.6847V19.6028C62.0474 20.0646 62.4209 20.4407 62.8853 20.4407C63.3496 20.4407 63.7232 20.0671 63.7232 19.6028V17.6847L67.423 13.4573C67.7284 13.1091 67.6931 12.5816 67.3448 12.2762H67.3398Z" fill="white"/>
<path d="M89.2585 13.2969C89.1046 12.936 88.8522 12.6306 88.5317 12.4135C88.3727 12.305 88.1935 12.2192 88.0042 12.1612C87.8149 12.1031 87.613 12.0703 87.4061 12.0703H82.4948C82.2197 12.0703 81.9522 12.1258 81.7124 12.2293C81.3515 12.3833 81.0461 12.6356 80.8291 12.9562C80.7206 13.1152 80.6347 13.2943 80.5767 13.4836C80.5187 13.6729 80.4858 13.8748 80.4858 14.0818V18.4353C80.4858 18.7104 80.5414 18.9779 80.6448 19.2177C80.7988 19.5786 81.0512 19.884 81.3717 20.101C81.5307 20.2095 81.7099 20.2953 81.8992 20.3534C82.0884 20.4114 82.2903 20.4442 82.4973 20.4442H87.4086C87.6837 20.4442 87.9512 20.3887 88.191 20.2852C88.5519 20.1313 88.8572 19.8789 89.0743 19.5584C89.1828 19.3994 89.2686 19.2202 89.3267 19.0309C89.3847 18.8416 89.4175 18.6397 89.4175 18.4328V14.0792C89.4175 13.8042 89.362 13.5366 89.2585 13.2969ZM87.7417 18.4303C87.7417 18.4782 87.7316 18.5211 87.7165 18.5615C87.6912 18.6195 87.6483 18.6725 87.5954 18.7104C87.5676 18.7281 87.5398 18.7432 87.5095 18.7533C87.4793 18.7634 87.4464 18.7684 87.4086 18.7684H82.4973C82.4493 18.7684 82.4064 18.7583 82.3661 18.7432C82.308 18.718 82.255 18.6751 82.2172 18.6221C82.1995 18.5943 82.1843 18.5665 82.1743 18.5363C82.1642 18.506 82.1591 18.4732 82.1591 18.4353V14.0818C82.1591 14.0338 82.1692 13.9909 82.1844 13.9505C82.2096 13.8925 82.2525 13.8395 82.3055 13.8016C82.3333 13.784 82.361 13.7688 82.3913 13.7587C82.4216 13.7486 82.4544 13.7436 82.4923 13.7436H87.4035C87.4515 13.7436 87.4944 13.7537 87.5348 13.7688C87.5928 13.7941 87.6458 13.837 87.6837 13.89C87.7014 13.9177 87.7165 13.9455 87.7266 13.9758C87.7367 14.0061 87.7417 14.0389 87.7417 14.0767V18.4303Z" fill="white"/>
<path d="M99.8282 12.0703C99.3663 12.0703 98.9903 12.4438 98.9903 12.9082V17.6933L93.1401 12.2949C92.8953 12.0678 92.542 12.0097 92.2366 12.1435C91.9312 12.2773 91.7344 12.5776 91.7344 12.9107V19.6063C91.7344 20.0682 92.1079 20.4442 92.5723 20.4442C93.0367 20.4442 93.4102 20.0707 93.4102 19.6063V14.8212L99.2603 20.2196C99.5051 20.4468 99.8584 20.5048 100.164 20.371C100.469 20.2373 100.666 19.937 100.666 19.6038V12.9082C100.666 12.4464 100.293 12.0703 99.8282 12.0703Z" fill="white"/>
<path d="M46.3671 18.7659H41.3447V12.9082C41.3447 12.4464 40.9712 12.0703 40.5068 12.0703C40.0425 12.0703 39.6689 12.4438 39.6689 12.9082V19.6038C39.6689 19.8234 39.7573 20.0404 39.9138 20.1944C40.0702 20.3509 40.2848 20.4392 40.5068 20.4392H46.3646C46.8264 20.4392 47.2025 20.0657 47.2025 19.6013C47.2025 19.1369 46.8289 18.7634 46.3646 18.7634L46.3671 18.7659Z" fill="white"/>
<path d="M57.7491 20.4384C57.4614 20.4384 57.1813 20.2895 57.0248 20.022L53.8423 14.5655L50.6598 20.022C50.4276 20.4207 49.9153 20.557 49.514 20.3223C49.1153 20.0901 48.979 19.5778 49.2137 19.1765L53.1205 12.4809C53.2694 12.2235 53.547 12.0645 53.8423 12.0645C54.1376 12.0645 54.4152 12.2235 54.5641 12.4809L58.471 19.1765C58.7031 19.5752 58.5694 20.0876 58.1706 20.3223C58.0369 20.4005 57.893 20.4359 57.7491 20.4359V20.4384Z" fill="white"/>
<path d="M24.4399 37.7266H22.2661V36.3555H24.4399C24.7759 36.3555 25.0493 36.3008 25.2603 36.1914C25.4712 36.0781 25.6255 35.9219 25.7231 35.7227C25.8208 35.5234 25.8696 35.2988 25.8696 35.0488C25.8696 34.7949 25.8208 34.5586 25.7231 34.3398C25.6255 34.1211 25.4712 33.9453 25.2603 33.8125C25.0493 33.6797 24.7759 33.6133 24.4399 33.6133H22.8755V40.7676H21.1177V32.2363H24.4399C25.1079 32.2363 25.6802 32.3574 26.1567 32.5996C26.6372 32.8379 27.0044 33.168 27.2583 33.5898C27.5122 34.0117 27.6392 34.4941 27.6392 35.0371C27.6392 35.5879 27.5122 36.0645 27.2583 36.4668C27.0044 36.8691 26.6372 37.1797 26.1567 37.3984C25.6802 37.6172 25.1079 37.7266 24.4399 37.7266ZM29.8521 32.2363H33.0337C33.686 32.2363 34.2466 32.334 34.7153 32.5293C35.188 32.7246 35.5513 33.0137 35.8052 33.3965C36.0591 33.7793 36.186 34.25 36.186 34.8086C36.186 35.2656 36.1079 35.6582 35.9517 35.9863C35.7993 36.3105 35.5825 36.582 35.3013 36.8008C35.0239 37.0156 34.6978 37.1875 34.3228 37.3164L33.7661 37.6094H31.0005L30.9888 36.2383H33.0454C33.354 36.2383 33.6099 36.1836 33.813 36.0742C34.0161 35.9648 34.1685 35.8125 34.27 35.6172C34.3755 35.4219 34.4282 35.1953 34.4282 34.9375C34.4282 34.6641 34.3774 34.4277 34.2759 34.2285C34.1743 34.0293 34.02 33.877 33.813 33.7715C33.606 33.666 33.3462 33.6133 33.0337 33.6133H31.6099V40.7676H29.8521V32.2363ZM34.6216 40.7676L32.6763 36.9648L34.5337 36.9531L36.5024 40.6855V40.7676H34.6216ZM44.2642 39.3965V40.7676H39.7231V39.3965H44.2642ZM40.2974 32.2363V40.7676H38.5396V32.2363H40.2974ZM43.6724 35.7109V37.0469H39.7231V35.7109H43.6724ZM44.2583 32.2363V33.6133H39.7231V32.2363H44.2583ZM47.0923 32.2363H48.5806L50.772 38.5L52.9634 32.2363H54.4517L51.3696 40.7676H50.1743L47.0923 32.2363ZM46.2896 32.2363H47.772L48.0415 38.3418V40.7676H46.2896V32.2363ZM53.772 32.2363H55.2603V40.7676H53.5024V38.3418L53.772 32.2363ZM59.6704 32.2363V40.7676H57.9185V32.2363H59.6704ZM67.0278 32.2363H68.7798V37.873C68.7798 38.5293 68.6392 39.082 68.3579 39.5312C68.0806 39.9805 67.6958 40.3184 67.2036 40.5449C66.7153 40.7715 66.1528 40.8848 65.5161 40.8848C64.8794 40.8848 64.313 40.7715 63.8169 40.5449C63.3247 40.3184 62.938 39.9805 62.6567 39.5312C62.3794 39.082 62.2407 38.5293 62.2407 37.873V32.2363H63.9985V37.873C63.9985 38.2559 64.0591 38.5684 64.1802 38.8105C64.3013 39.0527 64.4751 39.2305 64.7017 39.3438C64.9321 39.457 65.2036 39.5137 65.5161 39.5137C65.8364 39.5137 66.1079 39.457 66.3306 39.3438C66.5571 39.2305 66.729 39.0527 66.8462 38.8105C66.9673 38.5684 67.0278 38.2559 67.0278 37.873V32.2363ZM72.0298 32.2363H73.5181L75.7095 38.5L77.9009 32.2363H79.3892L76.3071 40.7676H75.1118L72.0298 32.2363ZM71.2271 32.2363H72.7095L72.979 38.3418V40.7676H71.2271V32.2363ZM78.7095 32.2363H80.1978V40.7676H78.4399V38.3418L78.7095 32.2363Z" fill="white"/>
</g>
<defs>
<clipPath id="clip0_1789_20802">
<rect width="100" height="40" fill="white" transform="translate(0.666504 0.767578)"/>
</clipPath>
</defs>
</svg>
