<svg width="100" height="40" viewBox="0 0 100 40" fill="none" xmlns="http://www.w3.org/2000/svg">
<path d="M0.181467 7.86063C0.386687 7.59813 0.680884 7.47548 1.00776 7.43385C1.46478 7.37571 1.93287 7.46628 2.36533 7.61052C2.94295 7.80318 3.50909 8.05398 4.07463 8.27985C4.803 8.56781 5.53325 8.85107 6.26533 9.12963L23.9389 16.0196L27.1766 17.285C27.657 17.4746 28.154 17.6383 28.6218 17.8557C29.3842 18.1429 31.4938 18.856 32.0597 19.26C31.6073 19.345 27.7625 19.9202 27.5256 19.8733C27.1749 19.7952 26.7567 20.0325 26.4427 19.9355C26.4353 19.9181 26.415 19.8678 26.4033 19.855C26.3331 19.7783 26.1938 19.805 26.0961 19.8026C24.5154 19.7634 22.941 19.4993 21.3766 19.2886C18.6226 18.9176 15.8666 18.5013 13.106 18.1842C12.1573 18.6699 11.2003 19.0788 10.2264 19.5091C9.85729 19.6721 9.43902 19.9138 9.05567 20.0192C8.40485 19.6452 7.63097 19.3827 6.93805 19.0886L3.75182 17.7262C3.11243 17.4522 2.46102 17.1924 1.83541 16.8886C1.83117 16.8872 1.82676 16.8861 1.82258 16.8844C1.20409 16.6186 0.358657 15.7169 0.107153 15.1054C0.0449096 14.9543 0.034251 14.8 0.0258302 14.6385C-0.0281099 13.6074 0.0190594 12.549 0.019766 11.515C0.0204726 10.4661 -0.0267557 9.38946 0.0386084 8.34392C0.0483835 8.18781 0.0679928 8.05106 0.12788 7.90519L0.175402 7.90484L0.163508 7.86812L0.17976 7.88695L0.181467 7.86063Z" fill="#ED393A"/>
<path d="M1.83541 16.8886C1.98587 16.7541 2.03541 16.7129 2.24581 16.7243C2.96787 16.7635 3.70048 16.886 4.41819 16.9755C6.00459 17.1724 7.5887 17.3857 9.17051 17.6155L11.6928 17.9631C12.1556 18.0272 12.6563 18.0596 13.106 18.1842C12.1573 18.6699 11.2003 19.0788 10.2264 19.5091C9.85729 19.6721 9.43902 19.9138 9.05567 20.0192C8.40485 19.6452 7.63097 19.3827 6.93805 19.0886L3.75182 17.7262C3.11243 17.4522 2.46102 17.1924 1.83541 16.8886Z" fill="#981404"/>
<path d="M0.181467 7.86063C0.386687 7.59813 0.680884 7.47548 1.00776 7.43385C1.46478 7.37571 1.93287 7.46628 2.36533 7.61052C2.94295 7.80318 3.50909 8.05398 4.07463 8.27985C4.803 8.56781 5.53325 8.85107 6.26533 9.12963L23.9389 16.0196L27.1766 17.285C27.657 17.4746 28.154 17.6383 28.6218 17.8557C28.2323 17.8787 27.7114 17.5711 27.3382 17.444C27.2171 17.4804 27.0951 17.5176 26.9714 17.5447C26.1488 17.7251 25.1974 17.627 24.3534 17.6715C23.7387 17.7039 23.1455 17.8073 22.5353 17.8578C21.9068 17.9098 21.1512 17.8658 20.5296 17.7565C20.0016 17.6638 18.9867 17.2147 18.4975 16.9527C17.9629 16.6664 17.4861 16.2452 16.9513 15.9406C16.5201 15.6949 16.0548 15.5377 15.621 15.3031C15.4758 15.2247 15.3849 15.1003 15.2517 15.0096C15.1034 14.9088 14.9329 14.8365 14.778 14.7457C14.5645 14.6203 14.3652 14.4712 14.1524 14.3439C13.763 14.1108 13.331 13.941 12.9327 13.7197C12.4392 13.4453 11.9943 13.1198 11.523 12.8125L11.4648 12.871C11.2387 12.8232 10.9261 12.5545 10.7189 12.4317C10.3989 12.2422 10.0566 12.0915 9.73441 11.9053C9.15355 11.5698 8.59125 11.1904 8.01645 10.8448C7.85422 10.7473 7.66614 10.7174 7.4916 10.6489C7.23662 10.5491 6.97581 10.3947 6.74286 10.252C6.58728 10.1567 5.72447 9.48124 5.6736 9.47281C5.63332 9.46619 5.60163 9.5245 5.56106 9.52054C5.52072 9.51658 5.04198 9.14373 4.89146 9.09625L4.77075 9.16825C4.4209 8.88476 3.7526 8.64461 3.48384 8.33145C3.44121 8.28183 3.40676 8.16356 3.37955 8.10129C2.55485 7.79096 1.65812 7.28927 0.740553 7.56252C0.545167 7.62067 0.411555 7.80455 0.224767 7.8541C0.210752 7.8578 0.195836 7.85848 0.181467 7.86063Z" fill="#EA576F"/>
<path d="M13.106 18.1842C15.8666 18.5013 18.6226 18.9176 21.3766 19.2886C22.941 19.4993 24.5154 19.7634 26.0961 19.8026C26.1938 19.805 26.3331 19.7783 26.4033 19.855C26.415 19.8678 26.4353 19.9181 26.4427 19.9355C26.7567 20.0325 27.1749 19.7952 27.5256 19.8733C27.7625 19.9202 31.6073 19.345 32.0597 19.26C32.2779 19.4067 32.4311 19.5414 32.4868 19.8069C32.5411 20.0661 32.48 20.3305 32.3272 20.5464C32.1453 20.8035 31.8701 20.959 31.5849 21.0797C30.6221 21.4872 29.6229 21.8299 28.6447 22.2008L10.8155 29.1267L5.12539 31.33C4.29185 31.6555 2.55924 32.4347 1.73247 32.5508C1.29058 32.6128 0.74453 32.6086 0.380199 32.3227C0.192999 32.1759 0.0693365 31.9996 0.0441919 31.7618C-3.18326e-05 31.3437 0.0253475 30.9013 0.0254653 30.4806L0.0241703 26.2889C0.0245236 25.896 -0.0126344 25.451 0.059796 25.0654C0.116975 24.7612 0.341451 24.4544 0.540899 24.221C0.661558 24.0796 0.798233 23.905 0.946392 23.7931C1.17146 23.518 1.4835 23.3109 1.79453 23.1424C2.58408 22.7145 3.46685 22.4018 4.29427 22.0461C5.87602 21.3578 7.46296 20.6822 9.05567 20.0192C9.43902 19.9138 9.85729 19.6721 10.2264 19.5091C11.2003 19.0788 12.1573 18.6699 13.106 18.1842Z" fill="url(#paint0_linear_2161_311)"/>
<path d="M13.106 18.1842C15.8666 18.5013 18.6226 18.9176 21.3766 19.2886C22.941 19.4993 24.5154 19.7634 26.0961 19.8026C26.1938 19.805 26.3331 19.7783 26.4033 19.855C26.415 19.8678 26.4353 19.9181 26.4427 19.9355C26.7567 20.0325 27.1749 19.7952 27.5256 19.8733L4.32914 23.0573C3.56662 23.1631 2.73932 23.194 1.99282 23.3688C1.66123 23.4463 1.35319 23.6375 1.04763 23.7811C1.00052 23.8032 1.01217 23.7945 0.946392 23.7931C1.17146 23.518 1.4835 23.3109 1.79453 23.1424C2.58408 22.7145 3.46685 22.4018 4.29427 22.0461C5.87602 21.3578 7.46296 20.6822 9.05567 20.0192C9.43902 19.9138 9.85729 19.6721 10.2264 19.5091C11.2003 19.0788 12.1573 18.6699 13.106 18.1842Z" fill="url(#paint1_linear_2161_311)"/>
<path d="M39.277 12.8456C39.542 12.8283 40.0608 12.7316 40.2702 12.9061C40.461 13.0652 40.4234 13.3351 40.4232 13.5561C40.4519 13.5189 40.4816 13.4825 40.5122 13.4469C40.8323 13.0767 41.1791 12.8792 41.6681 12.8445C41.9821 12.8222 42.7673 12.6949 43.0016 12.9451C43.109 13.0596 43.1419 13.1992 43.1404 13.3526C43.1389 13.5027 43.1299 13.836 42.9729 13.9241C42.6011 14.1324 41.4622 13.6981 40.7958 14.3863C40.2807 14.9183 40.4153 15.9125 40.4201 16.59C40.4213 17.0898 40.5311 19.3686 40.3114 19.6912C40.2113 19.7681 40.1173 19.775 39.9954 19.788C39.7867 19.8104 39.4048 19.8364 39.2393 19.6999C39.0939 19.0281 39.1781 17.5185 39.1776 16.7316C39.1769 15.592 39.1209 14.431 39.1894 13.295C39.199 13.1356 39.2158 12.9953 39.277 12.8456Z" fill="#ED393A"/>
<path d="M64.9569 12.8411C65.1999 12.8239 65.5797 12.7699 65.8058 12.8461C65.9204 12.8847 65.9902 13.023 66.0479 13.1225C66.3235 13.5967 66.5307 14.131 66.7577 14.6299C67.2139 15.6479 67.6785 16.6621 68.1513 17.6726C68.7231 16.6003 69.1943 15.4379 69.6984 14.331C69.9243 13.8352 70.1279 13.2892 70.44 12.8416C70.7548 12.8256 71.2429 12.7425 71.5006 12.9481C71.6077 13.3187 69.9644 16.5998 69.6965 17.1753L68.2055 20.3787C67.9885 20.8522 67.6894 21.7583 67.3613 22.1339C67.2452 22.2668 67.1025 22.3368 66.9243 22.3424C66.7115 22.3491 66.3741 22.363 66.215 22.2077C66.1215 21.7931 67.2424 19.6384 67.4782 19.1122C67.1477 18.3516 64.7941 13.4218 64.8018 13.1107C64.8048 12.9831 64.8784 12.9311 64.9569 12.8411Z" fill="#ED393A"/>
<path d="M81.4052 10.2805C81.8004 10.2777 83.1657 10.1792 83.4696 10.3516C83.5169 10.5095 83.539 10.667 83.5458 10.8312C83.5722 11.4716 83.5477 12.1209 83.5469 12.7623L83.5494 18.366C83.55 18.7793 83.5795 19.217 83.5261 19.6261C83.4331 19.7315 83.3733 19.7392 83.242 19.7842C82.8337 19.8167 81.6103 19.874 81.2726 19.738C81.2159 19.7151 81.2183 19.7277 81.2012 19.6847C81.039 19.2788 81.0927 11.5782 81.1139 10.684C81.116 10.5962 81.1166 10.4999 81.1631 10.4217C81.228 10.3125 81.2938 10.3118 81.4052 10.2805Z" fill="#ED393A"/>
<path fill-rule="evenodd" clip-rule="evenodd" d="M48.2795 13.1115C47.587 12.6943 46.7735 12.6503 45.985 12.7271C45.1819 12.8805 44.5316 13.2706 44.0709 13.9487C43.4215 14.9043 43.3227 16.2112 43.5441 17.317C43.7152 18.1719 44.1492 18.9518 44.8941 19.4401C45.6752 19.9521 46.6812 20.0145 47.5815 19.8308C48.302 19.6836 49.0173 19.2262 49.4088 18.6049C49.5062 18.4505 49.5704 18.3255 49.5255 18.1401C49.4318 18.0037 49.3242 17.964 49.1648 17.9341C48.8669 17.8782 48.5971 17.88 48.3406 18.052C47.7625 18.5608 47.2432 18.7924 46.4591 18.7517C45.9493 18.7252 45.4719 18.5305 45.135 18.1423C44.7987 17.7547 44.6919 17.2736 44.684 16.7758C44.7883 16.7766 44.9729 16.78 45.2113 16.7843C46.5003 16.8078 49.3614 16.8599 49.5973 16.6818C49.8502 16.269 49.6953 15.4358 49.5856 14.9829C49.4 14.2163 48.9676 13.526 48.2795 13.1115ZM47.8045 14.2094C47.3788 13.8884 46.8904 13.8393 46.3772 13.8583C45.8335 13.9377 45.374 14.1255 45.0421 14.5836C44.8047 14.9113 44.7123 15.277 44.6685 15.6716C45.4036 15.6829 46.1386 15.686 46.8738 15.6809L48.5061 15.6823C48.4353 15.098 48.3048 14.5866 47.8045 14.2094Z" fill="#ED393A"/>
<path fill-rule="evenodd" clip-rule="evenodd" d="M54.9312 12.9285C54.3368 12.6819 53.6963 12.6802 53.0642 12.7266C52.3323 12.8525 51.6364 13.2027 51.1975 13.8126C51.0842 13.9699 50.9233 14.215 50.9669 14.4198C50.9893 14.525 51.0623 14.6033 51.1564 14.651C51.3641 14.7564 51.6197 14.7424 51.8555 14.7294C51.8984 14.7271 51.9406 14.7248 51.9819 14.7232L52.0143 14.6967C52.1512 14.5834 52.2656 14.476 52.3701 14.378C52.7685 14.0042 53.0225 13.7659 53.8234 13.8456C54.2327 13.8863 54.6246 14.0556 54.8803 14.3844C55.1141 14.6851 55.1572 14.9997 55.1859 15.3645C54.9431 15.4083 54.6751 15.4464 54.3937 15.4863C53.1054 15.6692 51.5373 15.892 50.8316 16.8861C50.5172 17.3287 50.4315 17.8725 50.5359 18.3984C50.5695 18.568 50.6293 18.7187 50.6995 18.8762C51.0488 19.4004 51.5216 19.7188 52.1424 19.8497C52.9886 20.028 53.97 19.8679 54.691 19.3867C54.8685 19.2683 55.0339 19.1218 55.1808 18.9685C55.1793 19.0068 55.1771 19.0453 55.1749 19.0837C55.1621 19.3036 55.1494 19.5236 55.2815 19.7126C55.4724 19.8334 55.9088 19.8054 56.1206 19.7584C56.2034 19.7401 56.2579 19.7112 56.3244 19.6577C56.3764 19.5376 56.3929 19.4297 56.4028 19.2997C56.4345 18.8863 56.4229 18.4596 56.4114 18.036C56.4057 17.8229 56.3999 17.6105 56.3997 17.4011C56.3994 17.1626 56.4043 16.9214 56.4091 16.6792C56.4203 16.1251 56.4315 15.5661 56.3821 15.0232C56.3564 14.7412 56.2962 14.459 56.1903 14.1957C56.1763 14.1602 56.1614 14.1251 56.1456 14.0904C56.1298 14.0557 56.1131 14.0214 56.0956 13.9875C56.078 13.9536 56.0596 13.9202 56.0403 13.8872C56.021 13.8542 56.001 13.8218 55.98 13.7898C55.9591 13.7579 55.9374 13.7265 55.9149 13.6956C55.8923 13.6647 55.869 13.6345 55.845 13.6047C55.8209 13.575 55.7961 13.5459 55.7706 13.5175C55.745 13.489 55.7188 13.4613 55.6918 13.4341C55.6648 13.407 55.6372 13.3805 55.6088 13.3548C55.5806 13.329 55.5516 13.304 55.522 13.2796C55.4924 13.2554 55.4623 13.2319 55.4314 13.2091C55.4006 13.1863 55.3693 13.1643 55.3373 13.143C55.3054 13.1218 55.273 13.1015 55.2401 13.0819C55.2071 13.0623 55.1736 13.0435 55.1397 13.0256C55.1058 13.0077 55.0715 12.9906 55.0367 12.9745C55.0019 12.9583 54.9667 12.9429 54.9312 12.9285ZM55.1564 16.4971L55.1319 16.4733C54.2427 16.5517 52.4625 16.7224 51.8777 17.4458C51.7657 17.5842 51.7041 17.744 51.7277 17.9229C51.7594 18.1621 51.905 18.3405 52.0697 18.5072C52.536 18.7928 53.0745 18.8114 53.5971 18.6866C54.1194 18.5619 54.5913 18.25 54.8772 17.7944C55.0874 17.4594 55.2382 16.895 55.1564 16.4971Z" fill="#ED393A"/>
<path d="M96.0122 16.6129C96.3596 15.8712 97.3166 13.3249 97.72 12.8786C97.9659 12.7598 99.0513 12.8194 99.3831 12.8165C99.586 12.8146 99.8313 12.8158 99.9859 12.963C100.029 13.1129 99.9653 13.2916 99.9186 13.4355C99.7507 13.9514 99.493 14.4568 99.2779 14.9566L98.0527 17.8048L96.8447 20.6278C96.6094 21.1767 96.3963 21.799 96.0725 22.3015C95.5377 22.3604 94.5754 22.381 94.0429 22.3211C93.9238 22.3078 93.8695 22.3003 93.794 22.2074C93.7134 21.7058 94.5407 20.0867 94.7671 19.5353C94.5464 18.9263 94.2652 18.3378 94.0055 17.7443L92.7497 14.8518C92.5266 14.3362 92.2086 13.7896 92.0724 13.245C92.0304 13.0772 92.0618 12.9875 92.149 12.8419C92.8707 12.7963 93.6101 12.8264 94.3337 12.8325C94.6965 13.37 94.9217 14.0158 95.1752 14.6104C95.4587 15.2751 95.7549 15.938 96.0122 16.6129Z" fill="#ED393A"/>
<path fill-rule="evenodd" clip-rule="evenodd" d="M89.511 12.8383C89.0324 12.7102 88.5365 12.6849 88.0429 12.6961C87.0927 12.7482 86.0716 13.029 85.4102 13.7518C85.2152 13.9648 84.9615 14.3074 84.977 14.6041C84.9827 14.7124 85.0053 14.7596 85.0762 14.8401C85.3934 14.9356 86.7674 14.9295 87.123 14.8622C87.2951 14.8297 87.4742 14.7565 87.6531 14.6832C88.1439 14.4824 88.6338 14.282 88.9745 14.9228C89.0059 14.9818 89.0175 15.0345 89.0287 15.0996C89.0231 15.1142 89.0193 15.1265 89.0159 15.1371C89.0043 15.1744 88.9991 15.1911 88.946 15.2154C88.7288 15.3146 88.4388 15.3511 88.1753 15.3841C88.089 15.395 88.0055 15.4054 87.9284 15.4176C87.9073 15.421 87.886 15.4244 87.8645 15.4277C86.7064 15.6106 85.1322 15.8592 84.6483 17.0852C84.6358 17.1166 84.6241 17.1483 84.6132 17.1803C84.6022 17.2123 84.592 17.2446 84.5827 17.2771C84.5733 17.3095 84.5648 17.3422 84.5571 17.3752C84.5494 17.408 84.5425 17.4411 84.5363 17.4743C84.5302 17.5075 84.525 17.5409 84.5205 17.5744C84.516 17.6079 84.5124 17.6415 84.5096 17.6752C84.5068 17.7089 84.5049 17.7426 84.5038 17.7764C84.5027 17.8101 84.5024 17.8438 84.5029 17.8776C84.5034 17.9114 84.5048 17.9451 84.507 17.9788C84.5093 18.0126 84.5123 18.0462 84.5162 18.0798C84.52 18.1134 84.5247 18.1468 84.5302 18.1801C84.5357 18.2134 84.542 18.2466 84.5493 18.2797C84.5564 18.3127 84.5644 18.3455 84.5731 18.3782C84.5819 18.4108 84.5915 18.4432 84.6019 18.4755C84.6122 18.5076 84.6234 18.5395 84.6353 18.5711C84.6473 18.6028 84.6601 18.6341 84.6736 18.6651C84.75 18.8386 84.8561 18.9982 84.9744 19.1461C85.5482 19.7129 86.1821 19.9223 86.9832 19.9219C87.6743 19.9215 88.33 19.7432 88.8294 19.247C88.8713 19.205 88.9122 19.1621 88.952 19.1182C88.9565 19.1452 88.9608 19.1735 88.9651 19.2027C88.991 19.3776 89.0213 19.5824 89.1541 19.697C89.3379 19.8559 90.8085 19.8254 91.0849 19.7773C91.2177 19.7542 91.3197 19.726 91.407 19.6188C91.5271 19.2084 91.5085 15.5346 91.4275 14.944C91.3822 14.6136 91.2864 14.2877 91.1219 13.9958C90.7771 13.3839 90.1797 13.0171 89.511 12.8383ZM88.9455 16.8612C88.9201 16.8584 88.8902 16.8551 88.8709 16.8589C88.8208 16.8648 88.7647 16.8708 88.7039 16.8773C88.1642 16.9346 87.2565 17.0313 86.9818 17.4378C86.9302 17.5143 86.8972 17.6035 86.9222 17.6961C86.9607 17.8396 87.0741 17.98 87.1955 18.0628C87.6785 18.1091 88.1581 18.1057 88.5464 17.7715C88.8018 17.5517 88.9845 17.2777 89.0045 16.9371L88.9703 16.8636C88.9631 16.863 88.9546 16.8621 88.9455 16.8612Z" fill="#ED393A"/>
<path fill-rule="evenodd" clip-rule="evenodd" d="M63.184 10.2775C63.1422 10.2795 63.1013 10.2814 63.0622 10.2824C63.0453 10.2842 63.0286 10.2856 63.0122 10.287C62.91 10.2958 62.8167 10.3037 62.7331 10.3754C62.5948 10.6947 62.6237 11.9513 62.6439 12.8265C62.6507 13.1242 62.6566 13.3777 62.6544 13.5352C61.8853 12.8724 61.2681 12.6297 60.2342 12.7059C59.4696 12.7624 58.774 13.106 58.2808 13.6906C57.5276 14.583 57.4016 15.8611 57.5155 16.9774C57.6049 17.8549 57.9743 18.734 58.679 19.2985C58.7136 19.3264 58.7486 19.3539 58.784 19.381C59.5423 19.8555 60.4124 20.0489 61.3 19.8506C61.8299 19.7322 62.2699 19.4389 62.6598 19.0724C62.6593 19.1011 62.658 19.1312 62.6567 19.1623C62.6487 19.351 62.6394 19.5741 62.7856 19.7021C62.9473 19.8438 63.4128 19.8074 63.6156 19.7766C63.7058 19.763 63.7616 19.7319 63.8267 19.6708C63.9473 19.2915 63.9152 17.4078 63.8964 16.3027C63.8914 16.0111 63.8874 15.7738 63.8873 15.6326C63.887 15.0732 63.8927 14.5125 63.8984 13.9514C63.9089 12.9119 63.9195 11.8712 63.8921 10.8353L63.892 10.8314C63.8885 10.6973 63.8844 10.5424 63.8315 10.4182C63.8034 10.3521 63.7231 10.317 63.6563 10.2994C63.5129 10.2619 63.3418 10.27 63.184 10.2775ZM61.7851 14.1385C61.3927 13.8809 60.9469 13.8297 60.4884 13.8564C59.967 13.9274 59.5645 14.0876 59.2284 14.5119C58.7136 15.1617 58.6507 16.1469 58.762 16.9352C58.8417 17.4995 59.0801 18.0512 59.5479 18.4054C59.9544 18.7132 60.4516 18.7819 60.9485 18.7358C61.4988 18.6536 61.9478 18.4483 62.2818 17.9868C62.7571 17.33 62.7581 16.2417 62.6194 15.4769C62.5222 14.9413 62.2505 14.4442 61.7851 14.1385Z" fill="#ED393A"/>
<path fill-rule="evenodd" clip-rule="evenodd" d="M78.9336 13.3473C78.2776 12.7905 77.4377 12.6553 76.5977 12.6957C75.9464 12.7664 75.5401 12.9544 75.0806 13.4258C75.0761 13.3968 75.072 13.3675 75.0678 13.3382C75.0468 13.1885 75.0256 13.0377 74.944 12.9083C74.7339 12.7911 73.1348 12.7683 72.8869 12.8527C72.7919 12.885 72.7357 12.952 72.7061 13.0455C72.6215 13.3135 72.6495 15.8303 72.6644 17.1592C72.6681 17.4952 72.671 17.7553 72.671 17.8839L72.6719 20.6C72.672 20.7429 72.6695 20.887 72.6672 21.0313C72.6625 21.3147 72.6578 21.5992 72.6713 21.8791C72.6758 21.9725 72.6856 22.0767 72.7334 22.1599C72.7949 22.267 72.9164 22.2996 73.0309 22.3154C73.2708 22.3484 74.4658 22.3633 74.6893 22.3441C74.7857 22.3359 74.8922 22.3032 74.9646 22.2374C75.1537 22.0652 75.1394 21.6747 75.129 21.3875C75.1269 21.3322 75.1251 21.2807 75.1248 21.2354L75.1223 19.1801C75.7676 19.7494 76.3724 19.9602 77.2334 19.9057C77.987 19.858 78.6874 19.5679 79.1909 18.9994C80.01 18.0743 80.0302 16.7215 79.9485 15.5562C79.8899 14.7202 79.5885 13.9032 78.9336 13.3473ZM76.0315 14.7904L76.0254 14.7908C75.6654 14.908 75.4307 15.0725 75.2581 15.4164C75.0406 15.8496 75.0184 16.5746 75.1786 17.0314C75.2793 17.3188 75.471 17.569 75.75 17.7054C76.0202 17.8375 76.2814 17.8256 76.5683 17.8125C76.589 17.8115 76.6099 17.8106 76.6309 17.8096C76.9517 17.7334 77.1566 17.5854 77.3268 17.301C77.6028 16.8399 77.6166 16.1238 77.4654 15.6145C77.3767 15.3159 77.1923 15.0442 76.9103 14.8962C76.63 14.749 76.3375 14.7692 76.0315 14.7904Z" fill="#ED393A"/>
<path d="M73.5031 25.0474C73.6254 25.0449 73.7817 25.0213 73.886 25.0902C73.9562 25.4846 73.9101 25.9541 73.9105 26.3568L73.9099 28.9921C73.9088 29.2089 73.9581 29.5429 73.7997 29.6985C73.7115 29.6831 73.6284 29.6596 73.5425 29.6352C73.4098 29.4054 73.4721 25.5796 73.5031 25.0474Z" fill="#ED393A"/>
<path d="M50.8496 24.986C51.2623 24.964 51.6724 25.0028 52.0465 25.1913C52.3864 25.3626 52.7168 25.6854 52.8096 26.0634C52.8329 26.1579 52.8332 26.207 52.7811 26.288C52.6892 26.3333 52.6494 26.3425 52.5475 26.3289C52.373 26.1895 52.3 25.965 52.1647 25.7914C51.9675 25.5381 51.5863 25.4125 51.2776 25.3822C50.8806 25.3432 50.4449 25.4213 50.1409 25.6933C49.8576 25.9468 49.7549 26.3244 49.7311 26.6903C49.6883 27.3508 49.5934 28.4536 50.0822 28.9684C50.3248 29.2239 50.6687 29.3362 51.0159 29.348C51.4047 29.3612 51.7956 29.2637 52.0823 28.9912C52.4865 28.6071 52.4784 28.1287 52.4762 27.6162C52.1581 27.6173 51.4566 27.7098 51.1917 27.5474C51.172 27.4415 51.1646 27.3849 51.1942 27.278C51.3859 27.1343 52.5992 27.2238 52.9013 27.232C52.9178 27.828 52.9592 28.47 52.624 28.997C52.3655 29.4037 51.9752 29.6013 51.512 29.6936C51.015 29.7927 50.4521 29.7334 50.0288 29.4433C49.6364 29.1747 49.425 28.7508 49.3458 28.2942C49.2133 27.5295 49.2024 26.2357 49.6808 25.5979C49.9735 25.2079 50.3816 25.0539 50.8496 24.986Z" fill="#ED393A"/>
<path d="M87.8194 24.987C88.2581 24.9616 88.702 25.0035 89.0889 25.2291C89.4255 25.4254 89.6871 25.7091 89.772 26.0928C89.7948 26.1957 89.7961 26.2771 89.7363 26.3662L89.6664 26.3792C89.3484 26.2813 89.3083 26.0337 89.1369 25.7841C88.9841 25.5621 88.5759 25.4268 88.3201 25.3834C87.9478 25.3204 87.5417 25.3793 87.2333 25.6058C86.8905 25.8577 86.7475 26.2469 86.6982 26.6534C86.6259 27.2487 86.6151 28.4598 87.0135 28.9267C87.2557 29.2105 87.62 29.337 87.9867 29.3515C88.377 29.367 88.7656 29.2674 89.0505 28.9912C89.445 28.6089 89.445 28.1341 89.4433 27.6278C89.0701 27.5828 88.4907 27.7411 88.1676 27.5414C88.1448 27.4966 88.1324 27.464 88.1332 27.413C88.1348 27.3138 88.123 27.3131 88.1995 27.2429C88.7486 27.1807 89.3131 27.2128 89.8643 27.2345C89.8886 27.8253 89.926 28.4823 89.5912 29.0014C89.3408 29.3896 88.9271 29.6131 88.4791 29.702C87.9745 29.8022 87.4105 29.7358 86.9854 29.4334C86.5842 29.148 86.3714 28.7091 86.3008 28.2335C86.1853 27.4566 86.1581 26.2391 86.6679 25.5872C86.9665 25.2055 87.3535 25.0546 87.8194 24.987Z" fill="#ED393A"/>
<path d="M81.4084 28.8011C81.4368 28.2296 81.3534 25.4499 81.4498 25.2022C81.4927 25.0922 81.5518 25.055 81.6563 25.0086C81.7065 25.0228 81.7523 25.0222 81.7842 25.0675C81.8995 25.2306 81.8817 29.3857 81.8055 29.6847C81.7114 29.683 81.6211 29.6758 81.5276 29.6656C81.1626 29.3742 80.8766 28.8005 80.6214 28.4095C80.0748 27.5715 79.5506 26.6791 78.9289 25.8943C78.9396 26.6135 78.9447 27.3327 78.9441 28.052C78.9481 28.5107 78.9952 29.0169 78.9287 29.4689C78.9155 29.5591 78.8915 29.6163 78.8302 29.6837C78.736 29.7104 78.7373 29.7035 78.6475 29.6616C78.5825 29.586 78.5387 29.5213 78.5215 29.4213C78.4551 29.0335 78.5203 28.4256 78.522 28.0069C78.5258 27.0165 78.4851 26.0143 78.5442 25.026C78.5907 25.0286 78.6373 25.0314 78.6835 25.0366C78.7537 25.0446 78.8289 25.0516 78.8862 25.0976C79.17 25.3253 79.3945 25.7893 79.5954 26.0951C80.1807 26.9863 80.7416 27.9708 81.4084 28.8011Z" fill="#ED393A"/>
<path d="M64.9859 24.9969C65.0448 25.0045 65.1033 25.0126 65.1607 25.028C65.245 25.0505 65.3038 25.0833 65.3579 25.1544C65.6159 25.4932 65.7891 25.9224 65.9801 26.301C66.2745 26.886 66.582 27.4642 66.9025 28.0356C67.1634 27.5705 68.2632 25.2491 68.5333 25.0807C68.6312 25.0197 68.689 25.0206 68.7999 25.0389C68.8122 25.058 68.8288 25.075 68.837 25.0962C68.904 25.2714 68.905 28.9297 68.8832 29.3541C68.8783 29.4502 68.8711 29.5556 68.8267 29.6426C68.7992 29.6964 68.7586 29.6884 68.7045 29.7017C68.6434 29.689 68.6052 29.6753 68.5558 29.6336C68.4935 29.5805 68.4643 29.5339 68.4514 29.4527C68.4127 29.2098 68.4477 28.9041 68.4483 28.6564L68.4537 26.7149L68.4467 25.9875C68.1438 26.4968 67.8854 27.0354 67.6182 27.5635C67.4879 27.8211 67.3682 28.103 67.1989 28.3378C67.1135 28.4562 67.0268 28.5518 66.8751 28.5744C66.7549 28.542 66.7008 28.4955 66.6263 28.4004C66.4399 28.1618 66.3143 27.8542 66.1795 27.5846C65.906 27.0372 65.6459 26.4795 65.3172 25.9619C65.3352 26.4313 65.4029 29.3386 65.3134 29.58C65.2316 29.6572 65.2159 29.6568 65.1032 29.6764C64.9969 29.6411 64.9687 29.6405 64.9172 29.5337C64.8866 29.4706 64.8899 25.756 64.9066 25.4124C64.9138 25.2631 64.9294 25.1371 64.9859 24.9969Z" fill="#ED393A"/>
<path fill-rule="evenodd" clip-rule="evenodd" d="M58.678 25.012C58.669 25.0116 58.66 25.0114 58.6512 25.011C58.5432 25.0816 58.4899 25.1373 58.4303 25.2516C58.221 25.6538 56.8275 29.144 56.7671 29.4779C56.7551 29.5438 56.7641 29.5984 56.7778 29.663C56.7906 29.6735 56.7992 29.6818 56.8059 29.6883C56.8251 29.7069 56.8278 29.7095 56.8685 29.7022C57.0137 29.676 57.1368 29.5403 57.2138 29.4229C57.3172 29.2653 57.3874 29.036 57.4534 28.8205C57.4865 28.7126 57.5184 28.6083 57.5529 28.5181L59.9325 28.5124C59.9608 28.5851 59.9904 28.6713 60.0222 28.7639C60.1342 29.0898 60.2735 29.4955 60.477 29.6762C60.487 29.6761 60.4962 29.6761 60.505 29.676C60.5987 29.6756 60.6272 29.6755 60.7158 29.6192C60.7499 29.5299 60.7457 29.4689 60.7197 29.3793C60.6811 29.2466 60.6236 29.1164 60.5666 28.9871C60.536 28.9178 60.5056 28.8488 60.4782 28.7797L59.9299 27.3952C59.8296 27.1443 59.7347 26.8875 59.6396 26.6299C59.4791 26.1951 59.3179 25.7584 59.1285 25.3455L59.1253 25.3384C59.0696 25.2169 59.009 25.0846 58.872 25.0376C58.8119 25.0171 58.7425 25.0144 58.678 25.012ZM59.6006 27.6231C59.3325 26.9085 58.8798 25.7018 58.7516 25.5802C58.5271 26.0333 58.3466 26.507 58.1661 26.9807C58.024 27.3536 57.8819 27.7265 57.7183 28.0894C58.062 28.1095 58.4022 28.116 58.7465 28.1123L59.7798 28.0944C59.7467 28.0126 59.6822 27.8406 59.6006 27.6231Z" fill="#ED393A"/>
<path d="M73.5031 25.0474C73.6254 25.0449 73.7817 25.0213 73.886 25.0902C73.9562 25.4846 73.9101 25.9541 73.9105 26.3568L73.9099 28.9921C73.9088 29.2089 73.9581 29.5429 73.7997 29.6985C73.7115 29.6831 73.6284 29.6596 73.5425 29.6352C73.4098 29.4054 73.4721 25.5796 73.5031 25.0474Z" stroke="#ED393A" stroke-width="0.5"/>
<path d="M50.8496 24.986C51.2623 24.964 51.6724 25.0028 52.0465 25.1913C52.3864 25.3626 52.7168 25.6854 52.8096 26.0634C52.8329 26.1579 52.8332 26.207 52.7811 26.288C52.6892 26.3333 52.6494 26.3425 52.5475 26.3289C52.373 26.1895 52.3 25.965 52.1647 25.7914C51.9675 25.5381 51.5863 25.4125 51.2776 25.3822C50.8806 25.3432 50.4449 25.4213 50.1409 25.6933C49.8576 25.9468 49.7549 26.3244 49.7311 26.6903C49.6883 27.3508 49.5934 28.4536 50.0822 28.9684C50.3248 29.2239 50.6687 29.3362 51.0159 29.348C51.4047 29.3612 51.7956 29.2637 52.0823 28.9912C52.4865 28.6071 52.4784 28.1287 52.4762 27.6162C52.1581 27.6173 51.4566 27.7098 51.1917 27.5474C51.172 27.4415 51.1646 27.3849 51.1942 27.278C51.3859 27.1343 52.5992 27.2238 52.9013 27.232C52.9178 27.828 52.9592 28.47 52.624 28.997C52.3655 29.4037 51.9752 29.6013 51.512 29.6936C51.015 29.7927 50.4521 29.7334 50.0288 29.4433C49.6364 29.1747 49.425 28.7508 49.3458 28.2942C49.2133 27.5295 49.2024 26.2357 49.6808 25.5979C49.9735 25.2079 50.3816 25.0539 50.8496 24.986Z" stroke="#ED393A" stroke-width="0.5"/>
<path d="M87.8194 24.987C88.2581 24.9616 88.702 25.0035 89.0889 25.2291C89.4255 25.4254 89.6871 25.7091 89.772 26.0928C89.7948 26.1957 89.7961 26.2771 89.7363 26.3662L89.6664 26.3792C89.3484 26.2813 89.3083 26.0337 89.1369 25.7841C88.9841 25.5621 88.5759 25.4268 88.3201 25.3834C87.9478 25.3204 87.5417 25.3793 87.2333 25.6058C86.8905 25.8577 86.7475 26.2469 86.6982 26.6534C86.6259 27.2487 86.6151 28.4598 87.0135 28.9267C87.2557 29.2105 87.62 29.337 87.9867 29.3515C88.377 29.367 88.7656 29.2674 89.0505 28.9912C89.445 28.6089 89.445 28.1341 89.4433 27.6278C89.0701 27.5828 88.4907 27.7411 88.1676 27.5414C88.1448 27.4966 88.1324 27.464 88.1332 27.413C88.1348 27.3138 88.123 27.3131 88.1995 27.2429C88.7486 27.1807 89.3131 27.2128 89.8643 27.2345C89.8886 27.8253 89.926 28.4823 89.5912 29.0014C89.3408 29.3896 88.9271 29.6131 88.4791 29.702C87.9745 29.8022 87.4105 29.7358 86.9854 29.4334C86.5842 29.148 86.3714 28.7091 86.3008 28.2335C86.1853 27.4566 86.1581 26.2391 86.6679 25.5872C86.9665 25.2055 87.3535 25.0546 87.8194 24.987Z" stroke="#ED393A" stroke-width="0.5"/>
<path d="M81.4084 28.8011C81.4368 28.2296 81.3534 25.4499 81.4498 25.2022C81.4927 25.0922 81.5518 25.055 81.6563 25.0086C81.7065 25.0228 81.7523 25.0222 81.7842 25.0675C81.8995 25.2306 81.8817 29.3857 81.8055 29.6847C81.7114 29.683 81.6211 29.6758 81.5276 29.6656C81.1626 29.3742 80.8766 28.8005 80.6214 28.4095C80.0748 27.5715 79.5506 26.6791 78.9289 25.8943C78.9396 26.6135 78.9447 27.3327 78.9441 28.052C78.9481 28.5107 78.9952 29.0169 78.9287 29.4689C78.9155 29.5591 78.8915 29.6163 78.8302 29.6837C78.736 29.7104 78.7373 29.7035 78.6475 29.6616C78.5825 29.586 78.5387 29.5213 78.5215 29.4213C78.4551 29.0335 78.5203 28.4256 78.522 28.0069C78.5258 27.0165 78.4851 26.0143 78.5442 25.026C78.5907 25.0286 78.6373 25.0314 78.6835 25.0366C78.7537 25.0446 78.8289 25.0516 78.8862 25.0976C79.17 25.3253 79.3945 25.7893 79.5954 26.0951C80.1807 26.9863 80.7416 27.9708 81.4084 28.8011Z" stroke="#ED393A" stroke-width="0.5"/>
<path d="M64.9859 24.9969C65.0448 25.0045 65.1033 25.0126 65.1607 25.028C65.245 25.0505 65.3038 25.0833 65.3579 25.1544C65.6159 25.4932 65.7891 25.9224 65.9801 26.301C66.2745 26.886 66.582 27.4642 66.9025 28.0356C67.1634 27.5705 68.2632 25.2491 68.5333 25.0807C68.6312 25.0197 68.689 25.0206 68.7999 25.0389C68.8122 25.058 68.8288 25.075 68.837 25.0962C68.904 25.2714 68.905 28.9297 68.8832 29.3541C68.8783 29.4502 68.8711 29.5556 68.8267 29.6426C68.7992 29.6964 68.7586 29.6884 68.7045 29.7017C68.6434 29.689 68.6052 29.6753 68.5558 29.6336C68.4935 29.5805 68.4643 29.5339 68.4514 29.4527C68.4127 29.2098 68.4477 28.9041 68.4483 28.6564L68.4537 26.7149L68.4467 25.9875C68.1438 26.4968 67.8854 27.0354 67.6182 27.5635C67.4879 27.8211 67.3682 28.103 67.1989 28.3378C67.1135 28.4562 67.0268 28.5518 66.8751 28.5744C66.7549 28.542 66.7008 28.4955 66.6263 28.4004C66.4399 28.1618 66.3143 27.8542 66.1795 27.5846C65.906 27.0372 65.6459 26.4795 65.3172 25.9619C65.3352 26.4313 65.4029 29.3386 65.3134 29.58C65.2316 29.6572 65.2159 29.6568 65.1032 29.6764C64.9969 29.6411 64.9687 29.6405 64.9172 29.5337C64.8866 29.4706 64.8899 25.756 64.9066 25.4124C64.9138 25.2631 64.9294 25.1371 64.9859 24.9969Z" stroke="#ED393A" stroke-width="0.5"/>
<path fill-rule="evenodd" clip-rule="evenodd" d="M58.678 25.012C58.669 25.0116 58.66 25.0114 58.6512 25.011C58.5432 25.0816 58.4899 25.1373 58.4303 25.2516C58.221 25.6538 56.8275 29.144 56.7671 29.4779C56.7551 29.5438 56.7641 29.5984 56.7778 29.663C56.7906 29.6735 56.7992 29.6818 56.8059 29.6883C56.8251 29.7069 56.8278 29.7095 56.8685 29.7022C57.0137 29.676 57.1368 29.5403 57.2138 29.4229C57.3172 29.2653 57.3874 29.036 57.4534 28.8205C57.4865 28.7126 57.5184 28.6083 57.5529 28.5181L59.9325 28.5124C59.9608 28.5851 59.9904 28.6713 60.0222 28.7639C60.1342 29.0898 60.2735 29.4955 60.477 29.6762C60.487 29.6761 60.4962 29.6761 60.505 29.676C60.5987 29.6756 60.6272 29.6755 60.7158 29.6192C60.7499 29.5299 60.7457 29.4689 60.7197 29.3793C60.6811 29.2466 60.6236 29.1164 60.5666 28.9871C60.536 28.9178 60.5056 28.8488 60.4782 28.7797L59.9299 27.3952C59.8296 27.1443 59.7347 26.8875 59.6396 26.6299C59.4791 26.1951 59.3179 25.7584 59.1285 25.3455L59.1253 25.3384C59.0696 25.2169 59.009 25.0846 58.872 25.0376C58.8119 25.0171 58.7425 25.0144 58.678 25.012ZM59.6006 27.6231C59.3325 26.9085 58.8798 25.7018 58.7516 25.5802C58.5271 26.0333 58.3466 26.507 58.1661 26.9807C58.024 27.3536 57.8819 27.7265 57.7183 28.0894C58.062 28.1095 58.4022 28.116 58.7465 28.1123L59.7798 28.0944C59.7467 28.0126 59.6822 27.8406 59.6006 27.6231Z" stroke="#ED393A" stroke-width="0.5"/>
<defs>
<linearGradient id="paint0_linear_2161_311" x1="1.06048" y1="33.7296" x2="36.181" y2="19.2574" gradientUnits="userSpaceOnUse">
<stop stop-color="#F75634"/>
<stop offset="1" stop-color="#F07198"/>
</linearGradient>
<linearGradient id="paint1_linear_2161_311" x1="14.2058" y1="18.1123" x2="13.0775" y2="25.2752" gradientUnits="userSpaceOnUse">
<stop stop-color="#510600"/>
<stop offset="1" stop-color="#951802"/>
</linearGradient>
</defs>
</svg>
