<svg width="100" height="40" viewBox="0 0 100 40" fill="none" xmlns="http://www.w3.org/2000/svg">
<g clip-path="url(#clip0_2885_176)">
<path d="M16.7335 22.475C16.7335 26.0465 13.5589 27.0502 8.23678 27.0502C2.12099 27.0502 -0.0732422 25.3228 -0.0732422 22.3816H5.48233C5.48233 23.432 6.36937 23.7822 8.56359 23.7822C10.3143 23.7822 11.0846 23.5254 11.0846 22.8718C11.0846 22.1482 10.5243 22.1482 6.25263 21.6113C2.00425 21.0745 0.300241 20.1641 0.300241 17.363C0.300241 14.3751 2.82128 12.9512 8.05004 12.9512C13.8157 12.9512 15.8465 14.8186 15.8465 17.363H10.4777C10.4777 16.5927 9.80071 16.1958 8.02671 16.1958C6.25263 16.1958 5.57566 16.5693 5.57566 17.1296C5.57566 17.8765 6.55611 17.9232 9.00708 18.1799C13.5823 18.6468 16.7335 18.8802 16.7335 22.475Z" fill="white"/>
<path d="M27.331 22.7544C31.0658 22.7544 33.5634 21.5406 33.5634 17.9225C33.5634 14.8646 31.7194 13.2539 27.6811 13.2539H17.6904V26.7927H23.0125V22.7544C23.0125 22.7544 27.3076 22.7544 27.331 22.7544ZM23.0125 16.732H26.5606C27.7278 16.732 28.288 17.1055 28.288 17.9458C28.288 18.8795 27.7278 19.2763 26.5606 19.2763H23.0125V16.732Z" fill="white"/>
<path d="M40.0531 13.2305H34.731V26.7692H40.0531V13.2305Z" fill="white"/>
<path d="M52.5882 13.2305V20.6068L47.1727 13.2305H41.5938V26.7692H46.9158V19.4163L52.308 26.7692H57.9102V13.2305H52.5882Z" fill="white"/>
<path d="M73.2465 18.9961C68.6714 18.9961 64.0723 20.7468 64.0723 26.0456C64.0723 26.3023 64.0962 26.5591 64.0962 26.7926H69.4884C69.4412 26.5591 69.4412 26.3023 69.4412 26.0456C69.4412 23.8747 70.7488 22.4741 73.2232 22.4741C75.6969 22.4741 77.0046 23.8747 77.0046 26.0456C77.0046 26.3023 76.9813 26.5591 76.9581 26.7926H82.3735C82.3967 26.5591 82.3967 26.3023 82.3967 26.0456C82.4433 20.7468 77.8449 18.9961 73.2465 18.9961Z" fill="#027FFF"/>
<path d="M73.2464 17.5022C76.9108 17.5022 80.5758 16.3817 81.906 13.2305H75.8836C75.2534 13.744 74.3666 14.0475 73.2464 14.0475C72.1256 14.0475 71.2387 13.744 70.6085 13.2305H64.6094C65.9396 16.3817 69.6047 17.5022 73.2464 17.5022Z" fill="#027FFF"/>
<path d="M94.6052 13.2305V20.6068L89.1898 13.2305H83.6108V26.7692H88.9092V19.4163L94.3014 26.7692H99.9269V13.2305H94.6052Z" fill="#027FFF"/>
</g>
<defs>
<clipPath id="clip0_2885_176">
<rect width="100" height="40" fill="white"/>
</clipPath>
</defs>
</svg>
