<svg width="100" height="30" viewBox="0 0 100 30" fill="none" xmlns="http://www.w3.org/2000/svg">
<path d="M0.683014 6.53516C0.785985 6.53587 0.785985 6.53587 0.891036 6.53661C0.963354 6.53644 1.03567 6.53628 1.11018 6.53612C1.35072 6.5358 1.59125 6.53672 1.83179 6.53767C1.99971 6.53777 2.16763 6.53781 2.33555 6.53779C2.68894 6.53792 3.04231 6.53863 3.39569 6.53977C3.84441 6.5412 4.29312 6.54154 4.74185 6.54147C5.08964 6.5415 5.43744 6.54197 5.78523 6.54258C5.95035 6.54285 6.11546 6.54302 6.28058 6.54308C7.08503 6.54373 7.88772 6.55143 8.69116 6.59445C8.75113 6.5976 8.81109 6.60075 8.87287 6.604C10.8494 6.72286 12.5668 7.38305 14.0735 8.68629C14.1153 8.72189 14.1571 8.75748 14.2001 8.79416C15.2237 9.67173 15.7661 10.5594 16.2531 11.8103C16.2909 11.9072 16.2909 11.9072 16.3295 12.006C16.3729 12.1779 16.3729 12.1779 16.2877 12.4333C15.8827 12.365 15.532 12.1358 15.1795 11.9349C13.9327 11.275 12.543 11.2749 11.1698 11.2744C10.9847 11.2731 10.7997 11.2717 10.6147 11.2701C10.1326 11.2664 9.65065 11.2647 9.16863 11.2634C8.67476 11.2617 8.1809 11.2581 7.68704 11.2547C6.72173 11.2484 5.75643 11.2442 4.7911 11.2411C4.7911 11.8032 4.7911 12.3652 4.7911 12.9443C4.91209 12.9435 5.03308 12.9428 5.15774 12.942C6.29918 12.9351 7.44063 12.93 8.58209 12.9266C9.1689 12.9249 9.75569 12.9225 10.3425 12.9186C10.909 12.9148 11.4755 12.9129 12.0421 12.912C12.258 12.9113 12.4739 12.9101 12.6898 12.9083C12.9927 12.9058 13.2956 12.9055 13.5985 12.9056C13.6873 12.9044 13.7761 12.9032 13.8676 12.9019C14.5415 12.9057 15.0154 13.0791 15.5851 13.4286C16.2049 14.0656 16.3973 14.8444 16.4041 15.7061C16.4053 15.7853 16.4066 15.8646 16.4079 15.9463C16.4118 16.2073 16.4145 16.4682 16.4171 16.7293C16.4194 16.911 16.4216 17.0928 16.4239 17.2745C16.4286 17.6549 16.4326 18.0353 16.4361 18.4157C16.4408 18.9035 16.4474 19.3913 16.4545 19.879C16.4597 20.2541 16.4637 20.6292 16.4674 21.0042C16.4694 21.1841 16.4717 21.364 16.4745 21.5439C16.4782 21.795 16.4803 22.0461 16.4819 22.2973C16.4834 22.3717 16.4848 22.4461 16.4863 22.5228C16.4868 22.8067 16.4771 23.0285 16.375 23.2949C16.0952 23.4962 15.7945 23.4648 15.463 23.4604C15.3874 23.4607 15.3117 23.461 15.2338 23.4613C14.9826 23.462 14.7315 23.4601 14.4804 23.4582C14.3049 23.458 14.1295 23.458 13.9541 23.458C13.5852 23.4577 13.2163 23.4563 12.8474 23.454C12.3787 23.4512 11.91 23.4505 11.4413 23.4506C11.0781 23.4506 10.7149 23.4496 10.3517 23.4484C10.1792 23.4479 10.0067 23.4475 9.83427 23.4474C7.04788 23.4431 4.70752 22.987 2.49178 21.2048C2.42734 21.1538 2.3629 21.1027 2.29651 21.0501C1.31229 20.2349 0.423793 19.0192 0.0221372 17.7984C0.0221372 17.7141 0.0221372 17.6298 0.0221372 17.5429C0.483182 17.6028 0.869888 17.8261 1.27459 18.0414C2.54673 18.6751 3.90175 18.7014 5.29175 18.7019C5.47488 18.7032 5.65802 18.7046 5.84115 18.7062C6.31812 18.7099 6.79507 18.7116 7.27205 18.7129C7.76079 18.7146 8.24951 18.7181 8.73823 18.7215C9.69345 18.7279 10.6487 18.732 11.6039 18.7352C11.6039 18.1731 11.6039 17.6111 11.6039 17.032C11.4838 17.0325 11.3637 17.0331 11.2399 17.0337C10.1072 17.0389 8.97452 17.0427 7.84181 17.0452C7.25949 17.0465 6.67718 17.0483 6.09486 17.0513C5.53276 17.0541 4.97066 17.0556 4.40854 17.0562C4.19423 17.0567 3.97992 17.0576 3.76562 17.059C3.46513 17.0608 3.16468 17.0611 2.86419 17.061C2.73169 17.0624 2.73169 17.0624 2.59652 17.0638C1.77097 17.0603 1.2249 16.8517 0.616927 16.2815C0.0552016 15.6623 0.00935699 14.9849 0.00976658 14.1842C0.00948056 14.1039 0.00919455 14.0235 0.00889986 13.9407C0.00809227 13.6757 0.00792466 13.4106 0.00783302 13.1456C0.0075594 12.9614 0.00727292 12.7772 0.00697409 12.593C0.00646452 12.2074 0.00630639 11.8217 0.00635686 11.4361C0.00636554 10.9409 0.00520003 10.4458 0.00373629 9.95066C0.00279185 9.57055 0.00261661 9.19045 0.00266174 8.81035C0.00256097 8.62771 0.00218274 8.44506 0.00152635 8.26242C0.000696409 8.00777 0.000934995 7.75314 0.00145017 7.49848C0.000971617 7.42252 0.000493059 7.34656 0 7.2683C0.00311243 6.666 0.0704052 6.53866 0.683014 6.53516Z" fill="url(#paint0_linear_1789_22578)"/>
<path d="M28.9018 10.895C29.535 11.3667 29.8162 11.9731 29.977 12.7366C30.0026 13.0889 30.024 13.4429 29.9983 13.7958C29.9131 13.8809 29.9131 13.8809 29.6067 13.8892C29.48 13.8887 29.3532 13.8877 29.2265 13.8863C29.1296 13.8857 29.1296 13.8857 29.0307 13.8851C28.8707 13.8841 28.7106 13.8826 28.5505 13.8809C28.537 13.7946 28.5235 13.7084 28.5096 13.6195C28.3876 12.7544 28.3876 12.7544 27.8693 12.0926C27.2894 11.8199 26.7176 11.7955 26.0862 11.7998C25.9993 11.7981 25.9125 11.7964 25.8229 11.7947C25.2388 11.795 24.7144 11.8695 24.2074 12.1777C24.0009 12.4053 23.9547 12.4994 23.9093 12.8111C23.9505 13.1044 23.9887 13.2514 24.2147 13.4458C24.9431 13.8683 25.8993 13.9815 26.7143 14.1471C26.9218 14.1896 27.1293 14.2324 27.3367 14.2755C27.4269 14.2938 27.517 14.3122 27.6099 14.3311C27.8734 14.3929 28.1249 14.4727 28.3802 14.5622C28.3802 14.6184 28.3802 14.6746 28.3802 14.7325C28.4505 14.736 28.5207 14.7396 28.5931 14.7432C29.1671 14.8867 29.5985 15.2826 29.9161 15.7744C30.2444 16.3753 30.2802 17.1273 30.1041 17.783C29.7719 18.6592 29.2441 19.0529 28.4058 19.4363C27.7 19.7275 27.0851 19.7747 26.3257 19.7783C26.234 19.78 26.1422 19.7818 26.0476 19.7836C24.8884 19.7892 23.9573 19.4229 22.9832 18.8096C22.3342 18.0988 22.1465 17.2976 22.1582 16.3612C22.16 16.161 22.1617 15.9608 22.1635 15.7544C22.6413 15.7544 23.119 15.7544 23.6113 15.7544C23.6751 16.4038 23.6751 16.4038 23.6927 16.6053C23.7397 17.0239 23.8443 17.2974 24.1222 17.628C24.322 17.7731 24.322 17.7731 24.5427 17.8675C24.6137 17.9014 24.6848 17.9353 24.7579 17.9703C25.2546 18.1624 25.7409 18.1573 26.2672 18.1602C26.3434 18.162 26.4197 18.1637 26.4982 18.1655C27.1547 18.1693 27.8172 18.0895 28.343 17.6652C28.5919 17.4163 28.6282 17.3541 28.6676 17.0052C28.6268 16.604 28.5149 16.5201 28.2099 16.2654C27.9529 16.1526 27.9529 16.1526 27.6687 16.0871C27.5635 16.0598 27.4583 16.0324 27.3499 16.0043C27.2392 15.9775 27.1285 15.951 27.0177 15.9248C26.8573 15.8867 26.8573 15.8867 26.6938 15.8479C26.3119 15.7598 25.9296 15.6738 25.5467 15.5903C24.4597 15.3523 23.3143 15.0465 22.6745 14.0512C22.3238 13.3749 22.2835 12.5712 22.4909 11.8388C22.7622 11.2328 23.1626 10.8866 23.7663 10.6266C25.325 10.0426 27.4552 10.0007 28.9018 10.895Z" fill="white"/>
<path d="M66.1065 13.1145C66.1531 13.0796 66.1998 13.0447 66.2479 13.0087C67.0382 12.4715 67.8867 12.3689 68.8263 12.4811C69.5673 12.6253 70.0001 12.9661 70.4969 13.5183C70.78 13.9606 70.8132 14.4474 70.8255 14.9607C70.8272 15.0223 70.8289 15.0838 70.8306 15.1471C70.8357 15.346 70.8396 15.5449 70.8435 15.7438C70.8467 15.8811 70.8499 16.0184 70.8531 16.1558C70.8715 16.9764 70.8835 17.7971 70.8861 18.618C70.8865 18.7061 70.8869 18.7942 70.8873 18.885C70.8871 18.9649 70.8869 19.0447 70.8867 19.1269C70.8867 19.1957 70.8866 19.2645 70.8865 19.3354C70.8754 19.5015 70.8754 19.5015 70.7903 19.6718C70.3125 19.6718 69.8348 19.6718 69.3426 19.6718C69.3413 19.5279 69.3401 19.384 69.3388 19.2357C69.3344 18.7584 69.3288 18.2812 69.3225 17.804C69.3187 17.5149 69.3153 17.2257 69.3131 16.9366C69.3104 16.6036 69.3057 16.2707 69.301 15.9378C69.3004 15.8347 69.2999 15.7315 69.2993 15.6253C69.2901 15.0955 69.2675 14.6859 69.0019 14.2216C68.6271 13.9311 68.0872 14.0044 67.6394 14.0513C67.3115 14.1521 67.1026 14.3076 66.9026 14.5917C66.7311 15.0563 66.7468 15.5044 66.7442 15.996C66.7419 16.1537 66.7419 16.1537 66.7395 16.3145C66.7349 16.6494 66.7321 16.9843 66.7292 17.3193C66.7265 17.5467 66.7234 17.7741 66.7204 18.0016C66.7132 18.5583 66.7075 19.115 66.7026 19.6718C66.1967 19.6718 65.6909 19.6718 65.1697 19.6718C65.1685 19.5249 65.1672 19.3779 65.166 19.2265C65.1615 18.7398 65.156 18.253 65.1496 17.7663C65.1458 17.4713 65.1425 17.1764 65.1402 16.8814C65.1376 16.5419 65.1329 16.2024 65.1281 15.8629C65.1276 15.7575 65.127 15.6521 65.1265 15.5435C65.1207 14.8408 65.1207 14.8408 64.8291 14.2216C64.4592 13.9508 63.9881 14.0126 63.5517 14.0513C63.2538 14.1379 63.1066 14.2046 62.9376 14.4664C62.7318 14.8635 62.6039 15.2099 62.6066 15.6607C62.607 15.7877 62.607 15.7877 62.6074 15.9173C62.6082 16.0086 62.6089 16.0998 62.6096 16.1939C62.6099 16.2876 62.6102 16.3814 62.6106 16.478C62.6116 16.7779 62.6132 17.0779 62.6149 17.3778C62.6172 17.7727 62.6189 18.1675 62.6202 18.5624C62.6209 18.6539 62.6216 18.7453 62.6224 18.8396C62.6228 18.9662 62.6228 18.9662 62.6232 19.0953C62.6239 19.2071 62.6239 19.2071 62.6246 19.3211C62.6149 19.5015 62.6149 19.5015 62.5298 19.6718C62.052 19.6718 61.5743 19.6718 61.082 19.6718C61.082 17.3393 61.082 15.0068 61.082 12.6035C61.5598 12.6035 62.0375 12.6035 62.5298 12.6035C62.5579 12.6597 62.586 12.7159 62.6149 12.7739C62.7115 12.7335 62.8081 12.6931 62.9076 12.6514C64.0234 12.2418 65.1328 12.4654 66.1065 13.1145Z" fill="white"/>
<path d="M37.8704 13.2157C38.6316 13.9537 38.8484 14.8205 38.8792 15.8529C38.894 16.9861 38.7017 17.8934 37.921 18.7485C37.1865 19.4617 36.2582 19.7881 35.2414 19.7761C34.6054 19.7209 34.0583 19.5303 33.49 19.2461C33.4619 20.0049 33.4338 20.7637 33.4048 21.5455C32.9271 21.5455 32.4493 21.5455 31.9571 21.5455C31.944 20.3811 31.9314 19.2167 31.9194 18.0523C31.9138 17.5117 31.908 16.971 31.9019 16.4304C31.896 15.9092 31.8905 15.3879 31.8853 14.8667C31.8833 14.6673 31.8811 14.468 31.8787 14.2686C31.8754 13.9905 31.8727 13.7123 31.8701 13.4342C31.869 13.3508 31.8679 13.2675 31.8668 13.1817C31.8662 13.1064 31.8656 13.031 31.8649 12.9534C31.8642 12.8875 31.8635 12.8216 31.8628 12.7538C31.8719 12.6037 31.8719 12.6037 31.9571 12.5185C32.2009 12.5123 32.4426 12.5106 32.6863 12.5132C32.7549 12.5136 32.8236 12.5139 32.8944 12.5143C33.0645 12.5153 33.2347 12.5169 33.4048 12.5185C33.4329 12.6309 33.461 12.7433 33.49 12.8591C33.5813 12.8064 33.6727 12.7538 33.7668 12.6995C35.0996 12.0424 36.7448 12.2763 37.8704 13.2157ZM33.8602 14.4629C33.3891 15.1552 33.3169 15.9356 33.4687 16.7446C33.614 17.332 33.9356 17.7072 34.4267 18.0539C35.0609 18.3052 35.6922 18.3145 36.3189 18.0459C36.8222 17.7899 37.1054 17.4166 37.2876 16.8843C37.4422 16.0221 37.3833 15.1635 36.923 14.4133C36.4799 13.9822 36.0778 13.8574 35.4593 13.8332C34.8288 13.8541 34.2948 13.981 33.8602 14.4629Z" fill="white"/>
<path d="M78.5395 13.03C79.2311 13.6547 79.6428 14.4893 79.7317 15.4144C79.7438 15.8123 79.742 16.2087 79.7317 16.6067C79.4978 16.7236 79.3113 16.702 79.0496 16.7015C78.9422 16.7015 78.8348 16.7015 78.7241 16.7015C78.6064 16.701 78.4888 16.7006 78.3711 16.7002C78.2511 16.7 78.1311 16.6999 78.011 16.6998C77.6949 16.6995 77.3788 16.6986 77.0626 16.6977C76.7401 16.6968 76.4176 16.6964 76.0951 16.696C75.4622 16.6951 74.8292 16.6936 74.1963 16.6918C74.2497 16.8155 74.3034 16.939 74.3573 17.0624C74.3872 17.1312 74.4171 17.2 74.4479 17.2709C74.6223 17.638 74.8154 17.7678 75.1756 17.9479C75.8262 18.1684 76.5472 18.1268 77.1849 17.8831C77.5315 17.7034 77.7312 17.4358 77.9433 17.1176C78.1034 17.0886 78.1034 17.0886 78.2953 17.0927C78.3639 17.0935 78.4325 17.0943 78.5032 17.0952C78.5749 17.0973 78.6466 17.0995 78.7204 17.1017C78.8289 17.1034 78.8289 17.1034 78.9397 17.1052C79.1185 17.1082 79.2974 17.1128 79.4762 17.1176C79.3774 17.9241 79.099 18.4832 78.4543 18.9912C77.395 19.6789 76.3489 19.7923 75.1194 19.6388C74.345 19.4661 73.6755 19.0043 73.217 18.3578C72.5752 17.2832 72.5158 15.9945 72.8018 14.797C73.0353 13.8982 73.4831 13.2496 74.2735 12.7588C75.5721 12.0554 77.343 12.1598 78.5395 13.03ZM74.4518 14.5628C74.3166 14.791 74.2815 14.8879 74.2815 15.159C75.518 15.159 76.7545 15.159 78.0285 15.159C77.8458 14.5194 77.7106 14.315 77.1769 13.9667C76.247 13.5679 75.1129 13.7947 74.4518 14.5628Z" fill="white"/>
<path d="M94.8903 12.6887C94.9325 12.7309 94.9325 12.7309 94.9755 12.7739C95.0036 12.6333 95.0317 12.4928 95.0606 12.3481C95.5665 12.3481 96.0723 12.3481 96.5935 12.3481C96.5935 14.7649 96.5935 17.1817 96.5935 19.6718C96.0877 19.6718 95.5818 19.6718 95.0606 19.6718C95.0325 19.5032 95.0044 19.3346 94.9755 19.1609C94.9189 19.1906 94.8624 19.2204 94.8042 19.251C94.729 19.2898 94.6538 19.3285 94.5763 19.3684C94.5022 19.407 94.4281 19.4455 94.3517 19.4852C93.6019 19.8191 92.5399 19.7839 91.7737 19.5098C90.847 19.0864 90.2039 18.5358 89.8339 17.5748C89.4688 16.4465 89.5014 15.1759 89.9627 14.0759C90.3691 13.3041 91.0459 12.7405 91.8671 12.4439C92.8803 12.1807 93.932 12.291 94.8903 12.6887ZM91.5691 14.4771C91.0963 15.16 91.0621 15.8831 91.1433 16.6912C91.3117 17.2508 91.5891 17.6544 92.08 17.9686C92.7077 18.2173 93.3446 18.2321 93.9665 17.9663C94.4994 17.6858 94.8443 17.2758 95.0257 16.7029C95.1775 15.9121 95.0759 15.0922 94.6561 14.4025C94.1331 13.9086 93.5793 13.7669 92.8754 13.7775C92.3154 13.8289 91.9301 14.0439 91.5691 14.4771Z" fill="white"/>
<path d="M57.7873 12.9179C58.5299 13.5444 58.9984 14.2038 59.2084 15.1587C59.3019 16.395 59.2539 17.4886 58.442 18.4799C57.777 19.2059 56.9077 19.6329 55.9284 19.6895C54.7391 19.7044 53.8206 19.4449 52.9225 18.6343C52.228 17.889 52.0084 16.8101 52.0337 15.8174C52.1332 14.7282 52.4247 13.8542 53.2272 13.0969C54.4656 12.1053 56.479 12.0042 57.7873 12.9179ZM53.9717 14.3986C53.5549 14.931 53.425 15.6058 53.5027 16.2658C53.5898 16.9045 53.7843 17.3189 54.2532 17.7774C54.8289 18.1838 55.4582 18.2082 56.1426 18.1393C56.6856 18.0121 57.0588 17.7985 57.4067 17.3626C57.7716 16.7697 57.8321 16.0274 57.7075 15.3503C57.5559 14.7998 57.3054 14.374 56.8239 14.0569C55.9309 13.5623 54.7226 13.6948 53.9717 14.3986Z" fill="white"/>
<path d="M84.7831 12.4758C84.9006 12.4764 84.9006 12.4764 85.0204 12.4771C85.8502 12.4983 86.5781 12.7275 87.1922 13.3071C87.6183 13.8368 87.7435 14.4747 87.7559 15.1386C87.7579 15.2352 87.7598 15.3318 87.7619 15.4313C87.7636 15.5348 87.7652 15.6382 87.767 15.7448C87.769 15.8515 87.7709 15.9582 87.773 16.0682C87.777 16.2935 87.7809 16.5187 87.7845 16.744C87.7892 17.033 87.7947 17.3219 87.8003 17.6108C87.8056 17.8865 87.8102 18.1623 87.8149 18.438C87.8169 18.5419 87.819 18.6459 87.8211 18.753C87.8225 18.8488 87.8239 18.9446 87.8254 19.0433C87.8269 19.1279 87.8283 19.2124 87.8298 19.2996C87.8222 19.5015 87.8222 19.5015 87.737 19.6718C87.4975 19.6741 87.258 19.6758 87.0185 19.6771C86.916 19.6782 86.916 19.6782 86.8114 19.6793C86.6374 19.68 86.4633 19.6762 86.2893 19.6718C86.1438 19.5263 86.192 19.337 86.1907 19.1381C86.1899 19.0423 86.189 18.9465 86.1881 18.8478C86.1875 18.7434 86.1868 18.639 86.1862 18.5314C86.1838 18.3124 86.1814 18.0934 86.1789 17.8744C86.1753 17.5276 86.1721 17.1807 86.17 16.8339C86.1679 16.5002 86.1637 16.1666 86.1596 15.8329C86.1593 15.7292 86.159 15.6255 86.1587 15.5186C86.1573 15.4218 86.1559 15.3249 86.1545 15.2251C86.1534 15.0975 86.1534 15.0975 86.1524 14.9674C86.1001 14.5993 85.9545 14.3761 85.6613 14.1524C85.0905 13.9654 84.4278 13.9415 83.8623 14.1683C83.4607 14.424 83.2951 14.8054 83.1384 15.2435C83.0812 15.5952 83.0769 15.9395 83.0782 16.2953C83.0769 16.3924 83.0756 16.4895 83.0743 16.5895C83.0707 16.8967 83.0699 17.2037 83.0692 17.5109C83.0672 17.7203 83.0651 17.9298 83.0627 18.1392C83.0574 18.6501 83.0546 19.1609 83.0532 19.6718C82.5474 19.6718 82.0415 19.6718 81.5204 19.6718C81.5184 18.7628 81.5169 17.8538 81.5159 16.9447C81.5155 16.5227 81.5149 16.1006 81.5139 15.6786C81.513 15.2717 81.5125 14.8647 81.5123 14.4578C81.5121 14.3021 81.5118 14.1465 81.5114 13.9909C81.5107 13.7737 81.5107 13.5565 81.5107 13.3394C81.5104 13.2744 81.5101 13.2094 81.5098 13.1424C81.5106 12.6984 81.5106 12.6984 81.6055 12.6035C81.8319 12.5927 82.0551 12.5877 82.2815 12.5875C82.3762 12.586 82.3762 12.586 82.4729 12.5844C82.6381 12.5839 82.8032 12.5931 82.9681 12.6035C83.0243 12.6597 83.0805 12.7159 83.1384 12.7738C83.1835 12.7559 83.2287 12.7379 83.2752 12.7194C83.7857 12.531 84.2407 12.4719 84.7831 12.4758Z" fill="white"/>
<path d="M47.3602 12.5564C47.4831 12.5576 47.4831 12.5576 47.6086 12.5589C48.4548 12.5836 49.1816 12.8061 49.8066 13.399C50.264 13.9446 50.3626 14.5473 50.3611 15.2447C50.3611 15.393 50.3611 15.393 50.3611 15.5443C50.3607 15.6497 50.3602 15.7551 50.3598 15.8637C50.3596 15.9726 50.3595 16.0815 50.3594 16.1937C50.359 16.4818 50.3582 16.77 50.3573 17.0581C50.3564 17.3526 50.356 17.6472 50.3556 17.9418C50.3547 18.5187 50.3532 19.0957 50.3514 19.6726C49.8456 19.6726 49.3397 19.6726 48.8186 19.6726C48.8173 19.5282 48.8161 19.3839 48.8148 19.2351C48.8104 18.7569 48.8048 18.2786 48.7985 17.8004C48.7947 17.5106 48.7913 17.2208 48.7891 16.9309C48.7864 16.5973 48.7818 16.2638 48.777 15.9302C48.7764 15.8267 48.7759 15.7231 48.7753 15.6165C48.7686 14.925 48.7686 14.925 48.4779 14.3075C48.0208 13.9902 47.4569 14.0385 46.9277 14.0846C46.6646 14.1427 46.4895 14.2487 46.2638 14.3927C46.2076 14.3927 46.1514 14.3927 46.0934 14.3927C46.0689 14.4542 46.0443 14.5156 46.0189 14.579C45.9605 14.7251 45.8998 14.8703 45.8353 15.0139C45.5076 15.9291 45.6598 17.1178 45.6676 18.0812C45.6699 18.3647 45.6716 18.6482 45.673 18.9318C45.6737 18.9965 45.6744 19.0613 45.6751 19.128C45.6758 19.2811 45.6722 19.4343 45.6676 19.5874C45.6395 19.6156 45.6114 19.6437 45.5825 19.6726C45.1047 19.6726 44.627 19.6726 44.1348 19.6726C44.1348 17.3682 44.1348 15.0637 44.1348 12.6895C44.6125 12.6895 45.0903 12.6895 45.5825 12.6895C45.5825 12.7738 45.5825 12.8581 45.5825 12.945C45.6332 12.9209 45.6839 12.8969 45.7362 12.8721C46.2901 12.6278 46.7573 12.5468 47.3602 12.5564Z" fill="white"/>
<path d="M98.552 10.3047C99.0298 10.3047 99.5075 10.3047 99.9998 10.3047C99.9998 13.396 99.9998 16.4873 99.9998 19.6723C99.522 19.6723 99.0443 19.6723 98.552 19.6723C98.5407 18.8895 98.5296 18.1068 98.5187 17.324C98.5137 16.9602 98.5086 16.5964 98.5033 16.2325C98.4819 14.7636 98.4627 13.2947 98.4594 11.8256C98.4591 11.6973 98.4586 11.5689 98.458 11.4405C98.4573 11.2647 98.4571 11.0888 98.4571 10.9129C98.4569 10.8135 98.4567 10.7141 98.4565 10.6118C98.4669 10.3898 98.4669 10.3898 98.552 10.3047Z" fill="white"/>
<path d="M40.814 12.6895C41.2917 12.6895 41.7695 12.6895 42.2617 12.6895C42.2935 14.1087 42.3221 15.528 42.3468 16.9475C42.3483 17.0258 42.3497 17.1042 42.3511 17.1849C42.359 17.6309 42.3644 18.0769 42.3681 18.5229C42.3699 18.6307 42.3718 18.7385 42.3736 18.8496C42.374 18.9464 42.3744 19.0432 42.3748 19.143C42.376 19.2669 42.376 19.2669 42.3772 19.3933C42.3622 19.4894 42.3622 19.4894 42.3468 19.5874C42.0406 19.7916 41.8954 19.7782 41.5325 19.7737C41.434 19.7732 41.3356 19.7726 41.2341 19.772C40.9843 19.7577 40.9843 19.7577 40.814 19.6726C40.814 17.3681 40.814 15.0637 40.814 12.6895Z" fill="white"/>
<path d="M41.6509 9.25684C41.9527 9.3346 42.0745 9.48569 42.2613 9.73021C42.3021 9.97971 42.3176 10.1697 42.3092 10.4168C42.3101 10.477 42.3111 10.5372 42.312 10.5993C42.3079 10.8925 42.2837 11.063 42.1059 11.2997C41.8375 11.4934 41.6547 11.5243 41.3245 11.5186C41.0238 11.3541 40.8384 11.1674 40.7284 10.8373C40.6507 9.87198 40.6507 9.87198 40.9839 9.47473C41.1992 9.25945 41.3562 9.2745 41.6509 9.25684Z" fill="white"/>
<defs>
<linearGradient id="paint0_linear_1789_22578" x1="-3.83852e-08" y1="14.9999" x2="16.4863" y2="14.9999" gradientUnits="userSpaceOnUse">
<stop stop-color="#36DFFE"/>
<stop offset="0.5" stop-color="#8157FF"/>
<stop offset="1" stop-color="#E55BFA"/>
</linearGradient>
</defs>
</svg>
